<?xml version="1.0" encoding="utf-8"?>
<!-- Generator: Adobe Illustrator 16.0.0, SVG Export Plug-In . SVG Version: 6.00 Build 0)  -->
<!DOCTYPE svg PUBLIC "-//W3C//DTD SVG 1.1//EN" "http://www.w3.org/Graphics/SVG/1.1/DTD/svg11.dtd">
<svg version="1.1" id="레이어_1" xmlns="http://www.w3.org/2000/svg" xmlns:xlink="http://www.w3.org/1999/xlink" x="0px"
	 y="0px" width="317.241px" height="314.482px" viewBox="0 0 317.241 314.482" enable-background="new 0 0 317.241 314.482"
	 xml:space="preserve">
<g>
	<path fill-rule="evenodd" clip-rule="evenodd" fill="#448ECC" d="M280.896,99.846c-0.33-0.309-0.66-0.618-0.99-0.926
		c-0.896-0.963-1.681-2.065-2.701-2.868c-29.181-22.97-61.35-40.303-96.889-51.256c-7.16-2.207-14.277-4.643-21.956-2.425
		c-11.18,3.229-22.383,6.338-33.298,10.445C98.634,62.758,73.637,75.41,50.434,91.543c-7.175,4.213-14.456,8.292-19.553,15.182
		c-2.263,2.349-3.301,5.326-4.157,8.359c-1.919,6.794-1.58,13.808-1.885,20.757c-0.786,0.763-1.019,1.704-0.89,2.762
		c0,0-0.076,0.298-0.076,0.294c-2.242,14.126-0.084,27.935,3.013,41.676c0.209,1.756,1.004,3.335,1.327,5.115
		c2.017,11.106,6.472,21.187,14.919,28.946c7.671,7.047,16.167,13.105,24.408,19.478c10.083,7.796,20.421,15.083,31.423,21.468
		c0.109,0.209,0.276,0.281,0.502,0.221l0.07,0.27l0.265-0.049c0.28,0.221,0.56,0.441,0.84,0.663
		c0.578,1.597,1.754,2.491,3.368,2.872c3.765,2.393,7.529,4.784,11.293,7.176c1.515,1.773,3.473,2.691,5.757,2.98
		c0,0-0.062-0.043-0.061-0.044c2.092,2.606,4.817,4.19,8.034,4.983c5.865,2.738,33.884,4.58,39.927,2.621
		c0.632-0.205,1.29-0.361,1.879-0.654c4-1.996,7.984-4.022,11.974-6.039c0.381-0.275,0.762-0.551,1.143-0.826l-0.058,0.014
		c3.607-0.014,5.368-2.475,7.076-5.16c1.248-1.963,0.336-4.611,2.203-6.307c0.891,0.738,1.795,1.461,2.67,2.22
		c10.411,9.035,21.204,13.524,36.135,3.816c4.178-2.716,7.987-5.999,11.965-9.021c0.296-0.046,0.439-0.218,0.431-0.517
		c0.855-0.83,1.711-1.66,2.565-2.49c0.291-0.033,0.417-0.191,0.378-0.475c0.223-0.248,0.445-0.496,0.668-0.744l0.248-0.013
		l0.016-0.251c0.87-1.115,1.74-2.229,2.61-3.344c0.969-0.684,1.741-1.518,2.069-2.693c0.334-0.467,0.667-0.933,1.001-1.398
		c0.347-0.05,0.532-0.25,0.555-0.599c0.275-0.197,0.477-0.452,0.604-0.767l-0.087,0.143c0.65-1.145,1.3-2.288,1.949-3.432
		c0.223-0.324,0.446-0.648,0.669-0.973c0.225-0.111,0.316-0.291,0.273-0.538l0.225-0.064l-0.134-0.132
		c0.308-0.615,0.614-1.229,0.921-1.845l0.054-0.111c0.647-1.195,1.294-2.391,1.94-3.586l0.304-0.198l-0.063-0.349
		c0.253-0.522,0.506-1.045,0.759-1.567l0.275-0.133l-0.067-0.289c0.258-0.537,0.516-1.076,0.773-1.613l0.199-0.111l-0.139-0.092
		c0.636-1.556,1.271-3.112,1.907-4.668c0.295-0.894,0.591-1.787,0.886-2.68c0.318-0.787,0.051-1.855,1.102-2.291
		c13.024-9.021,24.68-18.987,25.197-36.617c2.286-7.363,3.299-14.891,2.877-22.6c0.05-4.467,0.104-8.933,0.151-13.4
		c0.144-13.464-0.738-26.687-8.968-38.184c-0.93-2.319-2.477-4.177-4.334-5.803C281.473,100.543,281.185,100.194,280.896,99.846z"/>
	<path fill-rule="evenodd" clip-rule="evenodd" fill="#F1EDE3" d="M30.881,106.725c5.097-6.89,12.378-10.969,19.547-15.177
		c4.838,1.736,9.683,3.467,14.527,5.199c14.552,6.956,28.959,14.178,42.917,22.289c19.431,11.289,37.755,24.222,56.02,37.254
		c5.128,5.248,10.03,10.668,13.229,17.383c1.039,1.734,2.08,3.47,3.119,5.205c5.504,13.826,5.328,28.393,5.59,42.902
		c-2.953,0.518-2.846,2.782-2.864,4.993c-0.056,6.88-2.792,12.872-6.11,18.7c-2.119,3.725-4.611,4.064-8.202,1.824
		c-4.759-2.969-9.101-6.657-14.539-8.529c-1.909-0.656-3.347-2.266-4.167-4.129c-2.6-5.908-5.354-11.702-6.134-18.313
		c-0.572-4.839-1.722-9.907-7.585-11.553c-1.582-1.53-2.131-3.923-4.21-5.038c-0.55-1.428-1.49-2.488-2.911-3.096
		c-1.083-2.031-3.167-2.857-4.944-4.016c-14.048-9.154-28.015-18.439-42.222-27.342c-13.482-8.448-26.873-17.068-40.928-24.57
		l0.03,0.019c-0.683-1.202-1.918-1.431-3.096-1.762c-1.241-1.343-2.76-2.154-4.578-2.393c-1.945-1.601-3.523,0.088-5.235,0.584
		c0.144-5.722,2.114-7.043,7.484-5.356c5.28,1.658,8.954,5.534,13.146,8.79c10.664,8.281,22.908,14.118,34.109,21.593
		c8.564,5.716,17.306,11.175,26.123,16.494c1.745,1.052,4.795,3.305,6.061,1.049c1.13-2.014-2.526-2.752-4.129-4.014
		c-4.013-3.156-9.244-4.713-12.688-8.915c1.683-1.278,2.695-0.429,3.725-0.005c7.665,3.164,15.311,6.373,22.991,9.496
		c1.418,0.577,3.162,2.393,4.433,0.547c1.2-1.744-0.784-3.08-1.994-4.045c-5.444-4.342-10.584-9.047-16.585-12.723
		c-3.333-2.043-7.282-3.631-9.621-7.181c1.607-1.383,2.72-0.717,3.64-0.101c4.058,2.722,8.888,3.714,13.151,5.969
		c1.105,0.585,2.565,1.636,3.496,0.005c0.824-1.443-0.483-2.471-1.522-3.295c-1.04-0.826-2.167-1.55-3.298-2.248
		c-11.599-7.166-23.031-14.628-34.888-21.336c-5.743-3.249-11.118-7.903-17.758-8.824c-5.378-0.746-9.735-2.77-14.124-5.614
		C43.783,113.49,38.212,108.521,30.881,106.725z"/>
	<path fill-rule="evenodd" clip-rule="evenodd" fill="#F5C237" d="M286.096,106.695c8.229,11.497,9.111,24.72,8.968,38.184
		c-0.048,4.467-0.102,8.933-0.152,13.402c-0.652,0.779-1.305,1.557-1.958,2.333c-5.369,4.147-10.902,8.102-16.047,12.511
		c-3.195,2.74-5.554,3.198-8.9,0.16c-3.985-3.617-8.974-4.59-14.399-3.787c-6.779,1.002-12.967,3.338-18.757,6.974
		c-5.315,3.337-9.845,7.491-13.768,12.351c-3.872,0.148-5.91,2.148-6.083,6.03l0.034-0.038c-3.289,0.568-4.94,3.23-6.74,5.536
		c-3.565,4.569-6.702,9.488-10.428,13.916c-3.272,3.888-5.364,3.313-7.011-1.323c-2.375-6.689-1.963-13.738-2.415-20.633
		c-0.394-6,1.731-11.334,6.701-15.281c2.213-1.756,2.949-4.35,2.921-7.143c3.417-0.516,6.369-1.743,7.892-5.158l0.311-0.116
		l0.332,0.02c1.341,0.083,2.167-0.487,2.358-1.86c0.013-0.291,0.044-0.58,0.095-0.867c0.695-0.025,1.393-0.05,2.089-0.074
		c1.393-0.014,2.585-0.332,2.934-1.933c1.373-0.114,2.648-0.372,2.98-2.022c1.39-0.082,2.643-0.369,3.001-2
		c2.124-0.242,4.24-0.496,4.967-3.03c0.956-0.235,2.122-0.199,2.836-0.749c5.377-4.142,11.46-7.358,15.99-12.624
		c3.59-4.173,7.696-7.818,12.848-10.07c1.09-0.477,2.047-1.134,2.279-2.441c0.315-0.11,0.64-0.176,0.973-0.199
		c1.428,0.031,2.724-0.144,3.007-1.912c3.916-2.369,8.747-3.454,11.15-7.947c0.274-0.059,0.548-0.124,0.82-0.193
		c6.48-1.451,9.857-5.145,9.001-9.843C284.579,105.934,285.367,106.7,286.096,106.695z"/>
	<path fill-rule="evenodd" clip-rule="evenodd" fill="#F5B747" d="M64.955,96.747c-4.844-1.731-9.688-3.463-14.527-5.199
		c23.208-16.138,48.206-28.79,74.633-38.733c10.915-4.107,22.119-7.216,33.298-10.445c7.679-2.218,14.796,0.218,21.956,2.425
		c35.539,10.954,67.708,28.287,96.889,51.256c1.021,0.803,1.806,1.905,2.701,2.868c0,0-0.075,0.083-0.075,0.083
		c-1.542-0.57-3.232-0.9-4.604-1.747c-9.437-5.828-18.639-12.058-28.757-16.701c-6.161-2.828-12.83-4.546-18.556-8.319
		c-4.974-3.277-10.36-3.465-15.961-2.463c-5.005-1.304-9.382-3.996-13.927-6.316c-4.08-2.083-7.979-3.26-12.71-1.146
		c-3.157,1.411-5.77,3.981-9.343,4.463c-0.123-2.069,1.751-4.598-1.686-5.866c-2.598-0.958-4.83-1.831-7.299,0.532
		c-2.081,1.993-4.51,3.438-7.24,0.353c-1.637-1.849-3.814-0.531-4.724,0.837c-2.803,4.216-7.05,6.341-11.066,8.996
		c-2.824,1.866-4.917,2.494-8.137,0.938c-3.197-1.545-6.636-1.44-9.641,1.423c-4.088,3.896-9.09,4.125-14.143,0.957
		c-1.555-0.976-3.006-0.926-4.731-0.504c-5.49,1.341-10.065,5.389-16.124,5.142c-3.149-0.128-6.226,0.775-9.135,2.148
		c-7.07,3.337-7.469,6.898-0.975,11.433c4.213,2.942,8.687,5.512,13.063,8.218c2.564,1.586,5.096,3.175,5.83,6.413
		c-8.465-3.197-16.401-7.416-23.161-13.436C72.035,90.109,67.815,90.721,64.955,96.747z"/>
	<path fill-rule="evenodd" clip-rule="evenodd" fill="#F5F3EB" d="M30.881,106.725c7.331,1.796,12.902,6.765,19.004,10.72
		c4.389,2.844,8.746,4.868,14.124,5.614c6.64,0.921,12.016,5.575,17.758,8.824c11.857,6.708,23.289,14.171,34.888,21.336
		c1.131,0.698,2.259,1.422,3.298,2.248c1.039,0.824,2.346,1.852,1.522,3.295c-0.931,1.631-2.39,0.58-3.496-0.005
		c-4.263-2.255-9.093-3.247-13.151-5.969c-0.919-0.616-2.033-1.282-3.64,0.101c2.338,3.55,6.288,5.138,9.621,7.181
		c6,3.676,11.141,8.381,16.585,12.723c1.21,0.965,3.194,2.301,1.994,4.045c-1.271,1.846-3.015,0.03-4.433-0.547
		c-7.681-3.123-15.327-6.332-22.991-9.496c-1.03-0.424-2.042-1.273-3.725,0.005c3.444,4.202,8.675,5.759,12.688,8.915
		c1.603,1.262,5.259,2,4.129,4.014c-1.266,2.256-4.316,0.003-6.061-1.049c-8.816-5.319-17.559-10.778-26.123-16.494
		c-11.202-7.476-23.446-13.312-34.109-21.593c-4.192-3.255-7.866-7.131-13.146-8.79c-5.37-1.687-7.34-0.365-7.484,5.356
		c-1.477,1.714-2.625,3.609-3.2,5.818c-1.3-1.112-0.747-2.708-1.062-4.077c0,0,0.076-0.298,0.076-0.296
		c0.894-0.728,1.078-1.686,0.891-2.764c0.305-6.949-0.034-13.962,1.885-20.757C27.58,112.051,28.618,109.074,30.881,106.725z"/>
	<path fill-rule="evenodd" clip-rule="evenodd" fill="#2E2C25" d="M33.369,136.575c1.818,0.239,3.337,1.05,4.578,2.393
		c0.348,1.791,1.671,1.866,3.096,1.762l-0.03-0.019c0.008,2.244,1.817,2.848,3.339,3.816c6.893,4.387,13.74,8.845,20.603,13.277
		c-1.37,1.638-4.519,0.252-5.071,3.796c-1.839,11.802-0.284,23.121,6.194,32.968c8.721,13.256,14.926,28.02,26.253,39.802
		c8.617,8.962,16.333,18.913,26.382,26.272c6.012,4.402,12.447,11.846,21.245,4.144c-0.13,1.519-0.26,3.038-0.39,4.557
		c-0.21,0.403-0.421,0.808-0.632,1.212c-0.741,0.659-1.482,1.318-2.223,1.977c0,0-0.259-0.115-0.259-0.115l0.088,0.279
		c-2.497,1.096-5.071,0.711-7.642,0.401c-2.493-1.47-4.932-3.062-7.903-3.427l0.062,0.043c-1.505-1.793-3.205-3.21-5.757-2.98
		c-3.764-2.392-7.529-4.783-11.293-7.176c-0.272-1.955-1.47-2.823-3.368-2.872c-0.28-0.222-0.561-0.442-0.839-0.661
		c0.001,0.002-0.337-0.223-0.337-0.223c-0.227,0.061-0.394-0.012-0.501-0.22c-0.4-2.784-3.028-3.333-4.813-4.652
		c-8.232-6.082-17.513-11.316-23.125-19.979c-8.109-12.518-17.432-24.135-25.647-36.508c-5.83-8.781-12.195-17.965-10.411-29.68
		c-1.492-5.562-2.539-11.176-2.001-16.977c0.725,0.024,1.449,0.047,2.174,0.071c1.231,7.89,2.896,15.599,9.042,21.414
		c0.023,0.445-0.074,1.216,0.091,1.277c0.649,0.24,0.597-0.395,0.69-0.799c3.21-6.948,1.06-18.941-4.414-23.675
		c-1.343-1.161-2.83-3.04-5.072-1.332c-0.839,0.349-1.678,0.697-2.517,1.045c-0.671,0.332-1.343,0.665-2.015,0.997
		C30.945,143.189,30.911,139.586,33.369,136.575z"/>
	<path fill-rule="evenodd" clip-rule="evenodd" fill="#75C6BB" d="M221.082,188.822c3.923-4.859,8.452-9.014,13.768-12.351
		c5.79-3.636,11.978-5.972,18.757-6.974c5.426-0.803,10.414,0.17,14.399,3.787c3.347,3.038,5.705,2.58,8.9-0.16
		c5.145-4.409,10.678-8.363,16.046-12.51c1.489,1.545,0.842,3.307,0.669,5.111c-0.483,5.057-1.905,10.016-1.586,15.152
		c-0.518,17.63-12.173,27.596-25.198,36.619c3.17-10.438,4.006-20.822-0.658-31.099c-4.918-10.835-11.397-13.624-22.375-8.824
		c-15.555,6.802-26.406,18.776-34.902,33.127c-2.086,2.392-3.502,5.171-4.689,8.083c-6.673,12.334-11.15,25.28-11.043,39.509
		c-1.859,1.702-0.947,4.351-2.195,6.313c-1.708,2.686-3.469,5.146-7.076,5.159c0.106-2.317,0.212-4.634,0.318-6.951
		c0.254-1.953,0.639-3.899,0.742-5.861c0.506-9.563,0.937-19.129,1.394-28.694c4.188-1.893,9.459-2.854,11.795-6.844
		c5.316-9.082,10.942-17.935,16.887-26.602l-0.034,0.038C217.026,192.842,219.055,190.832,221.082,188.822z"/>
	<path fill-rule="evenodd" clip-rule="evenodd" fill="#282620" d="M208.901,210.702c8.496-14.351,19.348-26.325,34.902-33.127
		c10.978-4.8,17.457-2.011,22.375,8.824c4.664,10.276,3.828,20.661,0.658,31.099c-1.05,0.434-0.782,1.502-1.101,2.289
		c-0.825,0.718-0.981,1.657-0.886,2.68c-0.636,1.556-1.271,3.112-1.907,4.669c0,0.001-0.061,0.202-0.061,0.202
		c-0.258,0.537-0.516,1.076-0.772,1.613c-0.174,0.089-0.243,0.229-0.209,0.422c-0.253,0.522-0.506,1.045-0.759,1.567
		c-0.188,0.134-0.269,0.315-0.24,0.547c-0.646,1.195-1.293,2.391-1.94,3.587c0.001,0-0.054,0.11-0.054,0.11
		c-0.307,0.615-0.613,1.229-0.921,1.845c0,0.001-0.091,0.196-0.091,0.196c0.043,0.247-0.049,0.427-0.272,0.536
		c-0.224,0.324-0.446,0.649-0.67,0.975c-0.649,1.144-1.299,2.287-1.951,3.429c-0.002-0.003,0.089-0.14,0.089-0.14
		c-0.128,0.314-0.329,0.569-0.604,0.766c-0.305,0.087-0.49,0.287-0.556,0.6c-0.334,0.466-0.667,0.932-1.001,1.398
		c-1.192,0.512-1.836,1.445-2.069,2.693c-0.87,1.115-1.74,2.229-2.611,3.344l-0.263,0.264c-0.223,0.248-0.445,0.496-0.666,0.744
		c-0.233,0.068-0.36,0.227-0.38,0.475c-0.854,0.83-1.71,1.66-2.565,2.49c-0.253,0.082-0.396,0.254-0.431,0.517
		c-3.978,3.022-7.787,6.306-11.965,9.021c-14.931,9.708-25.724,5.219-36.135-3.816c-0.875-0.759-1.779-1.481-2.674-2.224
		c-0.111-14.231,4.366-27.178,11.039-39.512C208.805,217.85,209.999,214.94,208.901,210.702z M261.973,221.789
		c0.978-0.818,1.191-1.875,0.957-3.07c0.126-1.133,0.252-2.266,0.378-3.398c0.938-4.168,2.2-8.316,0.752-12.627
		c-0.06-0.655-0.12-1.311-0.18-1.967c0.191-1.144,0.145-2.231-0.73-3.126c-2.602-8.055-7.568-11.332-15.293-10.091
		c-0.625,0.146-1.25,0.293-1.875,0.44c-1.968-0.224-3.568,0.602-5.051,1.765c-0.806,0.065-1.548,0.254-1.982,1.031
		c-2.418,0.721-4.479,1.998-6.117,3.932l0.035-0.029c-1.133,0.162-1.85,0.8-2.164,1.896l-0.026,0.018
		c-10.998,9.004-17.998,20.549-21.73,34.172c-0.108,0.314-0.217,0.629-0.324,0.943c-0.768,0.846-0.716,1.896-0.733,2.93
		c-1.079,1.236-0.894,2.703-0.756,4.161c-0.733,2.993-1.078,5.993-0.193,9.021c0.342,9.813,8.041,17.922,15.591,15.79
		c13.072-3.69,22.751-11.978,29.655-23.591l-0.027,0.027c0.298-0.393,0.596-0.785,0.893-1.179c1.102-0.711,1.764-1.706,1.945-3.011
		c0.23-0.35,0.462-0.699,0.692-1.049c2.583-3.598,4.134-7.66,5.346-11.875C261.347,222.531,261.659,222.16,261.973,221.789z"/>
	<path fill-rule="evenodd" clip-rule="evenodd" fill="#403D35" d="M33.369,136.575c-2.458,3.011-2.424,6.614-2.421,10.209
		c-0.005,2.135-0.03,4.271-0.01,6.406c0.041,4.308,0.199,8.582,4.03,11.572c-1.784,11.715,4.581,20.898,10.411,29.68
		c8.215,12.373,17.539,23.99,25.647,36.508c5.612,8.663,14.892,13.897,23.125,19.979c1.785,1.319,4.413,1.868,4.813,4.652
		c-11.003-6.386-21.342-13.673-31.424-21.469c-8.241-6.372-16.737-12.431-24.408-19.478c-8.447-7.76-12.902-17.84-14.919-28.946
		c-0.323-1.78-1.118-3.359-1.327-5.112c0.715-1.963,0.314-3.969,0.018-5.905c-1.604-10.509-2.219-21.072-1.97-31.693
		c0.575-2.209,1.723-4.104,3.2-5.818C29.846,136.663,31.424,134.974,33.369,136.575z"/>
	<path fill-rule="evenodd" clip-rule="evenodd" fill="#DEDBD1" d="M184.216,262.815c-0.106,2.317-0.212,4.634-0.318,6.951
		c0,0.001,0.058-0.013,0.058-0.013c-0.381,0.275-0.762,0.551-1.143,0.826c-3.989,2.017-7.974,4.043-11.974,6.039
		c-0.589,0.293-1.247,0.449-1.879,0.654c-6.043,1.959-34.063,0.117-39.927-2.621c-0.043-0.518-0.087-1.037-0.131-1.556
		c2.57,0.31,5.145,0.694,7.64-0.399c-0.002,0,0.173-0.166,0.172-0.166c0.741-0.658,1.482-1.317,2.222-1.974
		c0.21-0.403,0.422-0.81,0.633-1.215c0.13-1.519,0.26-3.038,0.39-4.557c0.326-3.003,0.652-6.005,0.979-9.007
		c2.686,5.793,7.478,8.78,13.567,9.605c4.345,0.588,8.323,1.945,12.313,3.703c5.914,2.605,8.773,1.736,13.313-2.918
		C181.352,264.917,182.003,262.885,184.216,262.815z"/>
	<path fill-rule="evenodd" clip-rule="evenodd" fill="#AABECC" d="M24.934,142.978c-0.25,10.621,0.366,21.185,1.97,31.693
		c0.296,1.937,0.697,3.942-0.018,5.905c-3.097-13.744-5.254-27.553-3.013-41.677C24.187,140.27,23.634,141.865,24.934,142.978z"/>
	<path fill-rule="evenodd" clip-rule="evenodd" fill="#AABECC" d="M292.035,180.879c-0.319-5.137,1.103-10.096,1.586-15.152
		c0.173-1.805,0.82-3.566-0.669-5.111c0.654-0.777,1.307-1.555,1.959-2.334C295.334,165.988,294.321,173.516,292.035,180.879z"/>
	<path fill-rule="evenodd" clip-rule="evenodd" fill="#F5B747" d="M286.096,106.695c-0.729,0.004-1.517-0.761-2.172,0.17
		c-1.431-1.317-3.111-1.631-4.969-1.235c0.207-1.989,3.71-2.039,2.771-4.704l0.036-0.034
		C283.619,102.518,285.166,104.376,286.096,106.695z"/>
	<path fill-rule="evenodd" clip-rule="evenodd" fill="#AABECC" d="M128.902,273.097c0.043,0.519,0.087,1.038,0.131,1.556
		c-3.216-0.793-5.942-2.377-8.034-4.983C123.97,270.035,126.409,271.627,128.902,273.097z"/>
	<path fill-rule="evenodd" clip-rule="evenodd" fill="#AABECC" d="M115.303,266.732c2.552-0.229,4.252,1.188,5.757,2.98
		C118.776,269.424,116.818,268.506,115.303,266.732z"/>
	<path fill-rule="evenodd" clip-rule="evenodd" fill="#403D35" d="M100.642,256.685c1.898,0.049,3.096,0.917,3.368,2.872
		C102.396,259.176,101.22,258.281,100.642,256.685z"/>
	<path fill-rule="evenodd" clip-rule="evenodd" fill="#403D35" d="M250.862,247.482c0.233-1.248,0.877-2.182,2.069-2.693
		C252.604,245.965,251.831,246.799,250.862,247.482z"/>
	<path fill-rule="evenodd" clip-rule="evenodd" fill="#AABECC" d="M24.839,135.841c0.188,1.078,0.003,2.036-0.891,2.764
		C23.82,137.545,24.053,136.604,24.839,135.841z"/>
	<path fill-rule="evenodd" clip-rule="evenodd" fill="#403D35" d="M264.851,222.467c-0.096-1.022,0.061-1.962,0.886-2.68
		C265.441,220.68,265.146,221.573,264.851,222.467z"/>
	<path fill-rule="evenodd" clip-rule="evenodd" fill="#403D35" d="M260.902,231.487c-0.028-0.231,0.052-0.413,0.24-0.547
		l0.063,0.349L260.902,231.487z"/>
	<path fill-rule="evenodd" clip-rule="evenodd" fill="#403D35" d="M258.908,235.185c0,0,0.055-0.11,0.054-0.11
		C258.962,235.073,258.908,235.185,258.908,235.185z"/>
	<polygon fill-rule="evenodd" clip-rule="evenodd" fill="#403D35" points="257.896,237.226 257.987,237.029 258.121,237.161 	"/>
	<path fill-rule="evenodd" clip-rule="evenodd" fill="#403D35" d="M256.954,238.736c0.224-0.325,0.446-0.65,0.67-0.975
		C257.4,238.088,257.177,238.412,256.954,238.736z"/>
	<path fill-rule="evenodd" clip-rule="evenodd" fill="#403D35" d="M255.092,242.025c0,0-0.091,0.137-0.089,0.14
		S255.092,242.025,255.092,242.025z"/>
	<path fill-rule="evenodd" clip-rule="evenodd" fill="#403D35" d="M253.933,243.391c0.065-0.313,0.251-0.513,0.556-0.6
		C254.465,243.141,254.279,243.341,253.933,243.391z"/>
	<polygon fill-rule="evenodd" clip-rule="evenodd" fill="#403D35" points="247.988,251.09 248.251,250.826 248.236,251.077 	"/>
	<path fill-rule="evenodd" clip-rule="evenodd" fill="#403D35" d="M246.942,252.309c0.02-0.248,0.146-0.406,0.38-0.475
		C247.359,252.117,247.233,252.275,246.942,252.309z"/>
	<path fill-rule="evenodd" clip-rule="evenodd" fill="#403D35" d="M243.946,255.315c0.034-0.263,0.178-0.435,0.431-0.517
		C244.386,255.098,244.242,255.27,243.946,255.315z"/>
	<polygon fill-rule="evenodd" clip-rule="evenodd" fill="#403D35" points="99.466,255.801 99.803,256.023 99.536,256.07 	"/>
	<path fill-rule="evenodd" clip-rule="evenodd" fill="#F5B747" d="M279.905,98.919c0.33,0.309,0.66,0.617,0.99,0.926l0.002,0.007
		c-0.355-0.283-0.712-0.567-1.067-0.85L279.905,98.919z"/>
	<path fill-rule="evenodd" clip-rule="evenodd" fill="#F5B747" d="M280.896,99.846c0.289,0.349,0.577,0.698,0.866,1.047
		c0,0-0.036,0.034-0.035,0.034c-0.275-0.358-0.552-0.716-0.829-1.073L280.896,99.846z"/>
	<path fill-rule="evenodd" clip-rule="evenodd" fill="#403D35" d="M261.901,229.373c-0.034-0.192,0.035-0.333,0.209-0.422
		c-0.001,0,0.066,0.289,0.066,0.289L261.901,229.373z"/>
	<path fill-rule="evenodd" clip-rule="evenodd" fill="#75C6BB" d="M182.813,270.58c0.381-0.275,0.762-0.551,1.143-0.826
		C183.574,270.029,183.193,270.305,182.813,270.58z"/>
	<polygon fill-rule="evenodd" clip-rule="evenodd" fill="#403D35" points="262.883,227.338 262.943,227.136 263.082,227.227 	"/>
	<path fill-rule="evenodd" clip-rule="evenodd" fill="#E9E8E0" d="M184.216,262.815c-2.213,0.069-2.864,2.102-4.086,3.354
		c-4.539,4.654-7.398,5.523-13.313,2.918c-3.99-1.758-7.968-3.115-12.313-3.703c-6.089-0.825-10.881-3.813-13.567-9.605
		c-0.032-11.572-0.063-23.145-0.095-34.717c0.024-0.465,0.048-0.93,0.071-1.395c-1.62-4.639-1.411-9.912-4.841-13.922
		c0.063-0.322,0.116-0.647,0.157-0.974c5.863,1.646,7.013,6.714,7.585,11.553c0.78,6.611,3.535,12.405,6.134,18.313
		c0.82,1.863,2.259,3.473,4.167,4.129c5.438,1.872,9.78,5.561,14.539,8.529c3.591,2.24,6.083,1.9,8.202-1.824
		c3.318-5.828,6.055-11.82,6.11-18.7c0.019-2.211-0.089-4.476,2.864-4.993c0.174,2.16,0.348,4.32,0.521,6.48
		c-0.457,9.565-0.888,19.132-1.394,28.694C184.854,258.916,184.47,260.862,184.216,262.815z"/>
	<path fill-rule="evenodd" clip-rule="evenodd" fill="#F5A631" d="M64.955,96.747c2.86-6.025,7.08-6.638,11.85-2.39
		c6.76,6.02,14.696,10.238,23.161,13.436c0,0-0.006-0.006-0.006-0.006c0.67,0.333,1.34,0.667,2.01,1l-0.006-0.004
		c0.667,0.35,1.335,0.701,2.003,1.051c0.335,0.316,0.669,0.631,1.004,0.947c0.672,0.334,1.344,0.669,2.015,1.004l0.458,0.007
		l0.458-0.002c0.354,0.333,0.707,0.667,1.06,1.001l0,0c0.667,0.334,1.333,0.668,2,1.002l-0.001,0
		c0.666,0.334,1.333,0.668,1.999,1.003l0-0.002c0.332,0.333,0.665,0.665,0.997,0.997l0.007,0.008
		c0.667,0.333,1.335,0.665,2.002,0.998l-0.008-0.005c0.663,0.333,1.326,0.667,1.988,1l0.022,0.017
		c0.605,1.249,1.616,1.889,2.987,1.987l0.005,0.002c0.84,1.64,2.286,2.07,3.985,1.997l0.021,0.011
		c0.326,0.325,0.651,0.649,0.977,0.974l0.03,0.03c0.607,1.249,1.624,1.879,2.992,1.98l-0.002-0.002
		c0.782,0.965,1.86,1.051,2.983,1.005l0.015,0.017c0.119,1.209,0.817,1.836,1.994,1.982l0.01,0.004
		c0.662,0.332,1.324,0.664,1.986,0.996l0.015,0.009c0.332,0.33,0.664,0.659,0.996,0.989l0,0.002
		c0.611,1.253,1.631,1.893,3.005,1.999l-0.007-0.006c0.688,0.338,1.376,0.676,2.063,1.014c1.767,0.337,2.483,2.168,3.901,2.855
		c2.891,1.401,4.12,5.274,8.022,5.141c9.558-0.324,10.446,2.22,11.047,12.007c-1.044,0.949-1.04,2.228-1.102,3.486
		c-18.265-13.032-36.589-25.965-56.02-37.254C93.914,110.925,79.507,103.702,64.955,96.747z"/>
	<path fill-rule="evenodd" clip-rule="evenodd" fill="#F5B747" d="M163.893,156.289c0.062-1.258,0.058-2.537,1.101-3.486
		c2.602,0.283,3.857,2.445,5.476,4.031c6.097,5.98,8.028,6.34,15.485,1.878c3.148-1.885,6.215-4.087,9.844-4.583
		c5.635-0.771,10.221-3.48,14.893-6.421c9.508-5.987,18.944-12.126,29.156-16.911c-0.072,2.813,1.495,2.514,3.575,2.2
		c5.662-0.856,10.061-4.832,15.551-6.034c-0.232,1.305-1.189,1.963-2.279,2.439c-5.151,2.252-9.258,5.897-12.848,10.07
		c-4.53,5.266-10.613,8.482-15.99,12.624c-0.714,0.55-1.88,0.514-2.836,0.749c0,0-0.059-0.065-0.059-0.065
		c1.362-2.652,4.162-3.741,6.168-5.691c0.682-0.662,1.705-1.382,1.1-2.501c-0.561-1.037-1.768-0.899-2.683-0.653
		c-2.235,0.602-4.57,1.096-6.597,2.15c-4.888,2.542-10.512,3.923-14.133,8.563c-0.282,0.028-0.56,0.082-0.831,0.164
		c-6.141,2.045-11.543,5.285-16.094,9.911c-0.289,0.042-0.568,0.117-0.838,0.227c-5.156,2.089-9.434,5.581-13.932,8.723
		C173.923,166.957,169.021,161.537,163.893,156.289z"/>
	<path fill-rule="evenodd" clip-rule="evenodd" fill="#F5B747" d="M186.352,228.26c-0.173-2.16-0.347-4.32-0.521-6.48
		c-0.262-14.51-0.086-29.076-5.59-42.902c5.52-2.032,10.981-4.162,14.942-8.83c0.282-0.047,0.562-0.106,0.837-0.178
		c0.652-0.021,1.306-0.043,1.959-0.063l0.082,0.08c0.028,2.793-0.708,5.387-2.921,7.143c-4.97,3.947-7.095,9.281-6.701,15.281
		c0.452,6.895,0.04,13.943,2.415,20.633c1.646,4.637,3.738,5.211,7.011,1.323c3.726-4.428,6.862-9.347,10.428-13.916
		c1.8-2.306,3.451-4.968,6.74-5.536c-5.944,8.667-11.57,17.52-16.887,26.602C195.811,225.405,190.54,226.367,186.352,228.26z"/>
	<path fill-rule="evenodd" clip-rule="evenodd" fill="#403D35" d="M64.956,157.805c-6.863-4.432-13.71-8.89-20.603-13.277
		c-1.521-0.968-3.331-1.572-3.339-3.816c14.055,7.502,27.446,16.122,40.928,24.57c14.207,8.902,28.174,18.188,42.222,27.342
		c1.776,1.158,3.86,1.984,4.944,4.016c-0.139,0.145-0.277,0.291-0.415,0.436c-8.923-3.725-16.53-9.66-24.646-14.732
		C91.001,174.188,78.379,165.359,64.956,157.805z"/>
	<path fill-rule="evenodd" clip-rule="evenodd" fill="#F9D487" d="M195.184,170.047c-3.961,4.668-9.423,6.798-14.942,8.83
		c-1.039-1.735-2.08-3.471-3.119-5.205c4.498-3.141,8.775-6.633,13.931-8.723c-0.272,1.797-1.582,2.813-2.882,3.846
		c-1.015,0.807-1.533,1.877-0.725,2.996c0.771,1.07,1.787,0.258,2.66-0.086C191.767,171.053,193.218,169.768,195.184,170.047z"/>
	<path fill-rule="evenodd" clip-rule="evenodd" fill="#403D35" d="M136.229,204.772c-0.041,0.326-0.093,0.651-0.157,0.974
		c-3.44-0.332-3.653-3.217-4.455-5.635c0.134-0.125,0.268-0.251,0.401-0.377C134.098,200.85,134.647,203.242,136.229,204.772z"/>
	<path fill-rule="evenodd" clip-rule="evenodd" fill="#403D35" d="M129.108,196.639c1.421,0.607,2.361,1.668,2.911,3.096
		c-0.134,0.126-0.268,0.252-0.399,0.376c-1.415-0.589-2.413-1.577-2.927-3.036C128.831,196.93,128.969,196.783,129.108,196.639z"/>
	<path fill-rule="evenodd" clip-rule="evenodd" fill="#403D35" d="M41.043,140.73c-1.425,0.104-2.749,0.028-3.096-1.762
		C39.125,139.299,40.361,139.528,41.043,140.73z"/>
	<path fill-rule="evenodd" clip-rule="evenodd" fill="#FBE3B0" d="M274.923,116.709c-0.272,0.07-0.546,0.134-0.821,0.192
		c-5.152,1.334-9.206,4.563-13.31,7.707c-2.794,0.116-5.349,1.097-7.856,2.217c-1.749,0.781-3.423,1.463-4.122-1.223
		c2.893-1.674,5.598-3.601,8.006-5.929c3.432-0.907,5.852-3.584,8.934-5.104c5.226-2.577,10.033-6.232,16.406-6.708
		C281.102,112.333,275.97,112.805,274.923,116.709z"/>
	<path fill-rule="evenodd" clip-rule="evenodd" fill="#FBE3B0" d="M195.184,170.047c-1.966-0.279-3.417,1.006-5.077,1.658
		c-0.873,0.344-1.889,1.156-2.66,0.086c-0.809-1.119-0.29-2.189,0.725-2.996c1.3-1.032,2.609-2.049,2.882-3.846
		c0.271-0.108,0.55-0.184,0.839-0.225c6.214-1.926,11.595-5.203,16.094-9.912c0.271-0.082,0.549-0.136,0.832-0.162
		c2.216,0.284,4.132-0.668,6.051-1.523c1.004-0.448,1.946-1.65,3.063-0.883c1.45,0.996-0.178,2.375,0.07,3.583l-0.006-0.003
		c-1.494-0.076-2.787,0.15-2.999,1.998l-0.004-0.002c-1.495-0.063-2.793,0.164-2.97,2.03l-0.01-0.003
		c-1.521-0.081-2.832,0.139-2.965,2.059c-0.051,0.285-0.082,0.574-0.095,0.865c-1.236,0.051-1.963,0.744-2.358,1.86l-0.332-0.02
		c0,0-0.311,0.116-0.311,0.117c-0.634,0.048-1.268,0.096-1.902,0.144c-1.517-0.098-2.858,0.068-3.011,2.012
		c-0.652,0.342-1.306,0.682-1.959,1.023c-1.539-0.158-2.846,0.049-3.06,1.961C195.745,169.94,195.466,170,195.184,170.047z"/>
	<path fill-rule="evenodd" clip-rule="evenodd" fill="#F9D487" d="M274.923,116.709c1.047-3.905,6.179-4.377,7.236-8.848
		c-6.373,0.477-11.181,4.132-16.406,6.708c-3.082,1.52-5.502,4.197-8.933,5.104c-0.016-2.613,2.134-3.763,3.842-4.724
		c5.962-3.355,11.812-6.973,18.293-9.322c1.857-0.394,3.538-0.081,4.969,1.237C284.78,111.565,281.403,115.259,274.923,116.709z"/>
	<path fill-rule="evenodd" clip-rule="evenodd" fill="#F9D487" d="M248.813,125.603c0.699,2.687,2.373,2.004,4.122,1.223
		c2.508-1.12,5.063-2.101,7.856-2.217l0.238,0.265c-0.361,0.629-0.724,1.258-1.085,1.887c-0.333,0.023-0.657,0.089-0.973,0.199
		c-5.49,1.204-9.889,5.179-15.551,6.036c-2.08,0.314-3.647,0.614-3.574-2.2C242.642,128.727,245.453,126.69,248.813,125.603z"/>
	<path fill-rule="evenodd" clip-rule="evenodd" fill="#F9D487" d="M260.792,124.609c4.104-3.144,8.157-6.373,13.31-7.707
		c-2.402,4.494-7.233,5.579-11.149,7.947c-0.641,0.008-1.281,0.017-1.922,0.025L260.792,124.609z"/>
	<path fill-rule="evenodd" clip-rule="evenodd" fill="#F5B747" d="M221.082,188.822c-2.027,2.01-4.056,4.02-6.083,6.03
		C215.172,190.971,217.21,188.971,221.082,188.822z"/>
	<path fill-rule="evenodd" clip-rule="evenodd" fill="#F5B747" d="M204.051,164.873c0.635-0.048,1.269-0.096,1.902-0.144
		c-1.522,3.414-4.475,4.642-7.892,5.157l-0.082-0.08c0.367-0.633,0.734-1.266,1.102-1.898c0.653-0.342,1.307-0.682,1.958-1.023
		C202.415,166.77,203.418,166.099,204.051,164.873z"/>
	<path fill-rule="evenodd" clip-rule="evenodd" fill="#F5B747" d="M225.02,152.845c-0.727,2.534-2.843,2.788-4.967,3.03
		l-0.076-0.072c1.148-1.853,2.968-2.6,4.984-3.023L225.02,152.845z"/>
	<path fill-rule="evenodd" clip-rule="evenodd" fill="#F5B747" d="M261.03,124.874c0.641-0.009,1.281-0.017,1.922-0.025
		c-0.283,1.769-1.579,1.944-3.007,1.913C260.307,126.132,260.669,125.503,261.03,124.874z"/>
	<path fill-rule="evenodd" clip-rule="evenodd" fill="#F5B747" d="M214.072,159.898c-0.35,1.6-1.542,1.918-2.937,1.932
		c0.291-0.661,0.584-1.321,0.878-1.982c0,0,0.01,0.003,0.009,0.002c0.652-0.015,1.305-0.029,1.956-0.043L214.072,159.898z"/>
	<path fill-rule="evenodd" clip-rule="evenodd" fill="#F9D487" d="M212.014,159.848c-0.294,0.661-0.587,1.321-0.878,1.982
		c-0.694,0.024-1.392,0.049-2.087,0.074C209.182,159.986,210.493,159.767,212.014,159.848z"/>
	<path fill-rule="evenodd" clip-rule="evenodd" fill="#F5B747" d="M217.053,157.877c-0.333,1.648-1.608,1.906-2.981,2.021
		c0.001,0.001-0.093-0.091-0.093-0.091c0.339-0.662,0.677-1.324,1.015-1.986l0.004,0.002c0.659-0.008,1.319-0.014,1.979-0.021
		L217.053,157.877z"/>
	<path fill-rule="evenodd" clip-rule="evenodd" fill="#F5B747" d="M220.053,155.875c-0.358,1.631-1.611,1.918-3.001,2
		c0.001,0.002-0.075-0.073-0.075-0.074c0.34-0.658,0.68-1.317,1.02-1.977c0,0,0.006,0.003,0.006,0.002
		c0.658-0.008,1.316-0.016,1.975-0.023L220.053,155.875z"/>
	<path fill-rule="evenodd" clip-rule="evenodd" fill="#F5B747" d="M206.596,164.632c0.396-1.116,1.122-1.81,2.358-1.86
		C208.763,164.145,207.937,164.715,206.596,164.632z"/>
	<path fill-rule="evenodd" clip-rule="evenodd" fill="#F5B635" d="M248.813,125.603c-3.36,1.087-6.172,3.124-8.966,5.193
		c-10.213,4.785-19.649,10.924-29.157,16.911c-4.672,2.941-9.258,5.65-14.893,6.421c-3.629,0.496-6.695,2.698-9.844,4.583
		c-7.457,4.462-9.389,4.103-15.485-1.878c-1.618-1.586-2.874-3.748-5.476-4.031c-0.601-9.787-1.488-12.331-11.046-12.006
		c-3.902,0.133-5.131-3.74-8.022-5.141c-1.418-0.688-2.134-2.518-3.901-2.855c-0.688-0.338-1.375-0.676-2.063-1.014l0.007,0.006
		c-0.252-1.793-1.543-2.025-3.005-1.999c0,0,0-0.002,0-0.002c-0.333-0.33-0.665-0.659-0.997-0.989l-0.015-0.009
		c-0.662-0.332-1.324-0.664-1.986-0.996l-0.01-0.004c-0.116-1.212-0.785-1.869-1.994-1.982l-0.015-0.017
		c-0.77-1.001-1.873-1.014-2.983-1.005l0.002,0.002c-0.244-1.798-1.522-2.034-2.992-1.98c0,0-0.03-0.03-0.03-0.03
		c-0.326-0.325-0.651-0.649-0.977-0.974l-0.021-0.011c-0.798-1.723-2.28-2.082-3.985-1.997l-0.005-0.002
		c-0.232-1.811-1.523-2.029-2.987-1.987c0,0-0.022-0.017-0.022-0.017c-0.663-0.333-1.326-0.667-1.989-1l0.008,0.005
		c-0.667-0.333-1.334-0.665-2.002-0.998l-0.007-0.008c-0.332-0.332-0.665-0.664-0.997-0.997l0,0.002
		c-0.666-0.334-1.333-0.668-1.999-1.003l0.001,0c-0.667-0.334-1.333-0.668-2-1.002l0,0c-0.353-0.334-0.707-0.667-1.06-1.001
		l-0.458,0.002l-0.458-0.007c-0.672-0.335-1.344-0.67-2.015-1.004c-0.335-0.316-0.669-0.631-1.004-0.948
		c-0.667-0.351-1.335-0.7-2.003-1.05l0.006,0.004c-0.67-0.333-1.34-0.667-2.01-1c0,0,0.006,0.006,0.006,0.006
		c-0.734-3.237-3.266-4.827-5.83-6.413c-4.376-2.706-8.85-5.276-13.063-8.218c-6.494-4.535-6.095-8.096,0.975-11.433
		c2.909-1.373,5.986-2.276,9.135-2.148c6.058,0.247,10.634-3.8,16.124-5.142c1.725-0.421,3.176-0.471,4.731,0.504
		c5.053,3.168,10.055,2.939,14.143-0.957c3.004-2.863,6.444-2.968,9.641-1.423c3.22,1.556,5.313,0.928,8.137-0.938
		c4.016-2.655,8.264-4.78,11.066-8.996c0.91-1.369,3.087-2.687,4.724-0.837c2.73,3.085,5.159,1.64,7.24-0.353
		c2.469-2.362,4.701-1.49,7.299-0.532c3.437,1.268,1.563,3.796,1.686,5.866c0.404,2.579,2.227,3.832,4.342,5.011
		c6.926,3.86,14.287,6.938,20.827,11.493c1.924,1.34,3.844,1.675,6.021,0.438c2.867-1.63,5.914-2.951,8.741-4.642
		c3.677-2.199,3.592-4.271-0.081-6.348c-1.43-0.808-3.081-1.311-3.87-2.953c5.601-1.002,10.987-0.814,15.961,2.463
		c5.726,3.773,12.395,5.491,18.556,8.319c10.118,4.644,19.32,10.874,28.757,16.701c1.371,0.847,3.062,1.177,4.604,1.747
		c0.355,0.284,0.712,0.567,1.067,0.851c0.277,0.357,0.554,0.715,0.829,1.073c0.938,2.666-2.564,2.715-2.771,4.704
		c-6.481,2.347-12.331,5.965-18.293,9.32c-1.708,0.961-3.857,2.111-3.842,4.724C254.411,122.002,251.706,123.929,248.813,125.603z"
		/>
	<path fill-rule="evenodd" clip-rule="evenodd" fill="#F5A631" d="M211.953,69.773c0.789,1.643,2.44,2.145,3.87,2.953
		c3.673,2.077,3.758,4.149,0.081,6.348c-2.827,1.691-5.874,3.012-8.741,4.642c-2.177,1.237-4.097,0.902-6.021-0.438
		c-6.54-4.556-13.901-7.633-20.827-11.493c-2.115-1.179-3.938-2.432-4.342-5.011c3.573-0.483,6.186-3.053,9.343-4.464
		c4.73-2.113,8.63-0.937,12.71,1.146C202.571,65.777,206.948,68.469,211.953,69.773z"/>
	<path fill-rule="evenodd" clip-rule="evenodd" fill="#282620" d="M128.693,197.074c0.514,1.459,1.512,2.447,2.927,3.036
		c0.8,2.419,1.013,5.304,4.453,5.636c3.43,4.01,3.222,9.283,4.841,13.922c-0.999,0.414-1.121,0.875-0.071,1.395
		c0.032,11.572,0.063,23.145,0.095,34.717c-0.327,3.002-0.653,6.004-0.979,9.007c-8.798,7.702-15.233,0.259-21.245-4.144
		c-10.049-7.359-17.765-17.311-26.382-26.272c-11.327-11.782-17.532-26.546-26.253-39.802c-6.478-9.847-8.034-21.166-6.194-32.968
		c0.552-3.544,3.701-2.158,5.071-3.796c13.423,7.555,26.045,16.383,39.091,24.537C112.163,187.414,119.77,193.35,128.693,197.074z
		 M125.978,221.938c4.883-3.149,3.054-8.084,2.756-12.22c-0.562-7.815-7.138-14.54-13.563-14.837
		c-3.59,0.494-4.971,2.777-5.186,6.172c-0.343,5.396,1.603,10.447,2.21,15.582c0.545,4.607,3.204,6.102,5.778,8.432
		C120.071,222.562,124.151,225.131,125.978,221.938z"/>
	<path fill-rule="evenodd" clip-rule="evenodd" fill="#DEDBD1" d="M44.184,169.27c-6.147-5.814-7.811-13.523-9.042-21.414
		c0.611-0.984,0.559-2.04,0.338-3.115c2.242-1.708,3.729,0.17,5.072,1.332c5.474,4.734,7.624,16.727,4.414,23.675
		C44.822,169.395,44.562,169.235,44.184,169.27z"/>
	<path fill-rule="evenodd" clip-rule="evenodd" fill="#282620" d="M34.968,164.762c-3.832-2.99-3.99-7.265-4.03-11.572
		c-0.02-2.135,0.005-4.271,0.01-6.406c0.671-0.333,1.343-0.665,2.015-0.997c0.001,0.666,0.003,1.333,0.004,1.999
		C32.429,153.586,33.477,159.2,34.968,164.762z"/>
	<path fill-rule="evenodd" clip-rule="evenodd" fill="#403D35" d="M32.967,147.785c-0.001-0.666-0.003-1.333-0.004-1.999
		c0.839-0.349,1.678-0.697,2.517-1.045c0.221,1.075,0.273,2.131-0.338,3.115C34.416,147.833,33.691,147.809,32.967,147.785z"/>
	<path fill-rule="evenodd" clip-rule="evenodd" fill="#403D35" d="M44.184,169.27c0.378-0.034,0.639,0.125,0.781,0.479
		c-0.093,0.404-0.041,1.039-0.69,0.799C44.109,170.485,44.207,169.715,44.184,169.27z"/>
	<path fill-rule="evenodd" clip-rule="evenodd" fill="#AABECC" d="M139.569,269.343c-0.211,0.405-0.423,0.812-0.633,1.215
		C139.148,270.15,139.358,269.746,139.569,269.343z"/>
	<polygon fill-rule="evenodd" clip-rule="evenodd" fill="#AABECC" points="136.714,272.531 136.542,272.697 136.455,272.416 	"/>
	<path fill-rule="evenodd" clip-rule="evenodd" fill="#2E2C25" d="M208.901,210.702c1.098,4.238-0.097,7.147-4.689,8.083
		C205.399,215.873,206.815,213.094,208.901,210.702z"/>
	<path fill-rule="evenodd" clip-rule="evenodd" fill="#E9E8E0" d="M263.308,215.32c-0.126,1.133-0.252,2.266-0.378,3.398
		c-0.415,0.699-0.831,1.4-1.246,2.1c-0.217,0.695-0.434,1.389-0.65,2.084c-1.212,4.215-2.763,8.277-5.345,11.874
		c-0.231,0.35-0.463,0.699-0.693,1.05c-0.182,1.305-0.844,2.3-1.945,3.011c-0.297,0.394-0.595,0.786-0.893,1.179l0.027-0.027
		c-1.941-0.232-2.944,1.218-4.214,2.271c-4.465,3.706-8.757,7.627-13.725,10.704c-10.301,6.382-19.312,4.81-25.975-4.578
		c-0.243-0.342-0.88-0.404-1.333-0.597c-0.885-3.027-0.54-6.027,0.193-9.021c1.092-1.234,0.916-2.699,0.756-4.161
		c0.018-1.033-0.034-2.084,0.732-2.93c0.108-0.314,0.217-0.629,0.325-0.943c3.732-13.623,10.732-25.168,21.731-34.172
		c-0.237,3.465-2.942,5.438-4.866,7.83c-5.286,6.57-8.788,13.692-7.849,22.432c0.445,4.145,2.944,6.502,7.031,5.852
		c12.06-1.919,22.452-7.349,30.688-16.289c6.308-6.844,6.779-14.523,2.719-21.832c-2.37-4.268-7.427-4.121-10.544-7.045
		c7.725-1.241,12.691,2.036,15.292,10.09c-0.311,1.172-0.124,2.228,0.731,3.127c0.06,0.656,0.12,1.312,0.18,1.967
		C263.643,206.892,262.551,211.051,263.308,215.32z"/>
	<path fill-rule="evenodd" clip-rule="evenodd" fill="#F5F3EB" d="M247.856,187.51c3.117,2.924,8.174,2.777,10.544,7.045
		c4.061,7.309,3.589,14.988-2.719,21.832c-8.236,8.94-18.629,14.37-30.688,16.289c-4.087,0.65-6.586-1.707-7.031-5.852
		c-0.939-8.739,2.563-15.861,7.849-22.432c1.924-2.393,4.629-4.365,4.866-7.83c-0.001,0,0.025-0.018,0.025-0.018
		c1.384,0.123,2.082-0.536,2.164-1.896l-0.035,0.029c2.855-0.039,5.449-0.488,6.117-3.932c0.435-0.777,1.177-0.966,1.982-1.031
		c2.361,1.352,3.938,0.455,5.051-1.765C246.606,187.803,247.231,187.656,247.856,187.51z"/>
	<path fill-rule="evenodd" clip-rule="evenodd" fill="#DEDBD1" d="M206.938,247.789c0.453,0.192,1.09,0.255,1.333,0.597
		c6.663,9.388,15.674,10.96,25.975,4.578c4.968-3.077,9.26-6.998,13.725-10.704c1.27-1.054,2.272-2.504,4.214-2.271
		c-6.904,11.613-16.583,19.9-29.655,23.591C214.979,265.711,207.28,257.602,206.938,247.789z"/>
	<path fill-rule="evenodd" clip-rule="evenodd" fill="#AABECC" d="M263.308,215.32c-0.757-4.27,0.335-8.429,0.752-12.627
		C265.508,207.004,264.246,211.152,263.308,215.32z"/>
	<path fill-rule="evenodd" clip-rule="evenodd" fill="#E9E8E0" d="M238.948,190.746c-0.668,3.443-3.262,3.893-6.117,3.932
		C234.47,192.744,236.53,191.467,238.948,190.746z"/>
	<path fill-rule="evenodd" clip-rule="evenodd" fill="#E9E8E0" d="M245.981,187.95c-1.113,2.22-2.689,3.116-5.051,1.765
		C242.413,188.552,244.014,187.727,245.981,187.95z"/>
	<path fill-rule="evenodd" clip-rule="evenodd" fill="#E9E8E0" d="M232.866,194.648c-0.082,1.36-0.78,2.02-2.164,1.896
		C231.017,195.448,231.733,194.811,232.866,194.648z"/>
	<path fill-rule="evenodd" clip-rule="evenodd" fill="#DEDBD1" d="M207.888,234.607c0.16,1.462,0.336,2.927-0.756,4.161
		C206.994,237.311,206.809,235.844,207.888,234.607z"/>
	<path fill-rule="evenodd" clip-rule="evenodd" fill="#403D35" d="M261.684,220.818c0.415-0.699,0.831-1.4,1.246-2.1
		c0.234,1.195,0.021,2.252-0.957,3.07C261.876,221.465,261.779,221.143,261.684,220.818z"/>
	<path fill-rule="evenodd" clip-rule="evenodd" fill="#AABECC" d="M263.88,200.727c-0.855-0.899-1.042-1.955-0.731-3.127
		C264.024,198.495,264.071,199.583,263.88,200.727z"/>
	<path fill-rule="evenodd" clip-rule="evenodd" fill="#DEDBD1" d="M261.684,220.818c0.096,0.324,0.192,0.646,0.289,0.971
		c-0.313,0.371-0.626,0.742-0.939,1.113C261.25,222.207,261.467,221.514,261.684,220.818z"/>
	<path fill-rule="evenodd" clip-rule="evenodd" fill="#DEDBD1" d="M208.945,230.734c-0.108,0.314-0.217,0.629-0.325,0.943
		C208.729,231.363,208.837,231.049,208.945,230.734z"/>
	<path fill-rule="evenodd" clip-rule="evenodd" fill="#DEDBD1" d="M254.995,235.826c0.23-0.351,0.462-0.7,0.693-1.05
		C255.457,235.127,255.226,235.477,254.995,235.826z"/>
	<path fill-rule="evenodd" clip-rule="evenodd" fill="#DEDBD1" d="M252.157,240.016c0.298-0.393,0.596-0.785,0.893-1.179
		C252.753,239.23,252.455,239.623,252.157,240.016z"/>
	<path fill-rule="evenodd" clip-rule="evenodd" fill="#DEDBD1" d="M140.842,221.063c-1.05-0.52-0.928-0.98,0.071-1.395
		C140.89,220.133,140.866,220.598,140.842,221.063z"/>
	<path fill-rule="evenodd" clip-rule="evenodd" fill="#F5B747" d="M120.96,119.798c1.705-0.085,3.187,0.273,3.985,1.997
		C123.247,121.868,121.801,121.438,120.96,119.798z"/>
	<path fill-rule="evenodd" clip-rule="evenodd" fill="#F5B747" d="M117.968,117.809c1.464-0.042,2.755,0.176,2.987,1.987
		C119.584,119.697,118.573,119.057,117.968,117.809z"/>
	<path fill-rule="evenodd" clip-rule="evenodd" fill="#F5B747" d="M136.962,129.793c1.462-0.026,2.753,0.206,3.005,1.999
		C138.593,131.686,137.573,131.046,136.962,129.793z"/>
	<path fill-rule="evenodd" clip-rule="evenodd" fill="#F5B747" d="M125.973,122.81c1.47-0.054,2.748,0.182,2.992,1.98
		C127.597,124.689,126.58,124.059,125.973,122.81z"/>
	<path fill-rule="evenodd" clip-rule="evenodd" fill="#F5B747" d="M131.961,125.81c1.208,0.114,1.877,0.77,1.994,1.982
		C132.778,127.646,132.08,127.019,131.961,125.81z"/>
	<path fill-rule="evenodd" clip-rule="evenodd" fill="#F5B747" d="M128.963,124.788c1.11-0.009,2.213,0.004,2.983,1.005
		C130.823,125.839,129.745,125.753,128.963,124.788z"/>
	<path fill-rule="evenodd" clip-rule="evenodd" fill="#F5B747" d="M115.957,116.792c0.663,0.333,1.326,0.667,1.989,1
		C117.283,117.458,116.62,117.125,115.957,116.792z"/>
	<path fill-rule="evenodd" clip-rule="evenodd" fill="#F5B747" d="M139.96,131.786c0.688,0.338,1.375,0.675,2.063,1.014
		C141.336,132.462,140.648,132.124,139.96,131.786z"/>
	<path fill-rule="evenodd" clip-rule="evenodd" fill="#F5B747" d="M133.964,127.797c0.662,0.332,1.324,0.664,1.986,0.996
		C135.288,128.461,134.626,128.129,133.964,127.797z"/>
	<path fill-rule="evenodd" clip-rule="evenodd" fill="#F5B747" d="M99.96,107.786c0.67,0.333,1.34,0.667,2.01,1
		C101.3,108.453,100.63,108.12,99.96,107.786z"/>
	<path fill-rule="evenodd" clip-rule="evenodd" fill="#F5B747" d="M101.964,108.783c0.667,0.35,1.335,0.7,2.003,1.05
		C103.299,109.483,102.631,109.133,101.964,108.783z"/>
	<path fill-rule="evenodd" clip-rule="evenodd" fill="#F5B747" d="M104.971,110.781c0.671,0.334,1.343,0.669,2.015,1.004
		C106.315,111.45,105.643,111.115,104.971,110.781z"/>
	<path fill-rule="evenodd" clip-rule="evenodd" fill="#F5B747" d="M108.962,112.792c0.667,0.334,1.333,0.668,2,1.002
		C110.295,113.46,109.628,113.126,108.962,112.792z"/>
	<path fill-rule="evenodd" clip-rule="evenodd" fill="#F5B747" d="M110.96,113.793c0.666,0.334,1.333,0.668,1.999,1.003
		C112.293,114.462,111.626,114.128,110.96,113.793z"/>
	<path fill-rule="evenodd" clip-rule="evenodd" fill="#F5B747" d="M113.963,115.799c0.667,0.333,1.335,0.665,2.002,0.998
		C115.298,116.464,114.63,116.131,113.963,115.799z"/>
	<path fill-rule="evenodd" clip-rule="evenodd" fill="#F5B747" d="M112.959,114.794c0.332,0.333,0.665,0.665,0.997,0.997
		C113.624,115.458,113.292,115.126,112.959,114.794z"/>
	<path fill-rule="evenodd" clip-rule="evenodd" fill="#F5B747" d="M135.965,128.802c0.332,0.33,0.664,0.659,0.997,0.989
		C136.629,129.461,136.297,129.131,135.965,128.802z"/>
	<path fill-rule="evenodd" clip-rule="evenodd" fill="#F5B747" d="M107.902,111.79c0.354,0.333,0.707,0.667,1.06,1.001
		C108.609,112.458,108.256,112.124,107.902,111.79z"/>
	<path fill-rule="evenodd" clip-rule="evenodd" fill="#F5B747" d="M124.966,121.806c0.326,0.325,0.651,0.649,0.977,0.974
		C125.618,122.455,125.292,122.13,124.966,121.806z"/>
	<path fill-rule="evenodd" clip-rule="evenodd" fill="#F9D487" d="M219.977,155.803c-0.658,0.008-1.316,0.016-1.975,0.023
		c-0.248-1.207,1.38-2.586-0.07-3.582c-1.117-0.768-2.06,0.435-3.063,0.883c-1.919,0.855-3.835,1.808-6.051,1.523
		c3.62-4.643,9.244-6.023,14.132-8.565c2.026-1.054,4.361-1.549,6.597-2.15c0.915-0.247,2.122-0.384,2.683,0.653
		c0.605,1.119-0.418,1.839-1.1,2.501c-2.006,1.95-4.806,3.039-6.168,5.691C222.944,153.203,221.125,153.95,219.977,155.803z"/>
	<path fill-rule="evenodd" clip-rule="evenodd" fill="#F9D487" d="M207.985,154.813c-4.499,4.709-9.88,7.986-16.094,9.912
		C196.442,160.098,201.845,156.857,207.985,154.813z"/>
	<path fill-rule="evenodd" clip-rule="evenodd" fill="#F9D487" d="M199.081,167.908c-0.367,0.633-0.734,1.266-1.102,1.898
		c-0.653,0.02-1.307,0.041-1.959,0.063C196.235,167.957,197.542,167.75,199.081,167.908z"/>
	<path fill-rule="evenodd" clip-rule="evenodd" fill="#F9D487" d="M204.051,164.873c-0.633,1.226-1.636,1.896-3.012,2.012
		C201.192,164.941,202.534,164.775,204.051,164.873z"/>
	<path fill-rule="evenodd" clip-rule="evenodd" fill="#F9D487" d="M214.993,157.82c-0.338,0.662-0.676,1.324-1.015,1.986
		c-0.651,0.014-1.304,0.028-1.956,0.043C212.2,157.984,213.498,157.758,214.993,157.82z"/>
	<path fill-rule="evenodd" clip-rule="evenodd" fill="#F9D487" d="M217.996,155.824c-0.34,0.659-0.68,1.318-1.02,1.977
		c-0.66,0.008-1.32,0.014-1.979,0.021C215.209,155.975,216.502,155.748,217.996,155.824z"/>
	<path fill-rule="evenodd" clip-rule="evenodd" fill="#DEDBD1" d="M115.172,194.881c6.425,0.297,13.001,7.021,13.563,14.837
		c0.297,4.136,2.127,9.07-2.756,12.22C116.654,215.204,113.647,205.947,115.172,194.881z"/>
	<path fill-rule="evenodd" clip-rule="evenodd" fill="#403D35" d="M115.172,194.881c-1.524,11.066,1.482,20.323,10.806,27.057
		c-1.827,3.193-5.907,0.624-8.004,3.129c-2.574-2.33-5.232-3.824-5.778-8.432c-0.608-5.135-2.554-10.187-2.21-15.582
		C110.201,197.658,111.582,195.375,115.172,194.881z"/>
</g>
</svg>
