<?xml version="1.0" encoding="utf-8"?>
<!-- Generator: Adobe Illustrator 16.0.0, SVG Export Plug-In . SVG Version: 6.00 Build 0)  -->
<!DOCTYPE svg PUBLIC "-//W3C//DTD SVG 1.1//EN" "http://www.w3.org/Graphics/SVG/1.1/DTD/svg11.dtd">
<svg version="1.1" xmlns="http://www.w3.org/2000/svg" xmlns:xlink="http://www.w3.org/1999/xlink" x="0px" y="0px" width="41px"
	 height="38.25px" viewBox="0 0 41 38.25" enable-background="new 0 0 41 38.25" xml:space="preserve">
<g id="레이어_1">
	<g>
		<path fill-rule="evenodd" clip-rule="evenodd" fill="#448ECC" d="M37.232,11.689c-0.045-0.042-0.091-0.084-0.136-0.126
			c-0.122-0.132-0.229-0.283-0.37-0.393c-3.994-3.145-8.398-5.517-13.264-7.017c-0.98-0.302-1.954-0.636-3.006-0.332
			c-1.53,0.442-3.064,0.868-4.559,1.43c-3.618,1.361-7.04,3.093-10.216,5.302c-0.982,0.577-1.979,1.135-2.677,2.079
			c-0.31,0.321-0.451,0.729-0.569,1.145c-0.262,0.93-0.216,1.89-0.258,2.842c-0.108,0.104-0.14,0.232-0.122,0.378l-0.011,0.04
			c-0.307,1.934-0.012,3.824,0.412,5.705c0.029,0.24,0.138,0.457,0.182,0.701c0.276,1.52,0.887,2.9,2.043,3.962
			c1.05,0.965,2.213,1.794,3.341,2.667c1.38,1.066,2.795,2.064,4.302,2.938c0.015,0.028,0.038,0.039,0.069,0.03l0.01,0.037
			l0.036-0.007c0.039,0.03,0.077,0.061,0.115,0.091c0.079,0.219,0.24,0.342,0.461,0.394c0.516,0.327,1.031,0.654,1.546,0.982
			c0.208,0.242,0.476,0.368,0.788,0.407l-0.008-0.006c0.286,0.357,0.659,0.574,1.1,0.683c0.803,0.375,4.639,0.627,5.466,0.358
			c0.087-0.027,0.177-0.049,0.257-0.09c0.548-0.272,1.094-0.551,1.64-0.826c0.052-0.038,0.104-0.075,0.156-0.113l-0.008,0.002
			c0.494-0.002,0.735-0.339,0.969-0.706c0.171-0.269,0.046-0.632,0.302-0.864c0.122,0.102,0.246,0.201,0.366,0.305
			c1.425,1.236,2.902,1.852,4.946,0.522c0.571-0.372,1.093-0.821,1.638-1.235c0.041-0.006,0.061-0.029,0.059-0.07
			c0.117-0.113,0.234-0.228,0.352-0.341c0.04-0.005,0.057-0.026,0.052-0.065c0.03-0.034,0.062-0.068,0.092-0.102l0.034-0.002
			l0.002-0.034c0.119-0.153,0.238-0.306,0.357-0.458c0.133-0.094,0.238-0.208,0.283-0.369c0.045-0.063,0.091-0.127,0.137-0.191
			c0.047-0.006,0.073-0.034,0.076-0.082c0.037-0.026,0.065-0.062,0.082-0.104l-0.012,0.02c0.09-0.157,0.179-0.313,0.268-0.47
			c0.03-0.044,0.061-0.089,0.091-0.133c0.031-0.016,0.044-0.04,0.038-0.074l0.03-0.009l-0.019-0.018
			c0.043-0.085,0.084-0.169,0.127-0.253l0.007-0.016c0.089-0.163,0.177-0.327,0.266-0.49l0.042-0.027l-0.009-0.048
			c0.034-0.071,0.069-0.143,0.104-0.214l0.038-0.019l-0.01-0.04c0.035-0.073,0.07-0.147,0.106-0.221l0.027-0.016l-0.02-0.012
			c0.087-0.214,0.175-0.426,0.262-0.64c0.04-0.122,0.081-0.245,0.121-0.366c0.044-0.108,0.007-0.254,0.15-0.314
			c1.783-1.234,3.379-2.6,3.45-5.013c0.313-1.008,0.451-2.038,0.394-3.094c0.007-0.611,0.014-1.224,0.021-1.835
			c0.02-1.843-0.102-3.652-1.228-5.227c-0.127-0.318-0.339-0.572-0.594-0.795C37.312,11.784,37.271,11.737,37.232,11.689z"/>
		<path fill-rule="evenodd" clip-rule="evenodd" fill="#F1EDE3" d="M3.005,12.631c0.698-0.943,1.695-1.502,2.676-2.078
			c0.663,0.238,1.326,0.475,1.989,0.712c1.992,0.952,3.965,1.94,5.876,3.052c2.66,1.545,5.168,3.315,7.669,5.1
			c0.702,0.719,1.373,1.461,1.811,2.38c0.143,0.237,0.285,0.475,0.428,0.712c0.753,1.893,0.729,3.888,0.765,5.874
			c-0.404,0.071-0.39,0.381-0.392,0.684c-0.008,0.941-0.383,1.763-0.837,2.56c-0.29,0.51-0.632,0.557-1.123,0.25
			c-0.651-0.406-1.245-0.911-1.99-1.168c-0.261-0.09-0.458-0.31-0.57-0.564c-0.356-0.81-0.733-1.603-0.84-2.508
			c-0.078-0.662-0.235-1.355-1.038-1.582c-0.217-0.209-0.292-0.536-0.577-0.689c-0.075-0.195-0.204-0.34-0.398-0.423
			c-0.148-0.278-0.434-0.392-0.677-0.55c-1.923-1.254-3.835-2.524-5.78-3.743c-1.846-1.157-3.679-2.337-5.603-3.364l0.004,0.003
			c-0.093-0.165-0.263-0.196-0.424-0.241c-0.17-0.184-0.378-0.295-0.627-0.328c-0.266-0.219-0.482,0.013-0.716,0.08
			c0.02-0.783,0.29-0.964,1.024-0.732c0.723,0.227,1.226,0.757,1.8,1.203C6.913,18.4,8.59,19.2,10.123,20.224
			c1.173,0.782,2.369,1.529,3.576,2.258c0.239,0.144,0.656,0.452,0.83,0.144c0.154-0.275-0.346-0.377-0.565-0.55
			c-0.55-0.432-1.266-0.646-1.737-1.22c0.23-0.176,0.369-0.059,0.51-0.001c1.05,0.433,2.096,0.872,3.147,1.3
			c0.194,0.079,0.433,0.328,0.607,0.075c0.164-0.239-0.107-0.422-0.273-0.554c-0.745-0.595-1.449-1.239-2.27-1.742
			c-0.457-0.279-0.997-0.497-1.317-0.982c0.22-0.189,0.372-0.099,0.498-0.014c0.556,0.371,1.217,0.508,1.8,0.816
			c0.152,0.08,0.352,0.224,0.479,0.001c0.113-0.198-0.066-0.339-0.208-0.451c-0.143-0.113-0.297-0.212-0.451-0.308
			c-1.588-0.981-3.153-2.003-4.776-2.921c-0.786-0.445-1.522-1.082-2.431-1.208c-0.736-0.103-1.333-0.38-1.934-0.77
			C4.771,13.557,4.009,12.877,3.005,12.631z"/>
		<path fill-rule="evenodd" clip-rule="evenodd" fill="#F5C237" d="M37.944,12.627c1.126,1.574,1.247,3.384,1.228,5.227
			c-0.007,0.611-0.014,1.224-0.021,1.836c-0.09,0.105-0.179,0.212-0.269,0.318c-0.734,0.568-1.492,1.109-2.197,1.713
			c-0.437,0.375-0.76,0.438-1.218,0.021c-0.546-0.494-1.229-0.628-1.972-0.518c-0.928,0.137-1.775,0.457-2.567,0.955
			c-0.728,0.456-1.348,1.025-1.885,1.69c-0.53,0.021-0.81,0.294-0.833,0.825l0.005-0.006c-0.45,0.078-0.677,0.443-0.923,0.759
			c-0.488,0.625-0.918,1.299-1.428,1.905c-0.448,0.532-0.734,0.453-0.959-0.182c-0.326-0.916-0.27-1.881-0.331-2.824
			c-0.054-0.822,0.237-1.552,0.917-2.092c0.303-0.24,0.404-0.596,0.4-0.979c0.468-0.07,0.872-0.238,1.08-0.706l0.043-0.016
			l0.045,0.003c0.184,0.011,0.297-0.067,0.323-0.255c0.001-0.04,0.006-0.079,0.013-0.118c0.096-0.004,0.19-0.008,0.286-0.011
			c0.19-0.002,0.354-0.046,0.401-0.265c0.188-0.016,0.363-0.051,0.408-0.277c0.19-0.011,0.361-0.05,0.41-0.273
			c0.291-0.033,0.581-0.068,0.681-0.415c0.131-0.032,0.29-0.026,0.388-0.103c0.736-0.566,1.569-1.008,2.189-1.729
			c0.492-0.57,1.054-1.07,1.759-1.378c0.149-0.065,0.28-0.155,0.312-0.334c0.044-0.016,0.088-0.024,0.134-0.028
			c0.195,0.005,0.373-0.02,0.411-0.261c0.537-0.324,1.197-0.474,1.527-1.089c0.037-0.008,0.074-0.017,0.112-0.025
			c0.887-0.199,1.349-0.705,1.231-1.348C37.736,12.522,37.845,12.627,37.944,12.627z"/>
		<path fill-rule="evenodd" clip-rule="evenodd" fill="#F5B747" d="M7.67,11.265c-0.663-0.237-1.326-0.474-1.989-0.712
			c3.177-2.209,6.6-3.941,10.217-5.302c1.495-0.562,3.028-0.988,4.559-1.43c1.052-0.304,2.025,0.03,3.006,0.332
			c4.865,1.5,9.27,3.873,13.264,7.017c0.141,0.11,0.248,0.261,0.37,0.393l-0.011,0.011c-0.211-0.078-0.442-0.123-0.63-0.239
			c-1.292-0.798-2.552-1.651-3.937-2.287c-0.844-0.387-1.757-0.622-2.541-1.139c-0.68-0.449-1.418-0.475-2.185-0.337
			c-0.685-0.179-1.284-0.547-1.906-0.865c-0.559-0.286-1.093-0.447-1.74-0.157c-0.432,0.193-0.79,0.545-1.278,0.611
			c-0.018-0.283,0.239-0.629-0.231-0.803c-0.355-0.131-0.661-0.25-0.999,0.073c-0.285,0.273-0.617,0.471-0.991,0.048
			c-0.224-0.253-0.522-0.073-0.646,0.115c-0.384,0.577-0.965,0.868-1.516,1.231c-0.386,0.255-0.673,0.341-1.114,0.128
			c-0.438-0.211-0.908-0.197-1.32,0.194c-0.56,0.534-1.244,0.565-1.936,0.132c-0.213-0.134-0.412-0.127-0.648-0.069
			c-0.751,0.184-1.378,0.737-2.207,0.704c-0.431-0.018-0.853,0.105-1.251,0.294c-0.968,0.457-1.022,0.944-0.133,1.565
			c0.576,0.403,1.189,0.754,1.788,1.125c0.351,0.217,0.697,0.435,0.798,0.878c-1.159-0.438-2.245-1.015-3.171-1.839
			C8.64,10.356,8.062,10.439,7.67,11.265z"/>
		<path fill-rule="evenodd" clip-rule="evenodd" fill="#F5F3EB" d="M3.005,12.631c1.004,0.246,1.767,0.926,2.602,1.467
			c0.602,0.39,1.198,0.667,1.934,0.77c0.909,0.126,1.645,0.763,2.431,1.208c1.623,0.918,3.188,1.939,4.776,2.921
			c0.154,0.096,0.309,0.194,0.451,0.308c0.143,0.112,0.321,0.253,0.208,0.451c-0.127,0.223-0.327,0.079-0.479-0.001
			c-0.583-0.309-1.244-0.445-1.8-0.816c-0.126-0.085-0.278-0.176-0.498,0.014c0.32,0.485,0.86,0.703,1.317,0.982
			c0.821,0.503,1.525,1.147,2.27,1.742c0.166,0.132,0.438,0.314,0.273,0.554c-0.174,0.253-0.413,0.004-0.607-0.075
			c-1.051-0.428-2.098-0.867-3.147-1.3c-0.141-0.058-0.279-0.175-0.51,0.001c0.472,0.574,1.188,0.788,1.737,1.22
			c0.22,0.173,0.72,0.274,0.565,0.55c-0.174,0.309-0.591,0-0.83-0.144c-1.207-0.729-2.403-1.476-3.576-2.258
			C8.59,19.2,6.913,18.4,5.454,17.268c-0.574-0.446-1.077-0.977-1.8-1.203c-0.735-0.231-1.005-0.051-1.024,0.732
			c-0.203,0.235-0.359,0.494-0.438,0.797c-0.178-0.152-0.103-0.371-0.146-0.559c0,0,0.011-0.04,0.01-0.04
			c0.123-0.1,0.148-0.23,0.122-0.378c0.042-0.952-0.004-1.912,0.258-2.842C2.554,13.359,2.695,12.952,3.005,12.631z"/>
		<path fill-rule="evenodd" clip-rule="evenodd" fill="#2E2C25" d="M3.346,16.717c0.249,0.033,0.457,0.145,0.627,0.328
			c0.048,0.245,0.229,0.255,0.424,0.241l-0.004-0.003c0.001,0.308,0.249,0.391,0.457,0.522c0.943,0.601,1.881,1.211,2.82,1.817
			c-0.188,0.225-0.618,0.035-0.694,0.52c-0.251,1.616-0.039,3.166,0.849,4.514c1.193,1.815,2.043,3.836,3.594,5.449
			c1.18,1.227,2.236,2.589,3.611,3.597c0.823,0.603,1.704,1.622,2.909,0.567c-0.018,0.207-0.036,0.416-0.053,0.624
			c-0.029,0.055-0.058,0.11-0.087,0.165c-0.101,0.09-0.203,0.181-0.304,0.271l-0.036-0.017l0.013,0.038
			c-0.342,0.15-0.694,0.098-1.046,0.056c-0.341-0.201-0.675-0.419-1.082-0.47l0.008,0.006c-0.206-0.245-0.438-0.439-0.788-0.407
			c-0.515-0.328-1.03-0.655-1.546-0.982c-0.037-0.269-0.201-0.387-0.461-0.394c-0.039-0.03-0.077-0.061-0.115-0.091
			c0,0.001-0.046-0.03-0.046-0.03c-0.031,0.009-0.054-0.002-0.068-0.029c-0.055-0.382-0.415-0.457-0.659-0.638
			c-1.127-0.833-2.397-1.549-3.166-2.735c-1.11-1.714-2.387-3.304-3.511-4.998c-0.798-1.201-1.669-2.459-1.425-4.063
			c-0.204-0.762-0.348-1.53-0.274-2.324c0.099,0.003,0.198,0.006,0.297,0.01c0.168,1.08,0.396,2.136,1.238,2.932
			c0.003,0.061-0.01,0.166,0.013,0.175c0.089,0.032,0.082-0.055,0.095-0.109c0.439-0.951,0.145-2.593-0.604-3.241
			c-0.184-0.159-0.387-0.416-0.694-0.183c-0.115,0.048-0.229,0.096-0.345,0.144c-0.092,0.045-0.184,0.091-0.276,0.136
			C3.014,17.623,3.01,17.129,3.346,16.717z"/>
		<path fill-rule="evenodd" clip-rule="evenodd" fill="#75C6BB" d="M29.044,23.87c0.537-0.665,1.157-1.234,1.885-1.69
			c0.792-0.498,1.64-0.818,2.567-0.955c0.743-0.11,1.426,0.023,1.972,0.518c0.458,0.416,0.781,0.354,1.218-0.021
			c0.705-0.604,1.463-1.145,2.197-1.713c0.204,0.212,0.115,0.453,0.092,0.7c-0.066,0.692-0.262,1.371-0.217,2.074
			c-0.071,2.413-1.667,3.778-3.45,5.014c0.434-1.429,0.549-2.851-0.09-4.258c-0.673-1.483-1.561-1.865-3.063-1.208
			c-2.129,0.932-3.615,2.57-4.777,4.535c-0.286,0.327-0.48,0.708-0.643,1.106c-0.913,1.688-1.526,3.461-1.512,5.409
			c-0.255,0.232-0.13,0.596-0.301,0.864c-0.233,0.367-0.475,0.704-0.969,0.706c0.015-0.317,0.029-0.635,0.044-0.952
			c0.034-0.267,0.087-0.533,0.102-0.802c0.069-1.31,0.128-2.619,0.19-3.929c0.574-0.259,1.295-0.391,1.615-0.937
			c0.728-1.243,1.498-2.455,2.312-3.643l-0.005,0.006C28.488,24.42,28.766,24.146,29.044,23.87z"/>
		<path fill-rule="evenodd" clip-rule="evenodd" fill="#282620" d="M27.377,26.865c1.162-1.965,2.648-3.604,4.777-4.535
			c1.503-0.657,2.391-0.275,3.063,1.208c0.639,1.407,0.523,2.829,0.09,4.258c-0.144,0.06-0.106,0.205-0.15,0.313
			c-0.113,0.098-0.135,0.227-0.121,0.366c-0.087,0.214-0.175,0.426-0.262,0.64l-0.008,0.027c-0.036,0.073-0.071,0.147-0.105,0.221
			c-0.024,0.013-0.034,0.031-0.029,0.059c-0.034,0.071-0.069,0.143-0.104,0.214c-0.026,0.019-0.037,0.043-0.033,0.075
			c-0.089,0.163-0.177,0.327-0.266,0.49l-0.007,0.016c-0.043,0.084-0.084,0.168-0.127,0.253l-0.012,0.026
			c0.006,0.034-0.007,0.059-0.037,0.073c-0.031,0.045-0.062,0.089-0.092,0.134c-0.089,0.156-0.178,0.313-0.268,0.469l0.012-0.019
			c-0.017,0.043-0.045,0.078-0.082,0.104c-0.042,0.013-0.067,0.039-0.076,0.082c-0.046,0.064-0.092,0.128-0.137,0.191
			c-0.164,0.07-0.252,0.198-0.283,0.369c-0.119,0.152-0.238,0.305-0.357,0.458l-0.036,0.036c-0.03,0.033-0.062,0.067-0.092,0.102
			c-0.031,0.01-0.049,0.031-0.052,0.065c-0.117,0.113-0.234,0.228-0.352,0.341c-0.034,0.011-0.054,0.035-0.059,0.07
			c-0.545,0.414-1.066,0.863-1.638,1.235c-2.044,1.329-3.521,0.714-4.946-0.522c-0.12-0.104-0.244-0.203-0.367-0.305
			c-0.015-1.948,0.599-3.721,1.512-5.409C27.363,27.844,27.527,27.445,27.377,26.865z M34.642,28.383
			c0.134-0.112,0.163-0.257,0.132-0.42c0.017-0.155,0.033-0.311,0.051-0.465c0.129-0.571,0.302-1.139,0.104-1.729
			c-0.009-0.091-0.017-0.18-0.025-0.27c0.026-0.157,0.02-0.306-0.1-0.429c-0.355-1.103-1.036-1.552-2.094-1.381
			c-0.085,0.02-0.171,0.04-0.257,0.06c-0.269-0.03-0.488,0.083-0.69,0.242c-0.111,0.009-0.213,0.034-0.271,0.141
			c-0.331,0.1-0.613,0.273-0.838,0.538l0.005-0.003c-0.155,0.021-0.254,0.109-0.296,0.259l-0.004,0.003
			c-1.506,1.232-2.465,2.813-2.975,4.678c-0.016,0.043-0.03,0.086-0.045,0.129c-0.105,0.116-0.098,0.26-0.1,0.401
			c-0.148,0.169-0.123,0.37-0.104,0.569c-0.101,0.41-0.147,0.82-0.026,1.235c0.047,1.343,1.101,2.454,2.135,2.161
			c1.789-0.505,3.114-1.639,4.06-3.229l-0.004,0.003c0.041-0.054,0.082-0.107,0.122-0.161c0.151-0.098,0.242-0.233,0.267-0.412
			c0.031-0.048,0.063-0.096,0.095-0.144c0.354-0.493,0.566-1.049,0.731-1.626C34.557,28.484,34.599,28.434,34.642,28.383z"/>
		<path fill-rule="evenodd" clip-rule="evenodd" fill="#403D35" d="M3.346,16.717c-0.336,0.412-0.332,0.906-0.331,1.397
			c-0.001,0.293-0.004,0.585-0.001,0.878c0.005,0.59,0.027,1.174,0.552,1.584c-0.244,1.604,0.627,2.861,1.425,4.063
			c1.125,1.694,2.401,3.284,3.511,4.998c0.768,1.187,2.039,1.902,3.166,2.735c0.244,0.181,0.604,0.256,0.659,0.638
			c-1.507-0.875-2.922-1.873-4.302-2.939c-1.128-0.873-2.292-1.702-3.341-2.667c-1.156-1.062-1.767-2.442-2.043-3.962
			c-0.044-0.244-0.152-0.461-0.182-0.7c0.099-0.269,0.043-0.544,0.003-0.809c-0.22-1.438-0.304-2.885-0.27-4.339
			c0.079-0.303,0.235-0.562,0.438-0.797C2.863,16.729,3.08,16.498,3.346,16.717z"/>
		<path fill-rule="evenodd" clip-rule="evenodd" fill="#DEDBD1" d="M23.997,33.999c-0.015,0.317-0.029,0.635-0.044,0.952
			l0.008-0.002c-0.052,0.038-0.104,0.075-0.156,0.113c-0.546,0.275-1.092,0.554-1.64,0.826c-0.08,0.041-0.17,0.063-0.257,0.09
			c-0.827,0.269-4.663,0.017-5.466-0.358c-0.006-0.071-0.012-0.143-0.018-0.213c0.352,0.042,0.705,0.095,1.046-0.056
			c0,0,0.024-0.021,0.024-0.021c0.101-0.091,0.203-0.182,0.304-0.271c0.029-0.056,0.058-0.111,0.087-0.166
			c0.018-0.208,0.035-0.417,0.053-0.624c0.044-0.411,0.089-0.822,0.134-1.233c0.367,0.794,1.023,1.202,1.857,1.315
			c0.595,0.08,1.139,0.266,1.686,0.507c0.81,0.356,1.201,0.237,1.822-0.399C23.605,34.287,23.693,34.009,23.997,33.999z"/>
		<path fill-rule="evenodd" clip-rule="evenodd" fill="#AABECC" d="M2.191,17.594c-0.034,1.454,0.05,2.9,0.27,4.339
			c0.041,0.265,0.096,0.54-0.003,0.809c-0.424-1.882-0.719-3.772-0.412-5.706C2.089,17.223,2.013,17.441,2.191,17.594z"/>
		<path fill-rule="evenodd" clip-rule="evenodd" fill="#AABECC" d="M38.758,22.782c-0.045-0.703,0.15-1.382,0.217-2.074
			c0.023-0.247,0.112-0.488-0.092-0.7c0.09-0.106,0.179-0.213,0.269-0.318C39.209,20.744,39.07,21.774,38.758,22.782z"/>
		<path fill-rule="evenodd" clip-rule="evenodd" fill="#F5B747" d="M37.944,12.627c-0.1,0-0.208-0.104-0.298,0.023
			c-0.195-0.18-0.426-0.223-0.68-0.169c0.028-0.271,0.508-0.278,0.379-0.644l0.005-0.005C37.605,12.055,37.817,12.309,37.944,12.627
			z"/>
		<path fill-rule="evenodd" clip-rule="evenodd" fill="#AABECC" d="M16.424,35.407c0.006,0.07,0.012,0.142,0.018,0.213
			c-0.44-0.108-0.813-0.325-1.1-0.683C15.749,34.988,16.083,35.206,16.424,35.407z"/>
		<path fill-rule="evenodd" clip-rule="evenodd" fill="#AABECC" d="M14.563,34.536c0.35-0.032,0.582,0.162,0.788,0.407
			C15.038,34.904,14.77,34.778,14.563,34.536z"/>
		<path fill-rule="evenodd" clip-rule="evenodd" fill="#403D35" d="M12.556,33.16c0.26,0.007,0.424,0.125,0.461,0.394
			C12.796,33.502,12.635,33.379,12.556,33.16z"/>
		<path fill-rule="evenodd" clip-rule="evenodd" fill="#403D35" d="M33.121,31.9c0.031-0.171,0.119-0.299,0.283-0.369
			C33.359,31.692,33.254,31.807,33.121,31.9z"/>
		<path fill-rule="evenodd" clip-rule="evenodd" fill="#AABECC" d="M2.178,16.617c0.026,0.147,0,0.278-0.122,0.378
			C2.039,16.85,2.07,16.721,2.178,16.617z"/>
		<path fill-rule="evenodd" clip-rule="evenodd" fill="#403D35" d="M35.036,28.476c-0.014-0.14,0.008-0.269,0.121-0.366
			C35.117,28.23,35.076,28.354,35.036,28.476z"/>
		<path fill-rule="evenodd" clip-rule="evenodd" fill="#403D35" d="M34.495,29.711c-0.004-0.032,0.007-0.057,0.033-0.075
			l0.009,0.048L34.495,29.711z"/>
		<path fill-rule="evenodd" clip-rule="evenodd" fill="#403D35" d="M34.223,30.217l0.007-0.016L34.223,30.217z"/>
		<polygon fill-rule="evenodd" clip-rule="evenodd" fill="#403D35" points="34.084,30.496 34.096,30.47 34.114,30.487 		"/>
		<path fill-rule="evenodd" clip-rule="evenodd" fill="#403D35" d="M33.955,30.703c0.03-0.045,0.061-0.089,0.092-0.134
			C34.016,30.614,33.985,30.659,33.955,30.703z"/>
		<path fill-rule="evenodd" clip-rule="evenodd" fill="#403D35" d="M33.699,31.153l-0.012,0.019
			C33.688,31.173,33.699,31.153,33.699,31.153z"/>
		<path fill-rule="evenodd" clip-rule="evenodd" fill="#403D35" d="M33.541,31.34c0.009-0.043,0.034-0.069,0.076-0.082
			C33.614,31.306,33.588,31.334,33.541,31.34z"/>
		<polygon fill-rule="evenodd" clip-rule="evenodd" fill="#403D35" points="32.728,32.395 32.764,32.358 32.762,32.393 		"/>
		<path fill-rule="evenodd" clip-rule="evenodd" fill="#403D35" d="M32.584,32.562c0.003-0.034,0.021-0.056,0.052-0.065
			C32.641,32.535,32.624,32.557,32.584,32.562z"/>
		<path fill-rule="evenodd" clip-rule="evenodd" fill="#403D35" d="M32.174,32.973c0.005-0.035,0.024-0.06,0.059-0.07
			C32.234,32.943,32.215,32.967,32.174,32.973z"/>
		<polygon fill-rule="evenodd" clip-rule="evenodd" fill="#403D35" points="12.395,33.039 12.44,33.069 12.404,33.076 		"/>
		<path fill-rule="evenodd" clip-rule="evenodd" fill="#F5B747" d="M37.097,11.563c0.045,0.042,0.091,0.084,0.136,0.126v0.001
			c-0.049-0.039-0.098-0.078-0.146-0.117L37.097,11.563z"/>
		<path fill-rule="evenodd" clip-rule="evenodd" fill="#F5B747" d="M37.232,11.689c0.039,0.048,0.079,0.095,0.118,0.143
			l-0.005,0.005C37.309,11.788,37.271,11.739,37.232,11.689L37.232,11.689z"/>
		<path fill-rule="evenodd" clip-rule="evenodd" fill="#403D35" d="M34.632,29.422c-0.005-0.027,0.005-0.046,0.029-0.059
			c-0.001,0,0.009,0.04,0.009,0.04L34.632,29.422z"/>
		<path fill-rule="evenodd" clip-rule="evenodd" fill="#75C6BB" d="M23.805,35.063c0.052-0.038,0.104-0.075,0.156-0.113
			C23.909,34.987,23.856,35.024,23.805,35.063z"/>
		<polygon fill-rule="evenodd" clip-rule="evenodd" fill="#403D35" points="34.767,29.143 34.774,29.115 34.794,29.127 		"/>
		<path fill-rule="evenodd" clip-rule="evenodd" fill="#E9E8E0" d="M23.997,33.999c-0.304,0.01-0.392,0.288-0.56,0.46
			c-0.621,0.637-1.013,0.756-1.822,0.399c-0.547-0.241-1.091-0.427-1.686-0.507c-0.834-0.113-1.49-0.521-1.857-1.315
			c-0.005-1.584-0.009-3.168-0.014-4.753c0.004-0.063,0.007-0.127,0.01-0.19c-0.221-0.635-0.192-1.356-0.662-1.906
			c0.008-0.044,0.016-0.089,0.021-0.134c0.803,0.227,0.96,0.92,1.038,1.582c0.107,0.905,0.484,1.698,0.84,2.508
			c0.112,0.255,0.309,0.475,0.57,0.564c0.745,0.257,1.339,0.762,1.99,1.168c0.491,0.307,0.833,0.26,1.123-0.25
			c0.454-0.797,0.829-1.618,0.837-2.56c0.002-0.303-0.013-0.612,0.392-0.684c0.024,0.296,0.048,0.591,0.071,0.887
			c-0.063,1.31-0.121,2.619-0.19,3.929C24.084,33.466,24.031,33.732,23.997,33.999z"/>
		<path fill-rule="evenodd" clip-rule="evenodd" fill="#F5A631" d="M7.67,11.265c0.392-0.825,0.97-0.909,1.622-0.327
			c0.926,0.824,2.012,1.401,3.171,1.839c0,0,0-0.001,0-0.001c0.091,0.046,0.183,0.091,0.275,0.137l-0.001,0
			c0.092,0.047,0.183,0.095,0.274,0.144c0.046,0.043,0.092,0.086,0.138,0.129c0.092,0.046,0.184,0.092,0.275,0.138l0.063,0.001
			h0.063c0.048,0.046,0.097,0.092,0.145,0.137h0c0.092,0.046,0.183,0.092,0.274,0.138l0,0c0.091,0.046,0.182,0.091,0.274,0.137l0,0
			c0.045,0.046,0.091,0.091,0.136,0.137l0,0.001c0.092,0.045,0.183,0.091,0.274,0.137l-0.001-0.001
			c0.091,0.046,0.182,0.092,0.272,0.137l0.003,0.003c0.083,0.171,0.221,0.258,0.409,0.271h0c0.115,0.225,0.313,0.284,0.546,0.273
			l0.003,0.002c0.045,0.045,0.089,0.089,0.134,0.133l0.004,0.005c0.083,0.171,0.223,0.257,0.409,0.271l0,0
			c0.107,0.132,0.255,0.145,0.409,0.138l0.002,0.002c0.016,0.166,0.112,0.252,0.273,0.271l0.001,0.001
			c0.091,0.045,0.182,0.091,0.272,0.137l0.002,0.001c0.045,0.045,0.091,0.09,0.136,0.135v0.001c0.083,0.172,0.223,0.259,0.412,0.273
			l-0.001-0.001c0.094,0.046,0.188,0.093,0.282,0.139c0.242,0.046,0.34,0.297,0.534,0.392c0.396,0.191,0.564,0.722,1.098,0.703
			c1.309-0.044,1.43,0.304,1.512,1.644c-0.143,0.13-0.143,0.306-0.15,0.478c-2.501-1.784-5.009-3.555-7.669-5.1
			C11.635,13.205,9.662,12.217,7.67,11.265z"/>
		<path fill-rule="evenodd" clip-rule="evenodd" fill="#F5B747" d="M21.215,19.416c0.008-0.172,0.008-0.348,0.15-0.478
			c0.356,0.039,0.528,0.335,0.75,0.552c0.834,0.819,1.099,0.868,2.119,0.258c0.432-0.258,0.852-0.56,1.348-0.627
			c0.771-0.106,1.399-0.477,2.039-0.88c1.302-0.819,2.594-1.66,3.992-2.315c-0.01,0.386,0.204,0.345,0.489,0.302
			c0.774-0.118,1.377-0.662,2.128-0.826c-0.031,0.179-0.162,0.269-0.312,0.334c-0.705,0.308-1.267,0.808-1.759,1.378
			c-0.62,0.721-1.453,1.162-2.189,1.729c-0.098,0.076-0.257,0.07-0.388,0.103l-0.009-0.009c0.188-0.363,0.57-0.512,0.845-0.779
			c0.094-0.09,0.233-0.189,0.151-0.342c-0.077-0.143-0.242-0.123-0.367-0.09c-0.307,0.082-0.626,0.15-0.903,0.295
			c-0.669,0.348-1.439,0.537-1.935,1.172c-0.039,0.004-0.077,0.012-0.114,0.022c-0.841,0.28-1.58,0.724-2.203,1.356
			c-0.04,0.006-0.078,0.017-0.114,0.031c-0.707,0.286-1.292,0.764-1.908,1.194C22.588,20.877,21.917,20.135,21.215,19.416z"/>
		<path fill-rule="evenodd" clip-rule="evenodd" fill="#F5B747" d="M24.289,29.269c-0.023-0.296-0.047-0.591-0.071-0.887
			c-0.035-1.986-0.012-3.981-0.765-5.874c0.755-0.277,1.503-0.569,2.045-1.209c0.039-0.006,0.077-0.014,0.115-0.023
			c0.089-0.003,0.179-0.006,0.268-0.009l0.012,0.011c0.004,0.383-0.098,0.738-0.4,0.979c-0.68,0.54-0.971,1.27-0.917,2.092
			c0.062,0.943,0.005,1.908,0.331,2.824c0.225,0.635,0.511,0.714,0.959,0.182c0.51-0.606,0.939-1.28,1.428-1.905
			c0.246-0.315,0.473-0.681,0.923-0.759c-0.813,1.188-1.584,2.399-2.312,3.643C25.584,28.878,24.863,29.01,24.289,29.269z"/>
		<path fill-rule="evenodd" clip-rule="evenodd" fill="#403D35" d="M7.67,19.623c-0.939-0.606-1.877-1.217-2.82-1.817
			c-0.208-0.132-0.456-0.215-0.457-0.522c1.924,1.027,3.757,2.207,5.603,3.364c1.945,1.219,3.857,2.489,5.78,3.743
			c0.243,0.158,0.529,0.271,0.677,0.55c-0.019,0.019-0.038,0.039-0.057,0.059c-1.222-0.509-2.263-1.322-3.374-2.017
			C11.236,21.866,9.508,20.658,7.67,19.623z"/>
		<path fill-rule="evenodd" clip-rule="evenodd" fill="#F9D487" d="M25.498,21.299c-0.542,0.64-1.29,0.932-2.045,1.209
			c-0.143-0.237-0.285-0.475-0.428-0.712c0.616-0.431,1.201-0.908,1.907-1.194c-0.037,0.246-0.216,0.385-0.395,0.526
			c-0.139,0.11-0.21,0.257-0.099,0.41c0.105,0.146,0.244,0.035,0.363-0.012C25.031,21.438,25.229,21.261,25.498,21.299z"/>
		<path fill-rule="evenodd" clip-rule="evenodd" fill="#403D35" d="M17.428,26.053c-0.006,0.045-0.013,0.09-0.021,0.134
			c-0.471-0.046-0.5-0.44-0.61-0.771c0.019-0.017,0.037-0.034,0.055-0.052C17.136,25.517,17.211,25.844,17.428,26.053z"/>
		<path fill-rule="evenodd" clip-rule="evenodd" fill="#403D35" d="M16.453,24.94c0.195,0.083,0.323,0.228,0.398,0.423
			c-0.018,0.018-0.037,0.035-0.055,0.052c-0.194-0.08-0.331-0.216-0.401-0.416C16.415,24.979,16.434,24.959,16.453,24.94z"/>
		<path fill-rule="evenodd" clip-rule="evenodd" fill="#403D35" d="M4.396,17.286C4.201,17.3,4.021,17.29,3.973,17.045
			C4.134,17.09,4.303,17.121,4.396,17.286z"/>
		<path fill-rule="evenodd" clip-rule="evenodd" fill="#FBE3B0" d="M36.415,13.998c-0.038,0.009-0.075,0.018-0.112,0.025
			c-0.706,0.184-1.261,0.625-1.822,1.056c-0.383,0.016-0.732,0.15-1.076,0.304c-0.239,0.106-0.469,0.2-0.563-0.168
			c0.396-0.229,0.766-0.492,1.096-0.812c0.47-0.124,0.801-0.49,1.223-0.698c0.716-0.354,1.374-0.854,2.246-0.919
			C37.261,13.398,36.558,13.463,36.415,13.998z"/>
		<path fill-rule="evenodd" clip-rule="evenodd" fill="#FBE3B0" d="M25.498,21.299c-0.269-0.038-0.467,0.139-0.695,0.228
			c-0.119,0.047-0.258,0.158-0.363,0.012c-0.111-0.153-0.04-0.3,0.099-0.41c0.179-0.142,0.357-0.28,0.395-0.526
			c0.037-0.015,0.075-0.025,0.115-0.031c0.851-0.264,1.587-0.712,2.203-1.356c0.037-0.011,0.075-0.019,0.114-0.022
			c0.303,0.039,0.565-0.091,0.828-0.208c0.138-0.062,0.267-0.227,0.419-0.121c0.198,0.137-0.024,0.325,0.01,0.49h-0.001
			c-0.204-0.011-0.381,0.021-0.41,0.273l0,0c-0.205-0.009-0.383,0.022-0.407,0.277h-0.001c-0.209-0.011-0.388,0.019-0.406,0.282
			c-0.007,0.039-0.012,0.078-0.013,0.118c-0.17,0.007-0.269,0.102-0.323,0.255l-0.045-0.003l-0.043,0.016
			c-0.087,0.007-0.174,0.014-0.26,0.02c-0.208-0.013-0.392,0.01-0.413,0.275c-0.089,0.047-0.179,0.094-0.268,0.141
			c-0.211-0.022-0.39,0.007-0.419,0.269C25.575,21.285,25.537,21.293,25.498,21.299z"/>
		<path fill-rule="evenodd" clip-rule="evenodd" fill="#F9D487" d="M36.415,13.998c0.143-0.535,0.846-0.6,0.99-1.212
			c-0.872,0.065-1.53,0.565-2.246,0.919c-0.422,0.208-0.753,0.574-1.223,0.698c-0.002-0.357,0.292-0.515,0.526-0.646
			c0.816-0.46,1.616-0.955,2.504-1.276c0.254-0.054,0.484-0.011,0.68,0.169C37.764,13.293,37.302,13.799,36.415,13.998z"/>
		<path fill-rule="evenodd" clip-rule="evenodd" fill="#F9D487" d="M32.841,15.215c0.095,0.368,0.324,0.274,0.563,0.168
			c0.344-0.153,0.693-0.288,1.076-0.304l0.032,0.036c-0.05,0.086-0.099,0.172-0.148,0.258c-0.046,0.004-0.09,0.013-0.134,0.028
			c-0.751,0.164-1.354,0.708-2.128,0.826c-0.285,0.043-0.499,0.084-0.489-0.302C31.995,15.643,32.38,15.364,32.841,15.215z"/>
		<path fill-rule="evenodd" clip-rule="evenodd" fill="#F9D487" d="M34.48,15.079c0.562-0.431,1.116-0.872,1.822-1.056
			c-0.33,0.615-0.99,0.765-1.527,1.089c-0.087,0.001-0.175,0.002-0.263,0.003L34.48,15.079z"/>
		<path fill-rule="evenodd" clip-rule="evenodd" fill="#F5B747" d="M29.044,23.87c-0.278,0.275-0.556,0.55-0.833,0.825
			C28.234,24.164,28.514,23.891,29.044,23.87z"/>
		<path fill-rule="evenodd" clip-rule="evenodd" fill="#F5B747" d="M26.713,20.591c0.086-0.006,0.173-0.013,0.26-0.02
			c-0.208,0.468-0.612,0.636-1.08,0.706l-0.012-0.011c0.051-0.087,0.101-0.173,0.151-0.26c0.089-0.047,0.179-0.094,0.268-0.141
			C26.488,20.851,26.626,20.759,26.713,20.591z"/>
		<path fill-rule="evenodd" clip-rule="evenodd" fill="#F5B747" d="M29.583,18.944c-0.1,0.347-0.39,0.382-0.681,0.415l-0.01-0.01
			c0.157-0.254,0.406-0.355,0.682-0.414L29.583,18.944z"/>
		<path fill-rule="evenodd" clip-rule="evenodd" fill="#F5B747" d="M34.513,15.115c0.088-0.001,0.176-0.002,0.263-0.003
			c-0.038,0.241-0.216,0.266-0.411,0.261C34.414,15.287,34.463,15.201,34.513,15.115z"/>
		<path fill-rule="evenodd" clip-rule="evenodd" fill="#F5B747" d="M28.084,19.91c-0.048,0.219-0.211,0.263-0.402,0.265
			c0.04-0.091,0.081-0.181,0.121-0.271h0.001c0.089-0.002,0.179-0.004,0.268-0.006L28.084,19.91z"/>
		<path fill-rule="evenodd" clip-rule="evenodd" fill="#F9D487" d="M27.803,19.903c-0.04,0.091-0.081,0.181-0.121,0.271
			c-0.095,0.003-0.189,0.007-0.285,0.011C27.415,19.922,27.594,19.893,27.803,19.903z"/>
		<path fill-rule="evenodd" clip-rule="evenodd" fill="#F5B747" d="M28.492,19.634c-0.045,0.226-0.221,0.261-0.408,0.276
			l-0.013-0.013c0.047-0.091,0.093-0.181,0.14-0.271l0,0c0.09-0.001,0.181-0.002,0.271-0.003L28.492,19.634z"/>
		<path fill-rule="evenodd" clip-rule="evenodd" fill="#F5B747" d="M28.902,19.359c-0.049,0.224-0.22,0.263-0.41,0.273
			c0,0.001-0.011-0.01-0.011-0.01c0.047-0.09,0.094-0.18,0.14-0.271h0.001c0.091-0.001,0.181-0.002,0.271-0.003L28.902,19.359z"/>
		<path fill-rule="evenodd" clip-rule="evenodd" fill="#F5B747" d="M27.061,20.559c0.055-0.153,0.153-0.248,0.323-0.255
			C27.357,20.491,27.244,20.569,27.061,20.559z"/>
		<path fill-rule="evenodd" clip-rule="evenodd" fill="#F5B635" d="M32.841,15.215c-0.461,0.149-0.846,0.428-1.228,0.711
			c-1.398,0.655-2.69,1.496-3.992,2.315c-0.64,0.403-1.268,0.773-2.039,0.88c-0.496,0.067-0.916,0.369-1.348,0.627
			c-1.021,0.61-1.285,0.562-2.119-0.258c-0.222-0.217-0.394-0.513-0.75-0.552c-0.082-1.34-0.203-1.688-1.512-1.644
			c-0.534,0.019-0.703-0.512-1.098-0.703c-0.194-0.095-0.292-0.346-0.534-0.392c-0.094-0.046-0.188-0.093-0.282-0.139l0.001,0.001
			c-0.035-0.246-0.211-0.277-0.412-0.273v-0.001c-0.045-0.045-0.091-0.09-0.136-0.135l-0.002-0.001
			c-0.091-0.046-0.182-0.092-0.272-0.137l-0.001-0.001c-0.016-0.166-0.107-0.256-0.273-0.271l-0.002-0.002
			c-0.106-0.138-0.256-0.139-0.409-0.138l0,0c-0.033-0.246-0.208-0.278-0.409-0.271l-0.004-0.005
			c-0.045-0.044-0.089-0.088-0.134-0.133l-0.003-0.002c-0.109-0.235-0.313-0.285-0.546-0.273h0
			c-0.032-0.248-0.208-0.277-0.409-0.271l-0.003-0.003c-0.09-0.045-0.181-0.091-0.272-0.137l0.001,0.001
			c-0.091-0.046-0.183-0.092-0.274-0.137l0-0.001c-0.045-0.046-0.091-0.091-0.136-0.137l0,0c-0.092-0.046-0.183-0.091-0.274-0.137
			l0,0c-0.091-0.046-0.182-0.092-0.274-0.138h0c-0.048-0.045-0.097-0.091-0.145-0.137h-0.063l-0.063-0.001
			c-0.092-0.046-0.184-0.092-0.275-0.138c-0.046-0.043-0.092-0.086-0.138-0.129c-0.091-0.049-0.183-0.097-0.274-0.144l0.001,0
			c-0.092-0.046-0.184-0.091-0.275-0.137c0,0,0,0,0,0.001c-0.101-0.443-0.447-0.661-0.798-0.878
			c-0.599-0.371-1.212-0.722-1.788-1.125c-0.889-0.621-0.835-1.108,0.133-1.565c0.398-0.188,0.82-0.312,1.251-0.294
			c0.829,0.033,1.456-0.521,2.207-0.704c0.236-0.058,0.435-0.064,0.648,0.069c0.692,0.434,1.376,0.402,1.936-0.132
			c0.412-0.392,0.882-0.406,1.32-0.194c0.441,0.213,0.728,0.127,1.114-0.128c0.55-0.364,1.132-0.654,1.516-1.231
			c0.124-0.188,0.422-0.368,0.646-0.115c0.374,0.422,0.706,0.225,0.991-0.048c0.338-0.323,0.644-0.204,0.999-0.073
			c0.471,0.173,0.214,0.52,0.231,0.803c0.055,0.354,0.305,0.525,0.594,0.687c0.948,0.528,1.956,0.949,2.852,1.573
			c0.264,0.184,0.525,0.229,0.824,0.06c0.393-0.223,0.81-0.404,1.196-0.635c0.503-0.301,0.492-0.585-0.011-0.869
			c-0.196-0.111-0.422-0.18-0.53-0.404c0.767-0.138,1.505-0.112,2.185,0.337c0.784,0.517,1.697,0.752,2.541,1.139
			c1.385,0.636,2.645,1.489,3.937,2.287c0.188,0.116,0.419,0.161,0.63,0.239c0.049,0.039,0.098,0.078,0.146,0.117
			c0.038,0.049,0.076,0.098,0.113,0.147c0.129,0.365-0.351,0.372-0.379,0.644c-0.888,0.322-1.688,0.816-2.504,1.276
			c-0.234,0.132-0.528,0.289-0.526,0.646C33.606,14.723,33.236,14.986,32.841,15.215z"/>
		<path fill-rule="evenodd" clip-rule="evenodd" fill="#F5A631" d="M27.794,7.572c0.108,0.225,0.334,0.293,0.53,0.404
			c0.503,0.284,0.514,0.568,0.011,0.869c-0.387,0.231-0.804,0.412-1.196,0.635c-0.299,0.17-0.561,0.124-0.824-0.06
			c-0.896-0.624-1.903-1.045-2.852-1.573c-0.289-0.162-0.539-0.333-0.594-0.687c0.488-0.065,0.847-0.417,1.278-0.611
			c0.647-0.29,1.182-0.128,1.74,0.157C26.51,7.025,27.109,7.394,27.794,7.572z"/>
		<path fill-rule="evenodd" clip-rule="evenodd" fill="#282620" d="M16.396,24.999c0.07,0.2,0.207,0.336,0.401,0.416
			c0.11,0.331,0.139,0.726,0.61,0.771c0.47,0.55,0.441,1.271,0.662,1.906c-0.136,0.057-0.153,0.119-0.01,0.19
			c0.005,1.585,0.009,3.169,0.014,4.753c-0.045,0.411-0.09,0.822-0.134,1.233c-1.205,1.055-2.085,0.035-2.909-0.567
			c-1.375-1.008-2.432-2.37-3.611-3.597c-1.551-1.613-2.4-3.634-3.594-5.449c-0.887-1.348-1.1-2.897-0.849-4.514
			c0.076-0.484,0.507-0.295,0.694-0.52c1.838,1.035,3.566,2.243,5.352,3.359C14.133,23.677,15.174,24.49,16.396,24.999z
			 M16.024,28.403c0.668-0.431,0.418-1.106,0.377-1.673c-0.077-1.07-0.977-1.99-1.856-2.031c-0.492,0.068-0.681,0.381-0.71,0.845
			c-0.047,0.739,0.219,1.431,0.303,2.134c0.074,0.631,0.438,0.835,0.791,1.154C15.215,28.488,15.774,28.841,16.024,28.403z"/>
		<path fill-rule="evenodd" clip-rule="evenodd" fill="#DEDBD1" d="M4.826,21.193c-0.841-0.796-1.069-1.852-1.238-2.932
			c0.084-0.135,0.077-0.279,0.046-0.427c0.307-0.233,0.511,0.023,0.694,0.183c0.75,0.648,1.044,2.29,0.604,3.241
			C4.914,21.21,4.878,21.188,4.826,21.193z"/>
		<path fill-rule="evenodd" clip-rule="evenodd" fill="#282620" d="M3.565,20.576c-0.525-0.41-0.546-0.994-0.552-1.584
			c-0.003-0.293,0-0.585,0.001-0.878c0.092-0.045,0.184-0.091,0.275-0.136c0,0.091,0.001,0.183,0.001,0.273
			C3.217,19.046,3.361,19.814,3.565,20.576z"/>
		<path fill-rule="evenodd" clip-rule="evenodd" fill="#403D35" d="M3.291,18.252c0-0.091,0-0.183-0.001-0.273
			c0.115-0.048,0.23-0.096,0.345-0.144c0.03,0.147,0.038,0.292-0.046,0.427C3.489,18.258,3.39,18.255,3.291,18.252z"/>
		<path fill-rule="evenodd" clip-rule="evenodd" fill="#403D35" d="M4.826,21.193c0.052-0.005,0.088,0.017,0.107,0.065
			c-0.013,0.055-0.006,0.142-0.095,0.109C4.816,21.359,4.83,21.254,4.826,21.193z"/>
		<path fill-rule="evenodd" clip-rule="evenodd" fill="#AABECC" d="M17.885,34.894c-0.029,0.055-0.058,0.11-0.087,0.166
			C17.827,35.004,17.855,34.948,17.885,34.894z"/>
		<polygon fill-rule="evenodd" clip-rule="evenodd" fill="#AABECC" points="17.494,35.33 17.47,35.352 17.458,35.313 		"/>
		<path fill-rule="evenodd" clip-rule="evenodd" fill="#2E2C25" d="M27.377,26.865c0.15,0.58-0.014,0.979-0.643,1.106
			C26.896,27.573,27.091,27.192,27.377,26.865z"/>
		<path fill-rule="evenodd" clip-rule="evenodd" fill="#E9E8E0" d="M34.824,27.498c-0.018,0.154-0.034,0.31-0.051,0.465
			c-0.058,0.096-0.114,0.191-0.171,0.287c-0.03,0.096-0.06,0.19-0.09,0.285c-0.165,0.577-0.378,1.133-0.731,1.626
			c-0.031,0.048-0.063,0.096-0.095,0.144c-0.024,0.179-0.115,0.314-0.267,0.412c-0.04,0.054-0.081,0.107-0.122,0.161l0.004-0.003
			c-0.266-0.032-0.403,0.166-0.577,0.311c-0.611,0.507-1.199,1.044-1.879,1.465c-1.41,0.874-2.644,0.658-3.556-0.626
			c-0.033-0.047-0.12-0.056-0.183-0.082c-0.121-0.415-0.074-0.825,0.026-1.235c0.149-0.168,0.126-0.369,0.104-0.569
			c0.002-0.142-0.006-0.285,0.1-0.401c0.015-0.043,0.029-0.086,0.045-0.129c0.51-1.865,1.469-3.445,2.975-4.678
			c-0.032,0.475-0.402,0.744-0.666,1.071c-0.725,0.9-1.203,1.875-1.075,3.071c0.062,0.567,0.403,0.891,0.963,0.801
			c1.651-0.263,3.073-1.006,4.202-2.229c0.863-0.937,0.928-1.988,0.371-2.989c-0.324-0.584-1.017-0.564-1.443-0.964
			c1.058-0.171,1.738,0.278,2.094,1.381c-0.043,0.161-0.017,0.306,0.1,0.429c0.009,0.09,0.017,0.179,0.025,0.27
			C34.87,26.344,34.721,26.913,34.824,27.498z"/>
		<path fill-rule="evenodd" clip-rule="evenodd" fill="#F5F3EB" d="M32.709,23.69c0.427,0.399,1.119,0.38,1.443,0.964
			c0.557,1.001,0.492,2.053-0.371,2.989c-1.129,1.224-2.551,1.967-4.202,2.229c-0.56,0.09-0.901-0.233-0.963-0.801
			c-0.128-1.196,0.351-2.171,1.075-3.071c0.264-0.327,0.634-0.597,0.666-1.071l0.004-0.003c0.189,0.018,0.284-0.073,0.296-0.259
			l-0.005,0.003c0.391-0.005,0.746-0.066,0.838-0.538c0.059-0.106,0.16-0.132,0.271-0.141c0.322,0.185,0.539,0.063,0.69-0.242
			C32.538,23.73,32.624,23.71,32.709,23.69z"/>
		<path fill-rule="evenodd" clip-rule="evenodd" fill="#DEDBD1" d="M27.107,31.942c0.063,0.026,0.149,0.035,0.183,0.082
			c0.912,1.284,2.146,1.5,3.556,0.626c0.68-0.421,1.268-0.958,1.879-1.465c0.174-0.145,0.312-0.343,0.577-0.311
			c-0.945,1.59-2.271,2.724-4.06,3.229C28.208,34.396,27.154,33.285,27.107,31.942z"/>
		<path fill-rule="evenodd" clip-rule="evenodd" fill="#AABECC" d="M34.824,27.498c-0.104-0.585,0.046-1.154,0.104-1.729
			C35.126,26.359,34.953,26.927,34.824,27.498z"/>
		<path fill-rule="evenodd" clip-rule="evenodd" fill="#E9E8E0" d="M31.49,24.133c-0.092,0.472-0.447,0.533-0.838,0.538
			C30.877,24.406,31.159,24.232,31.49,24.133z"/>
		<path fill-rule="evenodd" clip-rule="evenodd" fill="#E9E8E0" d="M32.452,23.75c-0.151,0.305-0.368,0.427-0.69,0.242
			C31.964,23.833,32.184,23.72,32.452,23.75z"/>
		<path fill-rule="evenodd" clip-rule="evenodd" fill="#E9E8E0" d="M30.657,24.668c-0.012,0.186-0.106,0.276-0.296,0.259
			C30.403,24.777,30.502,24.689,30.657,24.668z"/>
		<path fill-rule="evenodd" clip-rule="evenodd" fill="#DEDBD1" d="M27.238,30.138c0.021,0.2,0.045,0.401-0.104,0.569
			C27.115,30.508,27.09,30.307,27.238,30.138z"/>
		<path fill-rule="evenodd" clip-rule="evenodd" fill="#403D35" d="M34.603,28.25c0.057-0.096,0.113-0.191,0.171-0.287
			c0.031,0.163,0.002,0.308-0.132,0.42C34.629,28.339,34.615,28.295,34.603,28.25z"/>
		<path fill-rule="evenodd" clip-rule="evenodd" fill="#AABECC" d="M34.902,25.5c-0.116-0.123-0.143-0.268-0.1-0.429
			C34.922,25.194,34.929,25.343,34.902,25.5z"/>
		<path fill-rule="evenodd" clip-rule="evenodd" fill="#DEDBD1" d="M34.603,28.25c0.013,0.045,0.026,0.089,0.039,0.133
			c-0.043,0.051-0.085,0.102-0.129,0.152C34.543,28.44,34.572,28.346,34.603,28.25z"/>
		<path fill-rule="evenodd" clip-rule="evenodd" fill="#DEDBD1" d="M27.383,29.607c-0.016,0.043-0.03,0.086-0.045,0.129
			C27.353,29.693,27.367,29.65,27.383,29.607z"/>
		<path fill-rule="evenodd" clip-rule="evenodd" fill="#DEDBD1" d="M33.687,30.305c0.031-0.048,0.063-0.096,0.095-0.144
			C33.75,30.209,33.718,30.257,33.687,30.305z"/>
		<path fill-rule="evenodd" clip-rule="evenodd" fill="#DEDBD1" d="M33.298,30.878c0.041-0.054,0.082-0.107,0.122-0.161
			C33.38,30.771,33.339,30.824,33.298,30.878z"/>
		<path fill-rule="evenodd" clip-rule="evenodd" fill="#DEDBD1" d="M18.059,28.283c-0.144-0.071-0.126-0.134,0.01-0.19
			C18.065,28.156,18.063,28.22,18.059,28.283z"/>
		<path fill-rule="evenodd" clip-rule="evenodd" fill="#F5B747" d="M15.337,14.42c0.233-0.012,0.437,0.038,0.546,0.273
			C15.65,14.704,15.452,14.645,15.337,14.42z"/>
		<path fill-rule="evenodd" clip-rule="evenodd" fill="#F5B747" d="M14.928,14.148c0.2-0.006,0.377,0.023,0.409,0.271
			C15.148,14.406,15.01,14.319,14.928,14.148z"/>
		<path fill-rule="evenodd" clip-rule="evenodd" fill="#F5B747" d="M17.528,15.789c0.2-0.004,0.376,0.027,0.412,0.273
			C17.751,16.048,17.611,15.961,17.528,15.789z"/>
		<path fill-rule="evenodd" clip-rule="evenodd" fill="#F5B747" d="M16.023,14.833c0.201-0.008,0.376,0.024,0.409,0.271
			C16.246,15.09,16.106,15.004,16.023,14.833z"/>
		<path fill-rule="evenodd" clip-rule="evenodd" fill="#F5B747" d="M16.843,15.243c0.166,0.016,0.257,0.105,0.273,0.271
			C16.955,15.495,16.859,15.409,16.843,15.243z"/>
		<path fill-rule="evenodd" clip-rule="evenodd" fill="#F5B747" d="M16.433,15.104c0.152-0.001,0.303,0,0.409,0.138
			C16.688,15.248,16.54,15.235,16.433,15.104z"/>
		<path fill-rule="evenodd" clip-rule="evenodd" fill="#F5B747" d="M14.652,14.009c0.091,0.046,0.182,0.092,0.272,0.137
			C14.834,14.101,14.743,14.055,14.652,14.009z"/>
		<path fill-rule="evenodd" clip-rule="evenodd" fill="#F5B747" d="M17.938,16.062c0.094,0.046,0.188,0.093,0.282,0.139
			C18.127,16.154,18.032,16.107,17.938,16.062z"/>
		<path fill-rule="evenodd" clip-rule="evenodd" fill="#F5B747" d="M17.117,15.516c0.091,0.045,0.182,0.091,0.272,0.137
			C17.299,15.606,17.208,15.561,17.117,15.516z"/>
		<path fill-rule="evenodd" clip-rule="evenodd" fill="#F5B747" d="M12.462,12.776c0.091,0.046,0.183,0.091,0.275,0.137
			C12.646,12.867,12.554,12.822,12.462,12.776z"/>
		<path fill-rule="evenodd" clip-rule="evenodd" fill="#F5B747" d="M12.736,12.913c0.092,0.047,0.183,0.095,0.274,0.144
			C12.919,13.008,12.828,12.96,12.736,12.913z"/>
		<path fill-rule="evenodd" clip-rule="evenodd" fill="#F5B747" d="M13.148,13.186c0.092,0.046,0.184,0.092,0.275,0.138
			C13.332,13.277,13.24,13.231,13.148,13.186z"/>
		<path fill-rule="evenodd" clip-rule="evenodd" fill="#F5B747" d="M13.694,13.461c0.092,0.046,0.183,0.092,0.274,0.138
			C13.877,13.553,13.786,13.507,13.694,13.461z"/>
		<path fill-rule="evenodd" clip-rule="evenodd" fill="#F5B747" d="M13.968,13.599c0.091,0.046,0.182,0.091,0.274,0.137
			C14.15,13.689,14.06,13.645,13.968,13.599z"/>
		<path fill-rule="evenodd" clip-rule="evenodd" fill="#F5B747" d="M14.379,13.873c0.092,0.045,0.183,0.091,0.274,0.137
			C14.562,13.964,14.471,13.918,14.379,13.873z"/>
		<path fill-rule="evenodd" clip-rule="evenodd" fill="#F5B747" d="M14.242,13.735c0.045,0.046,0.091,0.091,0.136,0.137
			C14.333,13.826,14.287,13.781,14.242,13.735z"/>
		<path fill-rule="evenodd" clip-rule="evenodd" fill="#F5B747" d="M17.392,15.653c0.045,0.045,0.091,0.09,0.136,0.135
			C17.482,15.743,17.437,15.698,17.392,15.653z"/>
		<path fill-rule="evenodd" clip-rule="evenodd" fill="#F5B747" d="M13.55,13.324c0.048,0.046,0.097,0.092,0.145,0.137
			C13.646,13.416,13.598,13.37,13.55,13.324z"/>
		<path fill-rule="evenodd" clip-rule="evenodd" fill="#F5B747" d="M15.886,14.695c0.045,0.045,0.089,0.089,0.134,0.133
			C15.975,14.784,15.931,14.74,15.886,14.695z"/>
		<path fill-rule="evenodd" clip-rule="evenodd" fill="#F9D487" d="M28.893,19.35c-0.09,0.001-0.18,0.002-0.271,0.003
			c-0.034-0.165,0.188-0.354-0.01-0.49c-0.152-0.105-0.281,0.06-0.419,0.121c-0.263,0.117-0.525,0.247-0.828,0.208
			c0.495-0.635,1.266-0.824,1.935-1.172c0.277-0.145,0.597-0.213,0.903-0.295c0.125-0.033,0.29-0.053,0.367,0.09
			c0.082,0.152-0.058,0.252-0.151,0.342c-0.274,0.268-0.657,0.416-0.845,0.779C29.299,18.994,29.05,19.096,28.893,19.35z"/>
		<path fill-rule="evenodd" clip-rule="evenodd" fill="#F9D487" d="M27.251,19.214c-0.616,0.645-1.353,1.093-2.203,1.356
			C25.671,19.938,26.41,19.494,27.251,19.214z"/>
		<path fill-rule="evenodd" clip-rule="evenodd" fill="#F9D487" d="M26.032,21.007c-0.051,0.087-0.101,0.173-0.151,0.26
			c-0.089,0.003-0.179,0.006-0.268,0.009C25.643,21.014,25.821,20.984,26.032,21.007z"/>
		<path fill-rule="evenodd" clip-rule="evenodd" fill="#F9D487" d="M26.713,20.591c-0.087,0.168-0.225,0.26-0.413,0.275
			C26.321,20.601,26.505,20.578,26.713,20.591z"/>
		<path fill-rule="evenodd" clip-rule="evenodd" fill="#F9D487" d="M28.211,19.626c-0.047,0.091-0.093,0.181-0.14,0.271
			c-0.089,0.002-0.179,0.004-0.268,0.006C27.828,19.648,28.006,19.617,28.211,19.626z"/>
		<path fill-rule="evenodd" clip-rule="evenodd" fill="#F9D487" d="M28.621,19.353c-0.046,0.091-0.093,0.181-0.14,0.271
			c-0.09,0.001-0.181,0.002-0.271,0.003C28.24,19.373,28.417,19.342,28.621,19.353z"/>
		<path fill-rule="evenodd" clip-rule="evenodd" fill="#DEDBD1" d="M14.545,24.699c0.879,0.041,1.779,0.961,1.856,2.031
			c0.041,0.566,0.291,1.242-0.377,1.673C14.748,27.481,14.336,26.214,14.545,24.699z"/>
		<path fill-rule="evenodd" clip-rule="evenodd" fill="#403D35" d="M14.545,24.699c-0.209,1.515,0.203,2.782,1.479,3.704
			c-0.25,0.438-0.809,0.085-1.096,0.429c-0.353-0.319-0.717-0.523-0.791-1.154c-0.083-0.703-0.35-1.395-0.303-2.134
			C13.864,25.08,14.053,24.768,14.545,24.699z"/>
	</g>
</g>
<g id="레이어_2">
	<rect x="-146.471" y="-304.034" fill-rule="evenodd" clip-rule="evenodd" fill="#448ECC" width="120.375" height="120.375"/>
	<rect x="-39.261" y="-89.939" fill-rule="evenodd" clip-rule="evenodd" fill="#448ECC" width="41.38" height="41.38"/>
</g>
</svg>
