<?xml version="1.0" encoding="utf-8"?>
<!-- Generator: Adobe Illustrator 16.0.0, SVG Export Plug-In . SVG Version: 6.00 Build 0)  -->
<!DOCTYPE svg PUBLIC "-//W3C//DTD SVG 1.1//EN" "http://www.w3.org/Graphics/SVG/1.1/DTD/svg11.dtd">
<svg version="1.1" xmlns="http://www.w3.org/2000/svg" xmlns:xlink="http://www.w3.org/1999/xlink" x="0px" y="0px"
	 width="114.482px" height="108.276px" viewBox="0 0 114.482 108.276" enable-background="new 0 0 114.482 108.276"
	 xml:space="preserve">
<g id="레이어_1">
	<g>
		<path fill-rule="evenodd" clip-rule="evenodd" fill="#448ECC" d="M102.04,32.784c-0.122-0.114-0.245-0.229-0.366-0.342
			c-0.332-0.356-0.622-0.765-1-1.062c-10.797-8.499-22.699-14.912-35.849-18.965c-2.649-0.816-5.282-1.718-8.124-0.897
			c-4.136,1.195-8.281,2.345-12.32,3.865c-9.778,3.679-19.027,8.36-27.612,14.33c-2.655,1.559-5.349,3.068-7.235,5.617
			c-0.837,0.869-1.221,1.971-1.538,3.093c-0.71,2.514-0.584,5.109-0.697,7.68c-0.291,0.282-0.377,0.63-0.329,1.022
			c0,0-0.028,0.11-0.028,0.108C6.112,52.459,6.91,57.569,8.056,62.654c0.078,0.649,0.372,1.233,0.491,1.893
			c0.747,4.109,2.395,7.839,5.521,10.71c2.838,2.607,5.981,4.849,9.031,7.207c3.731,2.884,7.556,5.58,11.626,7.942
			c0.041,0.077,0.103,0.104,0.187,0.082l0.025,0.1l0.099-0.019c0.104,0.082,0.207,0.164,0.311,0.246
			c0.214,0.591,0.649,0.922,1.246,1.063c1.393,0.885,2.786,1.77,4.179,2.655c0.561,0.655,1.285,0.995,2.13,1.103
			c0,0-0.022-0.016-0.022-0.017c0.774,0.965,1.782,1.551,2.973,1.844c2.17,1.014,12.537,1.695,14.772,0.97
			c0.234-0.075,0.478-0.133,0.695-0.242c1.48-0.738,2.955-1.488,4.431-2.234c0.141-0.102,0.282-0.203,0.423-0.305l-0.021,0.004
			c1.335-0.004,1.986-0.915,2.618-1.908c0.462-0.727,0.124-1.707,0.815-2.334c0.329,0.273,0.664,0.541,0.988,0.821
			c3.852,3.343,7.845,5.004,13.369,1.412c1.546-1.005,2.955-2.22,4.428-3.338c0.109-0.017,0.162-0.081,0.158-0.191
			c0.317-0.307,0.634-0.614,0.949-0.921c0.108-0.013,0.154-0.071,0.141-0.176c0.082-0.092,0.164-0.184,0.247-0.275l0.092-0.005
			l0.006-0.093c0.321-0.412,0.644-0.824,0.966-1.237c0.358-0.253,0.645-0.562,0.766-0.996c0.123-0.173,0.246-0.345,0.37-0.518
			c0.128-0.019,0.197-0.093,0.205-0.222c0.103-0.073,0.177-0.167,0.224-0.283l-0.032,0.053c0.241-0.424,0.481-0.847,0.722-1.27
			c0.082-0.12,0.165-0.24,0.247-0.36c0.083-0.041,0.117-0.107,0.102-0.199l0.083-0.023l-0.05-0.049
			c0.114-0.228,0.228-0.455,0.341-0.683l0.02-0.041c0.24-0.442,0.479-0.885,0.719-1.327l0.112-0.073l-0.023-0.129
			c0.093-0.193,0.187-0.387,0.28-0.58l0.102-0.049l-0.024-0.107c0.096-0.199,0.19-0.398,0.286-0.597l0.074-0.041l-0.052-0.034
			c0.235-0.576,0.471-1.151,0.706-1.728c0.108-0.33,0.219-0.661,0.327-0.991c0.118-0.291,0.019-0.687,0.407-0.848
			c4.819-3.338,9.132-7.025,9.323-13.549c0.847-2.724,1.221-5.509,1.064-8.361c0.019-1.652,0.038-3.306,0.057-4.958
			c0.053-4.981-0.273-9.874-3.318-14.128c-0.344-0.858-0.916-1.546-1.604-2.147C102.254,33.042,102.146,32.914,102.04,32.784z"/>
		<path fill-rule="evenodd" clip-rule="evenodd" fill="#F1EDE3" d="M9.534,35.33c1.886-2.549,4.58-4.059,7.232-5.615
			c1.791,0.642,3.583,1.283,5.375,1.923c5.385,2.574,10.715,5.246,15.88,8.247c7.189,4.177,13.969,8.962,20.728,13.784
			c1.897,1.941,3.711,3.947,4.895,6.432c0.385,0.642,0.77,1.283,1.154,1.926c2.036,5.115,1.972,10.505,2.068,15.874
			c-1.093,0.191-1.054,1.029-1.06,1.848c-0.021,2.545-1.033,4.763-2.262,6.919c-0.783,1.378-1.706,1.504-3.034,0.675
			c-1.761-1.099-3.367-2.463-5.379-3.156c-0.707-0.242-1.239-0.838-1.542-1.527c-0.962-2.187-1.981-4.33-2.27-6.776
			c-0.211-1.79-0.637-3.665-2.806-4.274c-0.585-0.565-0.789-1.451-1.558-1.864c-0.204-0.527-0.551-0.92-1.077-1.145
			c-0.401-0.752-1.172-1.058-1.83-1.486c-5.197-3.387-10.365-6.822-15.622-10.116c-4.988-3.126-9.943-6.315-15.144-9.091
			l0.011,0.007c-0.252-0.445-0.709-0.529-1.146-0.652c-0.459-0.497-1.021-0.797-1.694-0.885c-0.72-0.592-1.304,0.033-1.937,0.216
			c0.053-2.117,0.782-2.606,2.769-1.982c1.954,0.614,3.313,2.047,4.864,3.252c3.945,3.063,8.476,5.224,12.62,7.989
			c3.169,2.115,6.403,4.135,9.666,6.103c0.646,0.39,1.774,1.223,2.243,0.388c0.418-0.744-0.935-1.018-1.528-1.484
			c-1.484-1.168-3.42-1.744-4.694-3.299c0.623-0.473,0.997-0.158,1.378-0.002c2.836,1.171,5.665,2.358,8.507,3.514
			c0.525,0.214,1.17,0.886,1.641,0.203c0.444-0.646-0.29-1.141-0.738-1.497c-2.014-1.606-3.917-3.348-6.136-4.708
			c-1.233-0.756-2.694-1.343-3.56-2.656c0.594-0.512,1.006-0.266,1.347-0.037c1.501,1.006,3.288,1.373,4.865,2.208
			c0.409,0.216,0.949,0.604,1.294,0.002c0.305-0.534-0.179-0.915-0.563-1.22c-0.385-0.306-0.802-0.573-1.22-0.832
			c-4.292-2.65-8.521-5.412-12.909-7.894c-2.125-1.202-4.114-2.924-6.57-3.265c-1.99-0.276-3.603-1.025-5.227-2.077
			C14.308,37.833,12.247,35.995,9.534,35.33z"/>
		<path fill-rule="evenodd" clip-rule="evenodd" fill="#F5C237" d="M103.964,35.319c3.045,4.254,3.371,9.146,3.318,14.128
			c-0.019,1.652-0.038,3.306-0.057,4.959c-0.241,0.288-0.482,0.575-0.725,0.862c-1.986,1.535-4.034,2.998-5.938,4.63
			c-1.182,1.014-2.055,1.183-3.293,0.059c-1.475-1.338-3.32-1.698-5.327-1.401c-2.509,0.371-4.799,1.235-6.94,2.581
			c-1.967,1.234-3.643,2.771-5.095,4.569c-1.432,0.055-2.187,0.795-2.25,2.231l0.013-0.015c-1.217,0.211-1.828,1.195-2.494,2.049
			c-1.319,1.69-2.479,3.511-3.858,5.148c-1.211,1.439-1.984,1.227-2.594-0.489c-0.879-2.476-0.727-5.083-0.894-7.634
			c-0.146-2.221,0.641-4.193,2.479-5.654c0.818-0.649,1.091-1.609,1.08-2.643c1.265-0.191,2.357-0.646,2.92-1.908l0.115-0.043
			l0.123,0.007c0.496,0.03,0.802-0.181,0.873-0.688c0.004-0.107,0.016-0.215,0.035-0.32c0.257-0.01,0.515-0.02,0.772-0.028
			c0.515-0.005,0.956-0.122,1.085-0.715c0.508-0.042,0.98-0.138,1.104-0.748c0.514-0.03,0.978-0.137,1.109-0.74
			c0.786-0.09,1.569-0.184,1.838-1.121c0.354-0.087,0.785-0.073,1.05-0.277c1.989-1.532,4.24-2.723,5.916-4.671
			c1.329-1.544,2.848-2.893,4.754-3.726c0.403-0.177,0.757-0.42,0.843-0.903c0.117-0.041,0.237-0.065,0.36-0.074
			c0.528,0.012,1.008-0.053,1.112-0.707c1.449-0.876,3.236-1.278,4.126-2.94c0.102-0.021,0.202-0.045,0.304-0.071
			c2.397-0.537,3.646-1.903,3.33-3.642C103.402,35.037,103.694,35.32,103.964,35.319z"/>
		<path fill-rule="evenodd" clip-rule="evenodd" fill="#F5B747" d="M22.142,31.638c-1.792-0.641-3.584-1.281-5.375-1.923
			c8.587-5.972,17.836-10.652,27.614-14.332c4.039-1.52,8.184-2.67,12.32-3.865c2.842-0.82,5.475,0.081,8.124,0.897
			c13.149,4.053,25.052,10.466,35.849,18.965c0.378,0.297,0.668,0.705,1,1.062l-0.028,0.03c-0.57-0.211-1.196-0.333-1.703-0.646
			c-3.491-2.156-6.896-4.461-10.64-6.179c-2.28-1.047-4.748-1.683-6.866-3.078c-1.84-1.213-3.833-1.282-5.905-0.911
			c-1.852-0.483-3.472-1.479-5.153-2.337c-1.509-0.771-2.952-1.207-4.702-0.425c-1.168,0.522-2.135,1.473-3.457,1.652
			c-0.046-0.766,0.647-1.702-0.624-2.17c-0.961-0.354-1.787-0.677-2.7,0.197c-0.77,0.737-1.669,1.272-2.679,0.13
			c-0.606-0.684-1.411-0.196-1.748,0.31c-1.037,1.56-2.608,2.346-4.095,3.329c-1.045,0.69-1.819,0.923-3.011,0.347
			c-1.183-0.571-2.455-0.533-3.567,0.526c-1.512,1.442-3.363,1.526-5.233,0.354c-0.575-0.361-1.112-0.343-1.75-0.187
			c-2.031,0.496-3.724,1.993-5.965,1.902c-1.166-0.048-2.304,0.286-3.38,0.794c-2.616,1.235-2.763,2.552-0.361,4.23
			c1.559,1.089,3.214,2.04,4.833,3.041c0.949,0.587,1.886,1.175,2.157,2.373c-3.132-1.183-6.068-2.744-8.569-4.971
			C24.762,29.182,23.2,29.408,22.142,31.638z"/>
		<path fill-rule="evenodd" clip-rule="evenodd" fill="#F5F3EB" d="M9.534,35.33c2.713,0.665,4.774,2.503,7.031,3.966
			c1.624,1.052,3.236,1.801,5.227,2.077c2.457,0.341,4.445,2.063,6.57,3.265c4.387,2.481,8.617,5.243,12.909,7.894
			c0.418,0.259,0.835,0.526,1.22,0.832c0.385,0.305,0.868,0.686,0.563,1.22c-0.345,0.603-0.885,0.214-1.294-0.002
			c-1.577-0.835-3.364-1.202-4.865-2.208c-0.341-0.229-0.752-0.475-1.347,0.037c0.865,1.313,2.326,1.9,3.56,2.656
			c2.22,1.36,4.122,3.102,6.136,4.708c0.448,0.356,1.182,0.851,0.738,1.497c-0.471,0.683-1.116,0.011-1.641-0.203
			c-2.842-1.155-5.671-2.343-8.507-3.514c-0.381-0.156-0.755-0.471-1.378,0.002c1.274,1.555,3.21,2.131,4.694,3.299
			c0.594,0.467,1.946,0.74,1.528,1.484c-0.469,0.835-1.597,0.002-2.243-0.388c-3.262-1.968-6.497-3.987-9.666-6.103
			c-4.145-2.766-8.675-4.926-12.62-7.989c-1.551-1.205-2.91-2.639-4.864-3.252C9.3,43.984,8.571,44.473,8.518,46.59
			c-0.546,0.634-0.971,1.335-1.184,2.152c-0.481-0.411-0.276-1.001-0.393-1.508c0,0,0.028-0.11,0.028-0.11
			c0.331-0.269,0.399-0.624,0.33-1.022c0.113-2.571-0.013-5.167,0.697-7.68C8.313,37.3,8.697,36.199,9.534,35.33z"/>
		<path fill-rule="evenodd" clip-rule="evenodd" fill="#2E2C25" d="M10.455,46.374c0.673,0.088,1.234,0.389,1.694,0.885
			c0.128,0.663,0.618,0.69,1.146,0.652l-0.011-0.007c0.003,0.83,0.673,1.054,1.235,1.412c2.551,1.623,5.084,3.272,7.624,4.912
			c-0.507,0.605-1.672,0.094-1.876,1.404c-0.681,4.367-0.105,8.555,2.292,12.198c3.227,4.905,5.522,10.367,9.713,14.727
			c3.188,3.316,6.043,6.998,9.761,9.721c2.225,1.629,4.605,4.384,7.861,1.533c-0.048,0.562-0.096,1.124-0.144,1.687
			c-0.078,0.148-0.156,0.299-0.234,0.448c-0.274,0.243-0.548,0.487-0.823,0.731l-0.096-0.043l0.033,0.104
			c-0.924,0.405-1.876,0.263-2.828,0.148c-0.922-0.544-1.824-1.133-2.924-1.268l0.022,0.016c-0.557-0.664-1.186-1.188-2.13-1.103
			c-1.393-0.886-2.786-1.771-4.179-2.655c-0.101-0.724-0.544-1.045-1.246-1.063c-0.104-0.082-0.207-0.164-0.311-0.245
			c0.001,0.001-0.124-0.082-0.124-0.082c-0.084,0.022-0.146-0.005-0.186-0.081c-0.148-1.03-1.121-1.233-1.781-1.722
			c-3.046-2.251-6.479-4.187-8.556-7.393c-3-4.632-6.45-8.93-9.49-13.508c-2.157-3.249-4.512-6.647-3.852-10.981
			c-0.552-2.058-0.939-4.135-0.741-6.281c0.268,0.009,0.536,0.018,0.804,0.026c0.456,2.919,1.071,5.771,3.346,7.923
			c0.009,0.165-0.027,0.449,0.034,0.473c0.24,0.089,0.221-0.146,0.255-0.296c1.188-2.57,0.393-7.008-1.633-8.76
			c-0.497-0.43-1.047-1.124-1.877-0.492c-0.31,0.129-0.62,0.257-0.931,0.387c-0.249,0.122-0.497,0.245-0.746,0.368
			C9.558,48.821,9.546,47.488,10.455,46.374z"/>
		<path fill-rule="evenodd" clip-rule="evenodd" fill="#75C6BB" d="M79.908,65.706c1.452-1.798,3.128-3.335,5.095-4.569
			c2.142-1.346,4.432-2.21,6.94-2.581c2.007-0.297,3.853,0.063,5.327,1.401c1.238,1.124,2.111,0.955,3.293-0.059
			c1.903-1.632,3.951-3.095,5.938-4.629c0.551,0.571,0.312,1.224,0.247,1.892c-0.179,1.871-0.705,3.705-0.587,5.605
			c-0.191,6.523-4.504,10.211-9.323,13.55c1.173-3.862,1.482-7.704-0.243-11.507c-1.819-4.009-4.218-5.041-8.278-3.265
			c-5.756,2.517-9.771,6.947-12.914,12.257c-0.772,0.885-1.296,1.913-1.735,2.99c-2.469,4.564-4.126,9.354-4.086,14.619
			c-0.688,0.629-0.351,1.609-0.813,2.336c-0.632,0.993-1.283,1.904-2.618,1.908c0.039-0.857,0.078-1.715,0.118-2.572
			c0.094-0.723,0.236-1.442,0.274-2.168c0.188-3.538,0.347-7.078,0.516-10.617c1.55-0.7,3.5-1.056,4.364-2.532
			c1.967-3.36,4.048-6.636,6.248-9.843l-0.013,0.015C78.408,67.193,79.158,66.45,79.908,65.706z"/>
		<path fill-rule="evenodd" clip-rule="evenodd" fill="#282620" d="M75.402,73.801c3.143-5.31,7.158-9.74,12.914-12.257
			c4.061-1.776,6.459-0.744,8.278,3.265c1.726,3.803,1.416,7.645,0.243,11.507c-0.389,0.16-0.289,0.556-0.407,0.847
			c-0.306,0.266-0.363,0.613-0.327,0.991c-0.235,0.576-0.471,1.151-0.706,1.728c0,0.001-0.022,0.075-0.022,0.075
			c-0.096,0.198-0.19,0.397-0.285,0.597c-0.064,0.033-0.091,0.085-0.078,0.156c-0.094,0.193-0.188,0.387-0.28,0.58
			c-0.07,0.049-0.1,0.116-0.089,0.202c-0.239,0.442-0.479,0.885-0.719,1.327c0.001,0-0.02,0.041-0.02,0.041
			c-0.113,0.228-0.227,0.455-0.341,0.683l-0.033,0.072c0.016,0.092-0.019,0.158-0.101,0.198c-0.083,0.12-0.166,0.24-0.248,0.361
			c-0.24,0.423-0.48,0.846-0.723,1.268l0.033-0.051c-0.047,0.116-0.121,0.21-0.223,0.283c-0.113,0.032-0.182,0.105-0.206,0.222
			c-0.124,0.173-0.247,0.345-0.37,0.518c-0.441,0.189-0.68,0.534-0.766,0.996c-0.322,0.413-0.645,0.825-0.967,1.237l-0.097,0.098
			c-0.083,0.092-0.165,0.184-0.247,0.275c-0.086,0.025-0.133,0.084-0.141,0.176c-0.315,0.307-0.632,0.614-0.949,0.921
			c-0.093,0.03-0.146,0.095-0.158,0.191c-1.473,1.118-2.882,2.333-4.428,3.338c-5.524,3.592-9.518,1.931-13.369-1.412
			c-0.324-0.28-0.659-0.548-0.99-0.823c-0.041-5.266,1.616-10.055,4.085-14.619C75.366,76.446,75.809,75.37,75.402,73.801z
			 M95.038,77.903c0.362-0.303,0.441-0.693,0.354-1.136c0.047-0.419,0.093-0.838,0.14-1.257c0.347-1.543,0.814-3.077,0.278-4.672
			c-0.022-0.243-0.045-0.485-0.066-0.729c0.07-0.423,0.053-0.825-0.271-1.156c-0.962-2.98-2.8-4.193-5.658-3.733
			c-0.231,0.054-0.463,0.108-0.694,0.163c-0.728-0.083-1.32,0.223-1.868,0.652c-0.298,0.024-0.573,0.094-0.733,0.382
			c-0.895,0.267-1.657,0.739-2.264,1.454l0.014-0.01c-0.42,0.06-0.686,0.295-0.801,0.701l-0.01,0.007
			c-4.07,3.331-6.66,7.603-8.041,12.644c-0.04,0.116-0.08,0.232-0.119,0.349c-0.285,0.313-0.266,0.702-0.271,1.084
			c-0.399,0.458-0.331,1-0.28,1.54c-0.271,1.107-0.398,2.217-0.071,3.338c0.127,3.63,2.975,6.631,5.769,5.842
			c4.837-1.365,8.418-4.432,10.973-8.729l-0.011,0.01c0.11-0.145,0.221-0.29,0.33-0.436c0.408-0.264,0.653-0.632,0.721-1.114
			c0.085-0.13,0.17-0.259,0.256-0.388c0.955-1.332,1.529-2.835,1.978-4.395C94.807,78.178,94.922,78.041,95.038,77.903z"/>
		<path fill-rule="evenodd" clip-rule="evenodd" fill="#403D35" d="M10.455,46.374c-0.909,1.114-0.897,2.447-0.896,3.777
			c-0.001,0.791-0.011,1.581-0.003,2.371c0.015,1.594,0.073,3.175,1.491,4.281c-0.66,4.334,1.695,7.732,3.852,10.981
			c3.04,4.578,6.49,8.876,9.49,13.508c2.076,3.206,5.51,5.142,8.556,7.393c0.661,0.488,1.633,0.691,1.781,1.722
			c-4.071-2.363-7.896-5.06-11.627-7.943c-3.049-2.358-6.193-4.6-9.031-7.207c-3.125-2.871-4.774-6.601-5.521-10.71
			c-0.119-0.659-0.413-1.243-0.491-1.892c0.265-0.727,0.116-1.469,0.006-2.186c-0.593-3.888-0.821-7.797-0.729-11.727
			c0.213-0.817,0.638-1.518,1.184-2.152C9.151,46.407,9.735,45.782,10.455,46.374z"/>
		<path fill-rule="evenodd" clip-rule="evenodd" fill="#DEDBD1" d="M66.269,93.083c-0.04,0.857-0.079,1.715-0.118,2.572l0.021-0.004
			c-0.141,0.102-0.282,0.203-0.423,0.305c-1.476,0.746-2.95,1.496-4.431,2.234c-0.218,0.109-0.461,0.167-0.695,0.242
			c-2.235,0.726-12.603,0.044-14.772-0.97c-0.016-0.191-0.032-0.384-0.049-0.575c0.951,0.114,1.904,0.257,2.827-0.148
			c-0.001,0,0.063-0.061,0.063-0.061c0.274-0.244,0.549-0.488,0.822-0.73c0.078-0.149,0.156-0.3,0.234-0.449
			c0.048-0.563,0.096-1.125,0.144-1.687c0.121-1.11,0.242-2.222,0.362-3.332c0.994,2.144,2.767,3.249,5.02,3.554
			c1.607,0.218,3.079,0.72,4.556,1.37c2.188,0.964,3.246,0.643,4.926-1.079C65.209,93.861,65.449,93.109,66.269,93.083z"/>
		<path fill-rule="evenodd" clip-rule="evenodd" fill="#AABECC" d="M7.334,48.743c-0.092,3.93,0.135,7.839,0.729,11.727
			c0.11,0.717,0.258,1.459-0.006,2.186C6.91,57.569,6.112,52.459,6.941,47.234C7.058,47.741,6.853,48.332,7.334,48.743z"/>
		<path fill-rule="evenodd" clip-rule="evenodd" fill="#AABECC" d="M106.161,62.766c-0.118-1.9,0.408-3.734,0.587-5.605
			c0.064-0.668,0.304-1.32-0.247-1.892c0.242-0.288,0.483-0.575,0.725-0.863C107.382,57.257,107.008,60.042,106.161,62.766z"/>
		<path fill-rule="evenodd" clip-rule="evenodd" fill="#F5B747" d="M103.964,35.319c-0.27,0.001-0.562-0.282-0.804,0.063
			c-0.529-0.487-1.151-0.603-1.838-0.457c0.076-0.735,1.372-0.754,1.024-1.74l0.014-0.013
			C103.048,33.773,103.62,34.46,103.964,35.319z"/>
		<path fill-rule="evenodd" clip-rule="evenodd" fill="#AABECC" d="M45.802,96.887c0.017,0.191,0.033,0.384,0.049,0.575
			c-1.19-0.293-2.198-0.879-2.973-1.844C43.978,95.754,44.88,96.343,45.802,96.887z"/>
		<path fill-rule="evenodd" clip-rule="evenodd" fill="#AABECC" d="M40.771,94.533c0.944-0.085,1.573,0.438,2.13,1.103
			C42.056,95.528,41.331,95.188,40.771,94.533z"/>
		<path fill-rule="evenodd" clip-rule="evenodd" fill="#403D35" d="M35.346,90.815c0.702,0.018,1.146,0.339,1.246,1.063
			C35.995,91.737,35.56,91.406,35.346,90.815z"/>
		<path fill-rule="evenodd" clip-rule="evenodd" fill="#403D35" d="M90.928,87.41c0.086-0.462,0.324-0.807,0.766-0.996
			C91.572,86.848,91.286,87.157,90.928,87.41z"/>
		<path fill-rule="evenodd" clip-rule="evenodd" fill="#AABECC" d="M7.299,46.103c0.069,0.399,0.001,0.753-0.33,1.022
			C6.922,46.733,7.008,46.385,7.299,46.103z"/>
		<path fill-rule="evenodd" clip-rule="evenodd" fill="#403D35" d="M96.104,78.154c-0.036-0.378,0.021-0.726,0.327-0.991
			C96.322,77.493,96.212,77.824,96.104,78.154z"/>
		<path fill-rule="evenodd" clip-rule="evenodd" fill="#403D35" d="M94.643,81.492c-0.011-0.086,0.019-0.153,0.089-0.202
			l0.023,0.129L94.643,81.492z"/>
		<path fill-rule="evenodd" clip-rule="evenodd" fill="#403D35" d="M93.904,82.86c0,0,0.021-0.041,0.02-0.041L93.904,82.86z"/>
		<polygon fill-rule="evenodd" clip-rule="evenodd" fill="#403D35" points="93.53,83.615 93.563,83.542 93.613,83.591 		"/>
		<path fill-rule="evenodd" clip-rule="evenodd" fill="#403D35" d="M93.182,84.174c0.082-0.121,0.165-0.241,0.248-0.361
			C93.347,83.934,93.264,84.054,93.182,84.174z"/>
		<path fill-rule="evenodd" clip-rule="evenodd" fill="#403D35" d="M92.492,85.391l-0.033,0.051
			C92.46,85.444,92.492,85.391,92.492,85.391z"/>
		<path fill-rule="evenodd" clip-rule="evenodd" fill="#403D35" d="M92.063,85.896c0.024-0.116,0.093-0.189,0.206-0.222
			C92.261,85.803,92.191,85.877,92.063,85.896z"/>
		<polygon fill-rule="evenodd" clip-rule="evenodd" fill="#403D35" points="89.864,88.745 89.961,88.647 89.956,88.74 		"/>
		<path fill-rule="evenodd" clip-rule="evenodd" fill="#403D35" d="M89.477,89.196c0.008-0.092,0.055-0.15,0.141-0.176
			C89.631,89.125,89.585,89.183,89.477,89.196z"/>
		<path fill-rule="evenodd" clip-rule="evenodd" fill="#403D35" d="M88.369,90.308c0.012-0.097,0.065-0.161,0.158-0.191
			C88.531,90.227,88.479,90.292,88.369,90.308z"/>
		<polygon fill-rule="evenodd" clip-rule="evenodd" fill="#403D35" points="34.911,90.488 35.035,90.57 34.937,90.587 		"/>
		<path fill-rule="evenodd" clip-rule="evenodd" fill="#F5B747" d="M101.674,32.442c0.121,0.114,0.244,0.228,0.366,0.342
			l0.001,0.003c-0.132-0.105-0.264-0.21-0.396-0.315L101.674,32.442z"/>
		<path fill-rule="evenodd" clip-rule="evenodd" fill="#F5B747" d="M102.04,32.784c0.106,0.129,0.214,0.258,0.32,0.387
			c0,0-0.014,0.013-0.013,0.013c-0.103-0.132-0.205-0.265-0.307-0.397L102.04,32.784z"/>
		<path fill-rule="evenodd" clip-rule="evenodd" fill="#403D35" d="M95.012,80.709c-0.013-0.071,0.014-0.123,0.078-0.156
			c-0.001,0,0.023,0.107,0.023,0.107L95.012,80.709z"/>
		<path fill-rule="evenodd" clip-rule="evenodd" fill="#75C6BB" d="M65.749,95.956c0.141-0.102,0.282-0.203,0.423-0.305
			C66.031,95.752,65.89,95.854,65.749,95.956z"/>
		<polygon fill-rule="evenodd" clip-rule="evenodd" fill="#403D35" points="95.375,79.957 95.397,79.881 95.449,79.916 		"/>
		<path fill-rule="evenodd" clip-rule="evenodd" fill="#E9E8E0" d="M66.269,93.083c-0.819,0.026-1.06,0.778-1.512,1.242
			c-1.68,1.722-2.737,2.043-4.926,1.079c-1.477-0.65-2.948-1.152-4.556-1.37c-2.253-0.305-4.026-1.41-5.02-3.554
			c-0.012-4.282-0.023-8.563-0.036-12.846c0.009-0.172,0.018-0.344,0.026-0.516c-0.599-1.716-0.521-3.667-1.791-5.151
			c0.023-0.119,0.043-0.239,0.058-0.36c2.169,0.609,2.595,2.484,2.806,4.274c0.289,2.446,1.308,4.59,2.27,6.776
			c0.303,0.689,0.835,1.285,1.542,1.527c2.012,0.693,3.619,2.058,5.379,3.156c1.328,0.829,2.251,0.703,3.034-0.675
			c1.229-2.156,2.24-4.374,2.262-6.919c0.006-0.818-0.033-1.656,1.06-1.848c0.063,0.799,0.128,1.599,0.192,2.397
			c-0.169,3.539-0.328,7.079-0.516,10.617C66.505,91.64,66.362,92.36,66.269,93.083z"/>
		<path fill-rule="evenodd" clip-rule="evenodd" fill="#F5A631" d="M22.142,31.638c1.059-2.229,2.62-2.456,4.385-0.884
			c2.501,2.228,5.438,3.788,8.569,4.971c0,0-0.002-0.002-0.002-0.002c0.248,0.124,0.496,0.247,0.744,0.37l-0.002-0.001
			c0.247,0.129,0.494,0.259,0.741,0.389c0.124,0.117,0.248,0.233,0.372,0.351c0.249,0.124,0.498,0.247,0.746,0.371l0.169,0.003
			l0.169-0.001c0.131,0.124,0.262,0.247,0.393,0.37l0,0c0.247,0.124,0.493,0.248,0.74,0.371l0,0
			c0.246,0.124,0.493,0.248,0.739,0.371v-0.001c0.123,0.123,0.246,0.246,0.369,0.369l0.002,0.003
			c0.247,0.123,0.494,0.246,0.741,0.369l-0.003-0.002c0.245,0.124,0.49,0.247,0.735,0.37l0.009,0.006
			c0.224,0.462,0.598,0.699,1.105,0.735l0.002,0.001c0.311,0.606,0.846,0.766,1.474,0.739l0.008,0.004
			c0.121,0.12,0.241,0.24,0.362,0.36l0.011,0.011c0.225,0.462,0.601,0.695,1.106,0.733l0,0c0.29,0.356,0.688,0.389,1.104,0.372
			l0.005,0.006c0.044,0.447,0.302,0.679,0.738,0.733l0.003,0.002c0.245,0.123,0.49,0.245,0.735,0.368l0.005,0.003
			c0.123,0.122,0.246,0.244,0.369,0.366v0.001c0.227,0.464,0.604,0.7,1.112,0.74l-0.003-0.002c0.255,0.125,0.509,0.25,0.764,0.375
			c0.654,0.125,0.918,0.803,1.443,1.057c1.069,0.519,1.524,1.951,2.968,1.902c3.537-0.12,3.865,0.821,4.087,4.442
			c-0.387,0.351-0.385,0.824-0.407,1.29c-6.758-4.822-13.538-9.607-20.728-13.784C32.856,36.883,27.526,34.211,22.142,31.638z"/>
		<path fill-rule="evenodd" clip-rule="evenodd" fill="#F5B747" d="M58.749,53.668c0.022-0.466,0.021-0.939,0.407-1.29
			c0.962,0.104,1.427,0.905,2.025,1.491c2.256,2.213,2.971,2.346,5.729,0.695c1.165-0.697,2.3-1.512,3.643-1.695
			c2.085-0.286,3.781-1.288,5.511-2.377c3.518-2.215,7.009-4.486,10.787-6.257c-0.026,1.041,0.553,0.931,1.323,0.814
			c2.095-0.317,3.722-1.788,5.753-2.233c-0.086,0.483-0.439,0.726-0.843,0.903c-1.906,0.833-3.425,2.182-4.754,3.726
			c-1.676,1.948-3.927,3.139-5.916,4.671c-0.265,0.204-0.695,0.19-1.05,0.277l-0.021-0.024c0.504-0.981,1.54-1.384,2.282-2.105
			c0.253-0.245,0.631-0.512,0.407-0.926c-0.207-0.383-0.654-0.332-0.992-0.241c-0.828,0.223-1.691,0.405-2.441,0.796
			c-1.809,0.94-3.89,1.451-5.229,3.168c-0.105,0.011-0.207,0.03-0.309,0.061c-2.271,0.757-4.271,1.956-5.954,3.668
			c-0.106,0.016-0.21,0.043-0.31,0.084c-1.908,0.772-3.491,2.064-5.155,3.227C62.46,57.616,60.646,55.61,58.749,53.668z"/>
		<path fill-rule="evenodd" clip-rule="evenodd" fill="#F5B747" d="M67.059,80.297c-0.064-0.799-0.129-1.599-0.192-2.397
			c-0.097-5.369-0.032-10.759-2.068-15.874c2.042-0.752,4.063-1.54,5.528-3.268c0.104-0.017,0.208-0.039,0.31-0.065
			c0.241-0.008,0.483-0.016,0.726-0.022l0.029,0.029c0.011,1.033-0.262,1.993-1.08,2.643c-1.839,1.461-2.625,3.434-2.479,5.654
			c0.167,2.551,0.015,5.158,0.894,7.634c0.609,1.716,1.383,1.929,2.594,0.489c1.379-1.638,2.539-3.458,3.858-5.148
			c0.666-0.854,1.277-1.838,2.494-2.049c-2.2,3.207-4.281,6.482-6.248,9.843C70.559,79.242,68.608,79.597,67.059,80.297z"/>
		<path fill-rule="evenodd" clip-rule="evenodd" fill="#403D35" d="M22.142,54.229c-2.54-1.64-5.073-3.289-7.624-4.912
			c-0.563-0.358-1.232-0.582-1.235-1.412c5.201,2.775,10.155,5.965,15.144,9.091c5.257,3.294,10.425,6.729,15.622,10.116
			c0.657,0.429,1.429,0.734,1.83,1.486c-0.051,0.053-0.103,0.107-0.154,0.16c-3.302-1.377-6.116-3.574-9.119-5.45
			C31.779,60.291,27.108,57.024,22.142,54.229z"/>
		<path fill-rule="evenodd" clip-rule="evenodd" fill="#F9D487" d="M70.326,58.758c-1.465,1.728-3.486,2.516-5.528,3.268
			c-0.385-0.643-0.77-1.284-1.154-1.926c1.664-1.162,3.247-2.454,5.154-3.228c-0.101,0.665-0.585,1.041-1.066,1.423
			c-0.375,0.299-0.567,0.694-0.268,1.108c0.285,0.396,0.661,0.096,0.983-0.031C69.063,59.131,69.6,58.655,70.326,58.758z"/>
		<path fill-rule="evenodd" clip-rule="evenodd" fill="#403D35" d="M48.513,71.607c-0.015,0.121-0.035,0.241-0.058,0.36
			c-1.272-0.123-1.352-1.189-1.648-2.085c0.05-0.046,0.1-0.093,0.149-0.14C47.725,70.156,47.928,71.042,48.513,71.607z"/>
		<path fill-rule="evenodd" clip-rule="evenodd" fill="#403D35" d="M45.878,68.598c0.526,0.225,0.874,0.617,1.077,1.145
			c-0.049,0.047-0.099,0.094-0.148,0.14c-0.523-0.218-0.893-0.584-1.083-1.124C45.776,68.706,45.827,68.651,45.878,68.598z"/>
		<path fill-rule="evenodd" clip-rule="evenodd" fill="#403D35" d="M13.294,47.912c-0.527,0.038-1.017,0.01-1.146-0.652
			C12.585,47.382,13.042,47.467,13.294,47.912z"/>
		<path fill-rule="evenodd" clip-rule="evenodd" fill="#FBE3B0" d="M99.83,39.024c-0.102,0.026-0.202,0.05-0.304,0.071
			c-1.907,0.494-3.406,1.688-4.925,2.852c-1.034,0.043-1.979,0.406-2.907,0.82c-0.647,0.289-1.267,0.542-1.524-0.453
			c1.07-0.62,2.07-1.333,2.962-2.194c1.27-0.335,2.165-1.326,3.306-1.888c1.933-0.954,3.712-2.306,6.07-2.482
			C102.116,37.404,100.217,37.579,99.83,39.024z"/>
		<path fill-rule="evenodd" clip-rule="evenodd" fill="#FBE3B0" d="M70.326,58.758c-0.727-0.104-1.264,0.373-1.879,0.614
			c-0.322,0.127-0.698,0.428-0.983,0.031c-0.3-0.414-0.107-0.81,0.268-1.108c0.481-0.382,0.966-0.758,1.066-1.423
			c0.101-0.04,0.204-0.067,0.311-0.083c2.299-0.713,4.29-1.926,5.954-3.668c0.102-0.03,0.203-0.05,0.309-0.06
			c0.819,0.105,1.528-0.247,2.238-0.563c0.372-0.166,0.721-0.611,1.134-0.327c0.536,0.369-0.065,0.879,0.026,1.326l-0.002-0.001
			c-0.554-0.028-1.031,0.056-1.11,0.739l-0.001-0.001c-0.554-0.023-1.033,0.061-1.1,0.751l-0.003-0.001
			c-0.563-0.029-1.048,0.052-1.097,0.762c-0.02,0.105-0.031,0.213-0.035,0.32c-0.458,0.019-0.727,0.275-0.873,0.688l-0.123-0.007
			l-0.115,0.043c-0.234,0.018-0.469,0.035-0.703,0.053c-0.562-0.036-1.058,0.025-1.114,0.744c-0.241,0.127-0.483,0.253-0.725,0.379
			c-0.569-0.059-1.053,0.019-1.132,0.726C70.534,58.719,70.431,58.742,70.326,58.758z"/>
		<path fill-rule="evenodd" clip-rule="evenodd" fill="#F9D487" d="M99.83,39.024c0.387-1.445,2.286-1.62,2.678-3.273
			c-2.358,0.176-4.138,1.528-6.07,2.482c-1.141,0.563-2.036,1.553-3.306,1.889c-0.006-0.967,0.79-1.392,1.422-1.748
			c2.206-1.242,4.37-2.58,6.769-3.449c0.687-0.146,1.309-0.03,1.838,0.457C103.477,37.121,102.228,38.487,99.83,39.024z"/>
		<path fill-rule="evenodd" clip-rule="evenodd" fill="#F9D487" d="M90.17,42.314c0.258,0.994,0.877,0.742,1.524,0.453
			c0.929-0.415,1.873-0.777,2.907-0.82l0.088,0.098c-0.134,0.233-0.268,0.466-0.401,0.698c-0.123,0.009-0.243,0.033-0.36,0.074
			c-2.031,0.445-3.658,1.916-5.753,2.233c-0.771,0.116-1.35,0.227-1.323-0.814C87.886,43.47,88.926,42.717,90.17,42.314z"/>
		<path fill-rule="evenodd" clip-rule="evenodd" fill="#F9D487" d="M94.602,41.947c1.519-1.163,3.018-2.358,4.925-2.852
			c-0.89,1.663-2.677,2.064-4.126,2.94c-0.236,0.003-0.474,0.006-0.711,0.009L94.602,41.947z"/>
		<path fill-rule="evenodd" clip-rule="evenodd" fill="#F5B747" d="M79.908,65.706c-0.75,0.744-1.5,1.487-2.25,2.231
			C77.722,66.5,78.477,65.76,79.908,65.706z"/>
		<path fill-rule="evenodd" clip-rule="evenodd" fill="#F5B747" d="M73.607,56.844c0.234-0.018,0.469-0.035,0.703-0.053
			c-0.563,1.263-1.655,1.717-2.92,1.908l-0.029-0.029c0.135-0.234,0.271-0.469,0.407-0.703c0.241-0.126,0.483-0.252,0.725-0.379
			C73.002,57.546,73.373,57.297,73.607,56.844z"/>
		<path fill-rule="evenodd" clip-rule="evenodd" fill="#F5B747" d="M81.365,52.394c-0.269,0.938-1.052,1.031-1.838,1.121
			L79.5,53.489c0.425-0.686,1.098-0.962,1.844-1.119L81.365,52.394z"/>
		<path fill-rule="evenodd" clip-rule="evenodd" fill="#F5B747" d="M94.689,42.044c0.237-0.003,0.475-0.006,0.711-0.009
			c-0.104,0.654-0.584,0.719-1.112,0.707C94.422,42.51,94.556,42.278,94.689,42.044z"/>
		<path fill-rule="evenodd" clip-rule="evenodd" fill="#F5B747" d="M77.315,55.004c-0.13,0.592-0.571,0.709-1.087,0.714
			c0.107-0.244,0.217-0.488,0.325-0.733l0.003,0.001c0.241-0.006,0.482-0.011,0.724-0.017L77.315,55.004z"/>
		<path fill-rule="evenodd" clip-rule="evenodd" fill="#F9D487" d="M76.554,54.985c-0.108,0.245-0.218,0.489-0.325,0.733
			c-0.257,0.009-0.515,0.019-0.771,0.028C75.506,55.037,75.991,54.956,76.554,54.985z"/>
		<path fill-rule="evenodd" clip-rule="evenodd" fill="#F5B747" d="M78.418,54.256c-0.123,0.609-0.596,0.705-1.104,0.747
			c0.001,0.001-0.034-0.034-0.034-0.034c0.126-0.244,0.251-0.489,0.376-0.734l0.001,0.001c0.244-0.003,0.488-0.005,0.732-0.008
			L78.418,54.256z"/>
		<path fill-rule="evenodd" clip-rule="evenodd" fill="#F5B747" d="M79.527,53.515c-0.132,0.604-0.596,0.71-1.109,0.74
			c0,0.001-0.028-0.027-0.028-0.027c0.126-0.244,0.252-0.487,0.378-0.731c0,0,0.002,0.001,0.002,0
			c0.243-0.002,0.486-0.006,0.73-0.008L79.527,53.515z"/>
		<path fill-rule="evenodd" clip-rule="evenodd" fill="#F5B747" d="M74.549,56.755c0.146-0.413,0.415-0.67,0.873-0.688
			C75.351,56.575,75.045,56.786,74.549,56.755z"/>
		<path fill-rule="evenodd" clip-rule="evenodd" fill="#F5B635" d="M90.17,42.314c-1.244,0.402-2.284,1.156-3.318,1.921
			c-3.778,1.771-7.27,4.042-10.787,6.257c-1.729,1.089-3.426,2.091-5.511,2.377c-1.343,0.184-2.478,0.998-3.643,1.695
			c-2.759,1.65-3.474,1.518-5.729-0.695c-0.599-0.586-1.063-1.387-2.025-1.491c-0.223-3.621-0.551-4.563-4.087-4.442
			c-1.444,0.049-1.899-1.384-2.968-1.902c-0.525-0.254-0.79-0.932-1.443-1.057c-0.255-0.125-0.509-0.25-0.764-0.375l0.003,0.002
			c-0.094-0.664-0.571-0.75-1.112-0.74v-0.001c-0.123-0.122-0.246-0.244-0.369-0.366l-0.005-0.003
			c-0.245-0.123-0.49-0.246-0.735-0.368l-0.003-0.002c-0.043-0.448-0.291-0.691-0.738-0.733l-0.005-0.006
			c-0.285-0.371-0.693-0.375-1.104-0.372l0,0c-0.09-0.666-0.563-0.752-1.106-0.733l-0.011-0.011c-0.121-0.12-0.241-0.24-0.362-0.36
			l-0.008-0.004c-0.295-0.637-0.844-0.77-1.474-0.739l-0.002-0.001c-0.086-0.67-0.564-0.75-1.105-0.735l-0.009-0.006
			c-0.245-0.123-0.49-0.247-0.735-0.37l0.003,0.002c-0.247-0.123-0.494-0.246-0.741-0.369l-0.002-0.003
			c-0.123-0.123-0.246-0.246-0.369-0.369v0.001c-0.247-0.124-0.493-0.247-0.739-0.371l0,0c-0.247-0.123-0.493-0.247-0.74-0.371l0,0
			c-0.131-0.123-0.262-0.247-0.393-0.37l-0.169,0.001l-0.169-0.003c-0.249-0.124-0.497-0.248-0.746-0.371
			c-0.124-0.117-0.248-0.234-0.372-0.351c-0.247-0.129-0.494-0.259-0.741-0.388l0.002,0.001c-0.248-0.123-0.496-0.247-0.744-0.37
			c0,0,0.002,0.002,0.002,0.002c-0.271-1.198-1.208-1.786-2.157-2.373c-1.619-1.001-3.274-1.952-4.833-3.041
			c-2.402-1.678-2.255-2.995,0.361-4.23c1.077-0.508,2.215-0.842,3.38-0.794c2.241,0.091,3.934-1.406,5.965-1.902
			c0.638-0.156,1.175-0.175,1.75,0.187c1.87,1.172,3.721,1.087,5.233-0.354c1.112-1.06,2.384-1.098,3.567-0.526
			c1.191,0.576,1.966,0.344,3.011-0.347c1.486-0.982,3.058-1.769,4.095-3.329c0.337-0.506,1.142-0.994,1.748-0.31
			c1.01,1.142,1.909,0.607,2.679-0.13c0.913-0.874,1.739-0.551,2.7-0.197c1.271,0.469,0.578,1.404,0.624,2.17
			c0.149,0.954,0.824,1.417,1.606,1.854c2.563,1.429,5.286,2.567,7.706,4.252c0.712,0.496,1.422,0.62,2.228,0.162
			c1.061-0.603,2.188-1.092,3.234-1.717c1.36-0.813,1.329-1.581-0.03-2.349c-0.529-0.299-1.14-0.485-1.432-1.092
			c2.072-0.371,4.065-0.302,5.905,0.911c2.118,1.396,4.586,2.031,6.866,3.078c3.743,1.718,7.148,4.023,10.64,6.179
			c0.507,0.313,1.133,0.435,1.703,0.646c0.132,0.105,0.264,0.21,0.396,0.315c0.102,0.132,0.204,0.265,0.307,0.397
			c0.347,0.986-0.949,1.005-1.025,1.74c-2.398,0.869-4.563,2.207-6.769,3.449c-0.632,0.356-1.428,0.781-1.422,1.748
			C92.24,40.982,91.24,41.695,90.17,42.314z"/>
		<path fill-rule="evenodd" clip-rule="evenodd" fill="#F5A631" d="M76.531,21.658c0.292,0.607,0.902,0.793,1.432,1.092
			c1.359,0.768,1.391,1.536,0.03,2.349c-1.046,0.625-2.174,1.114-3.234,1.717c-0.806,0.458-1.516,0.333-2.228-0.162
			c-2.42-1.686-5.144-2.824-7.706-4.252c-0.782-0.437-1.457-0.9-1.606-1.854c1.322-0.179,2.289-1.129,3.457-1.652
			c1.75-0.782,3.193-0.346,4.702,0.425C73.06,20.179,74.68,21.175,76.531,21.658z"/>
		<path fill-rule="evenodd" clip-rule="evenodd" fill="#282620" d="M45.725,68.758c0.19,0.54,0.56,0.906,1.083,1.124
			c0.296,0.896,0.375,1.962,1.647,2.085c1.27,1.484,1.192,3.436,1.791,5.151c-0.369,0.153-0.415,0.323-0.026,0.516
			c0.012,4.282,0.024,8.563,0.036,12.846c-0.121,1.11-0.242,2.222-0.362,3.332c-3.255,2.851-5.636,0.096-7.861-1.533
			c-3.718-2.723-6.573-6.404-9.761-9.721c-4.191-4.359-6.487-9.821-9.713-14.727c-2.397-3.644-2.973-7.831-2.292-12.198
			c0.204-1.311,1.369-0.799,1.876-1.404c4.966,2.795,9.637,6.062,14.463,9.079C39.608,65.184,42.423,67.381,45.725,68.758z
			 M44.72,77.958c1.807-1.165,1.13-2.991,1.02-4.521c-0.208-2.892-2.641-5.38-5.019-5.489c-1.328,0.183-1.839,1.027-1.918,2.283
			c-0.127,1.996,0.593,3.865,0.818,5.766c0.202,1.704,1.186,2.258,2.138,3.119C42.535,78.189,44.044,79.14,44.72,77.958z"/>
		<path fill-rule="evenodd" clip-rule="evenodd" fill="#DEDBD1" d="M14.456,58.471c-2.274-2.151-2.89-5.004-3.346-7.923
			c0.227-0.364,0.207-0.755,0.125-1.152c0.83-0.632,1.38,0.063,1.877,0.492c2.025,1.752,2.821,6.189,1.633,8.76
			C14.692,58.517,14.597,58.458,14.456,58.471z"/>
		<path fill-rule="evenodd" clip-rule="evenodd" fill="#282620" d="M11.047,56.803c-1.418-1.106-1.477-2.688-1.491-4.281
			c-0.008-0.79,0.002-1.58,0.003-2.371c0.249-0.123,0.497-0.246,0.746-0.368c0,0.246,0.001,0.493,0.001,0.739
			C10.107,52.668,10.495,54.746,11.047,56.803z"/>
		<path fill-rule="evenodd" clip-rule="evenodd" fill="#403D35" d="M10.306,50.522c0-0.246-0.001-0.493-0.001-0.739
			c0.311-0.13,0.621-0.258,0.931-0.387c0.082,0.397,0.102,0.788-0.125,1.152C10.842,50.54,10.574,50.531,10.306,50.522z"/>
		<path fill-rule="evenodd" clip-rule="evenodd" fill="#403D35" d="M14.456,58.471c0.141-0.013,0.236,0.046,0.289,0.177
			c-0.034,0.149-0.015,0.385-0.255,0.296C14.429,58.92,14.465,58.636,14.456,58.471z"/>
		<path fill-rule="evenodd" clip-rule="evenodd" fill="#AABECC" d="M49.749,95.499c-0.078,0.149-0.157,0.3-0.234,0.449
			C49.593,95.797,49.671,95.647,49.749,95.499z"/>
		<polygon fill-rule="evenodd" clip-rule="evenodd" fill="#AABECC" points="48.692,96.678 48.629,96.739 48.597,96.635 		"/>
		<path fill-rule="evenodd" clip-rule="evenodd" fill="#2E2C25" d="M75.402,73.801c0.406,1.568-0.036,2.645-1.735,2.99
			C74.106,75.714,74.63,74.686,75.402,73.801z"/>
		<path fill-rule="evenodd" clip-rule="evenodd" fill="#E9E8E0" d="M95.532,75.51c-0.047,0.419-0.093,0.838-0.14,1.257
			c-0.154,0.259-0.308,0.519-0.461,0.777c-0.08,0.257-0.16,0.514-0.241,0.771c-0.448,1.56-1.022,3.063-1.978,4.394
			c-0.086,0.13-0.171,0.259-0.256,0.389c-0.067,0.482-0.313,0.851-0.721,1.114c-0.109,0.146-0.22,0.291-0.33,0.436l0.011-0.01
			c-0.719-0.086-1.09,0.45-1.56,0.84c-1.652,1.371-3.24,2.822-5.078,3.961c-3.811,2.361-7.145,1.779-9.61-1.693
			c-0.09-0.127-0.325-0.15-0.493-0.221c-0.327-1.121-0.2-2.23,0.071-3.338c0.404-0.457,0.339-0.999,0.28-1.54
			c0.006-0.382-0.014-0.771,0.271-1.084c0.04-0.116,0.08-0.232,0.12-0.349c1.381-5.041,3.971-9.313,8.041-12.644
			c-0.088,1.282-1.089,2.012-1.801,2.896c-1.956,2.432-3.252,5.066-2.904,8.3c0.165,1.533,1.09,2.406,2.602,2.165
			c4.463-0.71,8.308-2.719,11.355-6.026c2.334-2.532,2.508-5.374,1.006-8.078c-0.877-1.579-2.748-1.525-3.901-2.606
			c2.858-0.46,4.696,0.753,5.658,3.733c-0.115,0.434-0.046,0.824,0.271,1.156c0.021,0.243,0.044,0.485,0.066,0.729
			C95.656,72.391,95.252,73.93,95.532,75.51z"/>
		<path fill-rule="evenodd" clip-rule="evenodd" fill="#F5F3EB" d="M89.815,65.22c1.153,1.081,3.024,1.027,3.901,2.606
			c1.502,2.704,1.328,5.546-1.006,8.078c-3.048,3.308-6.893,5.316-11.355,6.026c-1.512,0.241-2.437-0.632-2.602-2.165
			c-0.348-3.233,0.948-5.868,2.904-8.3c0.712-0.885,1.713-1.614,1.801-2.896l0.01-0.007c0.512,0.046,0.77-0.198,0.801-0.701
			l-0.014,0.01c1.057-0.014,2.017-0.18,2.264-1.454c0.16-0.288,0.436-0.357,0.733-0.382c0.874,0.5,1.457,0.169,1.868-0.652
			C89.353,65.329,89.584,65.274,89.815,65.22z"/>
		<path fill-rule="evenodd" clip-rule="evenodd" fill="#DEDBD1" d="M74.676,87.524c0.168,0.07,0.403,0.094,0.493,0.221
			c2.466,3.473,5.8,4.055,9.61,1.693c1.838-1.139,3.426-2.59,5.078-3.961c0.47-0.39,0.841-0.926,1.56-0.84
			c-2.555,4.297-6.136,7.363-10.973,8.729C77.65,94.155,74.803,91.154,74.676,87.524z"/>
		<path fill-rule="evenodd" clip-rule="evenodd" fill="#AABECC" d="M95.532,75.51c-0.28-1.58,0.124-3.119,0.278-4.672
			C96.347,72.433,95.879,73.967,95.532,75.51z"/>
		<path fill-rule="evenodd" clip-rule="evenodd" fill="#E9E8E0" d="M86.52,66.417c-0.247,1.274-1.207,1.44-2.264,1.454
			C84.862,67.157,85.625,66.684,86.52,66.417z"/>
		<path fill-rule="evenodd" clip-rule="evenodd" fill="#E9E8E0" d="M89.121,65.383c-0.411,0.821-0.994,1.152-1.868,0.652
			C87.801,65.606,88.394,65.3,89.121,65.383z"/>
		<path fill-rule="evenodd" clip-rule="evenodd" fill="#E9E8E0" d="M84.27,67.862c-0.031,0.503-0.289,0.747-0.801,0.701
			C83.584,68.157,83.85,67.921,84.27,67.862z"/>
		<path fill-rule="evenodd" clip-rule="evenodd" fill="#DEDBD1" d="M75.027,82.646c0.059,0.541,0.124,1.083-0.28,1.54
			C74.696,83.646,74.628,83.104,75.027,82.646z"/>
		<path fill-rule="evenodd" clip-rule="evenodd" fill="#403D35" d="M94.932,77.544c0.153-0.259,0.307-0.519,0.461-0.777
			c0.087,0.442,0.008,0.833-0.354,1.136C95.002,77.784,94.967,77.665,94.932,77.544z"/>
		<path fill-rule="evenodd" clip-rule="evenodd" fill="#AABECC" d="M95.744,70.11c-0.316-0.332-0.386-0.723-0.271-1.156
			C95.797,69.285,95.814,69.687,95.744,70.11z"/>
		<path fill-rule="evenodd" clip-rule="evenodd" fill="#DEDBD1" d="M94.932,77.544c0.035,0.12,0.07,0.239,0.106,0.358
			c-0.116,0.138-0.231,0.275-0.348,0.412C94.771,78.058,94.852,77.801,94.932,77.544z"/>
		<path fill-rule="evenodd" clip-rule="evenodd" fill="#DEDBD1" d="M75.418,81.213c-0.04,0.116-0.08,0.232-0.12,0.349
			C75.338,81.446,75.378,81.33,75.418,81.213z"/>
		<path fill-rule="evenodd" clip-rule="evenodd" fill="#DEDBD1" d="M92.457,83.097c0.085-0.13,0.17-0.259,0.256-0.389
			C92.627,82.838,92.542,82.967,92.457,83.097z"/>
		<path fill-rule="evenodd" clip-rule="evenodd" fill="#DEDBD1" d="M91.406,84.647c0.11-0.145,0.221-0.29,0.33-0.436
			C91.627,84.357,91.517,84.502,91.406,84.647z"/>
		<path fill-rule="evenodd" clip-rule="evenodd" fill="#DEDBD1" d="M50.22,77.634c-0.388-0.192-0.343-0.362,0.026-0.516
			C50.238,77.291,50.229,77.462,50.22,77.634z"/>
		<path fill-rule="evenodd" clip-rule="evenodd" fill="#F5B747" d="M42.864,40.167c0.63-0.031,1.179,0.102,1.474,0.739
			C43.71,40.933,43.175,40.773,42.864,40.167z"/>
		<path fill-rule="evenodd" clip-rule="evenodd" fill="#F5B747" d="M41.757,39.431c0.541-0.016,1.019,0.065,1.105,0.735
			C42.354,40.129,41.98,39.893,41.757,39.431z"/>
		<path fill-rule="evenodd" clip-rule="evenodd" fill="#F5B747" d="M48.784,43.865c0.541-0.01,1.019,0.076,1.112,0.74
			C49.388,44.565,49.011,44.329,48.784,43.865z"/>
		<path fill-rule="evenodd" clip-rule="evenodd" fill="#F5B747" d="M44.719,41.281c0.543-0.02,1.017,0.067,1.106,0.733
			C45.319,41.976,44.943,41.743,44.719,41.281z"/>
		<path fill-rule="evenodd" clip-rule="evenodd" fill="#F5B747" d="M46.934,42.391c0.447,0.042,0.695,0.285,0.738,0.733
			C47.236,43.07,46.978,42.838,46.934,42.391z"/>
		<path fill-rule="evenodd" clip-rule="evenodd" fill="#F5B747" d="M45.825,42.013c0.411-0.003,0.819,0.001,1.104,0.372
			C46.513,42.402,46.114,42.37,45.825,42.013z"/>
		<path fill-rule="evenodd" clip-rule="evenodd" fill="#F5B747" d="M41.013,39.054c0.245,0.124,0.49,0.247,0.735,0.37
			C41.503,39.301,41.258,39.178,41.013,39.054z"/>
		<path fill-rule="evenodd" clip-rule="evenodd" fill="#F5B747" d="M49.894,44.602c0.254,0.125,0.509,0.25,0.764,0.375
			C50.403,44.852,50.148,44.727,49.894,44.602z"/>
		<path fill-rule="evenodd" clip-rule="evenodd" fill="#F5B747" d="M47.675,43.126c0.245,0.123,0.49,0.245,0.735,0.368
			C48.165,43.372,47.92,43.249,47.675,43.126z"/>
		<path fill-rule="evenodd" clip-rule="evenodd" fill="#F5B747" d="M35.094,35.722c0.248,0.124,0.496,0.247,0.744,0.37
			C35.59,35.969,35.342,35.846,35.094,35.722z"/>
		<path fill-rule="evenodd" clip-rule="evenodd" fill="#F5B747" d="M35.835,36.091c0.247,0.129,0.494,0.259,0.741,0.388
			C36.329,36.35,36.082,36.22,35.835,36.091z"/>
		<path fill-rule="evenodd" clip-rule="evenodd" fill="#F5B747" d="M36.948,36.831c0.249,0.124,0.497,0.247,0.746,0.371
			C37.445,37.078,37.196,36.954,36.948,36.831z"/>
		<path fill-rule="evenodd" clip-rule="evenodd" fill="#F5B747" d="M38.424,37.574c0.247,0.124,0.493,0.248,0.74,0.371
			C38.917,37.822,38.671,37.698,38.424,37.574z"/>
		<path fill-rule="evenodd" clip-rule="evenodd" fill="#F5B747" d="M39.164,37.945c0.246,0.124,0.493,0.248,0.739,0.371
			C39.657,38.192,39.41,38.069,39.164,37.945z"/>
		<path fill-rule="evenodd" clip-rule="evenodd" fill="#F5B747" d="M40.274,38.687c0.247,0.123,0.494,0.246,0.741,0.369
			C40.769,38.933,40.521,38.81,40.274,38.687z"/>
		<path fill-rule="evenodd" clip-rule="evenodd" fill="#F5B747" d="M39.903,38.315c0.123,0.123,0.246,0.246,0.369,0.369
			C40.149,38.561,40.026,38.438,39.903,38.315z"/>
		<path fill-rule="evenodd" clip-rule="evenodd" fill="#F5B747" d="M48.416,43.498c0.123,0.122,0.246,0.244,0.369,0.366
			C48.661,43.742,48.538,43.62,48.416,43.498z"/>
		<path fill-rule="evenodd" clip-rule="evenodd" fill="#F5B747" d="M38.032,37.204c0.131,0.124,0.262,0.247,0.393,0.37
			C38.294,37.451,38.163,37.327,38.032,37.204z"/>
		<path fill-rule="evenodd" clip-rule="evenodd" fill="#F5B747" d="M44.346,40.91c0.121,0.12,0.241,0.24,0.362,0.36
			C44.587,41.15,44.467,41.03,44.346,40.91z"/>
		<path fill-rule="evenodd" clip-rule="evenodd" fill="#F9D487" d="M79.5,53.489c-0.244,0.002-0.487,0.006-0.73,0.008
			c-0.092-0.446,0.51-0.956-0.026-1.325c-0.413-0.284-0.762,0.161-1.134,0.327c-0.71,0.316-1.419,0.669-2.238,0.563
			c1.339-1.718,3.42-2.229,5.229-3.169c0.75-0.391,1.613-0.573,2.441-0.796c0.338-0.091,0.785-0.142,0.992,0.241
			c0.224,0.414-0.154,0.681-0.407,0.926c-0.742,0.722-1.778,1.124-2.282,2.105C80.598,52.527,79.925,52.803,79.5,53.489z"/>
		<path fill-rule="evenodd" clip-rule="evenodd" fill="#F9D487" d="M75.063,53.122c-1.664,1.742-3.655,2.955-5.954,3.668
			C70.792,55.078,72.791,53.878,75.063,53.122z"/>
		<path fill-rule="evenodd" clip-rule="evenodd" fill="#F9D487" d="M71.769,57.967c-0.136,0.234-0.272,0.469-0.407,0.703
			c-0.242,0.007-0.484,0.015-0.726,0.022C70.716,57.986,71.199,57.909,71.769,57.967z"/>
		<path fill-rule="evenodd" clip-rule="evenodd" fill="#F9D487" d="M73.607,56.844c-0.234,0.453-0.605,0.702-1.114,0.744
			C72.55,56.87,73.046,56.808,73.607,56.844z"/>
		<path fill-rule="evenodd" clip-rule="evenodd" fill="#F9D487" d="M77.656,54.235c-0.125,0.245-0.25,0.49-0.376,0.734
			c-0.241,0.006-0.482,0.011-0.724,0.017C76.623,54.295,77.103,54.211,77.656,54.235z"/>
		<path fill-rule="evenodd" clip-rule="evenodd" fill="#F9D487" d="M78.768,53.497c-0.126,0.244-0.252,0.487-0.378,0.731
			c-0.244,0.003-0.488,0.005-0.732,0.008C77.736,53.552,78.214,53.468,78.768,53.497z"/>
		<path fill-rule="evenodd" clip-rule="evenodd" fill="#DEDBD1" d="M40.722,67.948c2.377,0.109,4.811,2.598,5.019,5.489
			c0.11,1.53,0.787,3.356-1.02,4.521C41.271,75.467,40.158,72.042,40.722,67.948z"/>
		<path fill-rule="evenodd" clip-rule="evenodd" fill="#403D35" d="M40.722,67.948c-0.563,4.094,0.549,7.52,3.999,10.011
			c-0.676,1.182-2.186,0.23-2.961,1.157c-0.952-0.861-1.936-1.415-2.138-3.119c-0.225-1.9-0.945-3.77-0.818-5.766
			C38.883,68.975,39.394,68.13,40.722,67.948z"/>
	</g>
</g>
<g id="레이어_2">
	<rect x="-110.075" y="-268.965" fill-rule="evenodd" clip-rule="evenodd" fill="#448ECC" width="120.375" height="120.375"/>
</g>
</svg>
