<?xml version="1.0" encoding="utf-8"?>
<!-- Generator: Adobe Illustrator 16.0.0, SVG Export Plug-In . SVG Version: 6.00 Build 0)  -->
<!DOCTYPE svg PUBLIC "-//W3C//DTD SVG 1.1//EN" "http://www.w3.org/Graphics/SVG/1.1/DTD/svg11.dtd">
<svg version="1.1" id="레이어_1" xmlns="http://www.w3.org/2000/svg" xmlns:xlink="http://www.w3.org/1999/xlink" x="0px"
	 y="0px" width="2.024px" height="12.414px" viewBox="0 0 2.024 12.414" enable-background="new 0 0 2.024 12.414"
	 xml:space="preserve">
<g>
	<path display="none" fill-rule="evenodd" clip-rule="evenodd" fill="#FFFFFF" d="M-6.649,140.671
		c-25.267,0-50.534-0.007-75.801,0.026c-0.993,0-1.255-0.145-1.254-1.214c0.035-50.635,0.036-101.27-0.002-151.904
		c-0.001-1.141,0.299-1.287,1.333-1.286c50.584,0.028,101.169,0.028,151.753,0c1.037,0,1.333,0.151,1.332,1.288
		c-0.038,50.585-0.038,101.17-0.002,151.754c0.001,1.175-0.313,1.364-1.407,1.363C43.986,140.663,18.669,140.671-6.649,140.671z
		 M-20.179,59.442c-0.167,0.141-0.334,0.281-0.5,0.421c-1.401,1.328-2.898,2.566-4.203,4.448c1.503-0.697,2.74-0.249,3.966-0.286
		c1.29,0.241,2.58,0.483,3.87,0.725c0.543,1.33,1.503,1.949,2.964,2.097c1.571,0.16,3.369,0.097,4.625,0.982
		c3.225,2.274,7.053,2.958,10.566,4.447c1.125,0.477,2.344,0.436,3.512-0.022c1.001,0.435,2.003,0.868,3.004,1.304
		c0.825,0.561,1.649,1.122,2.475,1.684c0.792,0.916,1.584,1.834,2.376,2.751c1.055,2.227,2.271,4.396,2.425,6.938
		c0.011,0.082,0.041,0.154,0.092,0.219c0.05,0.32,0.1,0.641,0.149,0.961c-0.03,0.031-0.094,0.075-0.088,0.092
		c0.028,0.072,0.077,0.137,0.118,0.203c0.072,0.802,0.144,1.604,0.216,2.406c-0.231-0.067-0.587-0.063-0.675-0.214
		c-0.975-1.692-2.356-3.086-3.4-4.739c-1.063-1.682-2.497-3.063-4.413-3.918c-1.434-0.639-2.994-0.547-4.449-1.209
		c-3.995-1.817-8.039-3.53-12.338-4.597c-4.397-1.091-8.681-2.659-13.198-3.24c-2.212-0.284-4.55-0.799-6.058,1.651
		c-0.248,0.403-0.693,0.556-1.165,0.591c-0.043-0.218-0.086-0.436-0.129-0.653c-0.039,0.025-0.102,0.044-0.113,0.078
		c-0.083,0.256,0.008,0.448,0.234,0.582c-0.012,1.099-0.459,2.157-0.296,3.271c0.041,0.281-0.096,0.665,0.275,0.776
		c0.36,0.107,0.484-0.242,0.654-0.483c0.789-1.121,1.763-2.067,3.237-1.725c1.909,0.445,3.514,1.656,5.313,2.399
		c0.2,0.083,0.408,0.328,0.308,0.617c-0.105,0.306-0.398,0.233-0.636,0.263c-0.778,0.094-1.471-0.229-2.191-0.437
		c-3.818-1.101-4.714-0.722-6.153,2.568c-0.027,0.063-0.161,0.078-0.246,0.114c-0.49-0.152-0.006-0.811-0.537-0.996
		c-0.016,0.329-0.029,0.626-0.043,0.924c-0.639-0.944-0.001-2.067-0.506-3.283c0,3.536,0,6.829,0,10.122
		c0.081,0.001,0.162,0.003,0.243,0.004c0-1.394,0-2.787,0-4.18c0.603,1.43,0.124,2.929,0.284,4.387
		c0.055,0.499-0.239,1.15,0.555,1.348c0.219,1.593-0.312,3.234,0.315,4.8c0.018,0.604,0.036,1.209,0.054,1.813
		c-0.405,0.261-0.279,0.466,0.066,0.649c0.311,2.389,0.378,4.812,0.991,7.158c-1.042,0.57-1.627,1.434-1.681,2.634
		c-0.132,2.984,0.905,5.599,3.099,7.508c2.99,2.603,6.53,4.472,10.125,6.065c4.793,2.124,9.926,3.336,14.956,4.798
		c1.761,0.512,3.629,0.971,5.437,0.931c3.404-0.076,6.674-1.103,9.768-2.484c2.433-1.086,4.687-2.076,7.566-1.732
		c3.317,0.396,6.191-2.199,7.764-6.02c2.187-5.317,3.634-10.905,5.075-16.467c0.354-1.366,0.589-3.053-0.799-4.254
		c-0.003-0.39-0.007-0.78-0.011-1.171c0.006-0.111,0.012-0.223,0.018-0.334c0.147-2.265,0.342-4.525,0.535-6.786
		c0.141-1.652,0.38-3.369-0.242-5.01c0.294-0.632,0.563-1.252,0.528-1.989c-0.132-2.78-0.158-5.568-0.365-8.343
		c-0.087-1.16,0.061-2.389-0.531-3.484c-0.044-0.193-0.089-0.388-0.134-0.58c0.115-0.567-0.035-1.064-0.401-1.503
		c-0.028-0.113-0.056-0.226-0.083-0.338c0.047-0.233,0.026-0.44-0.217-0.561c-0.312-1.018-0.731-1.978-1.452-2.781
		c-0.563-1.28-1.576-2.182-2.705-2.887c-2.405-1.501-4.979-2.688-7.62-3.721c-0.005-0.652,0.017-1.306-0.018-1.958
		c-0.104-1.992,0.317-3.998-0.162-5.979c0.061-5.39,0.122-10.78,0.184-16.17c0.07-0.351,0.048-0.677-0.251-0.929
		c0.002-0.091-0.012-0.181-0.039-0.268c-0.448-1.516-1.755-1.75-3.032-2.055c-3.05-0.728-6.093-1.488-9.145-2.211
		c-0.973-0.23-1.359-0.739-1.003-1.717c0.027-0.065,0.056-0.132,0.084-0.198c-0.06,0.035-0.12,0.069-0.182,0.104
		c-1.848-0.3-3.707-2.288-5.545,0.035c-0.036,0.046-0.188,0.001-0.287-0.001c0.172-0.381,0.245-0.751-0.095-1.088
		c-0.542-0.539-3.347-0.905-4.176-0.544c-0.049-0.183-0.055-0.495-0.153-0.529c-2.373-0.798-4.823-0.938-7.302-0.798
		c-0.283,0.016-0.446,0.177-0.543,0.427c-1.181,0.566-1.324,1.635-1.396,2.775c-0.139,2.198,0.536,4.393,0.005,6.589
		c0.001-0.145-0.112-0.402,0.216-0.224c0.028,0.015,0.04,0.086,0.037,0.129c-0.048,0.768-0.186,1.536-0.002,2.304
		c-0.001,0.304-0.001,0.608-0.003,0.913c-0.127,0.701-0.129,1.4,0.014,2.099c0.019,1.104,0.038,2.209,0.057,3.313
		c0,0.274,0.001,0.548,0.002,0.822c0.015,0.17,0.03,0.341,0.044,0.511c0.033,0.15,0.065,0.3,0.098,0.45
		c-0.652-0.196-1.311-0.371-1.952-0.596c-0.425-0.15-0.839-0.427-1.015,0.274l-0.032,0.052c-0.402,1.29-0.292,2.609-0.232,3.926
		c-0.373,1.993,1.049,1.496,2.1,1.515c-0.61,0.275-0.274,0.764-0.267,1.179c-2.706-1.055-4.165-0.365-5.146,2.432
		c-0.329,0.017-0.609,0.144-0.687,0.478c-0.493,2.133-0.91,4.251-0.001,6.407c0.356,0.844,0.735,1.78,0.074,2.695
		C-19.893,59.086-20.037,59.264-20.179,59.442z M-29.892,100.183c-0.014,0.041-0.037,0.082-0.036,0.122
		c0,0.014,0.062,0.026,0.096,0.04c0.013-0.042,0.037-0.083,0.036-0.123C-29.797,100.208-29.858,100.195-29.892,100.183z"/>
	<path fill-rule="evenodd" clip-rule="evenodd" fill="#1B1919" d="M-12.808,33.351c0.001-0.305,0.002-0.609,0.003-0.913
		c0.483-0.537,0.18-1.196,0.281-1.793c2.02-2.817,4.04-5.636,6.06-8.454c0.094-0.006,0.187,0.006,0.277,0.035
		c0,1.705,0,3.41,0,5.541c1.346-1.725,2.382-3.053,3.508-4.496c0.326,0.857-0.018,1.531,0.388,2.205
		c0.558-0.673,1.033-1.246,1.507-1.819c5.946,1.501,11.889,3.013,17.84,4.492c0.935,0.232,1.619,0.726,2.14,1.501
		c0.155,0.934,0.256,1.866,0.254,2.822c-0.027,10.286-0.038,20.573-0.013,30.859c0.002,0.932-0.104,1.999,0.913,2.621
		c-0.011,0.538-0.112,1.103,0.697,1.193c0.54,0.061,0.459,0.543,0.498,0.921c-1.471,1.44-2.863,2.967-4.581,4.131
		c-0.284-0.07-0.568-0.141-0.854-0.211c-0.035-0.686,0.07-1.367-0.232-2.046c-0.749-1.679-1.624-1.826-2.787-0.377
		c-0.271,0.336-0.534,0.57-0.967,0.581c-0.518-0.263-1.167-0.182-1.616-0.622c-1.013-0.743-2.195-1.13-3.352-1.561
		c-1.922-0.715-1.924-0.695-0.584-2.125c0.2-0.213,0.343-0.48,0.511-0.722c0.147,0.02,0.296,0.037,0.443,0.055
		c0.723,0.532,1.183-0.19,1.699-0.423c0.477-0.214,0.933-0.437,1.063,0.171c0.245,1.149,1.119,2.003,1.338,3.143
		c0.068,0.439-0.091,0.942,0.371,1.476c0.484-1.62,0.553-3.087,0.448-4.573c0.338-4.504,0.705-9.008,0.668-13.531
		c0.068-0.499,0.136-0.999,0.204-1.498c0.015-0.205,0.028-0.41,0.042-0.614c-0.126-0.235-0.253-0.471-0.38-0.707
		c0.327-1.072,1.255-1.473,2.067-1.055c1.081,0.556,1.416,3.225,0.761,4.604c-0.213,0.449-0.429,0.84,0.043,1.178
		c0.57,0.408,0.897-0.417,1.498-0.36c0.471,0.044,0.253-0.529,0.141-0.823c-0.651-1.702-0.664-3.383,0.021-5.088
		c0.289-0.717,0.135-1.244-0.816-0.909c-1.261,0.443-2.024-0.087-2.448-1.329c-0.913,1.133-2.699,1.694-1.75,3.583
		c-1.98-0.319-3.706-1.481-5.709-1.731c-0.871-0.317-1.629-1.08-2.683-0.686c-0.117-0.112-0.235-0.225-0.353-0.337
		c-0.088-0.388-0.191-0.773-0.262-1.165c-0.244-1.35,0.493-2.527,0.736-3.79c0.146-0.754,1.054-0.044,1.605-0.341
		c0.461-0.248,0.953,0.181,1.344,0.486c0.479,0.373,0.892,0.394,1.319-0.056c0.522-0.551,0.492-1.217,0.261-1.829
		c-0.203-0.534-0.64-0.951-1.303-0.663C6.977,38.51,6.703,38.222,6.375,38c-0.622-0.42-1.353-0.559-2.031-0.811
		c-1.018-0.377-2.218,0.128-2.971-0.485c-0.844-0.686-1.721-0.864-2.687-1.101c-0.975-0.238-1.67-0.048-1.812,0.939
		c-0.134,0.935,0.098,1.943,1.337,1.887c1.002-0.046,1.804,0.758,2.872,0.448c0.43-0.125,0.928,0.375,0.855,1
		c-0.204,1.763,0.402,3.476,0.3,5.229c-1.292-0.383-2.577-0.792-3.878-1.144c-1.708-0.462-3.316-1.34-5.158-1.25
		c-0.153-0.118-0.307-0.235-0.461-0.352c-0.755-0.302-1.51-0.606-2.267-0.905c-0.288-0.113-0.728-0.135-0.327-0.611
		c0.662,0.035,1.071-0.376,1.131-0.932c0.07-0.648-0.622-0.616-1.033-0.834c-0.845-0.45-1.648-1.153-2.589-0.167
		c-0.038,0.04-0.259-0.095-0.395-0.148c-0.02-1.104-0.039-2.209-0.057-3.313C-12.4,34.748-12.407,34.048-12.808,33.351z
		 M0.153,31.954c-0.005,2.012,0.702,2.685,3.303,3.142c1.305,0.229,1.987-0.328,2.04-1.664c0.071-1.795-0.804-2.765-2.97-3.29
		C0.833,29.731,0.157,30.248,0.153,31.954z M16.502,63.463c0.08-0.06,0.148-0.124,0.229-0.167c0.31-0.166,0.92,0.742,1.017-0.406
		c0.075-0.898-0.137-1.413-0.871-1.824c-0.755-0.423-0.724,0.398-1.075,0.621c-0.897,0.572,0.196,1.177-0.118,1.841
		c-0.578,1.217,0.405,1.542,1.339,1.742c0.278,0.059,0.631,0.097,0.785-0.25c0.159-0.359-0.099-0.533-0.373-0.697
		C17.068,64.104,16.553,64.032,16.502,63.463z M8.588,66.629c0.048,0.409,0.009,0.947,0.626,0.965
		c0.415,0.012,0.533-0.378,0.544-0.747c0.016-0.567-0.259-1.037-0.804-1.067C8.465,65.753,8.654,66.288,8.588,66.629z"/>
	<path fill-rule="evenodd" clip-rule="evenodd" fill="#F3F3F3" d="M-30.058,88.835c-0.793-0.198-0.5-0.85-0.554-1.349
		c-0.16-1.458,0.318-2.957-0.284-4.387c-0.153-0.912,0.141-1.779,0.263-2.663c0.014-0.298,0.028-0.595,0.043-0.924
		c0.53,0.186,0.046,0.844,0.537,0.997c0.085-0.037,0.219-0.053,0.246-0.115c1.439-3.29,2.335-3.669,6.153-2.568
		c0.72,0.208,1.413,0.53,2.191,0.437c0.238-0.029,0.531,0.043,0.636-0.263c0.1-0.289-0.107-0.534-0.308-0.617
		c-1.799-0.743-3.404-1.954-5.313-2.399c-1.474-0.343-2.448,0.604-3.237,1.725c-0.169,0.241-0.294,0.591-0.654,0.483
		c-0.371-0.111-0.234-0.495-0.275-0.776c-0.163-1.114,0.284-2.173,0.296-3.271l0.008-0.007c0.471-0.035,0.917-0.188,1.165-0.591
		c1.508-2.45,3.846-1.936,6.058-1.651c4.518,0.581,8.801,2.149,13.198,3.24c4.299,1.066,8.343,2.779,12.338,4.597
		c1.455,0.662,3.016,0.57,4.449,1.209c1.916,0.855,3.351,2.236,4.413,3.918c1.044,1.653,2.426,3.047,3.4,4.739
		c0.088,0.15,0.443,0.146,0.675,0.214c0.007,0.206,0.015,0.413,0.022,0.619c-0.429-0.01-0.802,0.053-0.784,0.61
		c0.007,0.2,0.063,0.476,0.271,0.435c0.202-0.041,0.363-0.284,0.543-0.439c0.016,0.5,0.032,1.001,0.048,1.501
		c-1.057,0.823-0.634,1.616,0.047,2.405c0.034,0.309,0.067,0.617,0.101,0.926c-0.109,0.377-0.162,0.75,0.048,1.111
		c0,0.552,0.001,1.102,0.002,1.65c-0.142,3.632-0.261,7.264-0.434,10.895c-0.118,2.483-0.202,4.975-0.763,7.415
		c-1.067,1.913-2.648,3.711-4.721,3.8c-3.337,0.144-6.722,1.54-10.033-0.011c0.305-0.109,0.662-0.238,1.019-0.366
		c2.832-0.159,4.09-1.256,4.594-4.099c0.348-1.963,0.298-3.952,0.26-5.937c0.999-0.729,0.642-1.576,0.218-2.432
		c0.057-0.427,0.091-0.85-0.227-1.206c0.173-0.443,0.179-0.891,0.025-1.34c0.219-0.793,0.234-1.584-0.006-2.375
		c0.007-0.148,0.014-0.297,0.021-0.444c0.09-0.206,0.18-0.411,0.27-0.616c0.439-1.419,0.217-2.879,0.161-4.304
		c-0.117-3.015-0.975-5.661-3.313-7.904c-1.396-1.338-3.114-1.744-4.647-2.447c-7.473-3.428-15.198-6.243-23.236-8.066
		c-1.234-0.28-2.788-0.416-3.443,1.303c-0.578,0.762-0.889,1.62-1.16,2.544c-0.583,1.987,0.003,3.971-0.167,5.946
		C-29.952,88.269-30.005,88.552-30.058,88.835z"/>
	<path fill-rule="evenodd" clip-rule="evenodd" fill="#EFB33B" d="M15.409,89.431c-0.008-0.206-0.016-0.413-0.022-0.619
		c-0.072-0.803-0.144-1.604-0.216-2.406c-0.01-0.099-0.02-0.197-0.03-0.295c-0.05-0.32-0.1-0.641-0.149-0.961
		c0.001,0,0.023-0.129,0.023-0.129l-0.115-0.09c-0.153-2.542-1.37-4.712-2.425-6.938c0.936-2.365,2.81-4.004,4.487-5.793
		c1.719-1.165,3.111-2.691,4.582-4.132c0.707-0.629,1.414-1.258,2.121-1.887c2.05-1.814,2.076-2.823,0.134-4.794
		c-0.174-0.176-0.313-0.385-0.469-0.579c1.053-0.13,1.502,0.615,1.911,1.364c0.282,0.516,0.46,0.678,1.119,0.356
		c1.236-0.603,2.548-1.104,3.963-1.176c0.721,0.803,1.141,1.764,1.452,2.781c0.072,0.187,0.145,0.373,0.217,0.561
		c0.027,0.112,0.055,0.225,0.083,0.338c0.072,0.518-0.232,1.135,0.401,1.503c0.045,0.192,0.09,0.387,0.135,0.58
		c-1.248,0.872-1.635,2.335-2.384,3.54c-1.749,2.819-3.602,5.642-2.474,9.25c0.049,0.154-0.115,0.374-0.181,0.563
		c-1.313-0.33-2.329,0.162-3.227,1.097c-0.767,0.799-1.44,1.656-1.996,2.612c-2.131,3.665-3.386,7.662-4.447,11.73
		c-0.235,0.905-0.609,1.665-1.408,2.212c-0.709,0.484-0.685-0.091-0.813-0.488c0-0.551-0.001-1.101-0.001-1.65
		c0.123-0.376,0.147-0.749-0.048-1.113c-0.033-0.309-0.066-0.617-0.101-0.926c-0.016-0.802-0.031-1.604-0.047-2.405
		c-0.016-0.5-0.032-1.001-0.048-1.501C15.429,89.834,15.418,89.633,15.409,89.431z"/>
	<path fill-rule="evenodd" clip-rule="evenodd" fill="#D8D8D7" d="M0.752,119.362c-0.356,0.128-0.714,0.257-1.019,0.366
		c3.312,1.551,6.696,0.154,10.033,0.011c2.072-0.089,3.653-1.887,4.723-3.8c0.969-0.201,0.813-1.366,1.528-1.782
		c0.614,1.441,1.375,2.73,3.118,2.996c0.246,0.18,0.499,0.319,0.801,0.115c0.244,0.192,0.517,0.18,0.797,0.115
		c1.689,0.21,2.901-0.575,3.79-1.906c1.992-2.982,3.341-6.233,3.948-9.778c0.027-0.022,0.077-0.043,0.078-0.066
		c0.003-0.064-0.014-0.129-0.023-0.193c0.08-0.313,0.16-0.628,0.24-0.941c0.701-1.954,0.688-4.045,1.164-6.042
		c0.294-0.387,1.076-0.746,0.066-1.204c0.011-0.198,0.021-0.396,0.032-0.595c0.263-0.188,0.302-0.387,0.03-0.601
		c0.02-1.003,0.04-2.005,0.06-3.008c0.06-0.235,0.137-0.468,0.176-0.707c0.401-2.477-1.025-5.067,0.46-7.491
		c0.073-0.121-0.173-0.438-0.271-0.662c0.831-1.086,1.663-2.172,2.494-3.257c0.622,1.641,0.383,3.357,0.242,5.01
		c-0.193,2.261-0.388,4.521-0.535,6.786c-0.199,0.102-0.211,0.212-0.018,0.334c0.004,0.391,0.008,0.781,0.012,1.171h0.011
		c-0.092,0.104-0.185,0.207-0.277,0.311c-0.362,0.355-0.721,0.66-0.305,1.26c0.561,0.81,0.395,1.761,0.137,2.6
		c-1.531,4.965-2.829,10.002-4.706,14.86c-1.556,4.024-4.731,6.008-8.863,5.434c-0.499-0.069-0.981,0.038-1.479,0.15
		c-2.503,0.569-4.812,1.7-7.253,2.44c-2.246,0.681-4.52,1.587-6.839,1.491c-1.994-0.083-4.026-0.505-6.022-1.011
		c-6.844-1.733-13.608-3.594-19.559-7.615c-2.606-1.762-5.102-3.562-5.872-6.885c-0.174-0.755-0.047-1.269,0.663-1.601
		c1.08,1.776,2.345,3.362,4.327,4.211c3.534,1.931,7.182,3.624,10.902,5.155c3.594,1.48,7.288,2.672,11.065,3.597
		C-0.677,118.874,0.037,119.117,0.752,119.362z"/>
	<path fill-rule="evenodd" clip-rule="evenodd" fill="#F3F3F3" d="M-27.686,105.667c-0.71,0.332-0.837,0.846-0.663,1.601
		c0.77,3.323,3.265,5.123,5.872,6.885c5.951,4.021,12.715,5.882,19.559,7.615c1.996,0.506,4.028,0.928,6.022,1.011
		c2.319,0.096,4.593-0.811,6.839-1.491c2.441-0.74,4.75-1.871,7.253-2.44c0.498-0.112,0.98-0.22,1.479-0.15
		c4.132,0.574,7.308-1.409,8.863-5.434c1.877-4.858,3.175-9.896,4.706-14.86c0.258-0.839,0.424-1.79-0.137-2.6
		c-0.416-0.6-0.058-0.904,0.305-1.26c0.093-0.104,0.186-0.207,0.277-0.311H32.68c1.387,1.201,1.151,2.888,0.798,4.254
		c-1.441,5.562-2.889,11.149-5.075,16.467c-1.572,3.82-4.446,6.416-7.764,6.02c-2.88-0.344-5.134,0.646-7.566,1.732
		c-3.094,1.382-6.363,2.408-9.768,2.484c-1.808,0.04-3.676-0.419-5.437-0.931c-5.029-1.462-10.163-2.674-14.956-4.798
		c-3.595-1.594-7.135-3.463-10.125-6.065c-2.193-1.909-3.231-4.523-3.099-7.508c0.054-1.2,0.64-2.063,1.681-2.634
		C-28.315,104.058-28,104.862-27.686,105.667z"/>
	<path fill-rule="evenodd" clip-rule="evenodd" fill="#DC6718" d="M7.083,65.115c-0.169,0.242-0.312,0.51-0.512,0.723
		c-1.34,1.43-1.338,1.41,0.584,2.125c1.156,0.431,2.339,0.817,3.352,1.561c-1.404,0.558-2.98,0.265-4.374,0.887
		c-0.291,0.13-0.809-0.004-0.761,0.509c0.048,0.515,0.515,0.426,0.824,0.315c0.755-0.268,1.448-0.095,1.907,0.456
		c0.613,0.736-0.266,1.251-0.479,1.867c-1.001-0.436-2.003-0.869-3.004-1.304c-6.848-3.581-14.079-6.06-21.667-7.504
		c-1.29-0.241-2.58-0.483-3.87-0.725c0.808-1.651,1.692-1.876,2.855-0.609c0.565,0.615,1.194,0.496,1.771,0.353
		c0.73-0.181,0.411-0.887,0.441-1.397c1.376,0.402,2.549-0.049,3.636-0.859c0.185,0.037,0.372,0.072,0.559,0.107
		c-0.4,0.796,0.316,1.236,0.735,1.341c1.644,0.416,3.325,0.939,5.025,0.178c1.004,0.241,2.009,0.481,3.014,0.724
		c0.358,0.582,0.718,1.165,1.077,1.747c0.228,0.344,0.455,0.687,0.683,1.029c-2.007-0.126-4.031-0.063-6.024-0.56
		c2.044,0.925,4.124,1.692,6.192,2.49c0.957,0.369,0.723-0.587,1.064-0.9c2.237,0.957,3.672,0.538,4.894-1.43l-0.026-0.008
		c0.644-0.438,0.813-1.119,0.934-1.824l-0.037,0.017c0.235-0.13,0.265-0.354,0.271-0.589c0.082-0.021,0.141-0.07,0.177-0.148
		C6.879,64.002,6.782,64.664,7.083,65.115z"/>
	<path fill-rule="evenodd" clip-rule="evenodd" fill="#F1BF64" d="M32.979,80.932c-0.831,1.085-1.663,2.171-2.493,3.257
		c-0.82-0.066-0.769-0.84-0.981-1.326c-0.434-0.99-1.012-1.817-1.931-2.394c0.065-0.189,0.229-0.409,0.181-0.563
		c-1.128-3.608,0.725-6.431,2.474-9.25c0.749-1.205,1.136-2.668,2.384-3.54c0.591,1.096,0.443,2.324,0.53,3.484
		c0.207,2.774,0.233,5.563,0.365,8.343C33.542,79.68,33.272,80.3,32.979,80.932z"/>
	<path fill-rule="evenodd" clip-rule="evenodd" fill="#F1BF64" d="M30.323,61.353c-1.415,0.071-2.727,0.573-3.963,1.176
		c-0.659,0.322-0.837,0.16-1.119-0.356c-0.409-0.749-0.858-1.494-1.911-1.364c0,0,0.001-0.011,0.001-0.011
		c-0.677-1.37-1.901-1.766-3.299-1.856c-0.07-0.003-0.141-0.015-0.209-0.034c-0.015-1.38-0.029-2.761-0.045-4.141
		c0.074,0,0.147-0.007,0.22-0.021c2.642,1.034,5.215,2.22,7.62,3.721C28.747,59.17,29.761,60.073,30.323,61.353z"/>
	<path fill-rule="evenodd" clip-rule="evenodd" fill="#F3F3F3" d="M-17.047,64.75c7.588,1.444,14.819,3.923,21.667,7.504
		c-1.168,0.458-2.387,0.499-3.512,0.022c-3.514-1.489-7.342-2.173-10.566-4.447c-1.256-0.886-3.054-0.822-4.625-0.982
		C-15.543,66.699-16.504,66.08-17.047,64.75z"/>
	<path fill-rule="evenodd" clip-rule="evenodd" fill="#329D83" d="M-6.464,22.191c-2.02,2.818-4.04,5.636-6.06,8.454
		c-0.289,0.005-0.529-0.055-0.533-0.416c0.531-2.196-0.144-4.391-0.005-6.589c0.072-1.141,0.215-2.209,1.396-2.775
		C-9.898,21.175-8.145,21.541-6.464,22.191z"/>
	<path fill-rule="evenodd" clip-rule="evenodd" fill="#B8B8B3" d="M-6.464,22.191c-1.681-0.65-3.434-1.016-5.202-1.326
		c0.097-0.25,0.26-0.412,0.543-0.428c2.479-0.14,4.929,0,7.302,0.798c0.099,0.034,0.104,0.346,0.156,0.526
		c-0.74,0.637-0.065,0.678,0.35,0.774c1.303,0.3,2.612,0.576,3.918,0.861c0.099,0.002,0.251,0.047,0.287,0.001
		c1.838-2.322,3.697-0.335,5.545-0.035l0.099,0.097c-0.357,0.976,0.029,1.485,1.002,1.715c3.052,0.723,6.095,1.483,9.145,2.211
		c1.277,0.305,2.584,0.539,3.032,2.055c-0.173,0.07-0.345,0.14-0.518,0.209c-0.521-0.775-1.205-1.269-2.14-1.501
		c-5.951-1.479-11.894-2.991-17.84-4.492c-1.748-0.675-3.579-1.037-5.402-1.431C-6.278,22.197-6.37,22.186-6.464,22.191z
		 M3.076,23.692c0.646,0.468,1.138,0.356,1.643,0.15C4.243,23.708,3.842,23.178,3.076,23.692z M2.695,23.261
		c-0.074-0.034-0.146-0.076-0.225-0.096c-0.019-0.005-0.056,0.063-0.085,0.098c0.074,0.035,0.146,0.077,0.226,0.098
		C2.629,23.365,2.667,23.296,2.695,23.261z"/>
	<path fill-rule="evenodd" clip-rule="evenodd" fill="#2E3D5D" d="M-7.258,42.359c0.154,0.117,0.308,0.235,0.461,0.352
		c0.503,0.637,1.318,0.509,1.965,0.794c0.672,0.296,1.16,0.619,0.492,1.376c-1.097,0.373-2.188,0.751-2.151,2.222
		c-0.388-0.383-0.391-1.041-0.937-1.31c-0.393-0.433-0.798-0.856-1.177-1.301c-1.128-1.322-2.838-1.425-4.192-0.242
		c-0.412,0.424-0.761,0.887-0.928,1.466c-1.051-0.019-2.473,0.478-2.1-1.514c0.159-1.304,1.054-2.564,0.232-3.926l0.032-0.052
		c2.342,0.466,4.547,1.386,6.833,2.036C-8.282,42.387-7.782,42.984-7.258,42.359z"/>
	<path fill-rule="evenodd" clip-rule="evenodd" fill="#B8B8B3" d="M-19.136,49.329c0.98-2.798,2.439-3.487,5.145-2.433
		c0,0-0.043-0.009-0.043-0.009c0.153,0.352,0.448,0.37,0.77,0.326c0.239,0.197,0.477,0.393,0.716,0.59
		c-0.1,0.4-0.007,0.739,0.321,1.003c-0.009,0.241,0.055,0.438,0.316,0.512l-0.001,0c-0.02,0.263,0.036,0.488,0.304,0.606
		l-0.004-0.012c0.016,0.39,0.086,0.753,0.464,0.983c0.268-0.397-0.139-0.667-0.14-1c1.367,0.202,2.031-1.09,3.122-1.484
		c0.275-0.099,0.522-0.362,0.814-0.179c0.313,0.196,0.188,0.504,0.099,0.8c-0.085,0.28-0.109,0.578-0.159,0.869
		c-0.712,0.605-1.424,1.21-2.136,1.816c-0.383,0.006-0.766,0.012-1.149,0.019c-0.375,0.232-0.328,0.432,0.047,0.605
		c0.101,0.003,0.2,0.006,0.3,0.009c0.058,1.294,0.117,2.588,0.175,3.881c-0.111,0.517-0.223,1.034-0.334,1.551
		c-0.755,0.401-0.802,1.098-0.765,1.83c-0.536,0.147-0.91,0.746-1.565,0.562c0.786-1.147,1.177-2.426,1.265-3.805
		c0.032-0.13,0.063-0.26,0.094-0.39c0.011-0.203,0.022-0.406,0.033-0.609c0.042-1.944-0.35-3.775-1.398-5.439
		c-1.922-3.108-3.992-3.149-5.909-0.118c-0.025,0.04-0.076,0.063-0.115,0.093C-18.958,49.714-19.047,49.521-19.136,49.329z"/>
	<path fill-rule="evenodd" clip-rule="evenodd" fill="#EFB33B" d="M7.624,73.558c0.214-0.616,1.093-1.131,0.479-1.867
		c-0.459-0.551-1.152-0.724-1.907-0.456c-0.31,0.11-0.776,0.199-0.824-0.315c-0.048-0.513,0.47-0.379,0.761-0.509
		c1.394-0.622,2.97-0.329,4.374-0.887c0.449,0.44,1.099,0.359,1.616,0.622c0.839,0.496,1.678,0.991,2.516,1.486
		c-0.619-0.004-0.982,0.459-1.342,0.831c-0.987,1.021-1.992,2.013-3.198,2.778C9.273,74.68,8.449,74.118,7.624,73.558z"/>
	<path fill-rule="evenodd" clip-rule="evenodd" fill="#797366" d="M-27.686,105.667c-0.314-0.805-0.629-1.609-0.944-2.413
		c-0.613-2.347-0.681-4.77-0.991-7.158c0.132-0.232,0.123-0.45-0.066-0.649c-0.018-0.604-0.036-1.208-0.054-1.813
		c0.131-0.11,0.262-0.221,0.393-0.331c0.192-0.019,0.465,0.037,0.564-0.068c0.549-0.585,0.102-4.026-0.58-4.688
		c-0.153-0.212-0.128-0.592-0.535-0.562c0.169-1.976-0.416-3.959,0.167-5.946c0.271-0.924,0.582-1.782,1.16-2.542
		c-0.251,2.121-0.934,4.159-0.882,6.352c0.032,1.345,0.392,1.757,1.637,1.512c0.368,1.024-0.831,1.89-0.302,2.931
		c-0.032,1.115-0.466,2.313,0.736,3.17c0.129,0.092-0.004,0.553-0.016,0.843c-1.425,0.043-1.903,0.506-1.616,1.768
		c0.17,0.747,0.155,1.485,0.225,2.229c0.402,4.271,1.177,8.363,5.409,10.702c0.008,0.292,0.016,0.584,0.023,0.876
		C-25.341,109.029-26.605,107.443-27.686,105.667z"/>
	<path fill-rule="evenodd" clip-rule="evenodd" fill="#F1BF64" d="M-15.85,62.371c-0.03,0.51,0.29,1.217-0.441,1.397
		c-0.578,0.144-1.207,0.263-1.771-0.353c-1.163-1.267-2.047-1.042-2.855,0.609c-1.226,0.037-2.462-0.411-3.966,0.286
		c1.305-1.882,2.802-3.121,4.203-4.448c0.056,0.042,0.111,0.083,0.168,0.124c0.691,0.642,1.557,0.412,2.364,0.473
		C-17.381,61.097-16.615,61.734-15.85,62.371z"/>
	<path fill-rule="evenodd" clip-rule="evenodd" fill="#D8D8D7" d="M-15.85,62.371c-0.766-0.637-1.532-1.274-2.298-1.912
		c-0.393-0.597-0.356-1.661-1.53-1.407c-0.009-0.056-0.033-0.104-0.071-0.145c0.661-0.915,0.281-1.85-0.075-2.694
		c-0.908-2.155-0.491-4.274,0.001-6.407c0.077-0.334,0.358-0.461,0.687-0.478c0.089,0.193,0.178,0.385,0.268,0.578
		c-0.144,0.511-0.289,1.022-0.433,1.533c-0.205,0.165-0.218,0.378-0.153,0.611c-0.087,2.519,0.118,4.984,1.614,7.132
		c1.512,2.169,2.964,2.433,5.002,0.992c0.655,0.184,1.029-0.415,1.565-0.562l0.023,0.021c0.119,0.582-0.384,0.944-0.507,1.441
		c-0.152,0.145-0.304,0.29-0.455,0.435C-13.3,62.322-14.474,62.773-15.85,62.371z"/>
	<path fill-rule="evenodd" clip-rule="evenodd" fill="#797366" d="M19.194,29.65c0.173-0.07,0.345-0.14,0.518-0.209
		c0.027,0.087,0.041,0.176,0.039,0.268c-0.064,0.35-0.053,0.678,0.251,0.929c-0.062,5.39-0.123,10.78-0.184,16.171
		c-0.146,2.652-0.159,5.304-0.04,7.958c0.016,1.38,0.03,2.761,0.045,4.142c-0.023,0.592-0.046,1.184-0.069,1.775
		c-0.055,1.35-0.158,2.721,1.51,3.278c0.666,1.109-0.467,1.394-0.915,1.992c-1.018-0.622-0.911-1.689-0.913-2.621
		c-0.025-10.287-0.015-20.573,0.013-30.859C19.45,31.516,19.35,30.584,19.194,29.65z"/>
	<path fill-rule="evenodd" clip-rule="evenodd" fill="#F1BF64" d="M10.099,75.241c1.206-0.766,2.211-1.757,3.198-2.778
		c0.359-0.372,0.723-0.835,1.342-0.831c0.49,0.119,0.98,0.237,1.471,0.355c0.285,0.07,0.569,0.141,0.854,0.211
		c-1.679,1.79-3.553,3.429-4.488,5.794C11.683,77.075,10.891,76.157,10.099,75.241z"/>
	<path fill-rule="evenodd" clip-rule="evenodd" fill="#797366" d="M-13.724,45.717c0.167-0.58,0.516-1.042,0.927-1.467
		c1.264-0.053,2.542-0.164,3.553,0.844c-1.396,0.546-3.035,0.536-4.12,1.798c-0.223-0.042-0.445-0.242-0.671-0.005
		c0,0,0.043,0.009,0.043,0.009C-13.998,46.481-14.334,45.992-13.724,45.717z"/>
	<path fill-rule="evenodd" clip-rule="evenodd" fill="#464949" d="M-12.737,38.763c0.135,0.054,0.357,0.188,0.395,0.148
		c0.94-0.987,1.744-0.283,2.589,0.167c0.412,0.218,1.104,0.186,1.033,0.834c-0.06,0.555-0.469,0.966-1.131,0.932
		c-0.786-1.279-1.834-0.138-2.741-0.297c-0.033-0.149-0.065-0.3-0.098-0.45c0.153-0.073,0.353-0.139,0.284-0.349
		c-0.027-0.081-0.214-0.11-0.329-0.162C-12.735,39.312-12.736,39.037-12.737,38.763z"/>
	<path fill-rule="evenodd" clip-rule="evenodd" fill="#B8B8B3" d="M-12.592,40.546c0.907,0.159,1.955-0.982,2.741,0.297
		c-0.401,0.477,0.039,0.498,0.327,0.611c0.757,0.298,1.511,0.603,2.267,0.905c-0.524,0.624-1.024,0.027-1.468-0.099
		c-2.286-0.65-4.491-1.57-6.833-2.036c0.176-0.702,0.59-0.424,1.015-0.274C-13.903,40.176-13.244,40.351-12.592,40.546z"/>
	<path fill-rule="evenodd" clip-rule="evenodd" fill="#9A9487" d="M0.603,23.397c-1.306-0.285-2.615-0.561-3.918-0.861
		c-0.415-0.096-1.09-0.137-0.35-0.774c0.826-0.358,3.631,0.008,4.173,0.547C0.848,22.646,0.774,23.016,0.603,23.397z"/>
	<path fill-rule="evenodd" clip-rule="evenodd" fill="#D8D8D7" d="M-29.899,87.985c0.406-0.03,0.382,0.35,0.535,0.562
		c0.005,1.585,0.01,3.171,0.016,4.756c-0.131,0.11-0.262,0.221-0.393,0.331c-0.627-1.565-0.097-3.207-0.316-4.799
		C-30.005,88.552-29.952,88.269-29.899,87.985z"/>
	<path fill-rule="evenodd" clip-rule="evenodd" fill="#D8D8D7" d="M-30.633,80.437c-0.123,0.884-0.416,1.751-0.263,2.663
		c0,1.393,0,2.786,0,4.18c-0.081-0.001-0.162-0.003-0.243-0.004c0-3.293,0-6.586,0-10.122
		C-30.634,78.369-31.272,79.492-30.633,80.437z"/>
	<path fill-rule="evenodd" clip-rule="evenodd" fill="#9A9487" d="M19.778,54.766c-0.119-2.653-0.106-5.306,0.04-7.958
		c0.479,1.98,0.059,3.987,0.162,5.979c0.034,0.651,0.013,1.305,0.018,1.958C19.926,54.758,19.853,54.765,19.778,54.766z"/>
	<path fill-rule="evenodd" clip-rule="evenodd" fill="#B8B8B3" d="M-15.591,40.277c0.822,1.362-0.073,2.623-0.232,3.926
		C-15.882,42.886-15.993,41.566-15.591,40.277z"/>
	<path fill-rule="evenodd" clip-rule="evenodd" fill="#464949" d="M-13.057,30.229c0.004,0.361,0.244,0.421,0.533,0.416
		c-0.101,0.597,0.202,1.256-0.281,1.793c-0.184-0.768-0.046-1.536,0.002-2.304c0.002-0.043-0.009-0.114-0.037-0.129
		C-13.169,29.827-13.056,30.084-13.057,30.229z"/>
	<path fill-rule="evenodd" clip-rule="evenodd" fill="#464949" d="M-12.808,33.351c0.401,0.697,0.408,1.397,0.014,2.099
		C-12.938,34.751-12.935,34.051-12.808,33.351z"/>
	<path fill-rule="evenodd" clip-rule="evenodd" fill="#F1BF64" d="M32.477,66.535c-0.634-0.368-0.329-0.985-0.401-1.503
		C32.441,65.471,32.592,65.968,32.477,66.535z"/>
	<path fill-rule="evenodd" clip-rule="evenodd" fill="#D8D8D7" d="M-29.688,95.446c0.189,0.199,0.198,0.417,0.066,0.649
		C-29.966,95.912-30.093,95.707-29.688,95.446z"/>
	<path fill-rule="evenodd" clip-rule="evenodd" fill="#F3F3F3" d="M-30.317,73.144c-0.227-0.134-0.317-0.326-0.234-0.582
		c0.011-0.034,0.074-0.053,0.113-0.078c0.043,0.218,0.086,0.436,0.129,0.653L-30.317,73.144z"/>
	<path fill-rule="evenodd" clip-rule="evenodd" fill="#9A9487" d="M20.002,30.637c-0.304-0.25-0.315-0.579-0.251-0.929
		C20.05,29.96,20.072,30.286,20.002,30.637z"/>
	<path fill-rule="evenodd" clip-rule="evenodd" fill="#B8B8B3" d="M-12.734,39.585c0.114,0.052,0.302,0.081,0.329,0.162
		c0.069,0.21-0.131,0.276-0.284,0.349C-12.705,39.926-12.72,39.756-12.734,39.585z"/>
	<path fill-rule="evenodd" clip-rule="evenodd" fill="#F1BF64" d="M-20.18,59.441c0.144-0.177,0.287-0.355,0.431-0.534
		c0.039,0.042,0.062,0.089,0.07,0.146c-0.115,0.189-0.229,0.376-0.343,0.564C-20.076,59.56-20.128,59.501-20.18,59.441z"/>
	<path fill-rule="evenodd" clip-rule="evenodd" fill="#F1BF64" d="M-20.68,59.863c0.167-0.14,0.333-0.281,0.5-0.421
		c0.052,0.059,0.104,0.118,0.157,0.176c-0.163,0.123-0.327,0.246-0.489,0.369C-20.568,59.946-20.624,59.905-20.68,59.863z"/>
	<path fill-rule="evenodd" clip-rule="evenodd" fill="#F1BF64" d="M31.992,64.694c-0.072-0.188-0.145-0.374-0.217-0.561
		C32.019,64.254,32.039,64.461,31.992,64.694z"/>
	<path fill-rule="evenodd" clip-rule="evenodd" fill="#D8D8D7" d="M-29.892,100.183c0.034,0.013,0.095,0.025,0.095,0.039
		c0.001,0.04-0.022,0.081-0.036,0.123c-0.034-0.014-0.096-0.026-0.096-0.04C-29.929,100.265-29.905,100.224-29.892,100.183z"/>
	<path fill-rule="evenodd" clip-rule="evenodd" fill="#F3F3F3" d="M15.141,86.11c0.011,0.098,0.021,0.196,0.03,0.295
		c-0.041-0.066-0.09-0.131-0.118-0.203C15.047,86.186,15.11,86.142,15.141,86.11z"/>
	<path fill-rule="evenodd" clip-rule="evenodd" fill="#F3F3F3" d="M14.899,84.931l0.115,0.09c0,0-0.022,0.129-0.023,0.129
		C14.94,85.085,14.91,85.013,14.899,84.931z"/>
	<path fill-rule="evenodd" clip-rule="evenodd" fill="#F3F3F3" d="M32.668,93.062c-0.193-0.122-0.182-0.232,0.018-0.334
		C32.68,92.839,32.674,92.95,32.668,93.062z"/>
	<path fill-rule="evenodd" clip-rule="evenodd" fill="#B8B8B3" d="M6.435,23.363c0.062-0.035,0.122-0.069,0.182-0.104
		c-0.028,0.066-0.057,0.133-0.084,0.199C6.533,23.46,6.435,23.363,6.435,23.363z"/>
	<path fill-rule="evenodd" clip-rule="evenodd" fill="#571515" d="M2.239,45.106c0.103-1.754-0.504-3.467-0.3-5.229
		c0.072-0.624-0.426-1.125-0.855-1c-1.068,0.311-1.87-0.494-2.872-0.448c-1.239,0.057-1.471-0.952-1.337-1.887
		c0.142-0.987,0.837-1.177,1.812-0.939c0.966,0.237,1.843,0.416,2.687,1.101c0.753,0.613,1.953,0.107,2.971,0.485
		C5.022,37.441,5.753,37.58,6.375,38c0.328,0.222,0.602,0.51,1.076,0.304c0.663-0.288,1.1,0.129,1.303,0.663
		c0.231,0.612,0.262,1.278-0.261,1.829c-0.428,0.45-0.841,0.429-1.319,0.056c-0.391-0.305-0.883-0.734-1.344-0.486
		c-0.552,0.297-1.459-0.413-1.605,0.341c-0.243,1.262-0.98,2.44-0.736,3.79c0.07,0.392,0.174,0.777,0.262,1.165
		C3.246,45.476,2.743,45.292,2.239,45.106z"/>
	<path fill-rule="evenodd" clip-rule="evenodd" fill="#302F2E" d="M12.494,48.414c-0.949-1.889,0.837-2.45,1.75-3.583
		c0.424,1.242,1.188,1.772,2.448,1.329c0.951-0.334,1.105,0.192,0.816,0.909c-0.685,1.706-0.672,3.386-0.021,5.088
		c0.112,0.294,0.33,0.867-0.141,0.823c-0.601-0.056-0.928,0.769-1.498,0.36c-0.472-0.338-0.256-0.729-0.043-1.178
		c0.655-1.379,0.32-4.049-0.761-4.604c-0.813-0.418-1.74-0.017-2.067,1.055C12.817,48.547,12.655,48.48,12.494,48.414z"/>
	<path fill-rule="evenodd" clip-rule="evenodd" fill="#302F2E" d="M11.625,68.062c-0.219-1.14-1.093-1.993-1.338-3.143
		c-0.13-0.607-0.586-0.385-1.063-0.171c-0.517,0.232-0.977,0.955-1.698,0.424c0.901-0.935,1.044-2.556,2.614-2.885
		c0.034,0.163,0.067,0.325,0.101,0.487c0.057-0.158,0.112-0.317,0.169-0.476l-0.016,0.009c0.911-1.042,0.814-2.35,0.95-3.596
		c0.499,1.148,0.204,2.479,0.829,3.597c-0.354,0.56-0.324,1.166-0.211,1.782C11.793,65.409,12.05,66.765,11.625,68.062z"/>
	<path fill-rule="evenodd" clip-rule="evenodd" fill="#B8B8B3" d="M2.239,45.106c0.504,0.185,1.007,0.369,1.511,0.554
		c0.117,0.112,0.235,0.225,0.353,0.337c-0.217,0.013-0.434,0.025-0.651,0.038c-1.196-0.322-2.394-0.644-3.591-0.966
		c-0.236-0.324-0.579-0.3-0.92-0.279c-0.578-0.374-1.193-0.598-2.012-0.543c0.625,0.591,1.268,0.662,1.947,0.61
		c0.142,0.496,0.576,0.259,0.879,0.351c0.524,0.584,1.509,0.808,1.446,1.851c-0.165,0.064-0.329,0.129-0.494,0.192
		c-0.532-0.444-0.809-1.625-1.839-0.64c-1.084-0.504-2.168-1.009-3.252-1.514c0.025-0.07,0.041-0.141,0.045-0.215
		c0.668-0.757,0.18-1.081-0.492-1.376c-0.647-0.285-1.462-0.157-1.965-0.794c1.841-0.089,3.45,0.789,5.158,1.251
		C-0.338,44.314,0.947,44.723,2.239,45.106z"/>
	<path fill-rule="evenodd" clip-rule="evenodd" fill="#329D83" d="M-6.188,22.227c1.823,0.394,3.654,0.756,5.402,1.431
		c-0.474,0.573-0.949,1.146-1.507,1.819c-0.405-0.674-0.062-1.348-0.388-2.205c-1.126,1.442-2.162,2.771-3.508,4.496
		C-6.188,25.636-6.188,23.931-6.188,22.227z"/>
	<path fill-rule="evenodd" clip-rule="evenodd" fill="#329D83" d="M0.153,31.954c0.004-1.706,0.68-2.223,2.373-1.812
		c2.166,0.525,3.041,1.494,2.97,3.29c-0.053,1.336-0.735,1.893-2.04,1.664C0.855,34.639,0.148,33.966,0.153,31.954z M4.924,32.848
		c0.019-1.496-1.465-1.497-2.61-1.813c-1.28-0.353-1.9,0.359-1.541,1.653c0.244,0.878,2.951,1.976,3.723,1.503
		C4.886,33.951,4.943,33.559,4.924,32.848z"/>
	<path fill-rule="evenodd" clip-rule="evenodd" fill="#571515" d="M16.109,71.987c-0.49-0.118-0.98-0.236-1.471-0.355
		c-0.838-0.495-1.677-0.99-2.516-1.486c0.433-0.011,0.696-0.245,0.967-0.581c1.163-1.449,2.038-1.302,2.787,0.377
		C16.18,70.62,16.074,71.302,16.109,71.987z"/>
	<path fill-rule="evenodd" clip-rule="evenodd" fill="#464949" d="M16.502,63.463c0.051,0.569,0.566,0.641,0.933,0.86
		c0.274,0.164,0.532,0.338,0.373,0.697c-0.154,0.347-0.507,0.309-0.785,0.25c-0.934-0.2-1.917-0.525-1.339-1.742
		c0.314-0.665-0.779-1.269,0.118-1.841c0.352-0.223,0.32-1.044,1.075-0.621c0.734,0.411,0.946,0.926,0.871,1.824
		c-0.097,1.148-0.707,0.24-1.017,0.406C16.65,63.339,16.582,63.403,16.502,63.463z"/>
	<path fill-rule="evenodd" clip-rule="evenodd" fill="#9A9487" d="M11.963,64.091c-0.113-0.616-0.144-1.222,0.211-1.782
		c0.218-3.627,0.437-7.253,0.654-10.88c0.095,0.002,0.189,0.003,0.284,0.003c0.037,4.523-0.33,9.027-0.668,13.531
		C12.284,64.673,12.124,64.382,11.963,64.091z"/>
	<path fill-rule="evenodd" clip-rule="evenodd" fill="#797366" d="M10.141,62.287c-1.57,0.329-1.713,1.95-2.614,2.885
		c-0.148-0.019-0.297-0.036-0.444-0.056c-0.3-0.452-0.203-1.114-0.759-1.43c0.049-0.309,0.098-0.617,0.146-0.925
		c0.196-0.074,0.394-0.148,0.591-0.222c0.687-0.118,1.331-0.323,1.81-0.872c0.521-0.154,0.815-0.594,1.182-0.943
		c0.106,0.011,0.213,0.021,0.32,0.031c0.008,0.518,0.016,1.035,0.023,1.552l0.016-0.009C10.319,62.307,10.23,62.303,10.141,62.287z"
		/>
	<path fill-rule="evenodd" clip-rule="evenodd" fill="#571515" d="M20.349,65.953c0.448-0.599,1.581-0.883,0.918-1.99
		c1.043,0.48,2.112,0.925,2.398,2.218c-0.707,0.629-1.414,1.258-2.121,1.887c-0.039-0.378,0.042-0.86-0.498-0.921
		C20.236,67.056,20.338,66.491,20.349,65.953z"/>
	<path fill-rule="evenodd" clip-rule="evenodd" fill="#B8B8B3" d="M13.112,51.433c-0.095,0-0.189-0.001-0.284-0.003
		c0.311-1.781-0.388-2.723-2.217-3.056c-1.313-0.239-2.564-0.821-3.843-1.25c0.006-0.146,0.011-0.293,0.017-0.44
		c2.003,0.25,3.729,1.412,5.709,1.731c0.161,0.066,0.323,0.133,0.484,0.199c0.127,0.236,0.254,0.472,0.38,0.707
		c-0.252,0.188-0.29,0.391-0.042,0.614C13.248,50.434,13.181,50.934,13.112,51.433z"/>
	<path fill-rule="evenodd" clip-rule="evenodd" fill="#797366" d="M11.963,64.091c0.161,0.291,0.321,0.582,0.481,0.873
		c0.104,1.486,0.036,2.953-0.448,4.573c-0.462-0.533-0.303-1.036-0.371-1.476C12.05,66.765,11.793,65.409,11.963,64.091z"/>
	<path fill-rule="evenodd" clip-rule="evenodd" fill="#464949" d="M8.588,66.629c0.066-0.341-0.123-0.876,0.366-0.85
		c0.545,0.03,0.819,0.5,0.804,1.067c-0.011,0.369-0.129,0.759-0.544,0.747C8.597,67.576,8.636,67.038,8.588,66.629z"/>
	<path fill-rule="evenodd" clip-rule="evenodd" fill="#9A9487" d="M6.785,46.683c-0.006,0.146-0.011,0.293-0.017,0.44
		c-1.105-0.362-2.211-0.725-3.317-1.088c0.218-0.012,0.435-0.025,0.651-0.038C5.156,45.604,5.914,46.366,6.785,46.683z"/>
	<path fill-rule="evenodd" clip-rule="evenodd" fill="#9A9487" d="M13.316,49.935c-0.248-0.223-0.21-0.426,0.042-0.614
		C13.345,49.525,13.331,49.729,13.316,49.935z"/>
	<path fill-rule="evenodd" clip-rule="evenodd" fill="#9A9487" d="M-27.818,87.36c-1.245,0.245-1.605-0.167-1.637-1.512
		c-0.052-2.192,0.631-4.23,0.882-6.352c0.655-1.721,2.208-1.585,3.443-1.305c8.039,1.823,15.764,4.639,23.236,8.066
		c1.533,0.703,3.252,1.109,4.647,2.447c2.339,2.243,3.196,4.89,3.313,7.904c0.056,1.425,0.278,2.885-0.161,4.304
		c0.082-1.414-0.939-0.435-1.41-0.65c-0.304-0.688,0.109-1.508-0.398-2.157c-0.026-0.974-0.052-1.947-0.078-2.921
		c-0.036-0.074-0.072-0.148-0.108-0.222c-0.054,0.061-0.106,0.122-0.159,0.183c-0.008,0.093-0.02,0.186-0.034,0.277
		c-0.526-0.033-0.55-0.402-0.579-0.81c-0.031-0.445,0.178-0.988-0.415-1.252c-0.093-0.932-0.247-1.838-1.077-2.444
		c-0.135-0.604-0.502-1.265-0.976-0.468c-0.362,0.61-0.754,1.69,0.38,2.271c0.129,0.485,0.259,0.972,0.387,1.457
		c0.017,1.002,1.315,1.651,0.771,2.808c-1.801-1.372-2.824-3.234-3.163-5.421c-0.09-0.574,0.313-1.234-0.118-1.831
		c0.273-0.829,1.236-0.398,1.897-0.985c-1.374-0.543-2.366-1.494-3.687-1.741c-0.716-0.134-1.101-1.369-2.059-0.602
		c-0.122-0.104-0.245-0.209-0.367-0.313l0.006,0.004c-0.205-0.395-0.558-0.353-0.91-0.307l0.006,0.003
		c-0.091-0.325-0.335-0.345-0.609-0.305l0.005,0.003c-0.283-0.187-0.542-0.438-0.853-0.55c-3.187-1.144-6.388-2.249-9.573-3.399
		c-1.439-0.519-2.91-0.878-4.422-1.103c1.483,1.039,3.362,1.113,4.859,2.092c0.002,0.162,0.003,0.325,0.004,0.487
		c-0.391-0.066-0.783-0.135-1.175-0.202c-0.329-0.116-0.652-0.257-0.989-0.344c-2.834-0.742-2.834-0.739-2.224,2.109
		c-0.036,0.91-0.072,1.821-0.108,2.731c-0.518-0.495-0.206-1.138-0.303-1.707c-0.266-1.565-0.881-2.963-1.99-4.169
		c0.467,0.876,0.425,1.725,0.184,2.612c-0.107,0.392,0.013,0.844,0.299,1.126c0.66,0.65,0.686,1.393,0.465,2.207
		c-0.814-0.383-1.295-0.967-1.456-1.903c-0.2-1.165-0.566-2.3-0.532-3.503c0.016-0.553-0.244-1.006-0.765-1.147
		c-0.506-0.137-0.656,0.306-0.753,0.711c-0.846,1.022-0.395,2.325-0.745,3.454c-0.67-0.217-0.096-1.185-0.952-1.425
		C-27.818,84.868-27.818,86.114-27.818,87.36z"/>
	<path fill-rule="evenodd" clip-rule="evenodd" fill="#797366" d="M0.752,119.362c-0.715-0.245-1.429-0.488-2.144-0.732
		c0.075-0.54-0.165-0.786-0.689-0.956c-2.702-0.882-5.323-1.968-7.935-3.095c-3.476-1.499-7.174-2.468-10.518-4.293
		c-0.672-0.367-1.644-0.231-2-1.147c1.201-0.306,2.298,0.87,3.558,0.332c-0.114-0.738-1.124-0.617-1.089-1.359
		c1.187,0.158,2.033,1.197,3.258,1.259c0.369,0.271,0.697,0.624,1.209,0.612c0.852,1.13,2.187,1.27,3.401,1.659
		c0.271,0.052,0.542,0.104,0.813,0.156c0.156,0.181,0.276,0.457,0.472,0.528c2.447,0.894,4.879,1.843,7.468,2.272
		c1.09,0.248,2.179,0.495,3.269,0.743c0.034,0.15,0.068,0.302,0.103,0.452c-0.389,0.142-0.778,0.173-1.176,0.032
		c-0.323-0.113-0.714-0.334-0.93,0.086c-0.235,0.461,0.11,0.74,0.482,0.946c0.695,0.385,1.358,0.97,2.101,1.102
		c1.708,0.306,3.023,0.498,3.547-1.854c0.716-3.225,1.109-6.493,0.317-9.782c0.019-0.098,0.031-0.197,0.038-0.297
		c0.432-0.104,0.8-0.451,1.289-0.337c0.317,0.356,0.283,0.779,0.227,1.206c-0.497,0.772-0.224,1.613-0.218,2.432
		c0.038,1.984,0.088,3.974-0.26,5.937C4.842,118.106,3.584,119.203,0.752,119.362z"/>
	<path fill-rule="evenodd" clip-rule="evenodd" fill="#B8B8B3" d="M27.573,80.469c0.919,0.576,1.497,1.403,1.931,2.394
		c0.213,0.486,0.161,1.26,0.981,1.326c0.097,0.225,0.343,0.541,0.27,0.662c-1.485,2.424-0.059,5.015-0.46,7.491
		c-0.039,0.239-0.116,0.472-0.176,0.707c-0.054-0.745-0.062-1.497-0.168-2.235c-0.357-2.494-0.357-5.089-1.95-7.252
		c-1.053-1.48-2.003-1.653-3.297-0.474c-1.455,1.327-2.463,2.978-3.136,4.829c-0.229,0.498-0.481,0.986-0.685,1.494
		c-3.187,7.94-4.137,16.321-4.866,24.746c-0.716,0.416-0.56,1.581-1.528,1.782c0.559-2.44,0.643-4.932,0.761-7.415
		c0.173-3.631,0.292-7.263,0.434-10.895c0.127,0.399,0.103,0.975,0.812,0.49c0.799-0.547,1.173-1.307,1.408-2.212
		c1.062-4.068,2.316-8.065,4.447-11.73c0.556-0.956,1.229-1.813,1.996-2.612C25.244,80.631,26.261,80.139,27.573,80.469z"/>
	<path fill-rule="evenodd" clip-rule="evenodd" fill="#464949" d="M4.496,100.264c0.471,0.216,1.492-0.764,1.41,0.65
		c-0.09,0.205-0.18,0.41-0.27,0.615c-0.925,1.025-1.198,2.285-1.3,3.606c-0.668-0.192-1.327-0.424-2.004-0.571
		c-2.724-0.591-3.453-0.038-4.111,2.632c-0.197,0.802,0.133,1.721-0.519,2.411c-0.672-0.734,0.073-1.769-0.505-2.542
		c-1.364,1.24-1.316,1.212-2.264-0.385c-0.272-0.458-0.968-1.102-1.401-0.097c-0.288,0.666-0.543,0.347-0.668,0.062
		c-0.48-1.091-0.302-2.245-0.148-3.374c0.038-0.282,0.387-0.185,0.637-0.19c1.076-0.023,1.352,0.815,1.612,1.625
		c0.622-0.376,0.024-1.477,1.006-1.362c0.849,0.099,0.444,0.854,0.542,1.335c0.051,0.243,0.023,0.575,0.329,0.576
		c0.205,0,0.459-0.189,0.606-0.366c0.479-0.572,0.687-1.321,1.263-1.849c0.756-0.694,0.638-1.125-0.354-1.632
		c-3.089-1.579-3.166-1.826-2.715-4.927c0.022-0.156,0.08-0.184,0.216-0.058c0.494,1.05,0.986,2.136,1.514,3.204
		c0.378,0.768,1.991,0.701,2.538-0.087c1.034,0.305,1.648-0.164,2.015-1.092c0.134,0.13,0.267,0.26,0.4,0.389
		c-0.074,0.486-0.101,0.986-0.234,1.455c-0.289,1.016,0.414,1.466,1.114,1.582C4.371,102.069,4.098,100.842,4.496,100.264z"/>
	<path fill-rule="evenodd" clip-rule="evenodd" fill="#302F2E" d="M4.337,105.137c0.102-1.322,0.375-2.582,1.3-3.607
		c-0.007,0.148-0.014,0.297-0.021,0.446c-0.156,0.791-0.135,1.583,0.006,2.374c0.153,0.449,0.147,0.896-0.025,1.34
		c-0.489-0.114-0.857,0.232-1.288,0.338c-0.013-0.1-0.03-0.197-0.054-0.294C4.282,105.535,4.31,105.336,4.337,105.137z"/>
	<path fill-rule="evenodd" clip-rule="evenodd" fill="#D8D8D7" d="M5.605,109.327c-0.006-0.818-0.279-1.659,0.218-2.432
		C6.247,107.751,6.604,108.599,5.605,109.327z"/>
	<path fill-rule="evenodd" clip-rule="evenodd" fill="#FFFFFF" d="M15.486,91.537c0.016,0.802,0.031,1.604,0.047,2.405
		C14.853,93.153,14.43,92.36,15.486,91.537z"/>
	<path fill-rule="evenodd" clip-rule="evenodd" fill="#FFFFFF" d="M15.409,89.431c0.009,0.202,0.02,0.403,0.029,0.605
		c-0.18,0.155-0.341,0.398-0.543,0.439c-0.207,0.041-0.264-0.234-0.271-0.435C14.607,89.483,14.98,89.421,15.409,89.431z"/>
	<path fill-rule="evenodd" clip-rule="evenodd" fill="#464949" d="M5.622,104.35c-0.141-0.791-0.162-1.583-0.006-2.374
		C5.856,102.766,5.841,103.557,5.622,104.35z"/>
	<path fill-rule="evenodd" clip-rule="evenodd" fill="#B8B8B3" d="M15.634,94.868c0.195,0.364,0.171,0.737,0.048,1.113
		C15.472,95.618,15.524,95.245,15.634,94.868z"/>
	<path fill-rule="evenodd" clip-rule="evenodd" fill="#DC6718" d="M23.665,66.181c-0.286-1.293-1.355-1.737-2.398-2.218
		c-1.671-0.56-1.567-1.931-1.513-3.28c0.023-0.592,0.046-1.183,0.069-1.775c0.068,0.019,0.139,0.03,0.209,0.034
		c1.016,0.767,2.074,1.459,3.299,1.856c0,0-0.001,0.011-0.001,0.011c0.155,0.194,0.295,0.402,0.469,0.579
		C25.741,63.357,25.715,64.366,23.665,66.181z"/>
	<path fill-rule="evenodd" clip-rule="evenodd" fill="#1B1919" d="M16.018,114.157c0.729-8.425,1.68-16.806,4.866-24.746
		c0.203-0.508,0.455-0.996,0.685-1.494c0.497,0.05,0.505,0.277,0.373,0.721c-0.762,2.572-1.489,5.155-2.213,7.738
		c-0.778,2.783-0.754,5.68-1.182,8.514c-0.09,0.594-0.231,1.389,0.789,1.464c0.006,0.401,0.011,0.804,0.017,1.204
		c-0.845-0.092-0.883,0.498-0.815,1.058c0.27,2.246,0.404,4.522,1.225,6.664c0.275,0.72,1.052,1.214,0.972,2.104
		c-0.28,0.064-0.553,0.077-0.797-0.115c-0.268-0.039-0.534-0.077-0.801-0.115C17.393,116.888,16.632,115.599,16.018,114.157z"/>
	<path fill-rule="evenodd" clip-rule="evenodd" fill="#302F2E" d="M20.733,117.384c0.08-0.891-0.696-1.385-0.972-2.104
		c-0.82-2.142-0.955-4.418-1.225-6.664c-0.067-0.56-0.029-1.149,0.815-1.058c0.072,0.589,0.146,1.178,0.218,1.767
		c0.027,0.147,0.054,0.295,0.08,0.443c0.081,0.99,0.185,1.976,0.696,2.863c0.215,0.983,0.648,1.749,1.801,1.79
		c0.198-0.007,0.396-0.014,0.595-0.021c0.26,0.052,0.453-0.046,0.596-0.261c1.326-0.813,1.99-2.155,2.677-3.45
		c1.035-1.948,1.581-4.083,2.191-6.188c0.187-0.001,0.374-0.002,0.561-0.003c-0.08,0.313-0.16,0.628-0.24,0.941
		c-0.072,0.075-0.091,0.161-0.055,0.26c-0.607,3.545-1.956,6.796-3.948,9.778C23.635,116.809,22.423,117.594,20.733,117.384z"/>
	<path fill-rule="evenodd" clip-rule="evenodd" fill="#464949" d="M-22.534,109.139c0.356,0.916,1.328,0.78,2,1.147
		c3.343,1.825,7.042,2.794,10.518,4.293c2.612,1.127,5.233,2.213,7.935,3.095c0.524,0.17,0.765,0.416,0.689,0.956
		c-3.777-0.925-7.471-2.116-11.065-3.597c-3.72-1.531-7.368-3.225-10.902-5.155c-0.007-0.292-0.015-0.584-0.022-0.876
		C-23.099,109.048-22.816,109.093-22.534,109.139z"/>
	<path fill-rule="evenodd" clip-rule="evenodd" fill="#464949" d="M28.767,104.498c-0.187,0.001-0.374,0.002-0.561,0.003
		c0.072-0.606,0.145-1.213,0.217-1.819c0.286-0.6,0.097-1.253,0.203-1.889c0.765-4.567,1.103-9.133-1.07-13.479
		c0.313-0.502-0.215-0.183-0.294-0.302c-0.322-0.19-0.643-0.381-0.964-0.57c0.565-0.228,0.854-0.744,0.893-1.255
		c0.053-0.692,0.315-1.195,0.811-1.626c1.593,2.163,1.593,4.758,1.95,7.252c0.106,0.738,0.114,1.49,0.168,2.235
		c-0.02,1.003-0.04,2.005-0.06,3.007c-0.011,0.2-0.021,0.4-0.03,0.602c-0.011,0.198-0.021,0.396-0.032,0.595
		c-0.022,0.401-0.045,0.803-0.066,1.204C29.454,100.453,29.468,102.544,28.767,104.498z"/>
	<path fill-rule="evenodd" clip-rule="evenodd" fill="#B8B8B3" d="M29.931,98.456c0.021-0.401,0.044-0.803,0.066-1.204
		C31.007,97.71,30.225,98.069,29.931,98.456z"/>
	<path fill-rule="evenodd" clip-rule="evenodd" fill="#302F2E" d="M19.136,117.153c0.267,0.038,0.533,0.076,0.801,0.115
		C19.635,117.473,19.382,117.333,19.136,117.153z"/>
	<path fill-rule="evenodd" clip-rule="evenodd" fill="#B8B8B3" d="M30.029,96.657c0.01-0.201,0.02-0.401,0.03-0.602
		C30.331,96.271,30.292,96.47,30.029,96.657z"/>
	<path fill-rule="evenodd" clip-rule="evenodd" fill="#464949" d="M28.472,105.699c-0.036-0.099-0.018-0.185,0.055-0.26
		c0.01,0.064,0.026,0.129,0.023,0.193C28.549,105.656,28.499,105.677,28.472,105.699z"/>
	<path fill-rule="evenodd" clip-rule="evenodd" fill="#FFFFFF" d="M32.69,94.232c-0.092,0.104-0.185,0.207-0.277,0.311
		C32.506,94.439,32.599,94.336,32.69,94.232z"/>
	<path fill-rule="evenodd" clip-rule="evenodd" fill="#B8B8B3" d="M6.469,62.761c-0.048,0.309-0.097,0.617-0.146,0.925
		c-0.036,0.078-0.095,0.127-0.177,0.147c-0.252,0.122-0.251,0.361-0.271,0.59c0,0,0.037-0.017,0.036-0.017
		c-0.766,0.376-0.987,1.028-0.933,1.824l0.026,0.008c-0.229,0.059-0.562,0.042-0.67,0.189c-1.135,1.554-2.639,1.453-4.233,1.002
		l0.028,0.01c-0.1-0.276-0.333-0.319-0.584-0.33l-0.015-0.012c-0.101-0.096-0.201-0.192-0.301-0.288h-0.001
		c-0.045-0.658-0.44-1.015-1.034-1.201c-0.358-0.582-0.718-1.165-1.076-1.748c-0.45-1.191-0.775-2.414-0.926-3.68
		c0.06-2.414-0.063-4.868,1.523-6.947c0.54,0.267,0.216-0.201,0.285-0.335l-0.033,0.019c1.395-1.015,2.994-1.002,4.608-0.918
		c0.09,0.116,0.18,0.232,0.271,0.348c0.135,0.255,0.358,0.309,0.62,0.275c-0.01,0.427,0.19,0.631,0.623,0.59
		c-0.067,0.273-0.008,0.5,0.236,0.66c0.13,0.599,0.528,1.037,0.896,1.494C6.353,57.711,6.662,60.194,6.469,62.761z M4.96,57.465
		c-0.157-1.07-0.639-1.99-1.308-2.823c-2.069-2.579-4.604-2.249-5.927,0.772c-1.355,3.095-0.556,7.85,1.711,10.178
		c1.693,1.738,3.634,1.566,4.849-0.555c1.071-1.869,1.465-3.916,0.99-6.07C5.349,58.428,5.265,57.923,4.96,57.465z"/>
	<path fill-rule="evenodd" clip-rule="evenodd" fill="#1B1919" d="M-3.807,60.181c0.15,1.267,0.476,2.489,0.926,3.68
		c-1.005-0.241-2.01-0.481-3.014-0.723c-1.864-0.718-3.829-1.057-5.76-1.52c-0.187-0.035-0.374-0.07-0.559-0.107
		c0.153-0.147,0.305-0.292,0.457-0.437c1.948-0.204,2.377-1.147,1.295-2.851c-0.016-0.147-0.031-0.294-0.046-0.441
		c0.111-0.517,0.223-1.034,0.334-1.551c0.22,0.007,0.44,0.014,0.661,0.02c0.905,0.084,1.448-0.577,2.082-1.032
		c0.408-0.293,0.755-0.747,1.25-0.146c-0.005,0.249-0.001,0.494,0.284,0.606c0.158,0.574,0.315,1.014-0.434,1.463
		c-0.868,0.519-1.354,1.287-0.207,2.247C-5.689,60.101-4.744,60.023-3.807,60.181z M-7.997,59.585
		c0.131-0.043,0.263-0.087,0.395-0.13c-0.027-0.038-0.076-0.111-0.078-0.109c-0.114,0.07-0.224,0.146-0.334,0.222
		c-0.039,0.045-0.078,0.09-0.116,0.134C-8.086,59.663-8.041,59.624-7.997,59.585z"/>
	<path fill-rule="evenodd" clip-rule="evenodd" fill="#EFB33B" d="M0.111,67.669c-0.342,0.313-0.107,1.27-1.064,0.9
		c-2.068-0.798-4.148-1.565-6.192-2.49c1.993,0.497,4.018,0.434,6.023,0.56c0.117,0.058,0.234,0.114,0.352,0.172h0.001
		c0.1,0.096,0.2,0.192,0.301,0.288l0.015,0.012c0.131,0.224,0.332,0.32,0.584,0.33l-0.028-0.01
		C0.102,67.51,0.104,67.59,0.111,67.669z"/>
	<path fill-rule="evenodd" clip-rule="evenodd" fill="#571515" d="M-11.655,61.619c1.931,0.463,3.896,0.802,5.76,1.52
		c-1.7,0.761-3.381,0.237-5.025-0.178C-11.338,62.855-12.055,62.416-11.655,61.619z"/>
	<path fill-rule="evenodd" clip-rule="evenodd" fill="#D8D8D7" d="M0.111,67.669c-0.007-0.079-0.01-0.159-0.01-0.238
		c1.595,0.451,3.099,0.552,4.233-1.002c0.108-0.147,0.44-0.131,0.67-0.189C3.783,68.207,2.349,68.626,0.111,67.669z"/>
	<path fill-rule="evenodd" clip-rule="evenodd" fill="#D8D8D7" d="M4.979,66.231c-0.055-0.796,0.167-1.448,0.933-1.824
		C5.791,65.112,5.622,65.794,4.979,66.231z"/>
	<path fill-rule="evenodd" clip-rule="evenodd" fill="#D8D8D7" d="M-0.771,66.811c-0.117-0.058-0.234-0.114-0.352-0.172
		c-0.227-0.343-0.454-0.686-0.682-1.029C-1.211,65.796-0.815,66.152-0.771,66.811z"/>
	<path fill-rule="evenodd" clip-rule="evenodd" fill="#D8D8D7" d="M5.875,64.424c0.021-0.229,0.02-0.468,0.271-0.59
		C6.14,64.07,6.11,64.294,5.875,64.424z"/>
	<path fill-rule="evenodd" clip-rule="evenodd" fill="#EFB33B" d="M23.331,60.797c-1.225-0.397-2.283-1.089-3.299-1.856
		C21.43,59.031,22.654,59.427,23.331,60.797z"/>
	<path fill-rule="evenodd" clip-rule="evenodd" fill="#9A9487" d="M3.076,23.692c0.766-0.515,1.167,0.016,1.643,0.15
		C4.214,24.048,3.723,24.16,3.076,23.692z"/>
	<path fill-rule="evenodd" clip-rule="evenodd" fill="#9A9487" d="M2.695,23.261c-0.028,0.035-0.066,0.104-0.084,0.099
		c-0.079-0.021-0.151-0.063-0.226-0.098c0.029-0.034,0.066-0.103,0.085-0.098C2.549,23.185,2.621,23.227,2.695,23.261z"/>
	<path fill-rule="evenodd" clip-rule="evenodd" fill="#9A9487" d="M-5.897,55.68c-0.286-0.113-0.289-0.357-0.284-0.606
		c0.628-1.175,0.261-2.394,0.156-3.601c-0.215-0.742,0.516-2.318-1.386-1.571c0.05-0.291,0.074-0.589,0.159-0.869
		c0.089-0.295,0.214-0.604-0.099-0.8c-0.292-0.184-0.54,0.08-0.814,0.179c-1.091,0.394-1.755,1.686-3.123,1.484
		c-0.108,0.006-0.216,0.011-0.324,0.017l0.004,0.012c0.071-0.289,0.06-0.536-0.304-0.606l0.001,0
		c0.083-0.455,0.129-0.901-0.27-1.252c-0.122-0.087-0.245-0.174-0.367-0.262c-0.239-0.197-0.477-0.393-0.716-0.59
		c-0.033-0.107-0.066-0.214-0.1-0.321c1.085-1.262,2.724-1.251,4.121-1.798c0.119,0.11,0.237,0.221,0.356,0.331
		c0.078,0.085,0.155,0.17,0.233,0.255c0.311,0.219,0.622,0.439,0.933,0.659c0.444,0.732,0.888,1.465,1.372,2.263
		c0.341-0.622-0.092-1.035-0.141-1.497c-0.038-1.472,1.054-1.85,2.151-2.223c-0.004,0.074-0.02,0.146-0.045,0.215
		c-0.234,0.671-0.896,1.19-0.451,2.089c0.275,0.555-0.291,0.974-0.771,1.27c-0.063,0.072-0.127,0.145-0.191,0.217
		c0.063,0.024,0.124,0.047,0.187,0.071l-0.021,0.001c0.044,0.537,0.017,1.091,0.145,1.608C-5.036,52.182-5.277,53.942-5.897,55.68z"
		/>
	<path fill-rule="evenodd" clip-rule="evenodd" fill="#D8D8D7" d="M-8.887,45.425c-0.119-0.11-0.237-0.22-0.356-0.331
		c-1.012-1.008-2.29-0.897-3.554-0.844c1.354-1.182,3.064-1.079,4.192,0.243c0.379,0.445,0.785,0.868,1.177,1.301
		c0,0.235-0.061,0.437-0.294,0.545c-0.311-0.219-0.622-0.439-0.933-0.658C-8.731,45.596-8.809,45.51-8.887,45.425z"/>
	<path fill-rule="evenodd" clip-rule="evenodd" fill="#B8B8B3" d="M-7.721,46.339c0.234-0.108,0.294-0.31,0.294-0.545
		c0.546,0.27,0.549,0.927,0.937,1.31c0.048,0.462,0.482,0.875,0.141,1.498C-6.833,47.804-7.277,47.071-7.721,46.339z"/>
	<path fill-rule="evenodd" clip-rule="evenodd" fill="#1B1919" d="M-19.301,51.439c0.144-0.511,0.289-1.022,0.433-1.533
		c0.039-0.031,0.09-0.053,0.115-0.093c1.917-3.031,3.987-2.991,5.909,0.118c-0.969-0.037-1.965-0.067-2.315,1.11
		c-0.355,1.191-0.393,2.366-0.165,3.642c0.194,1.084,1.32,0.714,1.594,1.513c0.436,1.27,1.067,0.606,1.616,0.056
		c0.259-0.26,0.124-0.828,0.668-0.882c-0.011,0.203-0.022,0.407-0.033,0.609c-0.031,0.13-0.063,0.26-0.094,0.39
		c-0.088,1.379-0.479,2.658-1.265,3.805c-2.038,1.441-3.49,1.177-5.002-0.992c-1.497-2.147-1.701-4.613-1.614-7.132
		C-19.3,51.873-19.221,51.676-19.301,51.439z"/>
	<path fill-rule="evenodd" clip-rule="evenodd" fill="#302F2E" d="M-11.446,55.37c-0.544,0.054-0.409,0.622-0.668,0.882
		c-0.549,0.55-1.18,1.214-1.616-0.056c-0.274-0.799-1.4-0.429-1.594-1.513c-0.229-1.276-0.19-2.451,0.165-3.642
		c0.351-1.177,1.347-1.147,2.315-1.11C-11.795,51.594-11.403,53.426-11.446,55.37z"/>
	<path fill-rule="evenodd" clip-rule="evenodd" fill="#464949" d="M-7.412,49.901c1.902-0.747,1.171,0.83,1.387,1.571
		c-0.581,0.054-0.944,0.437-1.042,0.939c-0.166,0.844-0.766,1.374-1.402,1.669c-1.036,0.481-1.168,1.223-1.044,2.171
		c-0.22-0.006-0.44-0.013-0.661-0.02c-0.058-1.293-0.117-2.587-0.175-3.881c0.417-0.022,0.705-0.207,0.801-0.633
		C-8.836,51.111-8.124,50.506-7.412,49.901z"/>
	<path fill-rule="evenodd" clip-rule="evenodd" fill="#D8D8D7" d="M-10.508,57.783c0.015,0.146,0.031,0.294,0.046,0.441
		c-0.413,0.387-0.19,1.128-0.788,1.41l-0.023-0.021C-11.311,58.88-11.263,58.184-10.508,57.783z"/>
	<path fill-rule="evenodd" clip-rule="evenodd" fill="#9A9487" d="M-9.548,51.717c-0.096,0.427-0.385,0.611-0.801,0.633
		c-0.1-0.003-0.2-0.006-0.301-0.009c-0.016-0.202-0.031-0.403-0.047-0.605C-10.314,51.729-9.931,51.723-9.548,51.717z"/>
	<path fill-rule="evenodd" clip-rule="evenodd" fill="#D8D8D7" d="M-11.612,49.912c0.108-0.005,0.216-0.011,0.324-0.017
		c0.002,0.333,0.409,0.603,0.141,1C-11.526,50.665-11.597,50.302-11.612,49.912z"/>
	<path fill-rule="evenodd" clip-rule="evenodd" fill="#D8D8D7" d="M-12.181,48.065c0.398,0.351,0.353,0.798,0.27,1.252
		c-0.261-0.074-0.325-0.271-0.316-0.513C-12.212,48.558-12.196,48.312-12.181,48.065z"/>
	<path fill-rule="evenodd" clip-rule="evenodd" fill="#FFFFFF" d="M-12.181,48.065c-0.015,0.247-0.031,0.493-0.046,0.74
		c-0.328-0.263-0.42-0.602-0.321-1.002C-12.425,47.891-12.303,47.978-12.181,48.065z"/>
	<path fill-rule="evenodd" clip-rule="evenodd" fill="#D8D8D7" d="M-11.912,49.317c0.363,0.071,0.375,0.318,0.304,0.606
		C-11.876,49.805-11.932,49.58-11.912,49.317z"/>
	<path fill-rule="evenodd" clip-rule="evenodd" fill="#D8D8D7" d="M-10.697,51.735c0.016,0.202,0.031,0.404,0.047,0.605
		C-11.025,52.167-11.072,51.968-10.697,51.735z"/>
	<path fill-rule="evenodd" clip-rule="evenodd" fill="#FFFFFF" d="M-13.363,46.892c0.034,0.107,0.066,0.214,0.1,0.321
		c-0.322,0.044-0.617,0.026-0.77-0.326C-13.809,46.65-13.586,46.85-13.363,46.892z"/>
	<path fill-rule="evenodd" clip-rule="evenodd" fill="#302F2E" d="M-11.573,56.369c0.032-0.13,0.063-0.26,0.094-0.39
		C-11.51,56.109-11.541,56.239-11.573,56.369z"/>
	<path fill-rule="evenodd" clip-rule="evenodd" fill="#464949" d="M-16.808,109.371c-1.224-0.063-2.071-1.102-3.257-1.26
		c-0.08-0.027-0.16-0.05-0.241-0.07c-0.213-0.611-0.7-0.786-1.284-0.806c-0.644-0.081-1.183-0.414-1.733-0.721
		c-0.112-0.077-0.225-0.155-0.337-0.233c-0.081-0.032-0.163-0.06-0.247-0.081c-0.098-0.335-0.311-0.518-0.67-0.508
		c-1.361-0.682-1.72-1.988-2.061-3.307c0.384-0.456,0.215-0.759-0.271-0.973c-0.018-0.279-0.036-0.558-0.053-0.836
		c0.313-0.677,0.529-1.342-0.244-1.877c-0.02-0.479-0.039-0.96-0.059-1.438c0.353-0.819,0.46-1.628-0.099-2.409
		c-0.012-0.183-0.023-0.365-0.035-0.549c0.012-0.29,0.145-0.751,0.016-0.843c-1.202-0.856-0.768-2.055-0.737-3.17
		c0.533,0.157,1.2-0.561,1.64,0.42c0.471,1.052,1.368,0.946,2.213-0.149c0.665-0.07,1.176-0.314,1.228-1.081
		c0.076-0.021,0.142-0.059,0.199-0.113c0.476,0.584,0.794,1.188,0.485,1.985c-0.153,0.395-0.181,0.837,0.503,0.581
		c0.07-0.014,0.14-0.025,0.211-0.036c0.097,0.109,0.193,0.22,0.29,0.33c0.002,0.493,0.207,0.802,0.74,0.812
		c0.296,0.392,0.744,0.425,0.967,0.081c0.279-0.427,0.342-0.985-0.059-1.454c-0.019-0.263-0.038-0.524-0.057-0.785
		c0.201-0.591,0.404-1.183-0.615-1.077c-0.198-0.072-0.396-0.144-0.595-0.215c-0.612-0.691-0.115-1.527-0.299-2.275
		c0.036-0.91,0.072-1.821,0.107-2.731c0.944,0.54,0.768,1.778,1.463,2.427c1.908,1.782,2.489,3.895,1.735,6.362
		c-0.233,0.763,0.03,1.216,0.467,1.843c1.103,1.579,1.992,3.295,1.354,5.352c-0.723-0.317-0.554-0.971-0.602-1.555
		c-0.219-2.705-2.744-4.361-5.264-3.468c-0.534,0.19-0.849,0.509-0.772,1.112l0.002-0.003c-0.787,0.06-1.158,0.578-1.267,1.271
		c-0.295,1.885-0.53,3.66,0.355,5.605c0.854,1.878,2.458,1.939,3.872,2.302c0.979,0.251,1.653-0.912,2.236-1.74
		c0.468-0.664,0.924-1.313,0.852-2.185c-0.033-0.402,0.128-0.685,0.58-0.711c0.131,1.007-0.173,1.954-0.421,2.904
		c-0.101,0.387-0.353,0.879-0.004,1.105c1.026,0.668,0.57,1.544,0.233,2.191C-16.687,108.055-16.726,108.697-16.808,109.371z"/>
	<path fill-rule="evenodd" clip-rule="evenodd" fill="#9A9487" d="M-23.908,106.2c0.084,0.021,0.167,0.049,0.247,0.082
		c0.112,0.077,0.225,0.155,0.337,0.232c0.55,0.307,1.09,0.64,1.733,0.721c0.175,0.67,0.673,0.828,1.284,0.806
		c0.081,0.021,0.162,0.043,0.241,0.07c-0.035,0.742,0.975,0.621,1.089,1.359c-1.259,0.538-2.357-0.638-3.558-0.332
		c-0.283-0.046-0.565-0.091-0.848-0.137c-4.232-2.339-5.008-6.431-5.41-10.702c-0.07-0.743-0.055-1.481-0.225-2.229
		c-0.287-1.262,0.191-1.725,1.616-1.768c0.012,0.184,0.023,0.366,0.035,0.549c-0.33,0.817-0.412,1.625,0.099,2.409
		c0.02,0.479,0.039,0.959,0.058,1.438c-0.047,0.643-0.307,1.313,0.245,1.877c0.018,0.278,0.036,0.557,0.053,0.836
		c-0.086,0.373-0.136,0.737,0.271,0.973c0.341,1.318,0.7,2.625,2.061,3.307C-24.552,106.122-24.342,106.31-23.908,106.2z"/>
	<path fill-rule="evenodd" clip-rule="evenodd" fill="#302F2E" d="M-24.268,90.562c-0.845,1.096-1.743,1.201-2.213,0.149
		c-0.439-0.98-1.107-0.263-1.64-0.42c-0.528-1.041,0.67-1.906,0.303-2.931c0-1.246,0-2.492,0-3.791
		c0.856,0.24,0.282,1.208,0.953,1.425C-26.629,87.144-26.352,89.274-24.268,90.562z"/>
	<path fill-rule="evenodd" clip-rule="evenodd" fill="#302F2E" d="M-29.349,93.303c-0.005-1.585-0.01-3.171-0.016-4.756
		c0.682,0.661,1.129,4.103,0.58,4.688C-28.884,93.34-29.156,93.284-29.349,93.303z"/>
	<path fill-rule="evenodd" clip-rule="evenodd" fill="#DC6718" d="M-20.512,59.987c0.163-0.124,0.326-0.246,0.489-0.369
		c0.114-0.188,0.229-0.375,0.343-0.564c1.175-0.254,1.139,0.81,1.531,1.406C-18.955,60.399-19.821,60.628-20.512,59.987z"/>
	<path fill-rule="evenodd" clip-rule="evenodd" fill="#571515" d="M-11.25,59.634c0.598-0.282,0.375-1.023,0.788-1.41
		c1.082,1.704,0.653,2.647-1.295,2.851C-11.634,60.578-11.131,60.216-11.25,59.634z"/>
	<path fill-rule="evenodd" clip-rule="evenodd" fill="#B8B8B3" d="M-19.301,51.439c0.08,0.236,0.001,0.434-0.153,0.611
		C-19.519,51.817-19.506,51.604-19.301,51.439z"/>
	<path fill-rule="evenodd" clip-rule="evenodd" fill="#2E3D5D" d="M3.451,46.035c1.106,0.363,2.212,0.726,3.317,1.088
		c1.278,0.429,2.529,1.011,3.843,1.25c1.829,0.333,2.527,1.275,2.217,3.056c-0.218,3.626-0.437,7.253-0.654,10.88
		c-0.625-1.119-0.33-2.449-0.829-3.597c-0.176-0.921,0.137-1.898-0.322-2.786c-0.076-0.307,0.135-0.718-0.32-0.888l0.009,0
		c0.029-1.433-0.617-2.596-1.472-3.676c-0.547-1.457-1.933-1.974-3.145-2.533c-0.914-0.421-2.03-0.3-2.662,0.809
		c-0.821-0.096-0.936,1.231-1.861,0.927c-0.089-0.213-0.178-0.426-0.268-0.639c-0.034-0.956-0.068-1.911-0.103-2.866
		c0.063-1.042-0.922-1.266-1.446-1.85c0.034-0.047,0.069-0.093,0.106-0.139C1.058,45.392,2.255,45.713,3.451,46.035z"/>
	<path fill-rule="evenodd" clip-rule="evenodd" fill="#9A9487" d="M11.022,55.926c0.459,0.888,0.146,1.864,0.322,2.786
		c-0.136,1.247-0.039,2.555-0.95,3.596c-0.008-0.518-0.016-1.035-0.023-1.552c0,0,0.003,0.019,0.003,0.019
		c0.373-0.168,0.296-0.366,0.039-0.578c0.384-1.746-0.083-3.443-0.3-5.154l0.108-0.006l0.109,0.004
		c0.126-0.001,0.253-0.001,0.38-0.002l-0.009,0c-0.002,0.336-0.007,0.672-0.003,1.009c0.002,0.146,0.053,0.271,0.218,0.143
		C10.981,56.14,10.989,56.016,11.022,55.926z"/>
	<path fill-rule="evenodd" clip-rule="evenodd" fill="#9A9487" d="M10.141,62.287c0.09,0.016,0.179,0.02,0.27,0.012
		c-0.057,0.158-0.112,0.317-0.169,0.476C10.208,62.612,10.175,62.45,10.141,62.287z"/>
	<path fill-rule="evenodd" clip-rule="evenodd" fill="#464949" d="M-5.606,48.457c0.48-0.296,1.047-0.715,0.771-1.27
		c-0.445-0.899,0.217-1.418,0.451-2.089c1.084,0.504,2.168,1.009,3.252,1.514c0.563,0.905,1.521,1.682,0.963,2.952
		c0.001,0.122,0.002,0.243,0.003,0.365c-1.932,0.113-3.628-0.862-5.466-1.181l0.021-0.001C-5.613,48.648-5.611,48.553-5.606,48.457z
		"/>
	<path fill-rule="evenodd" clip-rule="evenodd" fill="#302F2E" d="M-0.169,49.563c0.558-1.27-0.399-2.046-0.963-2.952
		c1.03-0.984,1.307,0.196,1.839,0.64C0.663,48.116,0.941,49.102-0.169,49.563z"/>
	<path fill-rule="evenodd" clip-rule="evenodd" fill="#797366" d="M-0.169,49.563c1.11-0.46,0.832-1.447,0.876-2.312
		c0.165-0.063,0.329-0.128,0.494-0.192c0.034,0.955,0.068,1.91,0.103,2.865c-0.489-0.143-0.979-0.125-1.47,0.003
		C-0.167,49.806-0.168,49.684-0.169,49.563z"/>
	<path fill-rule="evenodd" clip-rule="evenodd" fill="#2E3D5D" d="M-1.125,44.858c-0.679,0.051-1.321-0.021-1.946-0.611
		c0.818-0.054,1.434,0.169,2.012,0.543L-1.125,44.858z"/>
	<path fill-rule="evenodd" clip-rule="evenodd" fill="#2E3D5D" d="M-0.245,45.208c-0.303-0.092-0.737,0.145-0.879-0.351
		C-1.125,44.858-1.06,44.79-1.06,44.79c0.341-0.021,0.684-0.045,0.92,0.279C-0.176,45.115-0.211,45.161-0.245,45.208z"/>
	<path fill-rule="evenodd" clip-rule="evenodd" fill="#1B1919" d="M4.924,32.848c0.02,0.711-0.038,1.104-0.429,1.343
		c-0.771,0.473-3.479-0.625-3.723-1.503c-0.359-1.294,0.261-2.006,1.541-1.653C3.459,31.351,4.942,31.352,4.924,32.848z"/>
	<path fill-rule="evenodd" clip-rule="evenodd" fill="#FFFFFF" d="M10.113,55.042c0.217,1.711,0.684,3.408,0.3,5.154
		c-0.047,0.074-0.089,0.152-0.126,0.232c-0.079,0.099-0.158,0.197-0.236,0.296c-0.366,0.349-0.66,0.789-1.181,0.943
		c-0.842-0.205-1.513-0.053-1.811,0.872c-0.197,0.074-0.395,0.148-0.591,0.222c0.193-2.567-0.116-5.05-1.245-7.396
		c0.397-0.485,0.991-0.639,1.529-0.868c0.624-0.265,1.387-0.313,1.555-1.172c0.203-0.077,0.406-0.154,0.609-0.23
		c0.184,0.057,0.367,0.114,0.551,0.171l-0.009-0.013c-0.036,0.25,0.033,0.392,0.318,0.314l-0.016-0.025
		c-0.12,0.386-0.033,0.702,0.318,0.925l-0.015-0.02C10.081,54.645,10.098,54.844,10.113,55.042z"/>
	<path fill-rule="evenodd" clip-rule="evenodd" fill="#B8B8B3" d="M7.06,62.539c0.298-0.925,0.969-1.076,1.811-0.872
		C8.391,62.216,7.746,62.421,7.06,62.539z"/>
	<path fill-rule="evenodd" clip-rule="evenodd" fill="#B8B8B3" d="M10.051,60.725c0.078-0.099,0.157-0.197,0.236-0.296
		c0.029,0.115,0.058,0.231,0.087,0.346c0,0-0.003-0.018-0.003-0.019C10.264,60.746,10.157,60.735,10.051,60.725z"/>
	<path fill-rule="evenodd" clip-rule="evenodd" fill="#302F2E" d="M-16.143,100.565c0.638-2.057-0.252-3.772-1.354-5.352
		c-0.438-0.627-0.701-1.08-0.467-1.843c0.754-2.468,0.173-4.58-1.735-6.362c-0.695-0.648-0.519-1.887-1.463-2.427
		c-0.61-2.849-0.61-2.852,2.224-2.109c0.337,0.087,0.66,0.228,0.989,0.344c0.099,0.828-0.385,1.862,0.307,2.45
		c1.121,0.953,1.922,2.223,3.361,2.902c1.198,0.566,2.548,0.907,3.572,1.833c-0.541,0.756-0.34,1.509-0.1,2.345
		c1.143-0.71,0.278-1.582,0.398-2.326c0.738-0.069,1.365,0.1,1.755,0.797c0.175,0.313,0.382,0.443,0.66,0.101
		c0.1,0.003,0.198,0.005,0.297,0.004l0.001-0.002c-0.04,0.835,0.063,1.638,0.593,2.635c0-1.054,0-1.831,0-2.609
		c0.033-0.281-0.083-0.71,0.275-0.765c0.853-0.131,0.345,1.06,0.916,1.157c0.993-0.98,1.515-2.458,3.246-2.231
		c0.142,0.389,0.094,0.927,0.733,0.918c-1.186,2.137-0.657,4.33-0.171,6.502c0.278,1.237,0.863,2.332,2.016,3.015
		c-0.547,0.788-2.16,0.854-2.538,0.087c-0.527-1.068-1.02-2.154-1.514-3.204c-0.136-0.126-0.193-0.099-0.216,0.058
		c-0.451,3.101-0.374,3.348,2.715,4.927c0.992,0.507,1.11,0.938,0.354,1.632c-0.576,0.527-0.784,1.276-1.263,1.849
		c-0.147,0.177-0.401,0.366-0.606,0.366c-0.306-0.001-0.278-0.333-0.329-0.576c-0.098-0.48,0.307-1.236-0.542-1.335
		c-0.981-0.114-0.384,0.986-1.006,1.362c-0.26-0.81-0.536-1.648-1.612-1.625c-0.25,0.006-0.599-0.092-0.637,0.19
		c-0.153,1.129-0.332,2.283,0.148,3.374c0.125,0.285,0.38,0.604,0.668-0.062c0.434-1.005,1.129-0.361,1.401,0.097
		c0.947,1.597,0.899,1.625,2.264,0.385c0.578,0.773-0.167,1.808,0.505,2.542c0.005,0.41,0.009,0.82,0.013,1.23
		c-0.096,1.177-0.068,2.252,1.219,2.905c0.549,0.278,1.009,0.836,0.891,1.599c-1.09-0.248-2.179-0.495-3.27-0.741
		c-2.476-1.418-5.315-1.807-7.939-2.803c-0.271-0.053-0.542-0.104-0.813-0.155c-0.855-1.123-2.115-1.419-3.401-1.66
		c-0.512,0.012-0.84-0.341-1.209-0.612c0.082-0.673,0.121-1.315,0.464-1.975c0.337-0.647,0.793-1.523-0.233-2.191
		c-0.349-0.227-0.097-0.719,0.004-1.105c0.249-0.95,0.552-1.897,0.421-2.904C-16.149,100.984-16.146,100.775-16.143,100.565z
		 M-15.167,100.157c0.26,0.865,0.111,1.69,0.284,2.44c0.127,0.55-0.044,2.3,1.45,0.798c0.267-0.269,1.088-0.448,0.966,0.622
		c-0.1,0.881,0.38,1.509,1.366,1.225c1.676-0.483,2.011-1.113,1.727-3.037c-1.021,0.677-1.689,0.586-1.662-0.81
		c0.006-0.321-0.151-0.635-0.483-0.668c-0.436-0.044-0.343,0.385-0.443,0.641c-0.179,0.455-0.652,0.532-0.749,0.135
		C-13.033,100.164-14.269,100.572-15.167,100.157z M-11.553,95.853c0.422,0.398,0.823,0.923,1.35,1.231
		c0.443,0.259,1.079,0.451,1.549,0.338c0.619-0.148,0.33-0.849,0.335-1.306c0.021-1.595-0.894-2.045-3.176-1.604
		c-0.074,0.705,0.828,0.448,0.958,0.938C-10.754,95.972-11.327,95.201-11.553,95.853z M-5.271,96.726
		c-0.081-0.451,0.108-1.324-0.833-0.479c-0.176,0.157-0.566,0.125-0.559-0.202c0.007-0.276,0.468-0.701-0.179-0.663
		c-0.483,0.028-0.271,0.569-0.208,0.86c0.059,0.266,0.433,0.498,0.423,0.734c-0.025,0.594,0.16,1.106,0.739,1.015
		C-5.374,97.911-5.31,97.27-5.271,96.726z"/>
	<path fill-rule="evenodd" clip-rule="evenodd" fill="#1B1919" d="M-7.996,90.918c-0.277,0.343-0.485,0.212-0.66-0.101
		c-0.39-0.697-1.018-0.866-1.756-0.797c-0.099-0.005-0.199-0.011-0.298-0.019c-1.024-0.926-2.375-1.267-3.572-1.833
		c-1.439-0.68-2.24-1.949-3.361-2.902c-0.692-0.588-0.208-1.622-0.307-2.45c0.392,0.067,0.784,0.136,1.175,0.202
		c0.107,0.097,0.198,0.248,0.323,0.285c4.256,1.235,8.375,2.834,12.395,4.688c0.527,0.243,1.339,0.236,1.388,1.115
		c-1.73-0.227-2.252,1.251-3.245,2.231c-0.571-0.098-0.063-1.288-0.916-1.157c-0.357,0.055-0.242,0.483-0.275,0.765
		c-0.198-0.009-0.396-0.017-0.593-0.025l-0.001,0.002C-7.794,90.693-7.893,90.707-7.996,90.918z"/>
	<path fill-rule="evenodd" clip-rule="evenodd" fill="#B8B8B3" d="M-0.09,99.541c-1.152-0.683-1.737-1.777-2.016-3.015
		c-0.486-2.172-1.015-4.365,0.171-6.502c0.287-0.097,0.574-0.193,0.861-0.29c0.431,0.597,0.028,1.257,0.118,1.831
		c0.339,2.187,1.362,4.049,3.163,5.42c-0.094,0.488-0.188,0.976-0.283,1.464C1.559,99.377,0.944,99.846-0.09,99.541z"/>
	<path fill-rule="evenodd" clip-rule="evenodd" fill="#797366" d="M-1.073,89.734c-0.287,0.097-0.574,0.193-0.861,0.29
		c-0.64,0.009-0.592-0.529-0.733-0.918c-0.05-0.879-0.861-0.872-1.389-1.115c-4.02-1.854-8.139-3.452-12.395-4.688
		c-0.125-0.037-0.216-0.188-0.323-0.285c-0.001-0.162-0.002-0.325-0.004-0.488c0.9-0.184,1.642,0.317,2.45,0.552
		c2.536,0.732,4.854,2.144,7.538,2.409l-0.005-0.003c0.097,0.313,0.339,0.337,0.609,0.305l-0.006-0.003
		c0.195,0.424,0.563,0.332,0.91,0.307l-0.006-0.004c0.122,0.104,0.245,0.209,0.367,0.313c0.958-0.768,1.343,0.468,2.059,0.602
		c1.32,0.247,2.313,1.198,3.687,1.741C0.163,89.336-0.8,88.905-1.073,89.734z"/>
	<path fill-rule="evenodd" clip-rule="evenodd" fill="#D8D8D7" d="M-24.268,90.562c-2.083-1.287-2.361-3.418-2.597-5.567
		c0.349-1.129-0.102-2.432,0.744-3.454c0.276,0.146,0.538,0.338,0.578,0.653c0.337,2.602,1.091,5.057,2.502,7.287
		C-23.092,90.247-23.604,90.491-24.268,90.562z"/>
	<path fill-rule="evenodd" clip-rule="evenodd" fill="#797366" d="M-21.854,91.934c-0.685,0.256-0.656-0.187-0.503-0.581
		c0.31-0.797-0.009-1.401-0.485-1.985c0.076-0.662,0.152-1.323,0.227-1.984c0.221-0.814,0.195-1.557-0.465-2.207
		c-0.286-0.282-0.406-0.734-0.299-1.126c0.241-0.888,0.284-1.736-0.184-2.612c1.108,1.206,1.724,2.604,1.99,4.169
		c0.097,0.569-0.215,1.212,0.303,1.707c0.184,0.748-0.313,1.584,0.299,2.275C-21.804,90.168-22.051,90.967-21.854,91.934z"/>
	<path fill-rule="evenodd" clip-rule="evenodd" fill="#464949" d="M-6.79,85.491c-2.684-0.266-5.002-1.677-7.538-2.409
		c-0.808-0.234-1.55-0.735-2.45-0.552c-1.497-0.978-3.376-1.052-4.859-2.091c1.513,0.225,2.983,0.584,4.422,1.103
		c3.185,1.15,6.386,2.256,9.573,3.399C-7.332,85.053-7.073,85.305-6.79,85.491z"/>
	<path fill-rule="evenodd" clip-rule="evenodd" fill="#B8B8B3" d="M-22.615,87.383c-0.075,0.661-0.151,1.322-0.227,1.984
		c-0.057,0.055-0.123,0.093-0.199,0.113c-1.411-2.23-2.165-4.686-2.502-7.287c-0.041-0.315-0.302-0.508-0.578-0.653
		c0.097-0.405,0.248-0.848,0.753-0.711c0.521,0.142,0.781,0.595,0.765,1.147c-0.035,1.203,0.332,2.338,0.532,3.503
		C-23.91,86.416-23.429,87-22.615,87.383z"/>
	<path fill-rule="evenodd" clip-rule="evenodd" fill="#797366" d="M1.925,98.449c0.095-0.488,0.189-0.976,0.283-1.464
		c0.545-1.155-0.754-1.805-0.771-2.806c1.027,0.669,1.006-0.312,1.287-0.817c0.593,0.264,0.384,0.807,0.415,1.252
		c0.029,0.407,0.053,0.776,0.579,0.81c0.146,0.749-0.054,1.449-0.305,2.143c-0.423,0.372-0.359,1.161-1.088,1.271
		C2.191,98.709,2.059,98.579,1.925,98.449z"/>
	<path fill-rule="evenodd" clip-rule="evenodd" fill="#329D83" d="M2.325,98.838c0.729-0.11,0.665-0.899,1.088-1.271
		c0.081,0.367-0.008,0.947,0.685,0.54c0.508,0.649,0.095,1.469,0.398,2.157c-0.398,0.578-0.125,1.806-1.291,1.611
		c-0.7-0.116-1.403-0.566-1.114-1.582C2.225,99.824,2.251,99.324,2.325,98.838z M3.187,99.755c-0.392,0.128-0.569,0.395-0.477,0.794
		c0.074,0.317,0.297,0.556,0.634,0.484c0.354-0.076,0.378-0.417,0.368-0.722C3.702,99.979,3.585,99.729,3.187,99.755z"/>
	<path fill-rule="evenodd" clip-rule="evenodd" fill="#464949" d="M2.724,93.362c-0.281,0.506-0.26,1.486-1.287,0.817
		c-0.127-0.486-0.257-0.973-0.386-1.458c0.216-0.596-0.407-1.469,0.596-1.804C2.477,91.524,2.631,92.431,2.724,93.362z"/>
	<path fill-rule="evenodd" clip-rule="evenodd" fill="#797366" d="M1.646,90.918c-1.003,0.335-0.38,1.208-0.596,1.804
		c-1.134-0.581-0.742-1.661-0.38-2.271C1.145,89.653,1.512,90.314,1.646,90.918z"/>
	<path fill-rule="evenodd" clip-rule="evenodd" fill="#464949" d="M4.098,98.106c-0.692,0.407-0.604-0.173-0.685-0.54
		c0.251-0.693,0.451-1.394,0.305-2.143c0.015-0.092,0.026-0.185,0.034-0.277c0.09,0.007,0.18,0.02,0.268,0.039
		C4.046,96.159,4.071,97.133,4.098,98.106z"/>
	<path fill-rule="evenodd" clip-rule="evenodd" fill="#464949" d="M-5.282,86.097c-0.347,0.025-0.715,0.117-0.91-0.307
		C-5.84,85.744-5.487,85.702-5.282,86.097z"/>
	<path fill-rule="evenodd" clip-rule="evenodd" fill="#464949" d="M-6.186,85.793c-0.27,0.032-0.512,0.009-0.609-0.305
		C-6.521,85.448-6.277,85.468-6.186,85.793z"/>
	<path fill-rule="evenodd" clip-rule="evenodd" fill="#464949" d="M-4.921,86.406c-0.122-0.104-0.245-0.209-0.367-0.313
		C-5.166,86.197-5.043,86.302-4.921,86.406z"/>
	<path fill-rule="evenodd" clip-rule="evenodd" fill="#797366" d="M4.02,95.186c-0.088-0.02-0.178-0.032-0.268-0.039
		c0.053-0.061,0.105-0.122,0.159-0.183C3.947,95.037,3.983,95.111,4.02,95.186z"/>
	<path fill-rule="evenodd" clip-rule="evenodd" fill="#9A9487" d="M4.27,106.323c0.792,3.289,0.398,6.558-0.317,9.782
		c-0.523,2.353-1.839,2.16-3.547,1.854c-0.742-0.132-1.405-0.717-2.101-1.102c-0.372-0.206-0.718-0.485-0.482-0.946
		c0.216-0.42,0.606-0.199,0.93-0.086c0.397,0.141,0.787,0.109,1.175-0.03c1.623,0.703,2.589,0.319,3.275-1.302
		c0.586-0.941,0.532-2.01,0.606-3.053c0.437-1.529,0.221-3.088,0.195-4.637c0.006-0.172,0.012-0.343,0.018-0.515
		C4.104,106.297,4.188,106.309,4.27,106.323z"/>
	<path fill-rule="evenodd" clip-rule="evenodd" fill="#464949" d="M3.202,114.495c-0.687,1.62-1.652,2.004-3.275,1.301
		c-0.033-0.152-0.067-0.304-0.102-0.454c0.118-0.763-0.342-1.32-0.891-1.599c-1.287-0.653-1.314-1.729-1.219-2.906
		c0.503,0.018,0.845-0.138,1.023,0.74c0.221,1.086,0.805,2.342,2.103,2.715C1.587,114.506,2.413,114.437,3.202,114.495z"/>
	<path fill-rule="evenodd" clip-rule="evenodd" fill="#464949" d="M-11.384,111.798c2.625,0.996,5.464,1.385,7.939,2.803
		c-2.588-0.432-5.02-1.381-7.467-2.274C-11.107,112.255-11.228,111.979-11.384,111.798z"/>
	<path fill-rule="evenodd" clip-rule="evenodd" fill="#464949" d="M-15.598,109.982c1.286,0.241,2.545,0.537,3.401,1.66
		C-13.411,111.252-14.746,111.112-15.598,109.982z"/>
	<path fill-rule="evenodd" clip-rule="evenodd" fill="#485E8C" d="M4.27,106.323c-0.082-0.015-0.165-0.026-0.248-0.033
		c-0.116-0.268-0.305-0.564,0.233-0.557c0.023,0.097,0.041,0.194,0.054,0.294C4.301,106.126,4.288,106.226,4.27,106.323z"/>
	<path fill-rule="evenodd" clip-rule="evenodd" fill="#302F2E" d="M28.001,83.562c-0.495,0.431-0.758,0.934-0.811,1.626
		c-0.038,0.511-0.327,1.027-0.893,1.255c-0.427,0.058-0.896-0.01-1.199,0.408c-1.139,0.321-1.284,1.43-1.788,2.254
		c-0.47,0.518-0.763,1.124-0.899,1.809c-1.64,3.42-2.383,7.065-2.707,10.815c-0.161,0.189-0.211,0.398-0.103,0.632
		c-0.089,1.331-0.177,2.663-0.266,3.993c-1.021-0.075-0.879-0.87-0.789-1.464c0.428-2.834,0.403-5.73,1.182-8.514
		c0.724-2.583,1.451-5.166,2.213-7.738c0.132-0.443,0.124-0.671-0.373-0.721c0.673-1.852,1.681-3.502,3.136-4.829
		C25.998,81.908,26.948,82.081,28.001,83.562z"/>
	<path fill-rule="evenodd" clip-rule="evenodd" fill="#2E3D5D" d="M4.255,105.733c-0.538-0.008-0.35,0.289-0.233,0.557
		c-0.006,0.172-0.012,0.343-0.018,0.516c-0.401,0.048-0.437-0.265-0.591-0.525c-0.739-1.247-1.91-0.305-2.858-0.521
		c-0.324-0.074-0.638-0.025-0.683,0.362c-0.172,1.481-0.534,2.951-0.271,4.462c0.209,1.2,0.961,1.765,2.104,2.022
		c1.098,0.247,1.623-0.381,2.104-1.164c-0.074,1.043-0.021,2.111-0.606,3.053c-0.789-0.058-1.615,0.012-2.36-0.202
		c-1.298-0.373-1.882-1.629-2.103-2.715c-0.179-0.878-0.521-0.723-1.023-0.74c-0.004-0.409-0.008-0.819-0.013-1.229
		c0.651-0.69,0.321-1.609,0.519-2.411c0.658-2.67,1.388-3.223,4.111-2.632c0.677,0.147,1.336,0.379,2.004,0.571
		C4.31,105.336,4.282,105.535,4.255,105.733z"/>
	<path fill-rule="evenodd" clip-rule="evenodd" fill="#F3F3F3" d="M19.704,101.729c0.324-3.75,1.067-7.396,2.707-10.815
		c0.097,0.163,0.31,0.359,0.273,0.484c-0.76,2.664-0.869,5.401-0.946,8.143c-0.03,1.088,0.013,2.041,1.414,2.354
		c0.856,0.191,1.648,0.694,2.448,1.1c0.286,0.145,0.541,0.313,0.813,0.064c0.599-0.551,1.328-0.316,2.01-0.376
		c-0.072,0.606-0.145,1.213-0.217,1.819c-0.61,2.105-1.156,4.24-2.191,6.188c-0.687,1.295-1.351,2.638-2.677,3.45
		c-0.251-0.033-0.453,0.044-0.596,0.261c-0.198,0.007-0.396,0.014-0.595,0.021c-0.292-0.907-0.88-1.517-1.801-1.79
		c-0.512-0.888-0.615-1.873-0.696-2.864c-0.026-0.147-0.053-0.295-0.08-0.442c-0.072-0.589-0.146-1.178-0.218-1.767
		c-0.006-0.4-0.011-0.803-0.017-1.204c0.089-1.33,0.177-2.662,0.266-3.993C19.778,102.173,19.771,101.955,19.704,101.729z"/>
	<path fill-rule="evenodd" clip-rule="evenodd" fill="#D8D8D7" d="M20.347,112.631c0.921,0.273,1.509,0.883,1.801,1.79
		C20.995,114.38,20.562,113.614,20.347,112.631z"/>
	<path fill-rule="evenodd" clip-rule="evenodd" fill="#D8D8D7" d="M22.742,114.4c0.143-0.217,0.345-0.294,0.596-0.261
		C23.195,114.354,23.002,114.452,22.742,114.4z"/>
	<path fill-rule="evenodd" clip-rule="evenodd" fill="#D8D8D7" d="M19.57,109.324c0.027,0.147,0.054,0.295,0.08,0.442
		C19.624,109.619,19.598,109.472,19.57,109.324z"/>
	<path fill-rule="evenodd" clip-rule="evenodd" fill="#FFFFFF" d="M28.423,102.682c-0.682,0.06-1.411-0.175-2.01,0.376
		c-0.271,0.249-0.526,0.08-0.813-0.064c-0.8-0.405-1.592-0.908-2.448-1.1c-1.401-0.313-1.444-1.266-1.414-2.354
		c0.077-2.741,0.187-5.479,0.946-8.143c0.036-0.125-0.177-0.321-0.273-0.484c0.137-0.685,0.43-1.291,0.899-1.809
		c1.302-0.191,1.799-1.021,1.788-2.254c0.303-0.418,0.772-0.351,1.199-0.408c0.321,0.189,0.642,0.38,0.964,0.57
		c0.098,0.101,0.195,0.201,0.294,0.302c2.173,4.346,1.835,8.911,1.07,13.479C28.52,101.429,28.709,102.082,28.423,102.682z"/>
	<path fill-rule="evenodd" clip-rule="evenodd" fill="#302F2E" d="M27.556,87.314c-0.099-0.101-0.196-0.201-0.294-0.302
		C27.341,87.132,27.868,86.813,27.556,87.314z"/>
	<path fill-rule="evenodd" clip-rule="evenodd" fill="#1B1919" d="M5.275,58.967c0.475,2.155,0.081,4.201-0.99,6.07
		C3.07,67.158,1.13,67.33-0.563,65.592c-2.267-2.328-3.066-7.083-1.711-10.178c1.322-3.021,3.857-3.351,5.927-0.772
		c0.669,0.833,1.15,1.753,1.308,2.823c-0.634-0.012-0.828-0.584-1.035-0.977c-0.407-0.766-1.001-0.92-1.751-0.821
		c-0.774,0.103-1.021,0.678-1.227,1.339c-0.438,1.404-0.253,2.785,0.18,4.124c0.291,0.899,1.152,1.28,2.006,1.368
		c0.748,0.077,0.916-0.735,1.337-1.188C5.126,60.603,4.655,59.614,5.275,58.967z"/>
	<path fill-rule="evenodd" clip-rule="evenodd" fill="#302F2E" d="M-0.166,49.927c0.49-0.129,0.98-0.146,1.47-0.003
		c0.09,0.213,0.179,0.427,0.269,0.639c-0.274,0.187-0.549,0.373-0.823,0.56c-0.523,0.151-1.04,0.331-1.57,0.446
		c-0.746,0.161-1.322,0.437-1.21,1.349c0,0,0.033-0.019,0.033-0.019c-0.096,0.112-0.19,0.223-0.285,0.335
		c-1.587,2.079-1.464,4.533-1.523,6.947c-0.938-0.158-1.883-0.081-2.732-0.792c-1.147-0.96-0.661-1.728,0.207-2.247
		c0.75-0.449,0.592-0.889,0.434-1.463c0.62-1.738,0.861-3.498,0.41-5.326c-0.128-0.517-0.101-1.071-0.145-1.608
		C-3.794,49.065-2.098,50.041-0.166,49.927z"/>
	<path fill-rule="evenodd" clip-rule="evenodd" fill="#302F2E" d="M5.275,58.967c-0.62,0.647-0.149,1.636-0.806,2.342
		c-0.421,0.453-0.589,1.265-1.337,1.188c-0.854-0.088-1.715-0.469-2.006-1.368c-0.433-1.339-0.617-2.719-0.18-4.124
		c0.206-0.661,0.452-1.236,1.227-1.339c0.75-0.099,1.344,0.055,1.751,0.821c0.207,0.392,0.401,0.964,1.035,0.977
		C5.265,57.923,5.349,58.428,5.275,58.967z"/>
	<path fill-rule="evenodd" clip-rule="evenodd" fill="#F3F3F3" d="M-2.031,52.918c-0.112-0.913,0.464-1.188,1.21-1.349
		c0.53-0.115,1.047-0.295,1.57-0.446c0.633,0.261,1.266,0.521,1.899,0.783l-0.071,0.093C0.963,51.916-0.637,51.903-2.031,52.918z"/>
	<path fill-rule="evenodd" clip-rule="evenodd" fill="#D8D8D7" d="M8.308,53.326c-0.168,0.859-0.931,0.907-1.555,1.172
		c-0.538,0.229-1.132,0.383-1.529,0.868c-0.368-0.456-0.767-0.894-0.896-1.493c0.084-0.087,0.168-0.174,0.252-0.261
		c0.122,0.042,0.245,0.083,0.368,0.125c0.178,0.792,0.623,0.677,1.213,0.428C6.866,53.865,7.453,53.244,8.308,53.326z"/>
	<path fill-rule="evenodd" clip-rule="evenodd" fill="#D8D8D7" d="M4.092,53.212c-0.434,0.042-0.634-0.163-0.624-0.59l0.063-0.073
		c0.319,0.104,0.52,0.314,0.575,0.65L4.092,53.212z"/>
	<path fill-rule="evenodd" clip-rule="evenodd" fill="#D8D8D7" d="M3.468,52.622c-0.262,0.034-0.485-0.02-0.62-0.275
		c0.002-0.109,0.004-0.218,0.005-0.327c0.322,0.054,0.518,0.27,0.679,0.529L3.468,52.622z"/>
	<path fill-rule="evenodd" clip-rule="evenodd" fill="#D8D8D7" d="M4.327,53.872c-0.244-0.161-0.304-0.387-0.236-0.66
		c0.001,0,0.016-0.013,0.016-0.013c0.157,0.137,0.315,0.274,0.473,0.412C4.495,53.698,4.411,53.785,4.327,53.872z"/>
	<path fill-rule="evenodd" clip-rule="evenodd" fill="#D8D8D7" d="M0.13,67.44c-0.252-0.01-0.453-0.106-0.584-0.33
		C-0.203,67.121,0.03,67.164,0.13,67.44z"/>
	<path fill-rule="evenodd" clip-rule="evenodd" fill="#F3F3F3" d="M-2.283,53.234c0.095-0.112,0.189-0.223,0.285-0.335
		C-2.067,53.033-1.743,53.501-2.283,53.234z"/>
	<path fill-rule="evenodd" clip-rule="evenodd" fill="#F3F3F3" d="M2.853,52.02c-0.001,0.109-0.003,0.218-0.005,0.327
		C2.757,52.231,2.667,52.116,2.577,52c0-0.001,0.071-0.094,0.071-0.094C2.733,51.912,2.802,51.95,2.853,52.02z"/>
	<path fill-rule="evenodd" clip-rule="evenodd" fill="#D8D8D7" d="M-0.469,67.099c-0.101-0.096-0.201-0.192-0.301-0.288
		C-0.67,66.906-0.569,67.003-0.469,67.099z"/>
	<path fill-rule="evenodd" clip-rule="evenodd" fill="#302F2E" d="M-9.513,56.251c-0.124-0.949,0.008-1.69,1.044-2.171
		c0.636-0.295,1.236-0.825,1.402-1.669c0.098-0.502,0.461-0.885,1.042-0.939c0.104,1.207,0.471,2.426-0.157,3.601
		c-0.495-0.601-0.842-0.146-1.25,0.146C-8.065,55.675-8.608,56.336-9.513,56.251z"/>
	<path fill-rule="evenodd" clip-rule="evenodd" fill="#302F2E" d="M-8.015,59.567c0.11-0.076,0.22-0.152,0.334-0.222
		c0.002-0.001,0.051,0.071,0.078,0.109c-0.131,0.043-0.263,0.087-0.395,0.13L-8.015,59.567z"/>
	<path fill-rule="evenodd" clip-rule="evenodd" fill="#302F2E" d="M-7.997,59.585c-0.044,0.039-0.09,0.078-0.134,0.116
		c0.039-0.044,0.078-0.089,0.116-0.134L-7.997,59.585z"/>
	<path fill-rule="evenodd" clip-rule="evenodd" fill="#302F2E" d="M-5.606,48.457c-0.005,0.096-0.007,0.192-0.005,0.289
		c-0.063-0.024-0.124-0.047-0.187-0.071C-5.733,48.602-5.67,48.529-5.606,48.457z"/>
	<path fill-rule="evenodd" clip-rule="evenodd" fill="#797366" d="M-8.887,45.425c0.078,0.085,0.156,0.171,0.233,0.256
		C-8.731,45.595-8.809,45.51-8.887,45.425z"/>
	<path fill-rule="evenodd" clip-rule="evenodd" fill="#2E3D5D" d="M-16.143,100.565c-0.003,0.21-0.006,0.419-0.008,0.629
		c-0.451,0.026-0.613,0.309-0.58,0.711c0.072,0.872-0.384,1.521-0.852,2.185c-0.583,0.828-1.256,1.991-2.236,1.74
		c-1.414-0.362-3.017-0.424-3.872-2.302c-0.885-1.945-0.65-3.721-0.355-5.605c0.109-0.692,0.48-1.211,1.267-1.271
		c0.229,1.683-0.584,3.343-0.045,5.05c0.316,1.003,0.856,1.741,1.883,1.872c1.052,0.135,1.886-0.481,2.285-1.398
		c0.417-0.958,0.578-2.043,0.396-3.093c-0.401-2.321-1.775-3.14-4.081-2.518c-0.144,0.039-0.293,0.061-0.44,0.09
		c-0.077-0.604,0.238-0.922,0.772-1.112c2.52-0.894,5.045,0.763,5.264,3.468C-16.697,99.595-16.866,100.248-16.143,100.565z"/>
	<path fill-rule="evenodd" clip-rule="evenodd" fill="#329D83" d="M-20.613,93.039c-0.533-0.01-0.738-0.318-0.74-0.812
		c0.061-0.074,0.122-0.148,0.183-0.223c0.908-0.043,0.771-0.637,0.647-1.225c0.072-0.067,0.146-0.133,0.22-0.197
		c0.18,0.099,0.36,0.197,0.541,0.296c0.019,0.263,0.039,0.524,0.057,0.785C-20.007,92.121-20.31,92.581-20.613,93.039z"/>
	<path fill-rule="evenodd" clip-rule="evenodd" fill="#329D83" d="M-21.854,91.934c-0.198-0.967,0.05-1.766,0.883-2.345
		c0.198,0.071,0.396,0.143,0.594,0.214c0.025,0.26,0.05,0.521,0.075,0.78c-0.075,0.064-0.148,0.13-0.22,0.197
		c-0.908-0.271-1.019,0.225-0.905,0.938c-0.072,0.06-0.144,0.119-0.216,0.179C-21.713,91.908-21.784,91.92-21.854,91.934z"/>
	<path fill-rule="evenodd" clip-rule="evenodd" fill="#797366" d="M-27.266,97.262c-0.51-0.784-0.429-1.592-0.099-2.409
		C-26.806,95.634-26.913,96.442-27.266,97.262z"/>
	<path fill-rule="evenodd" clip-rule="evenodd" fill="#797366" d="M-20.613,93.039c0.303-0.458,0.606-0.918,0.909-1.375
		c0.4,0.471,0.337,1.029,0.059,1.456C-19.869,93.464-20.316,93.431-20.613,93.039z"/>
	<path fill-rule="evenodd" clip-rule="evenodd" fill="#797366" d="M-26.963,100.577c-0.552-0.564-0.292-1.234-0.245-1.877
		C-26.434,99.235-26.65,99.9-26.963,100.577z"/>
	<path fill-rule="evenodd" clip-rule="evenodd" fill="#797366" d="M-20.302,90.583c-0.025-0.26-0.05-0.521-0.075-0.78
		c1.02-0.104,0.816,0.487,0.616,1.078C-19.942,90.78-20.122,90.682-20.302,90.583z"/>
	<path fill-rule="evenodd" clip-rule="evenodd" fill="#797366" d="M-20.306,108.041c-0.611,0.022-1.109-0.136-1.284-0.806
		C-21.006,107.255-20.519,107.43-20.306,108.041z"/>
	<path fill-rule="evenodd" clip-rule="evenodd" fill="#797366" d="M-26.639,102.386c-0.407-0.235-0.357-0.6-0.271-0.973
		C-26.424,101.627-26.255,101.93-26.639,102.386z"/>
	<path fill-rule="evenodd" clip-rule="evenodd" fill="#797366" d="M-23.908,106.2c-0.435,0.109-0.644-0.078-0.67-0.508
		C-24.219,105.683-24.005,105.865-23.908,106.2z"/>
	<path fill-rule="evenodd" clip-rule="evenodd" fill="#797366" d="M-23.324,106.515c-0.112-0.077-0.225-0.155-0.337-0.232
		C-23.548,106.359-23.436,106.438-23.324,106.515z"/>
	<path fill-rule="evenodd" clip-rule="evenodd" fill="#329D83" d="M-21.353,92.228c-0.097-0.11-0.193-0.221-0.29-0.33
		c0.072-0.06,0.144-0.119,0.216-0.179c0.085,0.096,0.171,0.19,0.257,0.286C-21.23,92.079-21.292,92.153-21.353,92.228z"/>
	<path fill-rule="evenodd" clip-rule="evenodd" fill="#797366" d="M2.853,52.02c-0.051-0.07-0.119-0.107-0.204-0.114
		c-0.634-0.261-1.267-0.522-1.899-0.783c0.274-0.187,0.549-0.374,0.823-0.56c0.925,0.305,1.039-1.022,1.86-0.927
		c0.344-0.014,0.697,0.021,1.028-0.049c1.676-0.354,2.901,0.21,3.846,1.805c-1.587-0.35-2.881,0.552-3.359,2.343
		c-0.123-0.042-0.246-0.083-0.368-0.125c-0.157-0.138-0.315-0.275-0.473-0.412c-0.056-0.336-0.256-0.546-0.575-0.65
		C3.37,52.289,3.175,52.073,2.853,52.02z"/>
	<path fill-rule="evenodd" clip-rule="evenodd" fill="#D8D8D7" d="M8.308,51.393c-0.945-1.595-2.171-2.159-3.847-1.805
		c-0.331,0.07-0.685,0.035-1.028,0.049c0.632-1.108,1.748-1.229,2.662-0.808c1.212,0.56,2.598,1.077,3.145,2.533
		c-0.121,0.127-0.242,0.254-0.363,0.381c-0.092-0.053-0.188-0.061-0.286-0.022v0.006c0.009-0.211-0.076-0.328-0.304-0.305
		L8.308,51.393z"/>
	<path fill-rule="evenodd" clip-rule="evenodd" fill="#B8B8B3" d="M8.876,51.742c0.121-0.127,0.242-0.254,0.363-0.381
		c0.854,1.08,1.501,2.243,1.472,3.676c-0.127,0.001-0.254,0.001-0.38,0.002c0.01-0.242,0.013-0.48-0.266-0.593l0.015,0.02
		c-0.058-0.325,0.029-0.7-0.318-0.925l0.016,0.025c-0.025-0.187-0.111-0.312-0.318-0.314l0.009,0.013
		C9.585,52.636,9,52.278,8.876,51.742z"/>
	<path fill-rule="evenodd" clip-rule="evenodd" fill="#B8B8B3" d="M11.022,55.926c-0.033,0.09-0.041,0.213-0.105,0.263
		c-0.165,0.128-0.216,0.003-0.218-0.143c-0.004-0.336,0.001-0.673,0.003-1.009C11.157,55.208,10.946,55.619,11.022,55.926z"/>
	<path fill-rule="evenodd" clip-rule="evenodd" fill="#797366" d="M10.065,54.447c0.278,0.113,0.275,0.351,0.266,0.593l-0.109-0.004
		l-0.108,0.006C10.098,54.844,10.081,54.645,10.065,54.447z"/>
	<path fill-rule="evenodd" clip-rule="evenodd" fill="#797366" d="M10.374,60.774c-0.029-0.115-0.058-0.23-0.087-0.346
		c0.037-0.081,0.079-0.158,0.126-0.232C10.67,60.408,10.747,60.606,10.374,60.774z"/>
	<path fill-rule="evenodd" clip-rule="evenodd" fill="#9A9487" d="M4.947,53.736c0.479-1.791,1.772-2.693,3.359-2.343
		c0.001,0-0.021,0.029-0.021,0.029c0.102,0.102,0.203,0.204,0.304,0.305V51.72c0.109,0.458,0.219,0.916,0.327,1.375
		c-0.203,0.077-0.406,0.153-0.609,0.23c-0.854-0.081-1.441,0.54-2.147,0.838C5.57,54.413,5.125,54.528,4.947,53.736z"/>
	<path fill-rule="evenodd" clip-rule="evenodd" fill="#797366" d="M8.917,53.095c-0.108-0.458-0.218-0.917-0.327-1.375
		c0.099-0.039,0.194-0.031,0.286,0.022C9,52.278,9.585,52.636,9.468,53.266C9.284,53.209,9.101,53.151,8.917,53.095z"/>
	<path fill-rule="evenodd" clip-rule="evenodd" fill="#797366" d="M9.762,53.542c0.348,0.225,0.261,0.6,0.318,0.925
		C9.729,54.243,9.642,53.928,9.762,53.542z"/>
	<path fill-rule="evenodd" clip-rule="evenodd" fill="#797366" d="M9.459,53.253c0.207,0.002,0.293,0.127,0.318,0.314
		C9.492,53.645,9.423,53.502,9.459,53.253z"/>
	<path fill-rule="evenodd" clip-rule="evenodd" fill="#464949" d="M-15.167,100.157c0.898,0.415,2.134,0.007,2.456,1.346
		c0.096,0.397,0.57,0.32,0.749-0.135c0.1-0.256,0.007-0.685,0.443-0.641c0.332,0.033,0.489,0.347,0.483,0.668
		c-0.027,1.396,0.641,1.486,1.662,0.81c0.284,1.924-0.051,2.554-1.727,3.037c-0.986,0.284-1.465-0.344-1.366-1.225
		c0.122-1.07-0.699-0.891-0.966-0.622c-1.494,1.502-1.322-0.248-1.45-0.798C-15.056,101.848-14.907,101.022-15.167,100.157z"/>
	<path fill-rule="evenodd" clip-rule="evenodd" fill="#464949" d="M-11.553,95.853c0.226-0.651,0.799,0.119,1.017-0.403
		c-0.13-0.489-1.033-0.232-0.958-0.938c2.283-0.44,3.197,0.01,3.176,1.604c-0.006,0.457,0.283,1.157-0.335,1.306
		c-0.47,0.113-1.105-0.079-1.549-0.338C-10.73,96.775-11.131,96.251-11.553,95.853z"/>
	<path fill-rule="evenodd" clip-rule="evenodd" fill="#464949" d="M-5.271,96.726c-0.039,0.544-0.104,1.186-0.616,1.266
		c-0.58,0.092-0.765-0.421-0.739-1.015c0.01-0.236-0.364-0.469-0.423-0.734c-0.063-0.291-0.275-0.832,0.208-0.86
		c0.646-0.038,0.186,0.387,0.179,0.663c-0.007,0.327,0.383,0.359,0.559,0.202C-5.162,95.401-5.352,96.274-5.271,96.726z"/>
	<path fill-rule="evenodd" clip-rule="evenodd" fill="#464949" d="M-10.709,90.002c0.1,0.008,0.199,0.014,0.298,0.019
		c-0.12,0.744,0.745,1.616-0.398,2.326C-11.049,91.511-11.25,90.758-10.709,90.002z"/>
	<path fill-rule="evenodd" clip-rule="evenodd" fill="#464949" d="M-7.697,90.92c0.197,0.009,0.395,0.017,0.593,0.025
		c0,0.778,0,1.556,0,2.609C-7.635,92.558-7.737,91.755-7.697,90.92z"/>
	<path fill-rule="evenodd" clip-rule="evenodd" fill="#464949" d="M-7.996,90.918c0.103-0.211,0.202-0.225,0.297,0.004
		C-7.797,90.923-7.896,90.921-7.996,90.918z"/>
	<path fill-rule="evenodd" clip-rule="evenodd" fill="#B8B8B3" d="M3.187,99.755c0.398-0.025,0.516,0.225,0.525,0.557
		c0.01,0.305-0.015,0.646-0.368,0.722c-0.337,0.071-0.56-0.167-0.634-0.484C2.617,100.149,2.795,99.883,3.187,99.755z"/>
	<path fill-rule="evenodd" clip-rule="evenodd" fill="#485E8C" d="M3.809,111.441c-0.481,0.783-1.007,1.411-2.104,1.164
		c-1.143-0.258-1.895-0.822-2.104-2.022c-0.263-1.511,0.1-2.98,0.271-4.462c0.045-0.388,0.358-0.437,0.683-0.362
		c0.948,0.217,2.119-0.726,2.858,0.521c0.154,0.261,0.189,0.573,0.591,0.525C4.029,108.354,4.245,109.912,3.809,111.441z
		 M2.912,109.14c-0.004-0.574-0.026-1.14-0.823-1.132c-0.733,0.007-1.093,0.382-1.083,1.118c0.009,0.596,0.132,1.128,0.857,1.159
		C2.632,110.317,2.906,109.837,2.912,109.14z"/>
	<path fill-rule="evenodd" clip-rule="evenodd" fill="#F3F3F3" d="M25.099,86.851c0.011,1.233-0.486,2.063-1.788,2.254
		C23.814,88.28,23.96,87.172,25.099,86.851z"/>
	<path fill-rule="evenodd" clip-rule="evenodd" fill="#D8D8D7" d="M19.704,101.729c0.066,0.227,0.074,0.444-0.103,0.632
		C19.493,102.127,19.543,101.918,19.704,101.729z"/>
	<path fill-rule="evenodd" clip-rule="evenodd" fill="#485E8C" d="M-22.78,96.655c0.147-0.029,0.296-0.051,0.44-0.09
		c2.306-0.622,3.68,0.196,4.081,2.518c0.181,1.05,0.021,2.135-0.396,3.093c-0.399,0.917-1.233,1.533-2.285,1.398
		c-1.026-0.131-1.566-0.869-1.883-1.872c-0.539-1.707,0.274-3.367,0.045-5.05L-22.78,96.655z M-19.704,100.216
		c-0.048-0.488-0.007-1.165-0.805-1.088c-0.626,0.061-1.109,0.429-1.086,1.185c0.02,0.649,0.143,1.237,0.958,1.215
		C-19.838,101.506-19.71,100.916-19.704,100.216z"/>
	<path fill-rule="evenodd" clip-rule="evenodd" fill="#B8B8B3" d="M-21.169,92.005c-0.086-0.096-0.172-0.19-0.257-0.286
		c-0.114-0.714-0.003-1.21,0.905-0.938C-20.398,91.368-20.262,91.962-21.169,92.005z"/>
	<path fill-rule="evenodd" clip-rule="evenodd" fill="#797366" d="M8.59,51.726c-0.101-0.101-0.202-0.203-0.304-0.305
		C8.514,51.398,8.599,51.515,8.59,51.726z"/>
	<path fill-rule="evenodd" clip-rule="evenodd" fill="#B8B8B3" d="M2.913,109.141c-0.007,0.696-0.281,1.177-1.05,1.145
		c-0.726-0.031-0.849-0.563-0.857-1.159c-0.01-0.736,0.35-1.111,1.083-1.118C2.886,108,2.908,108.565,2.913,109.141z"/>
	<path fill-rule="evenodd" clip-rule="evenodd" fill="#B8B8B3" d="M-19.704,100.216c-0.006,0.7-0.134,1.29-0.933,1.312
		c-0.815,0.022-0.938-0.565-0.958-1.215c-0.023-0.756,0.459-1.124,1.086-1.185C-19.711,99.051-19.752,99.728-19.704,100.216z"/>
</g>
</svg>
