<?xml version="1.0" encoding="utf-8"?>
<!-- Generator: Adobe Illustrator 16.0.0, SVG Export Plug-In . SVG Version: 6.00 Build 0)  -->
<!DOCTYPE svg PUBLIC "-//W3C//DTD SVG 1.1//EN" "http://www.w3.org/Graphics/SVG/1.1/DTD/svg11.dtd">
<svg version="1.1" id="레이어_1" xmlns="http://www.w3.org/2000/svg" xmlns:xlink="http://www.w3.org/1999/xlink" x="0px"
	 y="0px" width="16.391px" height="22.812px" viewBox="0 0 16.391 22.812" enable-background="new 0 0 16.391 22.812"
	 xml:space="preserve">
<g>
	<path fill-rule="evenodd" clip-rule="evenodd" fill="#FFFFFF" d="M0.005,11.405c0-3.72,0.002-7.44-0.005-11.16
		C0,0.04,0.041-0.001,0.246,0c5.3,0.007,10.601,0.007,15.9,0c0.205-0.001,0.245,0.04,0.245,0.245c-0.007,7.44-0.007,14.881,0,22.32
		c0,0.205-0.04,0.246-0.245,0.246c-5.3-0.008-10.601-0.008-15.9,0C0.041,22.812,0,22.771,0,22.565
		C0.008,18.845,0.005,15.126,0.005,11.405z M4.002,9.039C3.97,9.067,3.937,9.095,3.903,9.123c-0.265,0.25-0.543,0.49-0.801,0.839
		c0.29-0.077,0.52-0.007,0.753-0.012c0.178,0.024,0.355,0.048,0.532,0.071c0.079,0.025,0.158,0.051,0.236,0.076
		c0.111,0.261,0.301,0.386,0.592,0.416c0.312,0.031,0.663,0.014,0.921,0.191c0.644,0.444,1.402,0.596,2.104,0.89
		c0.223,0.094,0.465,0.086,0.698-0.006c0.198,0.087,0.397,0.173,0.597,0.259c0.164,0.112,0.329,0.225,0.493,0.336
		c0.157,0.184,0.315,0.365,0.473,0.548c0.283,0.504,0.453,1.045,0.531,1.616c-0.007,0.006-0.019,0.015-0.018,0.019
		c0.005,0.014,0.016,0.026,0.023,0.04c0.004,0.056,0.009,0.111,0.013,0.167c0.004,0.021,0.007,0.04,0.01,0.061
		c0.049,0.162,0.037,0.328,0.031,0.493c-0.007,0.007-0.02,0.014-0.018,0.018c0.004,0.015,0.013,0.027,0.02,0.041
		c0.006,0.26,0.013,0.521,0.019,0.781c-0.204-0.04-0.118-0.203-0.124-0.316c-0.025-0.43-0.062-0.849-0.352-1.205
		c-0.157-0.191-0.274-0.414-0.423-0.613c-0.246-0.33-0.509-0.658-0.941-0.734c-0.258-0.044-0.497-0.117-0.741-0.209
		c-0.401-0.152-0.778-0.366-1.183-0.5c-1.301-0.428-2.615-0.804-3.961-1.075c-0.761-0.153-1.511,0.246-1.417,1.225
		c0.151-0.06,0.236-0.187,0.338-0.288c0.112-0.112,0.259-0.204,0.397-0.164c0.431,0.123,0.821,0.35,1.211,0.568
		c0.075,0.042,0.186,0.148-0.016,0.197c-0.117-0.004-0.234-0.007-0.352-0.01c-0.184-0.199-0.403-0.265-0.663-0.176
		c-0.119,0-0.239,0-0.359,0.001c-0.088-0.001-0.149,0.038-0.18,0.122c-0.109,0.123-0.215,0.247-0.237,0.419
		c-0.134,0.013-0.097-0.132-0.176-0.196c-0.005,0.08-0.008,0.146-0.012,0.211c-0.128-0.184,0.005-0.409-0.099-0.63
		c0,0.685,0,1.335,0,1.985c0.044-0.137,0.037-0.275,0.046-0.412c0.01-0.146-0.047-0.301,0.053-0.436
		c0.001,0.33-0.026,0.662,0.012,0.988c0.058,0.496,0.085,0.986,0,1.483c-0.023,0.135-0.002,0.291,0.202,0.296
		c0.068,0.209-0.033,0.457,0.146,0.643c-0.007,0.004-0.021,0.011-0.02,0.014c0.004,0.014,0.012,0.027,0.019,0.041
		c-0.156,0.201,0.049,0.375,0.042,0.564c-0.187,0.1-0.298,0.253-0.333,0.463c-0.107,0.64,0.146,1.176,0.598,1.565
		c0.586,0.507,1.289,0.857,1.99,1.19c0.766,0.364,1.594,0.552,2.398,0.81c0.531,0.171,1.068,0.327,1.627,0.353
		c0.832,0.039,1.582-0.28,2.313-0.626c0.376-0.178,0.743-0.277,1.151-0.161c0.089,0.026,0.175,0,0.264-0.025
		c0.799-0.227,1.233-0.798,1.473-1.553c0.192-0.607,0.385-1.213,0.567-1.822c0.225-0.75,0.536-1.498,0.154-2.289
		c-0.021-0.662,0.143-1.312,0.122-1.973c-0.004-0.129,0.005-0.258-0.063-0.375c0.012-0.022,0.025-0.046,0.037-0.068
		c0.158-0.408,0.109-0.821,0.025-1.234c-0.004-0.109-0.005-0.22-0.011-0.329c-0.021-0.374,0-0.755-0.126-1.117
		c-0.064-0.417-0.196-0.808-0.455-1.147c-0.022-0.127-0.12-0.204-0.203-0.286c-0.523-0.514-1.207-0.74-1.856-1.028
		c0-0.599-0.003-1.197,0-1.796c0.004-0.968,0.013-1.937,0.018-2.905c0.001-0.292-0.099-0.541-0.394-0.64
		c-0.243-0.083-0.501-0.123-0.752-0.182c-0.091-0.065-0.182-0.129-0.302-0.075c-0.04,0.012-0.081,0.022-0.122,0.034V2.525
		c0.017-0.104-0.06-0.1-0.128-0.116c-0.268-0.062-0.532-0.133-0.801-0.191C9.317,2.174,9.252,2.066,9.319,1.877
		C9.325,1.864,9.33,1.851,9.335,1.838C9.324,1.845,9.311,1.852,9.299,1.858c-0.226-0.114-0.46-0.173-0.713-0.11
		C8.498,1.67,8.437,1.694,8.4,1.801C8.292,1.739,8.247,1.928,8.139,1.866C8.167,1.8,8.191,1.733,8.135,1.671
		C8.033,1.558,7.49,1.467,7.329,1.534C7.313,1.522,7.299,1.506,7.283,1.497C6.796,1.24,6.267,1.303,5.749,1.294
		c-0.017,0-0.034,0.044-0.051,0.067C5.474,1.466,5.419,1.667,5.423,1.884c0.01,0.478,0.033,0.956,0.051,1.434
		c-0.025,0.535-0.017,1.07,0.01,1.605C5.453,4.998,5.479,5.065,5.512,5.132l0,0.008c0.004,0.049,0.009,0.097,0.014,0.146
		C5.396,5.321,5.292,5.164,5.158,5.237C5.122,5.23,5.085,5.223,5.049,5.215C5.045,5.177,5.037,5.136,4.991,5.137
		c-0.016,0-0.03,0.035-0.045,0.055C4.927,5.557,4.81,5.919,4.919,6.288C4.962,6.32,5.006,6.323,5.051,6.295l0.026,0.007L5.101,6.29
		C5.27,6.275,5.179,6.42,5.22,6.484C5.2,6.486,5.179,6.488,5.159,6.49C4.628,6.405,4.46,6.483,4.266,6.905
		C3.983,7.203,3.922,7.659,4.129,7.929C4.133,7.987,4.136,8.046,4.14,8.104C3.911,8.229,4.056,8.289,4.184,8.351
		c0.007,0.038,0.014,0.076,0.021,0.114C4.148,8.5,4.065,8.535,4.125,8.616C4.216,8.739,4.135,8.831,4.09,8.932
		C4.061,8.968,4.032,9.003,4.002,9.039z M1.958,11.628c-0.01,0.018-0.024,0.031-0.025,0.047c0,0.016,0.014,0.031,0.021,0.047
		c0.009-0.015,0.024-0.028,0.025-0.044S1.966,11.646,1.958,11.628z M2.087,17.179c0.001-0.008,0.003-0.016,0.004-0.023
		c-0.01,0.002-0.021,0.005-0.031,0.006c0.002,0.008,0.003,0.017,0.009,0.021C2.072,17.185,2.082,17.18,2.087,17.179z"/>
	<path fill-rule="evenodd" clip-rule="evenodd" fill="#1C1B1D" d="M5.484,4.923c-0.026-0.535-0.035-1.07-0.01-1.605
		C5.929,2.78,6.33,2.202,6.732,1.625C6.756,1.637,6.78,1.648,6.804,1.66C6.772,1.982,6.78,2.303,6.814,2.703
		C7.006,2.45,7.15,2.255,7.299,2.064C7.345,2.007,7.38,1.902,7.477,1.942C7.551,1.973,7.511,2.064,7.52,2.13
		c0.006,0.044-0.022,0.102,0.062,0.124C7.673,2.146,7.767,2.032,7.861,1.92c0.8,0.198,1.6,0.396,2.4,0.594
		c0.022,0.004,0.043,0.008,0.065,0.012c0.038,0,0.077,0,0.115,0v0.017c0.025,0.064,0.074,0.055,0.125,0.042
		c0.033,0.009,0.066,0.018,0.1,0.028c0.199,0.126,0.434,0.142,0.652,0.201c0.437,0.117,0.578,0.286,0.577,0.736
		c-0.003,2.079-0.005,4.157-0.006,6.235c0,0.106-0.031,0.222,0.055,0.314c0.003,0.1-0.101,0.252,0.12,0.244
		c-0.005,0.198-0.004,0.396,0.06,0.588c-0.224,0.237-0.455,0.467-0.729,0.646c-0.057-0.014-0.113-0.027-0.17-0.041
		c-0.008-0.137,0.014-0.272-0.047-0.407c-0.148-0.335-0.322-0.364-0.555-0.075c-0.054,0.067-0.106,0.113-0.193,0.115
		c-0.019,0.002-0.034-0.006-0.047-0.02c0.089-0.101,0.059-0.224,0.063-0.341c0.038-0.222,0.071-0.444,0.045-0.671
		c0.034-0.534,0.068-1.068,0.103-1.603c0.05-0.202,0.039-0.407,0.023-0.613c0.003-0.159,0.007-0.317,0.01-0.476
		c0.014-0.1,0.027-0.2,0.041-0.3c0.003-0.041,0.006-0.081,0.009-0.122c-0.249-0.304-0.612-0.305-0.955-0.36
		C9.405,6.549,9.102,6.39,8.757,6.357c0.018-0.102-0.02-0.194-0.041-0.292c-0.06-0.267,0.104-0.498,0.138-0.753
		c0.02-0.15,0.188-0.008,0.28-0.088c0.128-0.111,0.199,0.069,0.3,0.107C9.507,5.36,9.565,5.43,9.649,5.373
		c0.082-0.054,0.066-0.127,0.048-0.212C9.651,4.953,9.269,4.674,8.973,4.625C8.749,4.587,8.491,4.594,8.307,4.511
		C8.123,4.428,7.948,4.339,7.746,4.292C7.559,4.247,7.424,4.261,7.393,4.476c-0.03,0.213,0.021,0.399,0.283,0.382
		c0.19-0.013,0.337,0.14,0.541,0.087c0.102-0.026,0.216,0.114,0.183,0.224C8.287,5.54,8.513,5.88,8.475,6.24
		C8.338,6.223,8.208,6.158,8.066,6.187C8,6.079,7.894,6.156,7.81,6.132C7.715,5.81,7.42,5.903,7.202,5.839
		C6.941,5.701,6.63,5.728,6.373,5.583C6.31,5.499,6.217,5.479,6.123,5.458c-0.06-0.014-0.145-0.027-0.064-0.121
		C6.273,5.179,6.279,5.076,6.06,4.988C5.923,4.934,5.869,4.826,5.805,4.71C5.699,4.788,5.707,5.033,5.484,4.923z M11.103,9.958
		c0.012,0.037,0.013,0.082,0.036,0.108c0.098,0.11,0.223,0.153,0.369,0.128c0.043-0.007,0.072-0.043,0.061-0.084
		c-0.04-0.141-0.183-0.123-0.281-0.173c0.001-0.086,0.014-0.175,0.128-0.14c0.228,0.07,0.173-0.092,0.155-0.193
		c-0.025-0.144-0.114-0.27-0.268-0.276s-0.202,0.14-0.241,0.26C11.022,9.712,11.033,9.841,11.103,9.958z M10.87,6.131
		c-0.125,0.113-0.229,0.204-0.33,0.297c-0.092,0.083-0.13,0.185-0.051,0.291c0.074,0.097,0.141,0.038,0.227-0.015
		c0.092-0.057,0.266-0.112,0.313-0.01c0.132,0.282,0.304,0.572,0.156,0.91c-0.027,0.062-0.045,0.157,0.043,0.178
		c0.08,0.018,0.182,0.009,0.256-0.026c0.075-0.035,0.034-0.118,0.008-0.183c-0.137-0.324-0.143-0.647,0.003-0.97
		c0.03-0.067,0.056-0.134,0.01-0.196c-0.056-0.073-0.122-0.021-0.188-0.003C11.087,6.464,10.928,6.397,10.87,6.131z M8.049,3.581
		c0.005,0.367,0.193,0.54,0.672,0.615C8.965,4.234,9.094,4.13,9.112,3.879c0.024-0.35-0.135-0.528-0.58-0.65
		C8.177,3.131,8.044,3.228,8.049,3.581z"/>
	<path fill-rule="evenodd" clip-rule="evenodd" fill="#F0F1F0" d="M3.9,12.851c0.202-0.049,0.091-0.155,0.016-0.197
		c-0.39-0.219-0.78-0.445-1.211-0.568c-0.138-0.04-0.285,0.052-0.397,0.164c-0.102,0.102-0.187,0.229-0.338,0.288
		c-0.094-0.979,0.656-1.378,1.417-1.225c1.346,0.271,2.661,0.647,3.961,1.075c0.405,0.134,0.782,0.348,1.183,0.5
		c0.244,0.092,0.483,0.165,0.741,0.209c0.433,0.076,0.695,0.404,0.941,0.734c0.148,0.199,0.266,0.422,0.423,0.613
		c0.29,0.356,0.326,0.775,0.352,1.205c0.006,0.113-0.08,0.276,0.124,0.316c0.065,0.28,0.029,0.564,0.033,0.848
		c-0.013,0.047-0.037,0.094-0.036,0.14c0.009,1.112-0.041,2.22-0.192,3.321c-0.019,0.044-0.038,0.088-0.057,0.131
		c-0.377,0.439-0.807,0.763-1.436,0.664c-0.064-0.01-0.138,0.016-0.203,0.037c-0.396,0.123-0.783,0.07-1.173-0.037
		c-0.084-0.023-0.095-0.05-0.065-0.117c0.745,0.041,1.056-0.226,1.128-0.972c0.014-0.138,0.005-0.277,0.007-0.416
		c-0.001-0.462,0.115-0.921,0.028-1.384c0.001-0.071,0.002-0.143,0.003-0.215c0.035-0.042,0.031-0.09,0.018-0.138
		c0.021-0.104,0.038-0.208-0.013-0.31c0.004-0.055,0.007-0.109,0.011-0.164c0.126-0.199,0.045-0.406,0.025-0.611
		c0.002-0.169,0.014-0.338,0.006-0.506c-0.038-0.793-0.398-1.367-1.146-1.674c-0.022-0.069-0.048-0.129-0.124-0.044
		c-0.037,0.001-0.074,0.002-0.111,0.003c-0.224-0.271-0.592-0.271-0.863-0.455c0.018-0.139-0.092-0.156-0.182-0.195
		c-0.783-0.347-1.61-0.565-2.412-0.858c-0.113-0.041-0.225-0.09-0.333,0.011c-0.039-0.008-0.078-0.015-0.117-0.021
		C3.906,12.952,3.903,12.901,3.9,12.851z"/>
	<path fill-rule="evenodd" clip-rule="evenodd" fill="#EFB33B" d="M11.146,16.813c-0.004-0.283,0.032-0.567-0.033-0.848
		c-0.006-0.261-0.013-0.521-0.019-0.781c-0.001-0.02-0.002-0.039-0.002-0.059c0.006-0.165,0.018-0.331-0.031-0.493
		c0.005-0.007,0.014-0.015,0.012-0.02c-0.004-0.015-0.014-0.027-0.021-0.041c-0.004-0.056-0.009-0.111-0.013-0.167
		c-0.002-0.02-0.004-0.039-0.006-0.059c-0.078-0.571-0.248-1.112-0.531-1.616c0.207-0.455,0.522-0.825,0.894-1.153
		c0.274-0.18,0.506-0.409,0.729-0.646c0.201-0.184,0.402-0.367,0.604-0.55c0.406-0.362,0.412-0.564,0.027-0.954
		c-0.034-0.035-0.063-0.077-0.094-0.115c0.196-0.029,0.292,0.105,0.366,0.247c0.068,0.132,0.112,0.158,0.265,0.078
		c0.231-0.122,0.485-0.225,0.761-0.216c0.259,0.339,0.391,0.73,0.455,1.147c-0.282,0.256-0.442,0.6-0.618,0.925
		c-0.272,0.503-0.565,1.016-0.352,1.631c0.011,0.029-0.022,0.074-0.035,0.111c-0.249-0.068-0.445,0.02-0.619,0.194
		c-0.163,0.163-0.3,0.344-0.417,0.542c-0.428,0.727-0.664,1.526-0.88,2.334C11.522,16.548,11.406,16.741,11.146,16.813z"/>
	<path fill-rule="evenodd" clip-rule="evenodd" fill="#CDD5D7" d="M11.146,16.813c0.26-0.072,0.376-0.266,0.441-0.51
		c0.216-0.808,0.452-1.607,0.88-2.334c0.117-0.198,0.254-0.379,0.417-0.542c0.174-0.175,0.37-0.263,0.619-0.194
		c0.292,0.152,0.372,0.46,0.513,0.736c0.256-0.178,0.369-0.452,0.566-0.654c0.067,0.117,0.059,0.246,0.063,0.375
		c0.021,0.661-0.144,1.311-0.122,1.973c-0.087,0.171-0.143,0.374-0.096,0.539c0.118,0.418-0.046,0.79-0.136,1.168
		c-0.114,0.473-0.29,0.929-0.431,1.395c-0.199,0.662-0.422,1.307-0.987,1.766c-0.255,0.208-0.537,0.396-0.862,0.332
		c-0.354-0.068-0.671-0.004-0.993,0.102c-0.266,0.088-0.524,0.192-0.789,0.281c-0.736,0.251-1.475,0.484-2.272,0.302
		c-0.513-0.117-1.021-0.249-1.528-0.388c-1.302-0.354-2.525-0.855-3.548-1.772c-0.352-0.315-0.588-0.94-0.458-1.342
		c0.226,0.451,0.486,0.87,1.006,1.034c0.812,0.483,1.672,0.865,2.555,1.195c0.574,0.215,1.155,0.413,1.757,0.544
		c0.08,0.03,0.159,0.061,0.239,0.091c0,0.014,0.002,0.028,0.004,0.043c-0.03,0.067-0.019,0.094,0.065,0.117
		c0.39,0.107,0.777,0.16,1.173,0.037c0.065-0.021,0.139-0.047,0.203-0.037c0.629,0.099,1.059-0.225,1.436-0.664
		c0.19-0.066,0.388-0.07,0.587-0.058c0.112,0.088,0.229,0.169,0.378,0.178c0.049,0.037,0.099,0.061,0.159,0.026
		c0.049,0.006,0.097,0.012,0.145,0.018c0.349,0.051,0.594-0.113,0.777-0.387c0.257-0.381,0.453-0.791,0.6-1.227
		c0.237-0.71,0.306-1.452,0.432-2.184c0.005-0.027,0.01-0.055,0.014-0.082c0.058-0.42,0.06-0.842,0.027-1.265
		c0.016-0.096,0.029-0.192-0.037-0.276l0.013-0.013l-0.006-0.018c0.008-0.165,0.006-0.328-0.074-0.479
		c-0.011-0.06-0.022-0.119-0.034-0.18c0.017-0.033,0.007-0.057-0.025-0.073c-0.007-0.032-0.014-0.065-0.021-0.098
		c-0.029-0.202-0.038-0.416-0.274-0.507c-0.187-0.244-0.359-0.255-0.608-0.02c-0.351,0.33-0.55,0.757-0.726,1.193
		c-0.642,1.594-0.846,3.273-0.979,4.967c-0.144,0.079-0.111,0.302-0.288,0.352c0.151-1.102,0.201-2.209,0.192-3.321
		C11.109,16.907,11.133,16.86,11.146,16.813z"/>
	<path fill-rule="evenodd" clip-rule="evenodd" fill="#F0F1F0" d="M2.423,18.045c-0.131,0.401,0.105,1.026,0.458,1.342
		c1.023,0.917,2.247,1.418,3.548,1.772c0.507,0.139,1.015,0.271,1.528,0.388c0.797,0.183,1.536-0.051,2.272-0.302
		c0.265-0.089,0.523-0.193,0.789-0.281c0.322-0.105,0.639-0.17,0.993-0.102c0.325,0.063,0.607-0.124,0.862-0.332
		c0.565-0.459,0.788-1.104,0.987-1.766c0.141-0.466,0.316-0.922,0.431-1.395c0.09-0.378,0.254-0.75,0.136-1.168
		c-0.047-0.165,0.009-0.368,0.096-0.539c0.382,0.791,0.07,1.539-0.154,2.289c-0.183,0.609-0.375,1.215-0.567,1.822
		c-0.239,0.755-0.674,1.326-1.473,1.553c-0.089,0.025-0.175,0.052-0.264,0.025c-0.408-0.116-0.775-0.017-1.151,0.161
		c-0.731,0.346-1.481,0.665-2.313,0.626c-0.559-0.025-1.096-0.182-1.627-0.353c-0.804-0.258-1.632-0.445-2.398-0.81
		c-0.701-0.333-1.404-0.684-1.99-1.19c-0.451-0.39-0.705-0.926-0.598-1.565c0.035-0.21,0.147-0.363,0.333-0.463
		C2.355,17.854,2.389,17.949,2.423,18.045z"/>
	<path fill-rule="evenodd" clip-rule="evenodd" fill="#D8631B" d="M9.536,11.847c-0.199-0.086-0.398-0.172-0.597-0.259
		c-0.366-0.222-0.766-0.372-1.155-0.542c-0.95-0.414-1.948-0.679-2.948-0.938c0.078-0.135,0.233-0.049,0.343-0.115
		C5.125,9.863,4.97,9.801,4.973,9.647c0.239,0.029,0.438-0.064,0.621-0.205c0.035,0.01,0.069,0.02,0.104,0.029
		C5.621,9.63,5.762,9.718,5.846,9.739c0.327,0.082,0.661,0.187,0.999,0.035c0.2,0.047,0.4,0.094,0.6,0.142
		c0.103,0.173,0.207,0.346,0.31,0.519c-0.037,0.067-0.09,0.047-0.152,0.042c-0.334-0.025-0.667-0.059-1.001-0.11
		c0.391,0.174,0.785,0.328,1.181,0.476c0.2,0.074,0.24-0.024,0.199-0.198c0.168,0.103,0.343,0.167,0.543,0.105
		c0.342-0.06,0.528-0.277,0.61-0.601L9.129,10.15c0.101-0.049,0.086-0.16,0.127-0.241c0.192,0.042,0.073,0.222,0.141,0.318
		c-0.057,0.051-0.111,0.106-0.174,0.152c-0.205,0.152-0.173,0.238,0.064,0.312c0.271,0.085,0.533,0.197,0.799,0.298
		c0.01,0.02,0.019,0.04,0.028,0.061c-0.288,0.206-0.677,0.092-1.04,0.298C9.725,11.406,9.77,11.464,9.536,11.847z"/>
	<path fill-rule="evenodd" clip-rule="evenodd" fill="#1C1B1D" d="M4.206,8.465C4.198,8.427,4.191,8.389,4.184,8.351
		C4.203,8.262,4.177,8.182,4.14,8.104C4.136,8.046,4.133,7.987,4.129,7.929c0.037-0.308-0.02-0.637,0.195-0.907
		c0.014-0.019,0.028-0.038,0.042-0.057C4.387,6.928,4.409,6.891,4.43,6.854C4.877,6.583,5.089,6.63,5.416,7.07
		C5.375,7.144,5.312,7.153,5.241,7.123C5.152,7.085,5.113,7.119,5.11,7.209C5.042,7.296,4.965,7.378,4.991,7.503
		c-0.08,0.116-0.074,0.248-0.06,0.376c0.04,0.353,0.085,0.382,0.395,0.271C5.331,8.191,5.33,8.231,5.342,8.268
		C5.37,8.349,5.23,8.462,5.353,8.502C5.47,8.541,5.533,8.406,5.594,8.321C5.67,8.216,5.655,8.124,5.535,8.046
		C5.441,7.984,5.31,7.951,5.289,7.81c0.13-0.093-0.013-0.2,0.015-0.298c0.119-0.03,0.221,0.037,0.332,0.055
		c0.186,0.565,0.155,1.107-0.173,1.618C5.084,9.452,4.855,9.423,4.541,9.081C4.377,8.902,4.313,8.673,4.206,8.465z"/>
	<path fill-rule="evenodd" clip-rule="evenodd" fill="#F0BE63" d="M14.583,13.315c-0.197,0.202-0.311,0.477-0.566,0.654
		c-0.141-0.276-0.221-0.584-0.513-0.736c0.013-0.037,0.046-0.082,0.035-0.111c-0.214-0.615,0.079-1.128,0.352-1.631
		c0.176-0.325,0.336-0.669,0.618-0.925c0.126,0.362,0.105,0.743,0.126,1.117c0.006,0.109,0.007,0.22,0.011,0.329
		c-0.029,0.411,0.035,0.824-0.025,1.234C14.608,13.27,14.594,13.293,14.583,13.315z"/>
	<path fill-rule="evenodd" clip-rule="evenodd" fill="#F0BE63" d="M14.053,9.419c-0.275-0.008-0.529,0.094-0.761,0.216
		c-0.152,0.08-0.196,0.054-0.265-0.078c-0.074-0.141-0.17-0.276-0.366-0.247V9.309c-0.021-0.158-0.134-0.173-0.259-0.171
		c-0.013,0.002-0.024,0-0.036-0.006c-0.056-0.187-0.213-0.213-0.372-0.235c-0.012-0.001-0.021-0.006-0.029-0.012
		c-0.004-0.26-0.045-0.522,0.028-0.779c0.649,0.288,1.333,0.514,1.856,1.028C13.933,9.216,14.031,9.292,14.053,9.419z"/>
	<path fill-rule="evenodd" clip-rule="evenodd" fill="#9A9589" d="M2.28,17.194c-0.007-0.014-0.014-0.027-0.019-0.041
		c-0.001-0.003,0.013-0.01,0.02-0.014c0.009-0.265,0.015-0.526-0.042-0.79c-0.058-0.27,0.041-0.364,0.328-0.375
		c0.001,0.037,0.003,0.074,0.005,0.111c-0.066,0.143-0.081,0.284,0.017,0.42c0.008,0.154,0.015,0.31,0.022,0.464
		c-0.023,0.091-0.05,0.184,0.041,0.256c0.003,0.056,0.007,0.111,0.011,0.167c-0.016,0.055-0.01,0.102,0.044,0.134
		c0.005,0.035,0.01,0.071,0.015,0.107c-0.02,0.073,0.012,0.119,0.08,0.146c0.03,0.073,0.06,0.147,0.089,0.222
		c0.012,0.146,0.092,0.226,0.236,0.243c0.06,0.041,0.119,0.081,0.179,0.122c0.025,0.017,0.05,0.033,0.075,0.051
		c0.095,0.043,0.191,0.085,0.286,0.128c0.026,0.151,0.134,0.174,0.262,0.165c0.032,0.008,0.063,0.016,0.095,0.023
		c0.009,0.084,0.056,0.115,0.138,0.103c0.184,0.055,0.329,0.206,0.53,0.217c0.067,0.019,0.135,0.037,0.202,0.056
		c0.033,0.049,0.065,0.098,0.099,0.146C5,19.396,4.927,19.454,4.793,19.454c-0.234-0.088-0.469-0.177-0.704-0.266
		c-0.052-0.151-0.176-0.164-0.309-0.16c-0.097-0.022-0.195-0.045-0.292-0.067c-0.034-0.034-0.063-0.087-0.104-0.099
		c-0.459-0.145-0.683-0.505-0.862-0.913C2.416,17.705,2.435,17.422,2.28,17.194z"/>
	<path fill-rule="evenodd" clip-rule="evenodd" fill="#329D83" d="M6.732,1.625C6.33,2.202,5.929,2.78,5.474,3.318
		C5.457,2.84,5.433,2.362,5.423,1.884c-0.004-0.217,0.05-0.418,0.274-0.523C6.049,1.422,6.394,1.509,6.732,1.625z"/>
	<path fill-rule="evenodd" clip-rule="evenodd" fill="#F0F1F0" d="M4.835,10.107c1,0.26,1.998,0.524,2.948,0.938
		c0.39,0.17,0.789,0.32,1.155,0.542c-0.232,0.092-0.475,0.1-0.698,0.006c-0.702-0.294-1.46-0.445-2.104-0.89
		c-0.258-0.178-0.609-0.16-0.921-0.191c-0.291-0.029-0.48-0.155-0.592-0.416C4.695,10.101,4.765,10.104,4.835,10.107z"/>
	<path fill-rule="evenodd" clip-rule="evenodd" fill="#2E456A" d="M6.373,5.583C6.63,5.728,6.941,5.701,7.202,5.839
		c-0.083,0.077,0.17,0.288-0.113,0.286c-0.104-0.12-0.109-0.008-0.134,0.057c-0.015,0-0.029,0.005-0.043,0.013
		C6.868,6.273,6.825,6.353,6.781,6.432c-0.111,0.033-0.168-0.055-0.24-0.108C6.461,6.236,6.381,6.15,6.304,6.061
		C6.08,5.802,5.699,5.777,5.471,6.009c-0.119,0.099-0.237,0.2-0.385,0.256C5.069,6.267,5.057,6.277,5.052,6.295
		C5.006,6.323,4.962,6.32,4.92,6.288c0.058-0.225-0.167-0.53,0.229-0.663c0.15-0.05-0.066-0.231,0.005-0.353
		c0.169,0.05,0.335,0.11,0.507,0.147C5.899,5.471,6.112,5.634,6.373,5.583z"/>
	<path fill-rule="evenodd" clip-rule="evenodd" fill="#B9B8B3" d="M5.416,7.07C5.089,6.63,4.877,6.583,4.43,6.854
		C4.375,6.871,4.321,6.888,4.266,6.905c0.194-0.422,0.362-0.5,0.893-0.415C5.183,6.508,5.207,6.525,5.23,6.543L5.227,6.541
		c0.019,0.063,0.064,0.074,0.121,0.063L5.347,6.603c0,0.041,0.021,0.062,0.061,0.062L5.407,6.663c0,0.041,0.021,0.062,0.062,0.062
		L5.467,6.723C5.451,6.817,5.512,6.869,5.576,6.92c0.009,0.045,0.021,0.088,0.072,0.104v0c-0.004,0.052,0.007,0.097,0.061,0.12
		l0-0.001c0,0.079,0.022,0.148,0.088,0.197c0.01-0.044,0.02-0.089,0.029-0.134c0.11-0.068,0.222-0.133,0.331-0.203
		c0.083-0.054,0.163-0.138,0.269-0.082C6.54,6.983,6.469,7.101,6.481,7.194C6.36,7.296,6.239,7.398,6.118,7.501
		C6.042,7.502,5.966,7.504,5.89,7.505c-0.075,0.046-0.066,0.086,0.009,0.12c0.02,0.001,0.04,0.002,0.059,0.002
		c0,0.083-0.028,0.169,0.031,0.244C5.979,8.07,5.968,8.269,5.958,8.467c-0.01,0.081-0.02,0.161-0.03,0.241
		c-0.146,0.036-0.12,0.186-0.177,0.28C5.681,9.103,5.623,9.21,5.463,9.185c0.328-0.511,0.359-1.053,0.173-1.618
		C5.598,7.386,5.552,7.208,5.416,7.07z"/>
	<path fill-rule="evenodd" clip-rule="evenodd" fill="#EFB33B" d="M9.536,11.847c0.234-0.383,0.189-0.44-0.461-0.499
		c0.363-0.206,0.752-0.092,1.04-0.298c0.089,0.033,0.179,0.066,0.269,0.1c0.013,0.014,0.028,0.021,0.047,0.02
		c0.168,0.1,0.334,0.197,0.501,0.296c-0.124,0.003-0.207,0.087-0.261,0.174c-0.154,0.257-0.395,0.403-0.642,0.544
		C9.865,12.071,9.7,11.959,9.536,11.847z"/>
	<path fill-rule="evenodd" clip-rule="evenodd" fill="#8C8375" d="M11.994,8.105c-0.073,0.257-0.032,0.519-0.028,0.779
		c-0.018,0.313-0.059,0.626,0.033,0.935c-0.08,0.082,0.009,0.196-0.054,0.28c-0.086-0.093-0.055-0.208-0.055-0.314
		c0.001-2.078,0.003-4.157,0.006-6.235c0.001-0.45-0.141-0.619-0.577-0.736c-0.219-0.059-0.453-0.075-0.652-0.201
		c0.066-0.01,0.133-0.02,0.199-0.029c0.251,0.059,0.509,0.099,0.752,0.182c0.295,0.1,0.395,0.348,0.394,0.64
		c-0.005,0.968-0.014,1.937-0.018,2.905C11.991,6.908,11.994,7.507,11.994,8.105z"/>
	<path fill-rule="evenodd" clip-rule="evenodd" fill="#F0BE63" d="M3.856,9.95C3.623,9.955,3.392,9.885,3.103,9.962
		C3.36,9.613,3.638,9.374,3.903,9.123C3.915,9.132,3.925,9.14,3.936,9.148c0.133,0.153,0.313,0.064,0.471,0.091
		C4.558,9.338,4.627,9.53,4.811,9.592C4.87,9.953,4.624,9.909,4.403,9.899C4.4,9.861,4.396,9.824,4.393,9.786
		c-0.09-0.229-0.234-0.127-0.372-0.06C3.946,9.738,3.893,9.781,3.854,9.844c-0.05,0.021-0.053,0.04,0,0.06
		C3.861,9.919,3.861,9.935,3.856,9.95z"/>
	<path fill-rule="evenodd" clip-rule="evenodd" fill="#797366" d="M2.566,15.975C2.28,15.985,2.181,16.08,2.239,16.35
		c0.057,0.264,0.05,0.525,0.042,0.79c-0.179-0.186-0.078-0.434-0.146-0.643c-0.004-0.505,0.036-1.016-0.027-1.513
		c-0.055-0.435-0.063-0.863-0.05-1.297c0.037-0.001,0.074-0.002,0.11-0.002c0,0.207,0.012,0.415-0.003,0.622
		c-0.018,0.242,0.076,0.355,0.32,0.336c0.015,0.184-0.147,0.346-0.066,0.537c0,0.221-0.092,0.46,0.149,0.628
		C2.594,15.826,2.568,15.918,2.566,15.975z M2.28,14.885c-0.006,0.002-0.012,0.005-0.018,0.007c0,0.289,0,0.578,0,0.867
		c0.026-0.002,0.053-0.004,0.079-0.006C2.321,15.464,2.3,15.174,2.28,14.885z"/>
	<path fill-rule="evenodd" clip-rule="evenodd" fill="#F0BE63" d="M10.029,12.183c0.247-0.141,0.487-0.287,0.642-0.544
		c0.054-0.087,0.137-0.171,0.261-0.174c0.099,0.024,0.196,0.048,0.294,0.071c0.057,0.014,0.113,0.027,0.17,0.041
		c-0.371,0.328-0.687,0.698-0.894,1.153C10.344,12.548,10.186,12.366,10.029,12.183z"/>
	<path fill-rule="evenodd" clip-rule="evenodd" fill="#CDD5D7" d="M4.811,9.592C4.627,9.53,4.558,9.338,4.407,9.239
		C4.33,9.121,4.334,8.914,4.105,8.959C4.103,8.948,4.098,8.939,4.09,8.932c0.045-0.101,0.126-0.192,0.035-0.316
		C4.065,8.535,4.148,8.5,4.206,8.465c0.107,0.208,0.171,0.437,0.335,0.616c0.314,0.343,0.543,0.372,0.922,0.104
		C5.623,9.21,5.681,9.103,5.75,8.988c0.057-0.094,0.03-0.244,0.177-0.28c0.004,0.029,0.007,0.058,0.01,0.087
		C5.851,8.984,5.765,9.174,5.678,9.364C5.65,9.39,5.623,9.416,5.594,9.442C5.412,9.583,5.212,9.677,4.973,9.647
		C4.919,9.629,4.865,9.61,4.811,9.592z"/>
	<path fill-rule="evenodd" clip-rule="evenodd" fill="#B9B8B3" d="M10.442,2.525c-0.038,0-0.077,0-0.115,0
		c-0.016-0.038-0.037-0.046-0.065-0.012c-0.8-0.198-1.6-0.396-2.4-0.594C7.782,1.882,7.704,1.845,7.625,1.808
		C7.8,1.785,7.969,1.835,8.139,1.866C8.247,1.928,8.292,1.739,8.4,1.801c0.199,0.263,0.485,0.292,0.792,0.308
		C9.02,1.913,8.759,1.907,8.586,1.748c0.253-0.063,0.487-0.004,0.713,0.11l0.02,0.019c-0.066,0.189-0.002,0.296,0.194,0.34
		c0.269,0.059,0.533,0.13,0.801,0.191C10.382,2.425,10.458,2.42,10.442,2.525z"/>
	<path fill-rule="evenodd" clip-rule="evenodd" fill="#F0F1F0" d="M2.058,13.688c-0.014,0.434-0.005,0.862,0.05,1.297
		c0.063,0.497,0.022,1.008,0.027,1.513c-0.204-0.005-0.225-0.161-0.202-0.296c0.085-0.497,0.058-0.987,0-1.483
		c-0.038-0.326-0.011-0.658-0.012-0.988c0-0.169,0-0.339,0-0.508c0.004-0.065,0.007-0.131,0.012-0.211
		c0.079,0.064,0.042,0.209,0.176,0.196c0.019,0.02,0.039,0.038,0.058,0.058C2.166,13.415,1.994,13.521,2.058,13.688z"/>
	<path fill-rule="evenodd" clip-rule="evenodd" fill="#B9B8B3" d="M6.732,1.625C6.394,1.509,6.049,1.422,5.697,1.361
		c0.017-0.023,0.035-0.067,0.051-0.067C6.267,1.303,6.796,1.24,7.283,1.497c0.017,0.009,0.03,0.025,0.046,0.037
		C7.22,1.68,7.422,1.668,7.438,1.75C7.227,1.721,7.015,1.69,6.804,1.66C6.78,1.648,6.756,1.637,6.732,1.625z"/>
	<path fill-rule="evenodd" clip-rule="evenodd" fill="#797366" d="M2.28,17.194c0.155,0.228,0.136,0.511,0.243,0.755
		c0.18,0.408,0.403,0.769,0.862,0.913c0.041,0.012,0.069,0.064,0.104,0.099C3.442,18.987,3.43,19.03,3.43,19.079
		c-0.521-0.164-0.781-0.583-1.006-1.034c-0.034-0.096-0.068-0.19-0.102-0.286C2.329,17.569,2.124,17.396,2.28,17.194z"/>
	<path fill-rule="evenodd" clip-rule="evenodd" fill="#8C8375" d="M5.086,6.266c0.147-0.057,0.266-0.157,0.385-0.256
		c0.285-0.01,0.572-0.029,0.775,0.233c-0.33-0.001-0.629,0.091-0.888,0.3C5.314,6.534,5.271,6.505,5.227,6.541L5.23,6.543
		c0.004-0.007,0.013-0.017,0.012-0.022C5.237,6.508,5.228,6.497,5.22,6.484C5.179,6.42,5.27,6.275,5.101,6.29L5.086,6.266z"/>
	<path fill-rule="evenodd" clip-rule="evenodd" fill="#444C4A" d="M5.484,4.923c0.223,0.11,0.215-0.135,0.321-0.213
		C5.869,4.826,5.923,4.934,6.06,4.988c0.219,0.088,0.213,0.19-0.002,0.349c-0.154-0.252-0.354-0.04-0.532-0.052
		C5.521,5.237,5.516,5.188,5.512,5.14c0.015-0.003,0.03-0.006,0.045-0.009c-0.015,0-0.03,0-0.045,0.001
		C5.479,5.065,5.453,4.998,5.484,4.923z"/>
	<path fill-rule="evenodd" clip-rule="evenodd" fill="#9A9589" d="M7.438,1.75C7.422,1.668,7.22,1.68,7.329,1.534
		C7.49,1.467,8.033,1.558,8.135,1.671C8.191,1.733,8.167,1.8,8.139,1.866C7.969,1.835,7.8,1.785,7.625,1.808l0,0
		C7.582,1.736,7.51,1.752,7.445,1.75H7.438z"/>
	<path fill-rule="evenodd" clip-rule="evenodd" fill="#B9B8B3" d="M5.526,5.285c0.178,0.012,0.378-0.2,0.532,0.052
		C5.978,5.431,6.063,5.444,6.123,5.458c0.095,0.021,0.188,0.041,0.25,0.125C6.112,5.634,5.899,5.471,5.661,5.42
		C5.489,5.383,5.323,5.322,5.154,5.272C5.151,5.26,5.152,5.249,5.158,5.237C5.292,5.164,5.396,5.321,5.526,5.285z"/>
	<path fill-rule="evenodd" clip-rule="evenodd" fill="#444C4A" d="M5.158,5.237C5.152,5.249,5.151,5.26,5.154,5.272
		C5.083,5.394,5.298,5.575,5.148,5.625C4.752,5.758,4.978,6.063,4.92,6.288C4.81,5.919,4.927,5.557,4.946,5.191
		C4.98,5.199,5.015,5.207,5.049,5.215C5.085,5.223,5.122,5.23,5.158,5.237z"/>
	<path fill-rule="evenodd" clip-rule="evenodd" fill="#EFB33B" d="M4.811,9.592C4.865,9.61,4.919,9.629,4.973,9.647
		C4.97,9.801,5.125,9.863,5.178,9.992c-0.109,0.066-0.265-0.02-0.343,0.115c-0.07-0.003-0.141-0.007-0.211-0.01
		c-0.079-0.025-0.157-0.05-0.236-0.076C4.393,9.98,4.398,9.94,4.403,9.899C4.624,9.909,4.87,9.953,4.811,9.592z"/>
	<path fill-rule="evenodd" clip-rule="evenodd" fill="#CDD5D7" d="M1.921,13.222c0,0.169,0,0.339,0,0.508
		c-0.1,0.135-0.043,0.29-0.053,0.436c-0.009,0.137-0.002,0.275-0.046,0.412c0-0.65,0-1.301,0-1.985
		C1.926,12.813,1.793,13.038,1.921,13.222z"/>
	<path fill-rule="evenodd" clip-rule="evenodd" fill="#CDD5D7" d="M4.266,6.905C4.321,6.888,4.375,6.871,4.43,6.854
		C4.409,6.891,4.387,6.928,4.366,6.965C4.352,6.983,4.338,7.003,4.324,7.021C4.109,7.292,4.166,7.621,4.129,7.929
		C3.922,7.659,3.983,7.203,4.266,6.905z"/>
	<path fill-rule="evenodd" clip-rule="evenodd" fill="#D8631B" d="M4.403,9.899C4.398,9.94,4.393,9.98,4.388,10.021
		C4.211,9.998,4.034,9.974,3.856,9.95c0.005-0.016,0.005-0.031-0.002-0.047c0.001-0.02,0.001-0.04,0-0.06
		c0.039-0.063,0.092-0.105,0.167-0.117c0.111,0.102,0.249,0.034,0.372,0.06C4.396,9.824,4.4,9.861,4.403,9.899z"/>
	<path fill-rule="evenodd" clip-rule="evenodd" fill="#9A9589" d="M8.586,1.748c0.173,0.159,0.434,0.165,0.605,0.36
		C8.885,2.093,8.599,2.063,8.4,1.801C8.437,1.694,8.498,1.67,8.586,1.748z"/>
	<path fill-rule="evenodd" clip-rule="evenodd" fill="#F0F1F0" d="M2.885,12.665c0.26-0.089,0.479-0.023,0.663,0.176
		c-0.043,0.003-0.085,0.006-0.128,0.009c-0.146-0.025-0.285-0.099-0.439-0.075H2.98c-0.031-0.017-0.063-0.033-0.094-0.051
		C2.884,12.704,2.884,12.685,2.885,12.665z"/>
	<path fill-rule="evenodd" clip-rule="evenodd" fill="#CDD5D7" d="M14.62,13.247c0.061-0.41-0.004-0.823,0.025-1.234
		C14.729,12.426,14.778,12.839,14.62,13.247z"/>
	<path fill-rule="evenodd" clip-rule="evenodd" fill="#CDD5D7" d="M2.167,13.265c-0.019-0.02-0.039-0.038-0.058-0.058
		c0.022-0.172,0.128-0.296,0.237-0.419c0.032,0.012,0.063,0.023,0.095,0.035C2.35,12.971,2.258,13.117,2.167,13.265z"/>
	<path fill-rule="evenodd" clip-rule="evenodd" fill="#CDD5D7" d="M3.42,12.85c0.043-0.003,0.085-0.006,0.128-0.009
		c0.117,0.003,0.234,0.006,0.352,0.01c0.003,0.051,0.006,0.102,0.009,0.152c-0.162-0.031-0.323-0.063-0.485-0.094
		C3.423,12.89,3.422,12.87,3.42,12.85z"/>
	<path fill-rule="evenodd" clip-rule="evenodd" fill="#CDD5D7" d="M4.14,8.104c0.037,0.078,0.063,0.158,0.044,0.247
		C4.056,8.289,3.911,8.229,4.14,8.104z"/>
	<path fill-rule="evenodd" clip-rule="evenodd" fill="#CDD5D7" d="M2.885,12.665c-0.001,0.02-0.001,0.039,0,0.059
		c-0.02,0.025-0.04,0.05-0.059,0.074c-0.078-0.009-0.163,0.005-0.224-0.064c-0.025-0.022-0.051-0.045-0.077-0.067
		C2.646,12.665,2.766,12.665,2.885,12.665z"/>
	<path fill-rule="evenodd" clip-rule="evenodd" fill="#B9B8B3" d="M10.866,2.583c-0.066,0.01-0.133,0.02-0.199,0.029
		c-0.033-0.009-0.066-0.018-0.1-0.027c-0.001-0.026-0.002-0.051-0.003-0.077C10.684,2.453,10.775,2.517,10.866,2.583z"/>
	<path fill-rule="evenodd" clip-rule="evenodd" fill="#F0F1F0" d="M2.526,12.666c0.026,0.022,0.051,0.045,0.077,0.067
		c-0.054,0.029-0.107,0.06-0.161,0.09C2.41,12.812,2.378,12.8,2.347,12.788C2.377,12.704,2.438,12.665,2.526,12.666z"/>
	<path fill-rule="evenodd" clip-rule="evenodd" fill="#F0F1F0" d="M1.958,11.628c0.009,0.019,0.022,0.034,0.021,0.05
		s-0.017,0.029-0.025,0.044c-0.008-0.016-0.022-0.031-0.021-0.047C1.933,11.659,1.948,11.646,1.958,11.628z"/>
	<path fill-rule="evenodd" clip-rule="evenodd" fill="#B9B8B3" d="M5.049,5.215C5.015,5.207,4.98,5.199,4.946,5.191
		c0.015-0.02,0.029-0.054,0.045-0.055C5.037,5.136,5.045,5.177,5.049,5.215z"/>
	<path fill-rule="evenodd" clip-rule="evenodd" fill="#8C8375" d="M10.564,2.508c0.001,0.025,0.002,0.051,0.003,0.077
		c-0.051,0.012-0.1,0.021-0.125-0.042C10.483,2.53,10.524,2.52,10.564,2.508z"/>
	<path fill-rule="evenodd" clip-rule="evenodd" fill="#F0BE63" d="M4.002,9.039C4.032,9.003,4.061,8.968,4.09,8.932
		c0.008,0.008,0.013,0.017,0.015,0.028c-0.023,0.039-0.047,0.077-0.07,0.116C4.024,9.063,4.013,9.051,4.002,9.039z"/>
	<path fill-rule="evenodd" clip-rule="evenodd" fill="#F0F1F0" d="M2.087,17.179c-0.006,0.001-0.015,0.006-0.018,0.003
		c-0.005-0.004-0.006-0.013-0.009-0.021c0.01-0.001,0.021-0.004,0.031-0.006C2.09,17.163,2.089,17.171,2.087,17.179z"/>
	<path fill-rule="evenodd" clip-rule="evenodd" fill="#F0BE63" d="M3.903,9.123C3.937,9.095,3.97,9.067,4.002,9.039
		c0.011,0.012,0.021,0.024,0.032,0.036C4.002,9.1,3.969,9.124,3.936,9.148C3.925,9.14,3.915,9.132,3.903,9.123z"/>
	<path fill-rule="evenodd" clip-rule="evenodd" fill="#B9B8B3" d="M9.299,1.858c0.012-0.007,0.024-0.014,0.036-0.021
		C9.33,1.851,9.325,1.864,9.319,1.877C9.319,1.877,9.299,1.858,9.299,1.858z"/>
	<path fill-rule="evenodd" clip-rule="evenodd" fill="#F0F1F0" d="M11.051,14.572c0.008,0.014,0.018,0.026,0.021,0.041
		c0.002,0.005-0.007,0.013-0.012,0.02C11.058,14.612,11.055,14.593,11.051,14.572z"/>
	<path fill-rule="evenodd" clip-rule="evenodd" fill="#F0F1F0" d="M11.092,15.126c0,0.02,0.001,0.039,0.002,0.059
		c-0.007-0.014-0.016-0.026-0.02-0.041C11.073,15.14,11.085,15.133,11.092,15.126z"/>
	<path fill-rule="evenodd" clip-rule="evenodd" fill="#F0F1F0" d="M5.22,6.484c0.007,0.012,0.017,0.024,0.021,0.037
		C5.243,6.527,5.234,6.536,5.23,6.543C5.207,6.525,5.183,6.508,5.159,6.49C5.179,6.488,5.2,6.486,5.22,6.484z"/>
	<path fill-rule="evenodd" clip-rule="evenodd" fill="#B9B8B3" d="M5.512,5.132c0.015-0.001,0.03-0.001,0.045-0.001
		C5.542,5.133,5.527,5.137,5.512,5.14L5.512,5.132z"/>
	<path fill-rule="evenodd" clip-rule="evenodd" fill="#F0F1F0" d="M11.033,14.347c0.002,0.02,0.004,0.039,0.006,0.059
		c-0.008-0.014-0.019-0.026-0.023-0.04C11.014,14.361,11.026,14.353,11.033,14.347z"/>
	<path fill-rule="evenodd" clip-rule="evenodd" fill="#444C4A" d="M5.086,6.266L5.101,6.29L5.078,6.302L5.051,6.295
		C5.057,6.277,5.069,6.267,5.086,6.266z"/>
	<path fill-rule="evenodd" clip-rule="evenodd" fill="#393837" d="M8.066,6.187C8.208,6.158,8.338,6.223,8.475,6.24
		c0.094,0.039,0.188,0.078,0.283,0.117C9.102,6.39,9.405,6.549,9.722,6.664c0.157,0.17,0.396,0.146,0.583,0.246
		c-0.117,0.168-0.19,0.373,0.031,0.473c0.186,0.084,0.165,0.195,0.165,0.333c0,0.118,0.004,0.236,0.006,0.354
		c0.003,0.152,0.005,0.304,0.008,0.456c-0.026,0.359-0.054,0.718-0.081,1.078c-0.112-0.226-0.072-0.483-0.15-0.716
		c-0.04-0.181,0.027-0.375-0.066-0.55c-0.019-0.061,0.031-0.147-0.068-0.176l0.002,0.002c0.006-0.227-0.037-0.433-0.244-0.569
		L9.906,7.578C9.902,7.556,9.899,7.533,9.895,7.512c0.017-0.082-0.016-0.125-0.1-0.128C9.682,7.111,9.255,6.847,8.989,6.9
		C8.875,6.923,8.724,6.915,8.695,7.084c-0.168-0.01-0.215,0.24-0.402,0.19C8.289,7.233,8.285,7.192,8.281,7.152
		c0-0.186-0.002-0.372,0.002-0.558c0.002-0.063,0.006-0.123-0.061-0.148C8.191,6.435,8.14,6.437,8.115,6.456
		c-0.079,0.06,0.023,0.092,0.03,0.14c0.026,0.186,0.062,0.377-0.161,0.48C7.875,6.864,7.782,7.049,7.682,7.088
		c-0.061,0.037-0.12,0.033-0.179-0.006c0.042-0.226,0.282-0.396,0.183-0.66C7.845,6.417,8.007,6.416,8,6.188
		C8.022,6.188,8.044,6.187,8.066,6.187z M8.026,6.795C8.018,6.778,8.015,6.754,8.002,6.749C7.991,6.743,7.971,6.758,7.955,6.764
		c0.01,0.02,0.021,0.04,0.03,0.061C7.999,6.814,8.012,6.805,8.026,6.795z M7.843,6.768c-0.006,0.001-0.016,0-0.019,0.004
		C7.82,6.777,7.821,6.787,7.819,6.794C7.83,6.792,7.84,6.79,7.851,6.788C7.848,6.781,7.846,6.774,7.843,6.768z"/>
	<path fill-rule="evenodd" clip-rule="evenodd" fill="#5A1C18" d="M8.757,6.357C8.663,6.318,8.569,6.279,8.475,6.24
		c0.038-0.36-0.188-0.7-0.076-1.072c0.033-0.11-0.081-0.25-0.183-0.224c-0.203,0.053-0.351-0.1-0.541-0.087
		C7.415,4.875,7.363,4.689,7.393,4.476c0.031-0.215,0.166-0.229,0.353-0.184c0.202,0.048,0.376,0.136,0.561,0.219
		c0.184,0.083,0.441,0.077,0.666,0.114c0.296,0.049,0.678,0.328,0.724,0.536c0.019,0.085,0.034,0.158-0.048,0.212
		C9.565,5.43,9.507,5.36,9.434,5.332c-0.101-0.038-0.172-0.219-0.3-0.107c-0.093,0.08-0.261-0.063-0.28,0.088
		C8.821,5.567,8.657,5.799,8.716,6.065C8.738,6.163,8.775,6.255,8.757,6.357z"/>
	<path fill-rule="evenodd" clip-rule="evenodd" fill="#393837" d="M10.87,6.131c0.059,0.266,0.218,0.333,0.445,0.273
		c0.066-0.017,0.133-0.069,0.188,0.003c0.046,0.062,0.021,0.129-0.01,0.196c-0.146,0.322-0.14,0.646-0.003,0.97
		c0.026,0.064,0.067,0.147-0.008,0.183c-0.074,0.035-0.176,0.044-0.256,0.026c-0.088-0.021-0.07-0.116-0.043-0.178
		c0.147-0.338-0.024-0.628-0.156-0.91c-0.047-0.103-0.221-0.047-0.313,0.01c-0.086,0.053-0.152,0.112-0.227,0.015
		c-0.079-0.105-0.041-0.207,0.051-0.291C10.641,6.335,10.745,6.244,10.87,6.131z"/>
	<path fill-rule="evenodd" clip-rule="evenodd" fill="#329D83" d="M6.804,1.66c0.211,0.03,0.423,0.061,0.635,0.09h0.007
		C7.489,1.819,7.56,1.802,7.625,1.808l0,0C7.704,1.845,7.782,1.882,7.861,1.92C7.767,2.032,7.673,2.146,7.582,2.254
		C7.498,2.231,7.526,2.174,7.52,2.13C7.511,2.064,7.551,1.973,7.477,1.942C7.38,1.902,7.345,2.007,7.299,2.064
		C7.15,2.255,7.006,2.45,6.814,2.703C6.78,2.303,6.772,1.982,6.804,1.66z"/>
	<path fill-rule="evenodd" clip-rule="evenodd" fill="#329D83" d="M8.049,3.581c-0.005-0.353,0.128-0.45,0.482-0.352
		c0.445,0.122,0.604,0.301,0.58,0.65C9.094,4.13,8.965,4.234,8.721,4.195C8.243,4.12,8.055,3.948,8.049,3.581z M9,3.813
		C9.005,3.565,8.82,3.422,8.43,3.371C8.3,3.354,8.187,3.362,8.166,3.528c-0.04,0.3,0.137,0.409,0.394,0.452
		C8.627,3.991,8.693,4.019,8.76,4.03C8.928,4.058,9,3.974,9,3.813z"/>
	<path fill-rule="evenodd" clip-rule="evenodd" fill="#5A1C18" d="M12.728,10.38c-0.201,0.183-0.402,0.367-0.604,0.55
		c-0.063-0.191-0.064-0.39-0.06-0.588c0.107-0.107,0.286-0.171,0.227-0.378C12.488,10.05,12.68,10.14,12.728,10.38z"/>
	<path fill-rule="evenodd" clip-rule="evenodd" fill="#B9B8B3" d="M8,6.188c0.007,0.228-0.155,0.229-0.314,0.233
		C7.541,6.243,7.328,6.267,7.132,6.241c-0.017,0.015-0.034,0.029-0.05,0.044C7.052,6.291,7.024,6.297,6.995,6.302
		C6.967,6.267,6.94,6.23,6.912,6.194c0.014-0.008,0.028-0.012,0.043-0.013C7,6.162,7.044,6.144,7.088,6.125
		c0.283,0.002,0.03-0.208,0.113-0.286C7.42,5.903,7.715,5.81,7.81,6.132C7.846,6.241,7.937,6.169,8,6.188z"/>
	<path fill-rule="evenodd" clip-rule="evenodd" fill="#5A1C18" d="M11.225,11.536c-0.098-0.023-0.195-0.047-0.294-0.071
		c-0.167-0.099-0.333-0.196-0.501-0.296c0.087-0.002,0.14-0.048,0.193-0.115c0.232-0.289,0.406-0.26,0.555,0.075
		C11.239,11.264,11.217,11.399,11.225,11.536z"/>
	<path fill-rule="evenodd" clip-rule="evenodd" fill="#5A1C18" d="M11.103,9.958c-0.07-0.117-0.081-0.246-0.041-0.37
		c0.039-0.12,0.088-0.267,0.241-0.26s0.242,0.132,0.268,0.276c0.018,0.102,0.072,0.264-0.155,0.193
		c-0.114-0.036-0.127,0.054-0.128,0.14C11.226,9.944,11.165,9.951,11.103,9.958z"/>
	<path fill-rule="evenodd" clip-rule="evenodd" fill="#9A9589" d="M10.434,9.604c0.027-0.359,0.055-0.719,0.081-1.078
		c0.026,0.003,0.053,0.006,0.079,0.009c-0.034,0.534-0.068,1.068-0.103,1.603c-0.075-0.088-0.024-0.198-0.052-0.295
		C10.439,9.763,10.436,9.683,10.434,9.604z"/>
	<path fill-rule="evenodd" clip-rule="evenodd" fill="#B9B8B3" d="M10.305,6.91c-0.188-0.1-0.426-0.076-0.583-0.246
		c0.343,0.056,0.706,0.057,0.955,0.36c-0.05,0.037-0.058,0.078-0.009,0.122c-0.014,0.1-0.027,0.2-0.041,0.3
		c-0.018-0.001-0.036-0.003-0.054-0.005C10.528,7.242,10.704,6.931,10.305,6.91z"/>
	<path fill-rule="evenodd" clip-rule="evenodd" fill="#444C4A" d="M12.292,9.964c0.06,0.207-0.119,0.271-0.227,0.378
		c-0.221,0.008-0.117-0.144-0.12-0.244c0.063-0.084-0.026-0.198,0.054-0.279C12.096,9.868,12.194,9.916,12.292,9.964z"/>
	<path fill-rule="evenodd" clip-rule="evenodd" fill="#393837" d="M10.383,11.149c-0.09-0.033-0.18-0.066-0.269-0.1
		c-0.01-0.021-0.019-0.041-0.028-0.061c-0.023-0.215,0.177-0.177,0.28-0.248c0.026,0.022,0.054,0.045,0.08,0.067
		C10.442,10.926,10.472,11.049,10.383,11.149z"/>
	<path fill-rule="evenodd" clip-rule="evenodd" fill="#444C4A" d="M11.103,9.958c0.062-0.007,0.123-0.014,0.185-0.021
		c0.099,0.05,0.241,0.032,0.281,0.173c0.012,0.041-0.018,0.077-0.061,0.084c-0.146,0.025-0.271-0.018-0.369-0.128
		C11.116,10.04,11.115,9.995,11.103,9.958z"/>
	<path fill-rule="evenodd" clip-rule="evenodd" fill="#8C8375" d="M10.447,10.809c-0.026-0.022-0.054-0.045-0.08-0.067
		c0.026-0.299-0.007-0.604,0.073-0.899c0.027,0.097-0.023,0.208,0.052,0.295C10.518,10.364,10.485,10.587,10.447,10.809z"/>
	<path fill-rule="evenodd" clip-rule="evenodd" fill="#797366" d="M10.594,8.535c-0.026-0.003-0.053-0.006-0.079-0.009
		c-0.003-0.152-0.005-0.304-0.008-0.457c0.021-0.048,0.04-0.095,0.061-0.143c0.017,0,0.033-0.001,0.05-0.004
		C10.633,8.128,10.644,8.333,10.594,8.535z"/>
	<path fill-rule="evenodd" clip-rule="evenodd" fill="#9A9589" d="M10.618,7.922c-0.017,0.003-0.033,0.004-0.05,0.004
		c0.002-0.162,0.004-0.323,0.006-0.485c0.018,0.002,0.036,0.003,0.054,0.005C10.625,7.605,10.621,7.764,10.618,7.922z"/>
	<path fill-rule="evenodd" clip-rule="evenodd" fill="#2E456A" d="M8,6.188C7.937,6.169,7.846,6.241,7.81,6.132
		C7.894,6.156,8,6.079,8.066,6.187C8.044,6.187,8.022,6.188,8,6.188z"/>
	<path fill-rule="evenodd" clip-rule="evenodd" fill="#9A9589" d="M10.668,7.146c-0.049-0.044-0.041-0.085,0.009-0.122
		C10.674,7.065,10.671,7.106,10.668,7.146z"/>
	<path fill-rule="evenodd" clip-rule="evenodd" fill="#8C8375" d="M10.261,2.514c0.028-0.034,0.05-0.026,0.065,0.012
		C10.304,2.521,10.284,2.518,10.261,2.514z"/>
	<path fill-rule="evenodd" clip-rule="evenodd" fill="#9A9589" d="M8.051,14.563c0.748,0.307,1.108,0.881,1.146,1.674
		c0.008,0.168-0.004,0.337-0.006,0.506C9.084,16.739,9,16.763,9.006,16.896c0.006,0.109-0.048,0.157-0.155,0.149
		c-0.051-0.118,0.021-0.262-0.078-0.369c-0.037-0.121,0.058-0.207,0.083-0.311c0.021-0.093-0.008-0.189-0.072-0.243
		c-0.061-0.05-0.082,0.066-0.138,0.08c-0.016-0.12,0.046-0.252-0.056-0.358c-0.018-0.04-0.035-0.079-0.053-0.119
		c-0.023-0.1-0.048-0.2-0.072-0.3c-0.03-0.147-0.112-0.297-0.262-0.266c-0.161,0.034-0.115,0.225-0.089,0.337
		c0.059,0.256,0.045,0.544,0.284,0.734c0.089,0.072,0.07,0.181,0.057,0.281c-0.233-0.135-0.429-0.307-0.506-0.575
		c-0.081-0.282-0.173-0.565-0.148-0.867c0.061-0.029,0.077-0.116,0.16-0.116c0.077,0,0.195,0.106,0.22-0.027
		c0.022-0.114-0.125-0.131-0.208-0.155c-0.091-0.026-0.162-0.078-0.221-0.136c-0.072-0.07,0.023-0.086,0.065-0.113
		c0.037-0.001,0.074-0.002,0.111-0.003C7.954,14.577,7.994,14.594,8.051,14.563z"/>
	<path fill-rule="evenodd" clip-rule="evenodd" fill="#8C8375" d="M2.442,12.823c0.054-0.03,0.107-0.061,0.161-0.09
		c0.061,0.069,0.146,0.056,0.224,0.064c0.151,0.252,0.327,0.285,0.598,0.111c0.162,0.031,0.323,0.063,0.485,0.094
		c0.039,0.007,0.078,0.014,0.117,0.021c0.042,0.029,0.083,0.06,0.124,0.09c0.002,0.076-0.022,0.161,0.063,0.213
		c0.067,0.248,0.34,0.158,0.478,0.291c-0.002,0.041-0.003,0.082-0.005,0.123c-0.219-0.046-0.438-0.092-0.656-0.138
		c-0.086-0.048-0.19-0.114-0.271-0.058c-0.092,0.064-0.036,0.188-0.006,0.273c0.078,0.23,0.019,0.471,0.065,0.702
		c-0.01,0.042-0.021,0.084-0.031,0.126c-0.11-0.107-0.046-0.244-0.062-0.368c-0.012-0.093,0.031-0.21-0.115-0.235
		c-0.008-0.048-0.011-0.098-0.064-0.121l0.003,0.003c-0.021-0.126,0.033-0.279-0.124-0.358c0.003-0.052-0.009-0.096-0.06-0.121
		c-0.021-0.048-0.064-0.053-0.108-0.059c-0.043-0.001-0.086-0.002-0.13-0.003c-0.003-0.018-0.005-0.036-0.006-0.054
		c-0.003-0.044,0.004-0.102-0.06-0.099C3.04,13.233,3.021,13.282,3,13.31l0.007,0.025c-0.321,0.011-0.223,0.316-0.334,0.475
		c-0.067,0.003-0.133,0.006-0.2,0.009c-0.039-0.31,0.102-0.563,0.282-0.823c-0.197-0.014-0.285,0.111-0.386,0.211
		c-0.133,0.133-0.071,0.346-0.202,0.479c-0.037,0-0.074,0.001-0.11,0.002c-0.064-0.167,0.108-0.272,0.109-0.423
		C2.258,13.117,2.35,12.971,2.442,12.823z"/>
	<path fill-rule="evenodd" clip-rule="evenodd" fill="#797366" d="M4.686,13.741c0.001-0.041,0.003-0.082,0.005-0.123
		c0.133-0.011,0.254,0.041,0.374,0.084c0.429,0.152,0.855,0.314,1.285,0.465c0.08,0.027,0.177,0.131,0.256-0.01
		c0.02-0.055,0.039-0.108,0.058-0.164c0.097,0.025,0.193,0.05,0.29,0.074c0.271,0.185,0.639,0.184,0.863,0.455
		c-0.042,0.027-0.137,0.043-0.065,0.113c0.059,0.058,0.13,0.109,0.221,0.136c0.083,0.024,0.23,0.041,0.208,0.155
		c-0.025,0.134-0.143,0.027-0.22,0.027c-0.083,0-0.099,0.087-0.16,0.116c-0.047,0.019-0.095,0.036-0.143,0.054
		c-0.133,0.01-0.146-0.09-0.166-0.183c-0.019-0.17-0.177-0.171-0.283-0.222C6.395,14.323,5.533,14.052,4.686,13.741z M6.665,14.272
		c0.125,0.066,0.219,0.115,0.405,0.104C6.924,14.269,6.842,14.181,6.665,14.272z M7.413,14.536
		c-0.083-0.062-0.165-0.145-0.309-0.103C7.198,14.534,7.302,14.543,7.413,14.536z"/>
	<path fill-rule="evenodd" clip-rule="evenodd" fill="#8C8375" d="M7.984,20.952c-0.001-0.015-0.003-0.029-0.004-0.043
		c0.004-0.069,0.009-0.14,0.013-0.209c0.069,0.002,0.139,0.004,0.208,0.005c0.424,0.006,0.489-0.044,0.605-0.445
		c0.043-0.151,0.091-0.302,0.137-0.452c0.104-0.049,0.011-0.24,0.176-0.243c-0.002,0.139,0.007,0.278-0.007,0.416
		C9.041,20.727,8.729,20.993,7.984,20.952z"/>
	<path fill-rule="evenodd" clip-rule="evenodd" fill="#CDD5D7" d="M6.954,14.067c-0.097-0.024-0.193-0.049-0.29-0.074
		c-0.166-0.102-0.339-0.182-0.538-0.189c-0.038-0.01-0.078-0.017-0.113-0.032C5.408,13.507,4.8,13.251,4.15,13.114
		c-0.041-0.03-0.083-0.061-0.124-0.09c0.108-0.101,0.221-0.052,0.333-0.011c0.802,0.293,1.629,0.512,2.412,0.858
		C6.861,13.911,6.971,13.929,6.954,14.067z"/>
	<path fill-rule="evenodd" clip-rule="evenodd" fill="#797366" d="M9.12,19.564c-0.165,0.003-0.072,0.194-0.176,0.243
		c-0.001-0.148,0.006-0.297-0.003-0.443c-0.019-0.318,0.085-0.651-0.109-0.95c-0.01-0.051,0.009-0.09,0.052-0.119
		c0.088-0.038,0.176-0.076,0.265-0.114C9.235,18.644,9.119,19.103,9.12,19.564z"/>
	<path fill-rule="evenodd" clip-rule="evenodd" fill="#8C8375" d="M8.851,17.046c0.107,0.008,0.161-0.04,0.155-0.149
		C9,16.763,9.084,16.739,9.192,16.743c0.02,0.205,0.101,0.412-0.025,0.611c-0.02,0.002-0.04,0.004-0.061,0.006
		c0.074-0.15,0.028-0.213-0.137-0.189C8.911,17.147,8.856,17.12,8.851,17.046z"/>
	<path fill-rule="evenodd" clip-rule="evenodd" fill="#B9B8B3" d="M11.448,20.348c-0.199-0.013-0.396-0.009-0.587,0.058
		c0.019-0.043,0.038-0.087,0.057-0.131c0.177-0.05,0.145-0.272,0.288-0.352C11.286,20.065,11.368,20.206,11.448,20.348z"/>
	<path fill-rule="evenodd" clip-rule="evenodd" fill="#393837" d="M9.148,18.181c-0.089,0.038-0.177,0.076-0.265,0.114
		c-0.002-0.052-0.004-0.104-0.006-0.157c0.067-0.131,0.014-0.342,0.24-0.369c0.004,0.019,0.008,0.037,0.01,0.057
		c0.008,0.047,0.016,0.094,0.023,0.141C9.15,18.038,9.149,18.109,9.148,18.181z"/>
	<path fill-rule="evenodd" clip-rule="evenodd" fill="#393837" d="M9.106,17.36c0.021-0.002,0.041-0.004,0.061-0.006
		c-0.004,0.055-0.007,0.109-0.011,0.164c-0.013,0.04-0.026,0.079-0.04,0.119C9.037,17.548,9.049,17.455,9.106,17.36z"/>
	<path fill-rule="evenodd" clip-rule="evenodd" fill="#8C8375" d="M9.116,17.638c0.014-0.04,0.027-0.079,0.04-0.119
		c0.051,0.102,0.033,0.205,0.013,0.31c-0.014-0.001-0.027-0.002-0.041-0.003c-0.002-0.02-0.006-0.038-0.01-0.057
		C9.118,17.725,9.117,17.681,9.116,17.638z"/>
	<path fill-rule="evenodd" clip-rule="evenodd" fill="#CDD5D7" d="M8.051,14.563c-0.058,0.03-0.098,0.014-0.124-0.044
		C8.003,14.435,8.029,14.494,8.051,14.563z"/>
	<path fill-rule="evenodd" clip-rule="evenodd" fill="#797366" d="M9.127,17.825c0.014,0.001,0.027,0.002,0.041,0.003
		c0.014,0.048,0.018,0.096-0.018,0.138C9.143,17.919,9.135,17.872,9.127,17.825z"/>
	<path fill-rule="evenodd" clip-rule="evenodd" fill="#D8631B" d="M12.292,9.964c-0.098-0.048-0.195-0.096-0.293-0.145
		c-0.092-0.309-0.051-0.623-0.033-0.935c0.009,0.006,0.018,0.011,0.029,0.012c0.069,0.165,0.225,0.194,0.372,0.235
		c0.012,0.006,0.023,0.008,0.036,0.006c0.049,0.114,0.143,0.16,0.259,0.171v0.002c0.03,0.039,0.06,0.08,0.094,0.115
		c0.385,0.39,0.379,0.591-0.027,0.954C12.68,10.14,12.488,10.05,12.292,9.964z"/>
	<path fill-rule="evenodd" clip-rule="evenodd" fill="#393837" d="M13.938,16.772c-0.126,0.731-0.194,1.474-0.432,2.184
		c-0.146,0.436-0.343,0.846-0.6,1.227c-0.184,0.273-0.429,0.438-0.777,0.387c-0.013-0.288-0.245-0.487-0.298-0.765
		c-0.212-1.112-0.136-2.215,0.093-3.312c0.145-0.695,0.419-1.344,0.709-1.99c0.23-0.511,0.34-0.633,0.862-0.644
		c-0.021,0.227,0.072,0.374,0.298,0.43c0.008,0.032,0.015,0.065,0.021,0.098c0.009,0.024,0.018,0.049,0.025,0.073
		c0.012,0.061,0.023,0.12,0.034,0.18c-0.091,0.006-0.178,0.018-0.211,0.123c-0.017-0.019-0.034-0.037-0.05-0.055
		c0.007-0.039-0.012-0.056-0.051-0.055c-0.034-0.084-0.092-0.148-0.174-0.189c-0.344-0.095-0.504,0.01-0.73,0.479
		c-0.092,0.103-0.149,0.221-0.176,0.354c-0.013,0.022-0.024,0.045-0.037,0.067c-0.014,0.038-0.027,0.076-0.041,0.114
		c-0.484,1.245-0.643,2.528-0.434,3.85c0.041,0.265,0.091,0.594,0.434,0.65c0.352,0.058,0.507-0.237,0.65-0.483
		c0.322-0.555,0.521-1.156,0.617-1.791c0.048-0.34,0.096-0.679,0.143-1.018c0.082-0.321,0.081-0.642,0.001-0.963
		c0-0.201-0.11-0.391-0.066-0.598c0.067-0.002,0.133-0.004,0.199-0.007l0.006,0.018l-0.013,0.013
		c-0.015,0.096-0.047,0.194,0.037,0.276c0.032,0.423,0.03,0.845-0.027,1.265C13.948,16.718,13.943,16.745,13.938,16.772z"/>
	<path fill-rule="evenodd" clip-rule="evenodd" fill="#1C1B1D" d="M13.496,13.859c-0.522,0.011-0.632,0.133-0.862,0.644
		c-0.29,0.646-0.564,1.295-0.709,1.99c-0.229,1.097-0.305,2.199-0.093,3.312c0.053,0.277,0.285,0.477,0.298,0.765
		c-0.048-0.006-0.096-0.012-0.145-0.018c-0.053-0.009-0.105-0.018-0.159-0.026c-0.149-0.009-0.266-0.09-0.378-0.178
		c-0.08-0.142-0.162-0.282-0.242-0.425c0.134-1.693,0.338-3.373,0.979-4.967c0.176-0.437,0.375-0.863,0.726-1.193
		c0.249-0.235,0.422-0.225,0.608,0.02C13.511,13.808,13.503,13.834,13.496,13.859z"/>
	<path fill-rule="evenodd" clip-rule="evenodd" fill="#444C4A" d="M3.43,19.079c0-0.049,0.012-0.092,0.059-0.118
		c0.097,0.022,0.195,0.045,0.292,0.067c0.072,0.112,0.153,0.209,0.309,0.16c0.235,0.089,0.469,0.178,0.704,0.266
		c0.07,0.11,0.188,0.139,0.3,0.182c0.465,0.179,0.945,0.326,1.388,0.549c0.405,0.205,0.824,0.323,1.262,0.404
		c0.004,0.017,0.01,0.031,0.02,0.045c-0.007,0.061-0.015,0.123-0.022,0.185c-0.602-0.131-1.183-0.329-1.757-0.544
		C5.102,19.944,4.242,19.563,3.43,19.079z"/>
	<path fill-rule="evenodd" clip-rule="evenodd" fill="#444C4A" d="M13.664,14.763c0.033-0.105,0.12-0.117,0.211-0.123
		c0.08,0.151,0.082,0.314,0.074,0.479c-0.066,0.003-0.132,0.005-0.199,0.007C13.651,15.021,13.678,14.887,13.664,14.763z"/>
	<path fill-rule="evenodd" clip-rule="evenodd" fill="#444C4A" d="M13.496,13.859c0.008-0.025,0.016-0.052,0.023-0.077
		c0.236,0.091,0.245,0.305,0.274,0.507C13.568,14.233,13.475,14.086,13.496,13.859z"/>
	<path fill-rule="evenodd" clip-rule="evenodd" fill="#797366" d="M7.742,20.818c0.007-0.062,0.015-0.124,0.021-0.185
		c0.077,0.021,0.154,0.044,0.23,0.066c-0.004,0.069-0.009,0.14-0.013,0.209C7.901,20.879,7.822,20.849,7.742,20.818z"/>
	<path fill-rule="evenodd" clip-rule="evenodd" fill="#444C4A" d="M13.979,15.426c-0.084-0.082-0.052-0.181-0.037-0.276
		C14.008,15.233,13.995,15.33,13.979,15.426z"/>
	<path fill-rule="evenodd" clip-rule="evenodd" fill="#393837" d="M11.826,20.525c0.054,0.009,0.106,0.018,0.159,0.026
		C11.924,20.586,11.875,20.563,11.826,20.525z"/>
	<path fill-rule="evenodd" clip-rule="evenodd" fill="#444C4A" d="M13.84,14.46c-0.008-0.024-0.017-0.049-0.025-0.073
		C13.847,14.403,13.857,14.427,13.84,14.46z"/>
	<path fill-rule="evenodd" clip-rule="evenodd" fill="#444C4A" d="M13.938,16.772c0.005-0.027,0.01-0.055,0.014-0.082
		C13.948,16.718,13.943,16.745,13.938,16.772z"/>
	<path fill-rule="evenodd" clip-rule="evenodd" fill="#1C1B1D" d="M8.281,7.152c0.004,0.041,0.008,0.082,0.012,0.123
		C8.25,7.31,8.208,7.346,8.166,7.381C8.093,7.396,8.021,7.41,7.95,7.425C7.809,7.388,7.678,7.211,7.527,7.342
		C7.403,7.448,7.542,7.572,7.57,7.688C7.567,7.725,7.564,7.762,7.561,7.799C7.157,8.484,7.172,9.193,7.445,9.916
		c-0.2-0.047-0.4-0.094-0.6-0.142c-0.371-0.142-0.762-0.21-1.146-0.302c-0.035-0.009-0.07-0.019-0.104-0.029
		C5.623,9.416,5.65,9.39,5.678,9.364c0.388-0.04,0.473-0.227,0.259-0.569c-0.003-0.029-0.006-0.058-0.01-0.087
		c0.01-0.08,0.021-0.16,0.03-0.241c0.419-0.081,0.585-0.315,0.591-0.838C6.649,7.588,6.694,7.461,6.815,7.45
		c0.037,0.271-0.099,0.549,0.032,0.817c0.1-0.35,0.219-0.697,0.059-1.061c-0.048-0.2-0.024-0.328,0.23-0.239
		C7.257,7.01,7.381,7.044,7.503,7.082c0.059,0.039,0.118,0.043,0.179,0.006c0.085,0.098,0.199,0.048,0.301,0.06
		c0.021,0.003,0.041,0.006,0.061,0.01c0.029,0.025,0.048,0.017,0.058-0.019C8.167,7.077,8.219,7.184,8.281,7.152z M6.426,9.066
		C6.453,9.059,6.479,9.05,6.505,9.042C6.5,9.034,6.495,9.027,6.49,9.019C6.468,9.034,6.446,9.05,6.425,9.064
		C6.42,9.074,6.416,9.083,6.412,9.092C6.417,9.083,6.421,9.075,6.426,9.066z M6.83,8.555c-0.212,0.057-0.206,0.22-0.248,0.352
		C6.708,8.827,6.803,8.727,6.83,8.555z"/>
	<path fill-rule="evenodd" clip-rule="evenodd" fill="#B9B8B3" d="M7.445,9.916C7.172,9.193,7.157,8.484,7.561,7.799
		C7.656,7.836,7.67,7.822,7.682,7.68L7.681,7.682C7.77,7.697,7.823,7.648,7.867,7.581c0.02-0.027,0.038-0.054,0.057-0.08
		L7.921,7.502c0.204,0.01,0.4,0.086,0.607,0.061L8.526,7.561c0.02,0.023,0.04,0.046,0.059,0.069
		c0.027,0.048,0.071,0.059,0.122,0.054C8.707,7.767,8.747,7.807,8.831,7.802c-0.01,0.053,0.003,0.097,0.049,0.129
		c0.014,0.105,0.081,0.173,0.162,0.23C9.26,8.651,9.355,9.163,9.306,9.7c0.009,0.06-0.005,0.111-0.054,0.15
		c-0.108,0.073-0.133,0.18-0.123,0.3l0.006-0.001c-0.237,0.166-0.364,0.444-0.61,0.601c-0.2,0.062-0.375-0.003-0.543-0.105
		c-0.075-0.07-0.151-0.14-0.227-0.209C7.652,10.261,7.548,10.088,7.445,9.916z M9.11,9.261C9.108,8.774,8.94,8.295,8.685,8.008
		C8.333,7.613,7.896,7.651,7.632,8.107c-0.437,0.754-0.215,1.611,0.312,2.186c0.285,0.312,0.64,0.266,0.891-0.076
		C9.051,9.921,9.083,9.573,9.11,9.261z"/>
	<path fill-rule="evenodd" clip-rule="evenodd" fill="#1C1B1D" d="M10.44,9.842c-0.08,0.295-0.047,0.6-0.073,0.899
		c-0.104,0.071-0.304,0.033-0.28,0.248c-0.266-0.101-0.527-0.213-0.799-0.298c-0.237-0.073-0.27-0.159-0.064-0.312
		c0.063-0.046,0.117-0.102,0.174-0.152c0.044-0.02,0.089-0.04,0.134-0.06c0.034,0.095,0.113,0.098,0.195,0.098
		c0.007,0.175-0.044,0.37,0.164,0.482c0.092-0.217,0.146-0.413-0.165-0.481c0.065-0.109,0.063-0.197-0.074-0.245
		C9.674,9.98,9.699,9.94,9.722,9.899c0.343,0.183,0.355-0.095,0.419-0.3c0.02-0.08,0.037-0.16,0.056-0.239
		c0.081-0.148,0.067-0.313,0.087-0.472c0.078,0.232,0.038,0.49,0.15,0.716C10.436,9.683,10.439,9.763,10.44,9.842z"/>
	<path fill-rule="evenodd" clip-rule="evenodd" fill="#797366" d="M9.531,10.167c-0.045,0.02-0.09,0.041-0.134,0.06
		C9.33,10.131,9.449,9.951,9.256,9.909C9.251,9.89,9.25,9.87,9.252,9.85c0.049-0.039,0.063-0.09,0.054-0.15
		C9.345,9.685,9.384,9.67,9.423,9.655C9.56,9.632,9.689,9.591,9.785,9.481c0.104-0.03,0.161-0.118,0.233-0.187
		c0.037-0.004,0.055-0.023,0.049-0.06c0.007-0.017,0.016-0.032,0.025-0.047c0.034,0.058,0.069,0.115,0.104,0.172
		c-0.019,0.08-0.036,0.16-0.056,0.239c-0.215-0.006-0.347,0.106-0.419,0.3C9.699,9.94,9.674,9.98,9.651,10.021
		C9.585,10.049,9.545,10.097,9.531,10.167z"/>
	<path fill-rule="evenodd" clip-rule="evenodd" fill="#EFB33B" d="M7.755,10.435c0.076,0.069,0.151,0.139,0.227,0.209
		c0.041,0.174,0.001,0.272-0.199,0.198c-0.396-0.147-0.79-0.302-1.181-0.476c0.334,0.052,0.667,0.085,1.001,0.11
		C7.666,10.481,7.718,10.502,7.755,10.435z"/>
	<path fill-rule="evenodd" clip-rule="evenodd" fill="#5A1C18" d="M5.699,9.472c0.385,0.092,0.775,0.16,1.146,0.302
		C6.507,9.926,6.173,9.821,5.846,9.739C5.762,9.718,5.621,9.63,5.699,9.472z"/>
	<path fill-rule="evenodd" clip-rule="evenodd" fill="#CDD5D7" d="M8.525,10.749c0.246-0.156,0.373-0.435,0.61-0.601
		C9.053,10.472,8.867,10.689,8.525,10.749z"/>
	<path fill-rule="evenodd" clip-rule="evenodd" fill="#CDD5D7" d="M9.252,9.85C9.25,9.87,9.251,9.89,9.256,9.909
		C9.215,9.99,9.23,10.101,9.129,10.15C9.12,10.029,9.144,9.923,9.252,9.85z"/>
	<path fill-rule="evenodd" clip-rule="evenodd" fill="#393837" d="M5.289,7.81C5.31,7.951,5.441,7.984,5.535,8.046
		c0.12,0.078,0.135,0.17,0.059,0.275C5.533,8.406,5.47,8.541,5.353,8.502C5.23,8.462,5.37,8.349,5.342,8.268
		C5.33,8.231,5.331,8.191,5.326,8.15c-0.31,0.11-0.354,0.081-0.395-0.271c-0.015-0.128-0.02-0.26,0.059-0.376
		C5.153,7.544,5.117,7.777,5.289,7.81z"/>
	<path fill-rule="evenodd" clip-rule="evenodd" fill="#444C4A" d="M5.289,7.81C5.117,7.777,5.153,7.544,4.99,7.503
		C4.965,7.378,5.042,7.296,5.11,7.209c0.1,0.024,0.201,0.049,0.303,0.073C5.364,7.356,5.232,7.386,5.304,7.512
		C5.276,7.609,5.419,7.716,5.289,7.81z"/>
	<path fill-rule="evenodd" clip-rule="evenodd" fill="#393837" d="M5.304,7.512c-0.072-0.126,0.06-0.156,0.108-0.229
		C5.311,7.258,5.21,7.233,5.11,7.209c0.003-0.09,0.042-0.124,0.131-0.086c0.071,0.03,0.133,0.021,0.174-0.053
		c0.137,0.138,0.183,0.315,0.221,0.497C5.525,7.549,5.423,7.481,5.304,7.512z"/>
	<path fill-rule="evenodd" clip-rule="evenodd" fill="#B9B8B3" d="M4.324,7.021c0.014-0.019,0.028-0.038,0.042-0.057
		C4.352,6.983,4.338,7.003,4.324,7.021z"/>
	<path fill-rule="evenodd" clip-rule="evenodd" fill="#EFB33B" d="M12.367,9.132c-0.147-0.042-0.303-0.07-0.372-0.235
		C12.154,8.919,12.311,8.945,12.367,9.132z"/>
	<path fill-rule="evenodd" clip-rule="evenodd" fill="#EFB33B" d="M12.662,9.309c-0.116-0.011-0.21-0.057-0.259-0.171
		C12.528,9.136,12.641,9.151,12.662,9.309z"/>
	<path fill-rule="evenodd" clip-rule="evenodd" fill="#393837" d="M7.493,14.94c0.02,0.094,0.032,0.193,0.166,0.184
		c-0.252,0.445-0.162,0.902-0.038,1.356c0.064,0.236,0.185,0.438,0.419,0.548c-0.002,0.049,0.005,0.104-0.055,0.126
		c-0.159,0.058-0.474-0.081-0.544-0.231c-0.084-0.182-0.174-0.361-0.275-0.571c-0.017,0.108-0.009,0.187-0.041,0.243
		c-0.182,0.329,0.048,0.486,0.273,0.617c0.143,0.083,0.271,0.193,0.436,0.245c0.167,0.053,0.239,0.234,0.146,0.351
		c-0.161,0.197-0.302,0.49-0.655,0.378c0-0.059,0.003-0.117-0.001-0.176c-0.006-0.074,0.027-0.161-0.049-0.217
		c-0.032-0.023-0.08-0.021-0.102,0.019c-0.045,0.084-0.031,0.169,0.005,0.253c0.028,0.066,0.066,0.119,0.147,0.12
		c-0.058,0.107-0.12,0.252-0.059,0.335c0.065,0.09-0.035,0.188,0.052,0.243c0.127,0.082,0.102-0.166,0.248-0.102
		c0,0.27,0.004,0.548-0.001,0.825c-0.003,0.168,0.046,0.275,0.238,0.255c0.063,0.082,0.125,0.164,0.187,0.246
		c-0.021,0.06-0.043,0.12-0.065,0.18c-0.198-0.048-0.397-0.096-0.596-0.145c-0.019-0.081-0.072-0.1-0.146-0.079
		c-0.071-0.011-0.144-0.021-0.215-0.03c-0.016-0.089-0.068-0.11-0.148-0.084c-0.091-0.014-0.181-0.027-0.271-0.041
		c-0.126-0.172-0.321-0.176-0.504-0.205c-0.053-0.01-0.104-0.018-0.157-0.027c-0.012-0.088-0.064-0.113-0.146-0.091
		c-0.051-0.01-0.103-0.02-0.154-0.029c-0.17-0.237-0.422-0.303-0.693-0.327c-0.067-0.019-0.135-0.037-0.202-0.056
		c-0.029-0.19-0.095-0.374,0.086-0.548c0.074-0.07,0.134-0.23-0.034-0.331c-0.084-0.05-0.052-0.137-0.035-0.217
		c0.158-0.72,0.226-1.423-0.356-2.015c-0.073-0.073-0.054-0.173-0.042-0.279c0.031-0.274,0.074-0.574-0.156-0.787
		c-0.121-0.112-0.224-0.236-0.336-0.354c-0.046-0.231,0.013-0.472-0.065-0.702c-0.03-0.086-0.086-0.209,0.006-0.273
		c0.081-0.057,0.186,0.01,0.271,0.058c0.036,0.224-0.002,0.521,0.127,0.653c0.188,0.191,0.36,0.396,0.521,0.604
		c0.219,0.282,0.552,0.327,0.829,0.484c0.053,0.03,0.158,0.035,0.2,0.003c0.126-0.099,0.229-0.369,0.358-0.005
		c0.001,0.005,0.079-0.003,0.102-0.024c0.08-0.073,0.125-0.054,0.136,0.045c0.013,0.112,0.103,0.138,0.18,0.18
		c0.03,0.08,0.061,0.16,0.11,0.291c0.007-0.116,0.011-0.174,0.014-0.232c0.059,0.006,0.121-0.001,0.161,0.058
		c0.141,0.202,0.333,0.22,0.411,0.006c0.063-0.171,0.251-0.377,0.006-0.576c-0.076-0.062-0.018-0.129,0.067-0.14
		C7.333,14.939,7.413,14.943,7.493,14.94z M6.944,16.3c-0.12,0.052-0.146,0.039-0.212-0.071c-0.013-0.021-0.049-0.04-0.073-0.038
		c-0.018,0-0.046,0.034-0.049,0.056c-0.021,0.162,0.106,0.275,0.149,0.419c0.009,0.031,0.093,0.065,0.129,0.026
		C6.982,16.587,6.977,16.457,6.944,16.3z M6.312,16.068c-0.098,0.159,0.055,0.331-0.107,0.435C6.173,16.523,6.2,16.6,6.264,16.608
		c0.06,0.008,0.095-0.029,0.095-0.085C6.359,16.39,6.394,16.252,6.312,16.068z"/>
	<path fill-rule="evenodd" clip-rule="evenodd" fill="#444C4A" d="M3.817,14.521c0.112,0.118,0.215,0.242,0.336,0.354
		c0.23,0.213,0.188,0.513,0.156,0.787c-0.012,0.106-0.031,0.206,0.042,0.279c0.583,0.592,0.515,1.295,0.356,2.015
		c-0.018,0.08-0.05,0.167,0.035,0.217c0.168,0.101,0.108,0.261,0.034,0.331c-0.181,0.174-0.115,0.357-0.086,0.548
		c-0.202-0.011-0.347-0.162-0.531-0.217c-0.019-0.07-0.059-0.111-0.137-0.103c-0.032-0.008-0.063-0.016-0.096-0.023
		c-0.048-0.116-0.146-0.154-0.261-0.165c-0.095-0.043-0.191-0.085-0.287-0.128c-0.024-0.018-0.049-0.034-0.074-0.051
		c-0.06-0.041-0.119-0.081-0.179-0.122c-0.019-0.14-0.103-0.216-0.236-0.243c-0.03-0.074-0.06-0.148-0.089-0.223
		c0.029-0.079-0.009-0.121-0.08-0.145c-0.005-0.036-0.01-0.072-0.015-0.107c0.084-0.077,0.019-0.105-0.044-0.134
		c-0.003-0.056-0.007-0.111-0.011-0.167c0.078-0.1,0.071-0.187-0.041-0.256c-0.007-0.154-0.015-0.31-0.022-0.464
		c0.078-0.144,0.096-0.284-0.017-0.42c-0.002-0.037-0.003-0.074-0.005-0.111c0.001-0.057,0.027-0.148,0.002-0.166
		c-0.242-0.168-0.149-0.407-0.149-0.628c0.135,0.021,0.37-0.039,0.327,0.181c-0.045,0.236,0.018,0.449,0.021,0.673
		c0.002,0.152-0.063,0.36,0.109,0.428c0.137,0.053,0.144-0.189,0.262-0.238c0.345-0.141,0.174-0.488,0.077-0.543
		c-0.305-0.172-0.129-0.297-0.027-0.449c0.169,0.004,0.226-0.113,0.271-0.246c0.081,0.016,0.137,0.058,0.154,0.143
		c0,0.088-0.005,0.178-0.001,0.266c0.009,0.181,0.11,0.313,0.284,0.318c0.189,0.006,0.166-0.172,0.191-0.305
		c0.056-0.301-0.107-0.396-0.366-0.412c0.021-0.115,0.043-0.231,0.065-0.348C3.796,14.605,3.807,14.563,3.817,14.521z M4.68,17.235
		c0.036-0.281-0.029-0.538-0.17-0.775c-0.175-0.296-0.789-0.361-1.031-0.121c-0.366,0.364-0.547,1.061-0.073,1.647
		c0.081,0.1,0.088,0.526,0.421,0.227c0.011-0.01,0.056,0.015,0.082,0.027c0.199,0.097,0.338-0.001,0.471-0.139
		C4.614,17.857,4.726,17.572,4.68,17.235z"/>
	<path fill-rule="evenodd" clip-rule="evenodd" fill="#8C8375" d="M6.967,19.913c0.071,0.01,0.144,0.02,0.215,0.03
		c0.028,0.063,0.069,0.105,0.146,0.079c0.199,0.049,0.397,0.097,0.596,0.145c0,0.021,0,0.043,0.001,0.064
		c-0.007,0.008-0.013,0.016-0.021,0.021c-0.118,0.104-0.299-0.152-0.38,0.05c-0.069,0.173,0.236,0.119,0.219,0.286
		c-0.438-0.081-0.856-0.199-1.262-0.404c-0.443-0.223-0.923-0.37-1.388-0.549c-0.112-0.043-0.23-0.071-0.3-0.182
		c0.134,0,0.207-0.059,0.198-0.199c0.223-0.021,0.382,0.168,0.595,0.181c0.052,0.01,0.104,0.02,0.155,0.028
		c0.028,0.064,0.069,0.105,0.146,0.092c0.052,0.01,0.104,0.018,0.157,0.027c0.132,0.158,0.321,0.174,0.504,0.205
		c0.09,0.014,0.18,0.027,0.271,0.041C6.849,19.891,6.892,19.931,6.967,19.913z"/>
	<path fill-rule="evenodd" clip-rule="evenodd" fill="#444C4A" d="M5.586,19.436c-0.213-0.013-0.372-0.201-0.595-0.181
		c-0.033-0.049-0.066-0.098-0.099-0.146C5.164,19.133,5.416,19.198,5.586,19.436z"/>
	<path fill-rule="evenodd" clip-rule="evenodd" fill="#797366" d="M2.572,16.086c0.113,0.136,0.095,0.276,0.017,0.42
		C2.491,16.37,2.505,16.229,2.572,16.086z"/>
	<path fill-rule="evenodd" clip-rule="evenodd" fill="#8C8375" d="M4.09,19.188c-0.156,0.049-0.237-0.048-0.309-0.16
		C3.914,19.024,4.038,19.037,4.09,19.188z"/>
	<path fill-rule="evenodd" clip-rule="evenodd" fill="#797366" d="M2.89,18.001c0.134,0.027,0.218,0.104,0.236,0.243
		C2.982,18.227,2.902,18.147,2.89,18.001z"/>
	<path fill-rule="evenodd" clip-rule="evenodd" fill="#797366" d="M2.611,16.97c0.112,0.069,0.119,0.156,0.041,0.256
		C2.561,17.153,2.588,17.061,2.611,16.97z"/>
	<path fill-rule="evenodd" clip-rule="evenodd" fill="#8C8375" d="M3.666,18.545c0.115,0.011,0.213,0.049,0.261,0.165
		C3.8,18.719,3.692,18.696,3.666,18.545z"/>
	<path fill-rule="evenodd" clip-rule="evenodd" fill="#797366" d="M2.721,17.634c0.071,0.023,0.109,0.065,0.08,0.145
		C2.733,17.753,2.702,17.707,2.721,17.634z"/>
	<path fill-rule="evenodd" clip-rule="evenodd" fill="#8C8375" d="M4.023,18.733c0.078-0.009,0.118,0.032,0.137,0.103
		C4.079,18.849,4.032,18.817,4.023,18.733z"/>
	<path fill-rule="evenodd" clip-rule="evenodd" fill="#797366" d="M2.663,17.393c0.063,0.028,0.128,0.057,0.044,0.134
		C2.652,17.494,2.646,17.447,2.663,17.393z"/>
	<path fill-rule="evenodd" clip-rule="evenodd" fill="#8C8375" d="M3.305,18.366c0.025,0.017,0.05,0.033,0.074,0.051
		C3.355,18.399,3.331,18.383,3.305,18.366z"/>
	<path fill-rule="evenodd" clip-rule="evenodd" fill="#CDD5D7" d="M6.246,6.242C6.043,5.98,5.756,5.999,5.471,6.009
		C5.699,5.777,6.08,5.802,6.304,6.061C6.381,6.15,6.461,6.236,6.541,6.323C6.542,6.37,6.529,6.41,6.482,6.431
		c-0.06-0.043-0.119-0.086-0.179-0.129C6.285,6.283,6.267,6.265,6.249,6.246L6.246,6.242z"/>
	<path fill-rule="evenodd" clip-rule="evenodd" fill="#9A9589" d="M6.912,6.194C6.94,6.23,6.967,6.267,6.995,6.302
		C6.992,6.509,7.182,6.79,6.789,6.85C6.786,6.749,6.778,6.651,6.666,6.606l0-0.002c0.038-0.058,0.077-0.115,0.115-0.173
		C6.825,6.353,6.868,6.273,6.912,6.194z"/>
	<path fill-rule="evenodd" clip-rule="evenodd" fill="#B9B8B3" d="M6.781,6.432C6.742,6.489,6.704,6.547,6.666,6.604
		C6.572,6.58,6.53,6.502,6.482,6.431C6.529,6.41,6.542,6.37,6.541,6.323C6.612,6.377,6.669,6.465,6.781,6.432z"/>
	<path fill-rule="evenodd" clip-rule="evenodd" fill="#9A9589" d="M7.088,6.125C7.044,6.144,7,6.162,6.955,6.182
		C6.979,6.116,6.985,6.004,7.088,6.125z"/>
	<path fill-rule="evenodd" clip-rule="evenodd" fill="#9A9589" d="M6.482,6.431C6.53,6.502,6.572,6.58,6.666,6.604l0,0.002
		C6.65,6.724,6.689,6.82,6.775,6.899c0.031,0.227-0.203,0.189-0.294,0.294C6.469,7.101,6.54,6.983,6.424,6.922
		C6.318,6.865,6.239,6.949,6.156,7.003c-0.108,0.07-0.22,0.135-0.331,0.203C5.786,7.186,5.747,7.164,5.708,7.143l0,0.001
		c0.014-0.057,0.011-0.106-0.061-0.12v0c0-0.039-0.001-0.079-0.001-0.119C5.641,6.79,5.594,6.717,5.467,6.723l0.001,0.002
		c-0.005-0.035-0.02-0.062-0.062-0.062l0.001,0.001c0-0.041-0.022-0.06-0.061-0.062l0.001,0.001c0.003-0.021,0.007-0.041,0.01-0.062
		c0.259-0.209,0.558-0.301,0.888-0.3l0.002,0.004c0.018,0.019,0.036,0.037,0.055,0.056C6.363,6.345,6.422,6.388,6.482,6.431z"/>
	<path fill-rule="evenodd" clip-rule="evenodd" fill="#444C4A" d="M6.481,7.194c0.091-0.105,0.325-0.067,0.294-0.294
		c0.007-0.016,0.011-0.033,0.013-0.05c0.394-0.06,0.203-0.34,0.207-0.547c0.029-0.005,0.057-0.011,0.086-0.017
		c0.038,0.011,0.056-0.003,0.05-0.044c0.196,0.025,0.409,0.001,0.555,0.181c0.099,0.265-0.142,0.435-0.183,0.66
		C7.381,7.044,7.257,7.01,7.136,6.968c-0.255-0.089-0.278,0.04-0.23,0.239c0,0.092-0.034,0.172-0.091,0.243
		C6.694,7.461,6.649,7.588,6.548,7.629c-0.042-0.196-0.122-0.08-0.193-0.023C6.238,7.701,6.167,7.859,5.99,7.872
		C5.93,7.796,5.959,7.71,5.958,7.627c0.083-0.005,0.141-0.041,0.159-0.126C6.239,7.398,6.36,7.296,6.481,7.194z"/>
	<path fill-rule="evenodd" clip-rule="evenodd" fill="#393837" d="M5.99,7.872c0.177-0.013,0.248-0.171,0.365-0.265
		c0.071-0.057,0.151-0.173,0.193,0.023C6.542,8.152,6.376,8.386,5.958,8.467C5.968,8.269,5.979,8.07,5.99,7.872z"/>
	<path fill-rule="evenodd" clip-rule="evenodd" fill="#F0F1F0" d="M5.467,6.723c0.127-0.006,0.174,0.067,0.18,0.182
		C5.623,6.91,5.599,6.915,5.576,6.92C5.512,6.869,5.451,6.817,5.467,6.723z"/>
	<path fill-rule="evenodd" clip-rule="evenodd" fill="#9A9589" d="M6.118,7.501C6.099,7.586,6.041,7.622,5.958,7.627
		c-0.02,0-0.039-0.001-0.059-0.002c-0.003-0.04-0.006-0.08-0.009-0.12C5.966,7.504,6.042,7.502,6.118,7.501z"/>
	<path fill-rule="evenodd" clip-rule="evenodd" fill="#CDD5D7" d="M5.708,7.143c0.039,0.021,0.078,0.042,0.117,0.063
		C5.816,7.251,5.806,7.296,5.796,7.34C5.73,7.292,5.708,7.222,5.708,7.143z"/>
	<path fill-rule="evenodd" clip-rule="evenodd" fill="#F0F1F0" d="M5.358,6.542c-0.003,0.021-0.006,0.041-0.01,0.062
		c-0.057,0.012-0.103,0-0.121-0.063C5.271,6.505,5.314,6.534,5.358,6.542z"/>
	<path fill-rule="evenodd" clip-rule="evenodd" fill="#CDD5D7" d="M5.89,7.505c0.003,0.04,0.006,0.081,0.009,0.12
		C5.824,7.591,5.815,7.551,5.89,7.505z"/>
	<path fill-rule="evenodd" clip-rule="evenodd" fill="#CDD5D7" d="M5.576,6.92c0.023-0.005,0.047-0.01,0.071-0.015
		c0,0.04,0.001,0.08,0.001,0.119C5.596,7.008,5.584,6.965,5.576,6.92z"/>
	<path fill-rule="evenodd" clip-rule="evenodd" fill="#CDD5D7" d="M5.648,7.024c0.072,0.014,0.074,0.063,0.061,0.12
		C5.655,7.121,5.644,7.076,5.648,7.024z"/>
	<path fill-rule="evenodd" clip-rule="evenodd" fill="#F0F1F0" d="M5.407,6.663c0.042,0,0.057,0.026,0.062,0.062
		C5.427,6.725,5.407,6.704,5.407,6.663z"/>
	<path fill-rule="evenodd" clip-rule="evenodd" fill="#F0F1F0" d="M5.347,6.603c0.039,0.001,0.062,0.021,0.061,0.062
		C5.368,6.664,5.347,6.644,5.347,6.603z"/>
	<path fill-rule="evenodd" clip-rule="evenodd" fill="#D8631B" d="M3.936,9.148C3.969,9.124,4.002,9.1,4.035,9.075
		c0.023-0.039,0.047-0.077,0.07-0.115c0.229-0.045,0.225,0.162,0.302,0.28C4.249,9.212,4.069,9.302,3.936,9.148z"/>
	<path fill-rule="evenodd" clip-rule="evenodd" fill="#EFB33B" d="M4.393,9.786C4.27,9.761,4.132,9.828,4.021,9.727
		C4.159,9.659,4.303,9.557,4.393,9.786z"/>
	<path fill-rule="evenodd" clip-rule="evenodd" fill="#EFB33B" d="M3.854,9.844c0.001,0.02,0.001,0.04,0,0.06
		C3.801,9.884,3.804,9.864,3.854,9.844z"/>
	<path fill-rule="evenodd" clip-rule="evenodd" fill="#393837" d="M3.189,15.231c-0.102,0.152-0.277,0.277,0.027,0.449
		c0.097,0.055,0.268,0.402-0.077,0.543c-0.118,0.049-0.125,0.291-0.262,0.238c-0.172-0.067-0.107-0.275-0.109-0.428
		c-0.004-0.224-0.066-0.437-0.021-0.673c0.043-0.22-0.192-0.159-0.327-0.181c-0.081-0.191,0.082-0.354,0.066-0.537
		c-0.031-0.275-0.032-0.55-0.012-0.825c0.066-0.003,0.133-0.006,0.2-0.009C2.685,14.342,2.681,14.879,3.189,15.231z"/>
	<path fill-rule="evenodd" clip-rule="evenodd" fill="#9A9589" d="M2.474,13.818c-0.021,0.275-0.02,0.55,0.012,0.825
		c-0.245,0.02-0.338-0.094-0.32-0.336c0.015-0.207,0.003-0.415,0.003-0.622c0.131-0.134,0.069-0.347,0.202-0.479
		c0.101-0.1,0.188-0.225,0.386-0.211C2.576,13.255,2.436,13.509,2.474,13.818z"/>
	<path fill-rule="evenodd" clip-rule="evenodd" fill="#393837" d="M2.28,14.885c0.021,0.289,0.041,0.579,0.062,0.868
		c-0.026,0.002-0.053,0.004-0.079,0.006c0-0.289,0-0.578,0-0.867C2.268,14.89,2.274,14.887,2.28,14.885z"/>
	<path fill-rule="evenodd" clip-rule="evenodd" fill="#5A1C18" d="M5.937,8.795c0.214,0.342,0.129,0.529-0.259,0.569
		C5.765,9.174,5.851,8.984,5.937,8.795z"/>
	<path fill-rule="evenodd" clip-rule="evenodd" fill="#B9B8B3" d="M7.625,1.808C7.56,1.802,7.489,1.819,7.445,1.75
		C7.51,1.752,7.582,1.736,7.625,1.808z"/>
	<path fill-rule="evenodd" clip-rule="evenodd" fill="#9A9589" d="M3.424,12.909c-0.271,0.174-0.446,0.141-0.598-0.111
		c0.02-0.024,0.039-0.049,0.059-0.074c0.031,0.018,0.063,0.034,0.094,0.051c0,0,0,0,0.001,0c0.154-0.023,0.293,0.05,0.439,0.075
		C3.422,12.87,3.423,12.89,3.424,12.909z"/>
	<path fill-rule="evenodd" clip-rule="evenodd" fill="#CDD5D7" d="M2.981,12.774C2.98,12.774,2.98,12.774,2.981,12.774L2.981,12.774
		z"/>
	<path fill-rule="evenodd" clip-rule="evenodd" fill="#797366" d="M8.166,7.381C8.208,7.346,8.25,7.31,8.292,7.274
		c0.188,0.05,0.234-0.2,0.402-0.19c0.368-0.117,0.678-0.016,0.942,0.253C9.682,7.383,9.73,7.412,9.795,7.384
		c0.084,0.003,0.116,0.046,0.1,0.128C9.848,7.542,9.881,7.56,9.906,7.578l0.001,0.017c0.021,0.09,0.043,0.181,0.064,0.271
		C9.947,7.868,9.922,7.87,9.897,7.873C9.863,7.841,9.829,7.809,9.793,7.776C9.706,7.55,9.616,7.326,9.3,7.387
		c-0.245-0.043-0.502-0.13-0.654,0.175c-0.02-0.003-0.04-0.004-0.059-0.001c-0.02,0-0.041,0-0.061,0l0.002,0.002
		C8.439,7.44,8.291,7.435,8.166,7.381z"/>
	<path fill-rule="evenodd" clip-rule="evenodd" fill="#2E456A" d="M10.574,7.441c-0.002,0.162-0.004,0.323-0.006,0.485
		c-0.021,0.047-0.04,0.095-0.061,0.143c-0.002-0.118-0.006-0.235-0.006-0.354c0-0.138,0.021-0.249-0.165-0.333
		c-0.222-0.1-0.148-0.304-0.031-0.473C10.704,6.931,10.528,7.242,10.574,7.441z"/>
	<path fill-rule="evenodd" clip-rule="evenodd" fill="#9A9589" d="M9.897,7.873c0.025-0.003,0.05-0.005,0.074-0.008
		c0.061,0.1,0.119,0.199,0.18,0.299l-0.002-0.002c0,0.067-0.001,0.135,0,0.202c0,0.03,0.014,0.052,0.044,0.025
		c0.014-0.012,0.017-0.034,0.024-0.052c0.094,0.174,0.026,0.369,0.066,0.55c-0.02,0.159-0.006,0.324-0.087,0.472
		c-0.035-0.057-0.07-0.115-0.104-0.172C10.196,8.724,10.07,8.295,9.897,7.873z"/>
	<path fill-rule="evenodd" clip-rule="evenodd" fill="#CDD5D7" d="M9.795,7.384c-0.065,0.028-0.113,0-0.158-0.046
		C9.373,7.068,9.063,6.967,8.695,7.084C8.724,6.915,8.875,6.923,8.989,6.9C9.255,6.847,9.682,7.111,9.795,7.384z"/>
	<path fill-rule="evenodd" clip-rule="evenodd" fill="#797366" d="M8.281,7.152C8.219,7.184,8.167,7.077,8.102,7.139
		C8.083,7.145,8.064,7.151,8.044,7.157c-0.02-0.003-0.041-0.007-0.061-0.01c0-0.024,0-0.047,0.001-0.071
		c0.222-0.104,0.187-0.294,0.161-0.48c-0.007-0.047-0.109-0.08-0.03-0.14c0.025-0.019,0.076-0.021,0.107-0.01
		c0.066,0.025,0.063,0.085,0.061,0.148C8.278,6.78,8.281,6.966,8.281,7.152z"/>
	<path fill-rule="evenodd" clip-rule="evenodd" fill="#B9B8B3" d="M10.151,8.164c-0.061-0.1-0.119-0.199-0.18-0.299
		c-0.021-0.09-0.043-0.18-0.064-0.271C10.114,7.731,10.157,7.937,10.151,8.164z"/>
	<path fill-rule="evenodd" clip-rule="evenodd" fill="#444C4A" d="M7.984,7.076c0,0.024,0,0.047-0.001,0.071
		c-0.102-0.012-0.216,0.038-0.301-0.06C7.782,7.049,7.875,6.864,7.984,7.076z"/>
	<path fill-rule="evenodd" clip-rule="evenodd" fill="#B9B8B3" d="M10.217,8.338c-0.008,0.018-0.011,0.04-0.024,0.052
		c-0.03,0.026-0.044,0.005-0.044-0.025c-0.001-0.067,0-0.135,0-0.202C10.249,8.191,10.199,8.277,10.217,8.338z"/>
	<path fill-rule="evenodd" clip-rule="evenodd" fill="#444C4A" d="M8.026,6.795c-0.014,0.01-0.027,0.02-0.041,0.029
		c-0.01-0.021-0.02-0.041-0.03-0.061c0.017-0.006,0.037-0.021,0.048-0.015C8.015,6.754,8.018,6.778,8.026,6.795z"/>
	<path fill-rule="evenodd" clip-rule="evenodd" fill="#444C4A" d="M7.843,6.768c0.003,0.007,0.005,0.014,0.008,0.021
		C7.84,6.79,7.83,6.792,7.819,6.794c0.001-0.008,0-0.017,0.005-0.023C7.827,6.768,7.836,6.769,7.843,6.768z"/>
	<path fill-rule="evenodd" clip-rule="evenodd" fill="#B9B8B3" d="M9.906,7.578C9.881,7.56,9.848,7.542,9.895,7.512
		C9.899,7.533,9.902,7.556,9.906,7.578z"/>
	<path fill-rule="evenodd" clip-rule="evenodd" fill="#1C1B1D" d="M9,3.813c0,0.16-0.072,0.244-0.24,0.217
		c-0.067-0.012-0.133-0.04-0.201-0.051C8.302,3.937,8.125,3.828,8.166,3.528C8.187,3.362,8.3,3.354,8.43,3.371
		C8.82,3.422,9.005,3.565,9,3.813z"/>
	<path fill-rule="evenodd" clip-rule="evenodd" fill="#9A9589" d="M7.132,6.241c0.006,0.041-0.012,0.055-0.05,0.044
		C7.098,6.271,7.115,6.256,7.132,6.241z"/>
	<path fill-rule="evenodd" clip-rule="evenodd" fill="#B9B8B3" d="M8.04,17.028c-0.235-0.109-0.355-0.312-0.419-0.548
		c-0.124-0.454-0.214-0.911,0.038-1.356c0.048-0.018,0.096-0.035,0.143-0.054c-0.024,0.302,0.067,0.585,0.148,0.867
		c0.077,0.269,0.273,0.44,0.506,0.574c0,0,0.009-0.006,0.009-0.006c-0.019,0.124-0.082,0.242-0.055,0.373l-0.001,0.028
		C8.29,16.959,8.176,17.029,8.04,17.028z"/>
	<path fill-rule="evenodd" clip-rule="evenodd" fill="#8C8375" d="M8.59,15.845c0.102,0.106,0.04,0.238,0.056,0.358
		c-0.093,0.081,0.007,0.278-0.182,0.303c0,0-0.008,0.006-0.009,0.006c0.013-0.1,0.032-0.208-0.057-0.28
		c-0.239-0.19-0.226-0.479-0.284-0.734c-0.026-0.112-0.072-0.303,0.089-0.337c0.149-0.031,0.231,0.118,0.262,0.266
		c-0.17,0.106-0.245,0.377-0.14,0.519c0.074,0.1,0.128,0.065,0.162-0.037C8.522,15.886,8.556,15.865,8.59,15.845z"/>
	<path fill-rule="evenodd" clip-rule="evenodd" fill="#329D83" d="M8.409,16.907l0.001-0.028c0.184,0.044,0.22-0.175,0.363-0.202
		c0.1,0.107,0.027,0.251,0.078,0.369c0.005,0.074,0.06,0.102,0.118,0.124c-0.079,0.144-0.089,0.395-0.333,0.325
		C8.41,17.43,8.375,17.224,8.435,17.01C8.447,16.965,8.442,16.936,8.409,16.907z M8.758,17.154c-0.012-0.034-0.018-0.1-0.101-0.091
		c-0.068,0.008-0.104,0.059-0.104,0.123c0,0.078,0.044,0.14,0.125,0.131C8.75,17.31,8.757,17.239,8.758,17.154z"/>
	<path fill-rule="evenodd" clip-rule="evenodd" fill="#797366" d="M8.773,16.677c-0.144,0.027-0.18,0.246-0.363,0.202
		c-0.027-0.131,0.036-0.249,0.055-0.373c0.188-0.024,0.089-0.222,0.182-0.303c0.056-0.014,0.077-0.13,0.138-0.08
		c0.064,0.054,0.094,0.15,0.072,0.243C8.831,16.47,8.736,16.556,8.773,16.677z"/>
	<path fill-rule="evenodd" clip-rule="evenodd" fill="#444C4A" d="M8.488,15.907C8.454,16.01,8.4,16.044,8.326,15.944
		c-0.105-0.142-0.03-0.412,0.14-0.519c0.024,0.1,0.049,0.2,0.072,0.3C8.457,15.769,8.468,15.837,8.488,15.907z"/>
	<path fill-rule="evenodd" clip-rule="evenodd" fill="#797366" d="M8.488,15.907c-0.02-0.07-0.031-0.139,0.05-0.182
		c0.018,0.04,0.035,0.079,0.053,0.119C8.556,15.865,8.522,15.886,8.488,15.907z"/>
	<path fill-rule="evenodd" clip-rule="evenodd" fill="#1C1B1D" d="M6.484,15.544c-0.077-0.042-0.167-0.067-0.18-0.18
		c-0.011-0.099-0.056-0.118-0.136-0.045c-0.023,0.021-0.101,0.029-0.102,0.024c-0.129-0.364-0.232-0.094-0.358,0.005
		c-0.042,0.032-0.147,0.027-0.2-0.003c-0.277-0.157-0.61-0.202-0.829-0.484c-0.161-0.208-0.333-0.413-0.521-0.604
		c-0.129-0.133-0.091-0.43-0.127-0.653c0.219,0.046,0.438,0.092,0.656,0.138c0.847,0.311,1.709,0.582,2.523,0.979
		c0.106,0.051,0.265,0.052,0.283,0.222c-0.08,0.002-0.16-0.002-0.239,0.009c-0.085,0.011-0.144,0.078-0.067,0.14
		c0.245,0.199,0.056,0.405-0.006,0.576c-0.078,0.214-0.27,0.196-0.411-0.006c-0.04-0.059-0.102-0.052-0.161-0.058
		c-0.029-0.104,0.069-0.26-0.119-0.302c-0.01-0.007-0.02-0.015-0.029-0.022c0.007,0.01,0.015,0.02,0.022,0.03
		C6.483,15.387,6.483,15.466,6.484,15.544z"/>
	<path fill-rule="evenodd" clip-rule="evenodd" fill="#CDD5D7" d="M3.189,15.231c-0.508-0.353-0.504-0.89-0.515-1.422
		c0.111-0.158,0.013-0.464,0.334-0.475c-0.011,0.351,0.07,0.687,0.169,1.019c0.046,0.153,0.145,0.274,0.289,0.352
		c-0.002,0.094-0.004,0.187-0.006,0.28C3.415,15.118,3.358,15.235,3.189,15.231z"/>
	<path fill-rule="evenodd" clip-rule="evenodd" fill="#797366" d="M4.15,13.114c0.65,0.137,1.258,0.393,1.863,0.657
		c0.035,0.016,0.075,0.022,0.113,0.032c-0.023,0.044-0.047,0.088-0.07,0.131c-0.094-0.028-0.188-0.056-0.281-0.087
		c-0.521-0.173-1.041-0.347-1.562-0.521C4.127,13.275,4.152,13.19,4.15,13.114z"/>
	<path fill-rule="evenodd" clip-rule="evenodd" fill="#444C4A" d="M4.213,13.327c0.521,0.174,1.041,0.348,1.562,0.521
		c0.093,0.031,0.188,0.059,0.281,0.087c0.183,0.074,0.366,0.148,0.55,0.223c-0.079,0.141-0.177,0.037-0.256,0.01
		c-0.43-0.15-0.855-0.313-1.285-0.465c-0.12-0.043-0.241-0.095-0.374-0.084C4.553,13.485,4.281,13.575,4.213,13.327z"/>
	<path fill-rule="evenodd" clip-rule="evenodd" fill="#797366" d="M3.459,14.985c0.002-0.094,0.004-0.187,0.007-0.28
		c0.077-0.036,0.06-0.103,0.052-0.165c0.005-0.063,0.01-0.125,0.015-0.188c0.012-0.085-0.027-0.123-0.11-0.121
		c-0.005-0.039-0.01-0.078-0.014-0.118c0.014-0.056,0.004-0.102-0.053-0.128c-0.001-0.06-0.002-0.12-0.003-0.18
		c0.026,0.002,0.053,0.004,0.08,0.006c0.009,0.068,0.043,0.111,0.116,0.114l-0.003-0.003c0.008,0.061,0.015,0.121,0.022,0.182
		c0.014-0.021,0.028-0.041,0.042-0.061c0.146,0.025,0.103,0.143,0.115,0.235c0.016,0.124-0.048,0.261,0.062,0.368
		c-0.022,0.116-0.044,0.232-0.065,0.349c-0.036,0.044-0.072,0.088-0.108,0.132C3.596,15.043,3.541,15.001,3.459,14.985z"/>
	<path fill-rule="evenodd" clip-rule="evenodd" fill="#B9B8B3" d="M3.519,14.54c0.007,0.063,0.025,0.129-0.052,0.165
		c-0.145-0.077-0.243-0.198-0.289-0.352c-0.1-0.332-0.18-0.668-0.169-1.019L3,13.31c0.04,0.008,0.08,0.015,0.121,0.021
		c0.001,0.018,0.003,0.036,0.006,0.054c-0.006,0.086-0.009,0.17,0.103,0.192c-0.001,0.055-0.003,0.108-0.004,0.163
		C3.137,14.104,3.228,14.354,3.519,14.54z"/>
	<path fill-rule="evenodd" clip-rule="evenodd" fill="#444C4A" d="M3.548,13.926c-0.073-0.003-0.107-0.046-0.116-0.114
		c-0.002-0.082-0.004-0.164-0.005-0.247l-0.003,0.003C3.582,13.646,3.527,13.8,3.548,13.926z"/>
	<path fill-rule="evenodd" clip-rule="evenodd" fill="#9A9589" d="M3.229,13.577c-0.112-0.022-0.109-0.106-0.103-0.192
		c0.043,0.001,0.086,0.002,0.129,0.003c-0.003,0.016-0.004,0.031-0.003,0.047C3.245,13.481,3.237,13.53,3.229,13.577z"/>
	<path fill-rule="evenodd" clip-rule="evenodd" fill="#9A9589" d="M3.121,13.331C3.081,13.324,3.041,13.317,3,13.31
		c0.02-0.027,0.039-0.076,0.061-0.077C3.125,13.229,3.118,13.287,3.121,13.331z"/>
	<path fill-rule="evenodd" clip-rule="evenodd" fill="#444C4A" d="M3.61,14.044c-0.014,0.02-0.028,0.04-0.042,0.061
		c-0.007-0.061-0.015-0.121-0.022-0.182C3.599,13.946,3.602,13.996,3.61,14.044z"/>
	<path fill-rule="evenodd" clip-rule="evenodd" fill="#444C4A" d="M3.365,13.446c0.051,0.025,0.063,0.069,0.06,0.121l0.003-0.003
		c-0.055-0.023-0.063-0.069-0.06-0.121L3.365,13.446z"/>
	<path fill-rule="evenodd" clip-rule="evenodd" fill="#444C4A" d="M3.253,13.435c0-0.016,0-0.031,0.003-0.047
		c0.044,0.006,0.088,0.011,0.108,0.059l0.003-0.003C3.33,13.44,3.292,13.438,3.253,13.435z"/>
	<path fill-rule="evenodd" clip-rule="evenodd" fill="#8C8375" d="M6.606,14.157c-0.184-0.074-0.367-0.148-0.55-0.223
		c0.023-0.043,0.046-0.087,0.07-0.131c0.199,0.008,0.373,0.088,0.538,0.189C6.645,14.049,6.625,14.103,6.606,14.157z"/>
	<path fill-rule="evenodd" clip-rule="evenodd" fill="#444C4A" d="M6.665,14.272c0.177-0.092,0.259-0.004,0.405,0.104
		C6.884,14.388,6.791,14.339,6.665,14.272z"/>
	<path fill-rule="evenodd" clip-rule="evenodd" fill="#444C4A" d="M7.413,14.536c-0.111,0.007-0.215-0.002-0.309-0.103
		C7.248,14.392,7.33,14.475,7.413,14.536z"/>
	<path fill-rule="evenodd" clip-rule="evenodd" fill="#9A9589" d="M7.744,20.589c0.017-0.167-0.288-0.113-0.219-0.286
		c0.081-0.202,0.262,0.054,0.38-0.05c0.008-0.006,0.014-0.014,0.021-0.021c0.261,0.022,0.567,0.218,0.72-0.186
		c0.037-0.111,0.086-0.221,0.109-0.335c0.087-0.428,0.048-0.864,0.077-1.297c0.194,0.299,0.091,0.632,0.109,0.95
		c0.009,0.146,0.002,0.295,0.003,0.443c-0.046,0.15-0.094,0.301-0.137,0.452c-0.116,0.401-0.182,0.451-0.605,0.445
		c-0.069-0.001-0.139-0.003-0.208-0.005c-0.077-0.022-0.153-0.045-0.23-0.066C7.754,20.62,7.748,20.605,7.744,20.589z"/>
	<path fill-rule="evenodd" clip-rule="evenodd" fill="#2E456A" d="M8.832,18.414c-0.029,0.433,0.01,0.869-0.077,1.297
		c-0.023,0.114-0.072,0.224-0.109,0.335C8.423,20.06,8.207,20.03,7.99,19.987c-0.062-0.082-0.124-0.164-0.187-0.246
		c0.019-0.063,0.134-0.117,0.071-0.176c-0.192-0.182-0.13-0.408-0.131-0.619c-0.005-0.811,0.358-1.147,1.134-0.809
		c0.002,0.053,0.004,0.105,0.006,0.157C8.84,18.324,8.822,18.363,8.832,18.414z M8.587,19.262c0.03,0.043,0.072,0.043,0.092,0.001
		c0.099-0.206,0.091-0.43,0.066-0.646c-0.019-0.171-0.223-0.132-0.329-0.213c-0.047-0.036-0.202-0.002-0.188,0.147
		C8.086,19.036,8.193,19.247,8.587,19.262z"/>
	<path fill-rule="evenodd" clip-rule="evenodd" fill="#444C4A" d="M8.877,18.138c-0.775-0.339-1.139-0.002-1.134,0.809
		c0.001,0.211-0.062,0.438,0.131,0.619c0.063,0.059-0.052,0.113-0.071,0.176c-0.192,0.021-0.241-0.087-0.238-0.255
		c0.005-0.277,0.001-0.556,0.001-0.825c-0.146-0.064-0.121,0.184-0.248,0.102c-0.086-0.056,0.014-0.153-0.052-0.243
		c-0.061-0.083,0.001-0.228,0.059-0.335l0,0.001c0.353,0.112,0.494-0.181,0.655-0.378c0.094-0.116,0.022-0.298-0.146-0.351
		c-0.166-0.052-0.293-0.162-0.436-0.245c-0.225-0.131-0.455-0.288-0.273-0.617c0.031-0.057,0.024-0.135,0.041-0.243
		c0.102,0.21,0.191,0.39,0.275,0.571c0.07,0.15,0.385,0.289,0.544,0.231c0.06-0.021,0.053-0.077,0.055-0.126
		c0.137,0.001,0.25-0.069,0.369-0.121c0.034,0.028,0.038,0.058,0.026,0.103c-0.061,0.214-0.025,0.42,0.201,0.485
		c0.244,0.069,0.254-0.182,0.333-0.325c0.165-0.022,0.211,0.04,0.137,0.19c-0.057,0.095-0.069,0.188,0.01,0.277
		c0.001,0.043,0.002,0.087,0.002,0.131C8.891,17.796,8.945,18.007,8.877,18.138z"/>
	<path fill-rule="evenodd" clip-rule="evenodd" fill="#FFFFFF" d="M13.664,14.763c0.015,0.124-0.013,0.259,0.086,0.363
		c-0.044,0.207,0.066,0.396,0.066,0.598c0,0.32-0.001,0.642-0.001,0.963c-0.047,0.339-0.095,0.678-0.143,1.018
		c-0.141-0.005-0.275-0.003-0.381,0.119c-0.057,0.065-0.146,0.094-0.199-0.001c-0.106-0.188-0.307-0.237-0.477-0.273
		c-0.26-0.057-0.301-0.21-0.313-0.427c-0.025-0.488,0.074-0.963,0.149-1.44c0.013-0.081,0.048-0.153-0.048-0.203
		c0.014-0.038,0.027-0.076,0.041-0.114c0.013-0.022,0.024-0.045,0.037-0.067c0.026-0.134,0.084-0.252,0.176-0.354
		c0.128,0.006,0.211-0.08,0.258-0.171c0.104-0.198,0.271-0.272,0.473-0.308c0.082,0.041,0.14,0.105,0.174,0.189
		c0.018,0.019,0.033,0.037,0.051,0.055C13.629,14.726,13.647,14.744,13.664,14.763z"/>
	<path fill-rule="evenodd" clip-rule="evenodd" fill="#F0F1F0" d="M12.405,15.479c0.096,0.05,0.061,0.122,0.048,0.203
		c-0.075,0.478-0.175,0.952-0.149,1.44c0.012,0.217,0.053,0.37,0.313,0.427c0.17,0.036,0.37,0.086,0.477,0.273
		c0.054,0.095,0.143,0.066,0.199,0.001c0.105-0.122,0.24-0.124,0.381-0.119c-0.097,0.635-0.295,1.236-0.617,1.791
		c-0.144,0.246-0.299,0.541-0.65,0.483c-0.343-0.057-0.393-0.386-0.434-0.65C11.762,18.007,11.92,16.724,12.405,15.479z"/>
	<path fill-rule="evenodd" clip-rule="evenodd" fill="#F0F1F0" d="M13.389,14.464c-0.202,0.035-0.369,0.109-0.473,0.308
		c-0.047,0.091-0.13,0.177-0.258,0.171C12.885,14.474,13.045,14.369,13.389,14.464z"/>
	<path fill-rule="evenodd" clip-rule="evenodd" fill="#797366" d="M13.815,16.687c0-0.321,0.001-0.643,0.001-0.963
		C13.896,16.045,13.897,16.365,13.815,16.687z"/>
	<path fill-rule="evenodd" clip-rule="evenodd" fill="#F0F1F0" d="M13.614,14.708c-0.018-0.018-0.033-0.036-0.051-0.055
		C13.602,14.652,13.621,14.669,13.614,14.708z"/>
	<path fill-rule="evenodd" clip-rule="evenodd" fill="#F0F1F0" d="M12.483,15.297c-0.013,0.022-0.024,0.045-0.037,0.067
		C12.458,15.342,12.47,15.319,12.483,15.297z"/>
	<path fill-rule="evenodd" clip-rule="evenodd" fill="#8C8375" d="M6.815,7.45c0.057-0.071,0.091-0.151,0.091-0.243
		C7.066,7.57,6.947,7.918,6.847,8.268C6.716,7.999,6.852,7.721,6.815,7.45z"/>
	<path fill-rule="evenodd" clip-rule="evenodd" fill="#797366" d="M7.57,7.688C7.542,7.572,7.403,7.448,7.527,7.342
		C7.678,7.211,7.809,7.388,7.95,7.425C7.94,7.451,7.931,7.477,7.921,7.502l0.002-0.001c-0.02,0-0.04,0-0.059,0
		c-0.081,0.04-0.178,0.064-0.184,0.181L7.682,7.68C7.645,7.683,7.608,7.685,7.57,7.688z"/>
	<path fill-rule="evenodd" clip-rule="evenodd" fill="#F0F1F0" d="M7.921,7.502C7.931,7.477,7.94,7.451,7.95,7.425
		C8.021,7.41,8.093,7.396,8.166,7.381C8.291,7.435,8.439,7.44,8.529,7.563C8.322,7.588,8.125,7.512,7.921,7.502z"/>
	<path fill-rule="evenodd" clip-rule="evenodd" fill="#393837" d="M6.83,8.555C6.803,8.727,6.708,8.827,6.582,8.907
		C6.624,8.775,6.618,8.612,6.83,8.555z"/>
	<path fill-rule="evenodd" clip-rule="evenodd" fill="#CDD5D7" d="M7.57,7.688C7.608,7.685,7.645,7.683,7.682,7.68
		C7.67,7.822,7.656,7.836,7.561,7.799C7.564,7.762,7.567,7.725,7.57,7.688z"/>
	<path fill-rule="evenodd" clip-rule="evenodd" fill="#393837" d="M6.425,9.064C6.446,9.05,6.468,9.034,6.49,9.019
		C6.495,9.027,6.5,9.034,6.505,9.042C6.479,9.05,6.453,9.059,6.426,9.066L6.425,9.064z"/>
	<path fill-rule="evenodd" clip-rule="evenodd" fill="#393837" d="M6.426,9.066c-0.005,0.008-0.01,0.017-0.015,0.025
		C6.416,9.083,6.42,9.074,6.425,9.064L6.426,9.066z"/>
	<path fill-rule="evenodd" clip-rule="evenodd" fill="#393837" d="M8.044,7.157c0.02-0.006,0.039-0.013,0.058-0.019
		C8.092,7.174,8.074,7.183,8.044,7.157z"/>
	<path fill-rule="evenodd" clip-rule="evenodd" fill="#1C1B1D" d="M9.11,9.261c-0.027,0.312-0.059,0.66-0.275,0.956
		c-0.251,0.342-0.606,0.388-0.891,0.076C7.417,9.719,7.195,8.861,7.632,8.107c0.264-0.456,0.701-0.495,1.053-0.099
		C8.94,8.295,9.108,8.774,9.11,9.261z M8.403,9.488c0.009,0.008,0.019,0.016,0.029,0.023c-0.008-0.01-0.016-0.019-0.023-0.028
		C8.431,9.2,8.723,8.938,8.473,8.632C8.459,8.615,8.484,8.554,8.506,8.524c0.07-0.091,0.058-0.18-0.038-0.222
		C8.37,8.26,8.302,8.345,8.256,8.423C8.222,8.481,8.203,8.551,8.186,8.617C8.094,8.972,8.194,9.365,8.403,9.488z M8.69,8.377
		c-0.04,0.115-0.077,0.226,0.041,0.3c0.035,0.022,0.085,0.014,0.104-0.026C8.907,8.504,8.737,8.472,8.69,8.377z M8.766,9.492
		C8.76,9.444,8.76,9.385,8.695,9.388c-0.066,0.003-0.098,0.059-0.102,0.12c-0.005,0.063,0.021,0.126,0.09,0.12
		C8.748,9.621,8.764,9.554,8.766,9.492z M8.925,8.83C8.917,8.815,8.911,8.793,8.899,8.79c-0.013-0.003-0.03,0.01-0.046,0.016
		C8.866,8.824,8.877,8.842,8.889,8.86C8.901,8.851,8.913,8.841,8.925,8.83z"/>
	<path fill-rule="evenodd" clip-rule="evenodd" fill="#FFFFFF" d="M9.897,7.873c0.173,0.422,0.299,0.851,0.195,1.314
		c-0.01,0.015-0.019,0.031-0.025,0.047c-0.016,0.02-0.032,0.04-0.048,0.06C9.946,9.364,9.888,9.451,9.785,9.481
		C9.61,9.427,9.499,9.503,9.423,9.655C9.384,9.67,9.345,9.685,9.306,9.699C9.355,9.163,9.26,8.651,9.042,8.161
		C9.268,8.077,9.535,8.066,9.673,7.82c0.04-0.014,0.08-0.029,0.12-0.043C9.829,7.809,9.863,7.841,9.897,7.873z"/>
	<path fill-rule="evenodd" clip-rule="evenodd" fill="#CDD5D7" d="M9.673,7.82C9.535,8.066,9.268,8.077,9.042,8.161
		C8.96,8.104,8.893,8.036,8.879,7.931c0.016-0.016,0.032-0.032,0.048-0.048C8.954,7.894,8.98,7.904,9.005,7.915
		c0.04,0.139,0.121,0.123,0.231,0.076C9.38,7.931,9.5,7.805,9.673,7.82z"/>
	<path fill-rule="evenodd" clip-rule="evenodd" fill="#CDD5D7" d="M7.681,7.682c0.006-0.116,0.103-0.141,0.184-0.181
		c0.001,0.027,0.001,0.054,0.002,0.08C7.823,7.648,7.77,7.697,7.681,7.682z"/>
	<path fill-rule="evenodd" clip-rule="evenodd" fill="#CDD5D7" d="M8.831,7.802C8.747,7.807,8.707,7.767,8.708,7.684l0.011-0.013
		c0.063,0.021,0.103,0.062,0.115,0.128L8.831,7.802z"/>
	<path fill-rule="evenodd" clip-rule="evenodd" fill="#CDD5D7" d="M8.587,7.56c0.02-0.002,0.04-0.001,0.059,0.001
		C8.67,7.598,8.694,7.635,8.718,7.671L8.708,7.684C8.656,7.688,8.612,7.678,8.585,7.629C8.586,7.606,8.586,7.583,8.587,7.56z"/>
	<path fill-rule="evenodd" clip-rule="evenodd" fill="#CDD5D7" d="M8.879,7.931C8.833,7.898,8.821,7.854,8.831,7.802l0.003-0.003
		c0.031,0.028,0.063,0.056,0.095,0.083C8.912,7.898,8.895,7.915,8.879,7.931z"/>
	<path fill-rule="evenodd" clip-rule="evenodd" fill="#F0F1F0" d="M7.867,7.581c0-0.026-0.001-0.053-0.002-0.08
		c0.02,0,0.039,0,0.059,0C7.905,7.527,7.886,7.554,7.867,7.581z"/>
	<path fill-rule="evenodd" clip-rule="evenodd" fill="#F0F1F0" d="M8.587,7.56c0,0.023-0.001,0.046-0.001,0.069
		c-0.02-0.022-0.039-0.045-0.059-0.068C8.546,7.561,8.567,7.561,8.587,7.56z"/>
	<path fill-rule="evenodd" clip-rule="evenodd" fill="#393837" d="M9.722,9.899c0.072-0.194,0.204-0.307,0.419-0.3
		C10.078,9.805,10.065,10.082,9.722,9.899z"/>
	<path fill-rule="evenodd" clip-rule="evenodd" fill="#393837" d="M9.725,10.266c0.312,0.068,0.257,0.265,0.165,0.481
		C9.682,10.635,9.733,10.44,9.725,10.266L9.725,10.266z"/>
	<path fill-rule="evenodd" clip-rule="evenodd" fill="#393837" d="M9.531,10.167c0.015-0.07,0.055-0.119,0.12-0.146
		c0.137,0.047,0.14,0.135,0.074,0.244l0.001,0C9.644,10.266,9.565,10.263,9.531,10.167z"/>
	<path fill-rule="evenodd" clip-rule="evenodd" fill="#B9B8B3" d="M9.423,9.655C9.499,9.503,9.61,9.427,9.785,9.481
		C9.689,9.591,9.56,9.632,9.423,9.655z"/>
	<path fill-rule="evenodd" clip-rule="evenodd" fill="#B9B8B3" d="M10.019,9.295c0.016-0.021,0.032-0.04,0.048-0.06
		C10.073,9.271,10.055,9.291,10.019,9.295z"/>
	<path fill-rule="evenodd" clip-rule="evenodd" fill="#444C4A" d="M7.99,19.987c0.217,0.043,0.434,0.072,0.655,0.059
		c-0.152,0.403-0.458,0.208-0.72,0.186c0-0.021,0-0.043-0.001-0.064C7.946,20.107,7.968,20.047,7.99,19.987z"/>
	<path fill-rule="evenodd" clip-rule="evenodd" fill="#444C4A" d="M6.944,16.3c0.033,0.157,0.038,0.287-0.056,0.392
		c-0.036,0.039-0.12,0.005-0.129-0.026c-0.042-0.144-0.169-0.257-0.149-0.419c0.002-0.021,0.031-0.056,0.049-0.056
		c0.024-0.002,0.061,0.017,0.073,0.038C6.797,16.339,6.824,16.352,6.944,16.3z"/>
	<path fill-rule="evenodd" clip-rule="evenodd" fill="#444C4A" d="M7.326,18.185c-0.081-0.001-0.119-0.054-0.147-0.12
		c-0.036-0.084-0.05-0.169-0.005-0.253c0.021-0.04,0.069-0.042,0.102-0.019c0.076,0.056,0.043,0.143,0.049,0.217
		C7.328,18.068,7.325,18.127,7.326,18.185L7.326,18.185z"/>
	<path fill-rule="evenodd" clip-rule="evenodd" fill="#444C4A" d="M6.312,16.068c0.083,0.184,0.047,0.321,0.047,0.455
		c0,0.056-0.036,0.093-0.095,0.085C6.2,16.6,6.173,16.523,6.205,16.503C6.366,16.399,6.214,16.228,6.312,16.068z"/>
	<path fill-rule="evenodd" clip-rule="evenodd" fill="#444C4A" d="M6.548,19.788c-0.183-0.031-0.373-0.047-0.504-0.205
		C6.227,19.612,6.421,19.616,6.548,19.788z"/>
	<path fill-rule="evenodd" clip-rule="evenodd" fill="#444C4A" d="M6.484,15.544c-0.001-0.078-0.001-0.157-0.002-0.235l0.007-0.008
		c0.188,0.042,0.09,0.197,0.119,0.302c-0.003,0.059-0.007,0.116-0.014,0.232C6.544,15.704,6.514,15.624,6.484,15.544z"/>
	<path fill-rule="evenodd" clip-rule="evenodd" fill="#444C4A" d="M5.887,19.556c-0.077,0.014-0.118-0.027-0.146-0.092
		C5.823,19.442,5.875,19.468,5.887,19.556z"/>
	<path fill-rule="evenodd" clip-rule="evenodd" fill="#444C4A" d="M7.329,20.022c-0.077,0.026-0.118-0.016-0.146-0.079
		C7.257,19.923,7.31,19.941,7.329,20.022z"/>
	<path fill-rule="evenodd" clip-rule="evenodd" fill="#444C4A" d="M6.967,19.913c-0.076,0.018-0.118-0.022-0.148-0.084
		C6.899,19.803,6.952,19.824,6.967,19.913z"/>
	<path fill-rule="evenodd" clip-rule="evenodd" fill="#2E456A" d="M4.68,17.235c0.046,0.337-0.066,0.622-0.301,0.866
		c-0.133,0.138-0.271,0.235-0.471,0.139c-0.026-0.013-0.071-0.037-0.082-0.027c-0.333,0.3-0.34-0.127-0.421-0.227
		c-0.474-0.587-0.293-1.283,0.073-1.647c0.242-0.24,0.856-0.175,1.031,0.121C4.651,16.697,4.716,16.954,4.68,17.235z M3.699,17.163
		c0.006,0.061,0.012,0.12,0.018,0.181c-0.006,0.027-0.026,0.065-0.015,0.08c0.082,0.115,0.231,0.176,0.333,0.129
		c0.303-0.138,0.095-0.445,0.181-0.662c0.02-0.051,0.064-0.112-0.034-0.135c-0.009-0.003-0.02-0.003-0.029-0.003
		c-0.125,0.002-0.229-0.174-0.375-0.023C3.649,16.862,3.646,17.004,3.699,17.163z"/>
	<path fill-rule="evenodd" clip-rule="evenodd" fill="#329D83" d="M3.613,15.128c0.036-0.044,0.072-0.088,0.108-0.132
		c0.258,0.016,0.421,0.11,0.366,0.411c-0.025,0.133-0.001,0.311-0.191,0.305c-0.174-0.006-0.274-0.138-0.284-0.318
		C3.608,15.306,3.613,15.216,3.613,15.128z M3.857,15.257c-0.063,0.012-0.105,0.051-0.109,0.116
		c-0.004,0.075,0.023,0.145,0.111,0.139c0.066-0.005,0.091-0.067,0.092-0.13C3.952,15.32,3.938,15.265,3.857,15.257z"/>
	<path fill-rule="evenodd" clip-rule="evenodd" fill="#8C8375" d="M6.303,6.302C6.285,6.283,6.267,6.265,6.249,6.246
		C6.267,6.265,6.285,6.283,6.303,6.302z"/>
	<path fill-rule="evenodd" clip-rule="evenodd" fill="#B9B8B3" d="M6.789,6.85c-0.002,0.017-0.006,0.034-0.013,0.05
		C6.689,6.82,6.65,6.724,6.666,6.606C6.778,6.651,6.786,6.749,6.789,6.85z"/>
	<path fill-rule="evenodd" clip-rule="evenodd" fill="#9A9589" d="M9.673,7.82C9.5,7.805,9.38,7.931,9.237,7.991
		c-0.11,0.046-0.191,0.063-0.231-0.076C8.967,7.663,9.297,7.616,9.3,7.387c0.315-0.061,0.405,0.164,0.493,0.39
		C9.753,7.791,9.713,7.806,9.673,7.82z"/>
	<path fill-rule="evenodd" clip-rule="evenodd" fill="#8C8375" d="M9.3,7.387C9.297,7.616,8.967,7.663,9.005,7.916
		C8.98,7.904,8.954,7.894,8.927,7.882c-0.03-0.028-0.063-0.056-0.094-0.083C8.821,7.733,8.782,7.691,8.718,7.671
		C8.694,7.635,8.67,7.598,8.646,7.562C8.798,7.257,9.055,7.343,9.3,7.387z"/>
	<path fill-rule="evenodd" clip-rule="evenodd" fill="#B9B8B3" d="M8.758,17.154C8.757,17.239,8.75,17.31,8.68,17.317
		c-0.082,0.009-0.125-0.053-0.125-0.131c0-0.064,0.035-0.115,0.104-0.123C8.741,17.055,8.747,17.12,8.758,17.154z"/>
	<path fill-rule="evenodd" clip-rule="evenodd" fill="#444C4A" d="M6.482,15.309c-0.007-0.011-0.015-0.021-0.022-0.03
		c0.01,0.008,0.02,0.016,0.029,0.022L6.482,15.309z"/>
	<path fill-rule="evenodd" clip-rule="evenodd" fill="#9A9589" d="M3.519,14.54c-0.291-0.187-0.381-0.436-0.292-0.8
		c0.042,0.021,0.085,0.043,0.127,0.065c0.001,0.06,0.002,0.12,0.004,0.18c-0.08,0.083-0.015,0.105,0.053,0.128
		c0.004,0.04,0.009,0.079,0.014,0.118c0.002,0.071,0.041,0.11,0.11,0.121C3.529,14.415,3.524,14.478,3.519,14.54z"/>
	<path fill-rule="evenodd" clip-rule="evenodd" fill="#8C8375" d="M3.353,13.806c-0.042-0.022-0.085-0.044-0.127-0.065
		c0.001-0.055,0.002-0.108,0.004-0.163c0.007-0.047,0.015-0.096,0.023-0.143c0.039,0.003,0.077,0.006,0.115,0.009
		c-0.003,0.052,0.005,0.098,0.06,0.121c0.001,0.083,0.003,0.165,0.005,0.247C3.406,13.81,3.379,13.808,3.353,13.806z"/>
	<path fill-rule="evenodd" clip-rule="evenodd" fill="#8C8375" d="M3.534,14.353c-0.069-0.011-0.108-0.05-0.11-0.121
		C3.506,14.229,3.545,14.268,3.534,14.353z"/>
	<path fill-rule="evenodd" clip-rule="evenodd" fill="#8C8375" d="M3.41,14.113c-0.067-0.022-0.133-0.045-0.053-0.128
		C3.414,14.012,3.423,14.058,3.41,14.113z"/>
	<path fill-rule="evenodd" clip-rule="evenodd" fill="#B9B8B3" d="M8.587,19.262c-0.395-0.015-0.501-0.226-0.359-0.711
		c0.424,0.156,0.424,0.156,0.359,0.622C8.584,19.202,8.587,19.231,8.587,19.262z"/>
	<path fill-rule="evenodd" clip-rule="evenodd" fill="#9A9589" d="M8.587,19.262c0-0.03-0.003-0.06,0-0.089
		c0.064-0.466,0.065-0.466-0.359-0.622c-0.014-0.149,0.141-0.184,0.188-0.147c0.106,0.081,0.311,0.042,0.329,0.213
		c0.024,0.217,0.032,0.44-0.066,0.646C8.659,19.305,8.618,19.305,8.587,19.262z"/>
	<path fill-rule="evenodd" clip-rule="evenodd" fill="#393837" d="M8.403,9.488C8.194,9.365,8.094,8.972,8.186,8.617
		c0.017-0.066,0.037-0.136,0.071-0.194C8.302,8.345,8.37,8.26,8.469,8.303c0.095,0.042,0.108,0.13,0.038,0.222
		C8.484,8.554,8.459,8.615,8.473,8.632C8.723,8.938,8.431,9.2,8.409,9.483L8.403,9.488z"/>
	<path fill-rule="evenodd" clip-rule="evenodd" fill="#393837" d="M8.69,8.377c0.047,0.095,0.217,0.127,0.146,0.274
		c-0.02,0.04-0.069,0.048-0.104,0.026C8.613,8.603,8.65,8.492,8.69,8.377z"/>
	<path fill-rule="evenodd" clip-rule="evenodd" fill="#393837" d="M8.765,9.492C8.764,9.554,8.748,9.621,8.683,9.627
		c-0.069,0.006-0.095-0.058-0.09-0.12c0.004-0.061,0.036-0.117,0.102-0.12C8.76,9.385,8.76,9.444,8.765,9.492z"/>
	<path fill-rule="evenodd" clip-rule="evenodd" fill="#393837" d="M8.925,8.83C8.913,8.841,8.901,8.851,8.889,8.86
		C8.877,8.842,8.866,8.824,8.853,8.805C8.869,8.799,8.886,8.786,8.899,8.79C8.911,8.793,8.917,8.815,8.925,8.83z"/>
	<path fill-rule="evenodd" clip-rule="evenodd" fill="#393837" d="M8.409,9.483c0.007,0.009,0.015,0.019,0.023,0.028
		c-0.01-0.008-0.02-0.016-0.029-0.023L8.409,9.483z"/>
	<path fill-rule="evenodd" clip-rule="evenodd" fill="#9A9589" d="M3.699,17.163c-0.053-0.159-0.05-0.301,0.079-0.434
		c0.145-0.15,0.25,0.025,0.375,0.023c0.01,0,0.02,0,0.029,0.003c0.098,0.022,0.053,0.084,0.034,0.135
		c-0.086,0.217,0.123,0.524-0.181,0.662c-0.103,0.047-0.251-0.014-0.333-0.129c-0.011-0.015,0.009-0.053,0.015-0.08
		c0.128,0.065,0.272,0.138,0.352-0.044c0.049-0.112,0.078-0.286-0.065-0.344C3.851,16.896,3.753,17.021,3.699,17.163z"/>
	<path fill-rule="evenodd" clip-rule="evenodd" fill="#B9B8B3" d="M3.699,17.163c0.054-0.142,0.152-0.268,0.304-0.207
		c0.143,0.058,0.114,0.231,0.065,0.344c-0.079,0.182-0.223,0.109-0.352,0.044C3.71,17.283,3.705,17.224,3.699,17.163z"/>
	<path fill-rule="evenodd" clip-rule="evenodd" fill="#B9B8B3" d="M3.857,15.257c0.081,0.008,0.095,0.063,0.094,0.125
		c0,0.063-0.025,0.125-0.092,0.13c-0.088,0.006-0.115-0.063-0.111-0.139C3.751,15.308,3.793,15.269,3.857,15.257z"/>
</g>
</svg>
