<?xml version="1.0" encoding="utf-8"?>
<!-- Generator: Adobe Illustrator 16.0.0, SVG Export Plug-In . SVG Version: 6.00 Build 0)  -->
<!DOCTYPE svg PUBLIC "-//W3C//DTD SVG 1.1//EN" "http://www.w3.org/Graphics/SVG/1.1/DTD/svg11.dtd">
<svg version="1.1" id="레이어_1" xmlns="http://www.w3.org/2000/svg" xmlns:xlink="http://www.w3.org/1999/xlink" x="0px"
	 y="0px" width="332.414px" height="406.896px" viewBox="0 0 332.414 406.896" enable-background="new 0 0 332.414 406.896"
	 xml:space="preserve">
<g>
	<path display="none" fill-rule="evenodd" clip-rule="evenodd" fill="#FFFFFF" d="M156.395,436.684
		c-83.813,0-167.626-0.023-251.438,0.086c-3.292,0.004-4.164-0.479-4.161-4.025c0.117-167.959,0.119-335.917-0.008-503.876
		c-0.003-3.783,0.993-4.269,4.423-4.267c167.792,0.094,335.585,0.094,503.377-0.001c3.441-0.002,4.422,0.5,4.419,4.272
		C412.879,96.664,412.88,264.457,413,432.248c0.003,3.898-1.036,4.527-4.667,4.523C324.354,436.658,240.374,436.684,156.395,436.684
		z M111.512,167.243c-0.553,0.465-1.106,0.931-1.659,1.396c-4.646,4.404-9.612,8.512-13.942,14.755
		c4.986-2.314,9.089-0.826,13.155-0.949c4.279,0.801,8.558,1.603,12.836,2.404c1.801,4.41,4.988,6.465,9.832,6.956
		c5.212,0.528,11.174,0.319,15.34,3.257c10.698,7.544,23.397,9.811,35.052,14.752c3.729,1.58,7.773,1.446,11.648-0.074
		c3.32,1.441,6.643,2.881,9.964,4.322c2.736,1.861,5.472,3.724,8.208,5.586c2.627,3.041,5.254,6.084,7.881,9.125
		c3.498,7.387,7.534,14.586,8.043,23.018c0.036,0.27,0.138,0.51,0.305,0.724c0.165,1.063,0.331,2.125,0.496,3.188
		c-0.103,0.104-0.312,0.25-0.29,0.306c0.094,0.238,0.255,0.45,0.392,0.671c0.238,2.66,0.476,5.321,0.714,7.982
		c-0.767-0.225-1.948-0.209-2.236-0.709c-3.234-5.613-7.817-10.234-11.281-15.719c-3.523-5.58-8.283-10.16-14.638-12.996
		c-4.756-2.121-9.932-1.817-14.758-4.012c-13.254-6.029-26.667-11.711-40.928-15.248c-14.585-3.619-28.792-8.82-43.778-10.747
		c-7.338-0.944-15.094-2.649-20.095,5.479c-0.822,1.335-2.301,1.841-3.863,1.959c-0.144-0.722-0.287-1.444-0.431-2.167
		c-0.129,0.085-0.337,0.145-0.374,0.26c-0.273,0.846,0.027,1.484,0.777,1.931c-0.039,3.643-1.521,7.155-0.981,10.851
		c0.136,0.932-0.319,2.205,0.913,2.574c1.193,0.358,1.607-0.803,2.169-1.603c2.615-3.719,5.848-6.858,10.736-5.72
		c6.331,1.477,11.654,5.492,17.623,7.957c0.665,0.275,1.353,1.088,1.021,2.047c-0.35,1.014-1.322,0.775-2.11,0.871
		c-2.581,0.312-4.879-0.756-7.267-1.444c-12.664-3.653-15.636-2.396-20.41,8.517c-0.091,0.207-0.535,0.259-0.816,0.382
		c-1.627-0.507-0.022-2.688-1.781-3.306c-0.051,1.091-0.098,2.076-0.144,3.063c-2.121-3.13-0.002-6.855-1.679-10.891
		c0,11.73,0,22.654,0,33.578c0.269,0.004,0.537,0.008,0.806,0.012c0-4.621,0-9.244,0-13.865c1.999,4.743,0.413,9.717,0.942,14.553
		c0.181,1.656-0.792,3.814,1.843,4.471c0.724,5.283-1.036,10.729,1.045,15.922c0.06,2.004,0.12,4.008,0.179,6.011
		c-1.342,0.863-0.923,1.546,0.22,2.155c1.031,7.922,1.256,15.957,3.291,23.741c-3.457,1.894-5.399,4.757-5.577,8.739
		c-0.441,9.898,3.001,18.571,10.278,24.904c9.919,8.631,21.659,14.832,33.584,20.117c15.899,7.047,32.927,11.068,49.61,15.916
		c5.839,1.695,12.037,3.221,18.033,3.086c11.291-0.252,22.135-3.654,32.399-8.24c8.069-3.604,15.547-6.887,25.096-5.746
		c11.006,1.314,20.541-7.297,25.753-19.967c7.255-17.641,12.055-36.174,16.837-54.622c1.174-4.53,1.954-10.125-2.649-14.11
		c-0.012-1.295-0.024-2.59-0.037-3.884c0.02-0.37,0.039-0.739,0.058-1.109c0.491-7.511,1.135-15.01,1.775-22.509
		c0.468-5.48,1.263-11.175-0.801-16.619c0.974-2.094,1.869-4.151,1.752-6.597c-0.439-9.224-0.526-18.47-1.214-27.673
		c-0.287-3.85,0.202-7.926-1.759-11.561c-0.148-0.642-0.297-1.283-0.445-1.924c0.38-1.883-0.118-3.529-1.331-4.986
		c-0.093-0.373-0.186-0.746-0.278-1.119c0.158-0.773,0.091-1.459-0.718-1.859c-1.033-3.374-2.426-6.561-4.817-9.226
		c-1.864-4.245-5.226-7.239-8.972-9.577c-7.979-4.979-16.516-8.916-25.277-12.344c-0.014-2.165,0.057-4.333-0.056-6.493
		c-0.345-6.607,1.05-13.261-0.54-19.833c0.203-17.88,0.405-35.76,0.608-53.64c0.233-1.164,0.16-2.246-0.831-3.079
		c0.006-0.303-0.038-0.6-0.131-0.889c-1.486-5.027-5.819-5.805-10.056-6.816c-10.118-2.416-20.212-4.936-30.335-7.333
		c-3.227-0.764-4.509-2.452-3.328-5.694c0.094-0.219,0.188-0.438,0.281-0.658c-0.2,0.114-0.401,0.229-0.603,0.343
		c-6.13-0.996-12.297-7.588-18.392,0.114c-0.122,0.154-0.627,0.004-0.953-0.003c0.568-1.261,0.813-2.49-0.314-3.608
		c-1.8-1.786-11.102-3.001-13.853-1.804c-0.163-0.605-0.181-1.643-0.509-1.754c-7.871-2.648-15.999-3.111-24.221-2.649
		c-0.938,0.053-1.481,0.59-1.8,1.419c-3.917,1.878-4.391,5.421-4.629,9.206c-0.459,7.291,1.777,14.572,0.017,21.855
		c0.002-0.481-0.374-1.335,0.717-0.743c0.093,0.051,0.131,0.284,0.123,0.428c-0.16,2.547-0.615,5.092-0.006,7.64
		c-0.003,1.009-0.006,2.019-0.01,3.028c-0.421,2.324-0.429,4.645,0.046,6.963c0.063,3.664,0.126,7.327,0.189,10.991
		c0.002,0.909,0.005,1.818,0.008,2.727c0.05,0.565,0.1,1.131,0.149,1.696c0.107,0.498,0.215,0.995,0.322,1.492
		c-2.161-0.651-4.347-1.23-6.474-1.979c-1.41-0.496-2.783-1.417-3.366,0.911l-0.104,0.173c-1.335,4.277-0.968,8.655-0.771,13.022
		c-1.238,6.609,3.479,4.962,6.964,5.023c-2.024,0.913-0.91,2.536-0.887,3.913c-8.975-3.499-13.813-1.211-17.067,8.068
		c-1.091,0.054-2.021,0.476-2.277,1.585c-1.634,7.074-3.018,14.103-0.004,21.252c1.181,2.801,2.438,5.903,0.246,8.938
		C112.462,166.061,111.986,166.651,111.512,167.243z M79.297,302.381c-0.046,0.135-0.125,0.271-0.121,0.405
		c0.001,0.046,0.206,0.087,0.317,0.131c0.045-0.136,0.124-0.271,0.119-0.405C79.611,302.465,79.408,302.424,79.297,302.381z"/>
	<path fill-rule="evenodd" clip-rule="evenodd" fill="#1B1919" d="M135.964,80.695c0.003-1.01,0.007-2.019,0.01-3.028
		c1.602-1.779,0.598-3.968,0.934-5.946c6.7-9.347,13.399-18.694,20.099-28.042c0.313-0.019,0.618,0.02,0.917,0.115
		c0,5.655,0,11.31,0,18.381c4.465-5.721,7.902-10.127,11.637-14.913c1.08,2.842-0.058,5.079,1.284,7.314
		c1.852-2.233,3.427-4.134,5.002-6.034c19.722,4.979,39.435,9.995,59.175,14.898c3.101,0.77,5.37,2.409,7.096,4.979
		c0.517,3.099,0.851,6.19,0.843,9.361c-0.089,34.121-0.124,68.243-0.043,102.365c0.008,3.09-0.346,6.63,3.03,8.693
		c-0.036,1.785-0.372,3.658,2.312,3.959c1.791,0.201,1.525,1.801,1.653,3.056c-4.878,4.776-9.497,9.84-15.196,13.702
		c-0.942-0.234-1.887-0.468-2.83-0.701c-0.117-2.273,0.232-4.536-0.771-6.785c-2.485-5.567-5.388-6.059-9.246-1.253
		c-0.896,1.116-1.771,1.892-3.208,1.929c-1.715-0.872-3.87-0.604-5.358-2.064c-3.36-2.465-7.283-3.746-11.118-5.174
		c-6.376-2.374-6.382-2.309-1.937-7.049c0.663-0.707,1.135-1.595,1.693-2.395c0.49,0.063,0.98,0.121,1.471,0.18
		c2.396,1.766,3.922-0.631,5.637-1.401c1.578-0.71,3.091-1.448,3.522,0.568c0.815,3.811,3.714,6.641,4.439,10.421
		c0.226,1.459-0.304,3.129,1.23,4.896c1.605-5.375,1.835-10.241,1.487-15.17c1.122-14.942,2.34-29.88,2.214-44.884
		c0.227-1.656,0.452-3.313,0.679-4.97c0.047-0.679,0.094-1.358,0.141-2.037c-0.421-0.782-0.842-1.563-1.263-2.345
		c1.085-3.556,4.162-4.889,6.859-3.501c3.585,1.844,4.697,10.698,2.523,15.273c-0.707,1.489-1.424,2.788,0.142,3.909
		c1.892,1.354,2.978-1.382,4.968-1.196c1.562,0.146,0.841-1.754,0.468-2.729c-2.16-5.647-2.203-11.22,0.069-16.878
		c0.956-2.379,0.446-4.127-2.708-3.018c-4.182,1.471-6.715-0.291-8.123-4.407c-3.028,3.758-8.952,5.62-5.803,11.886
		c-6.571-1.059-12.296-4.912-18.937-5.742c-2.892-1.051-5.406-3.582-8.901-2.274c-0.389-0.373-0.779-0.747-1.169-1.12
		c-0.292-1.287-0.634-2.564-0.868-3.862c-0.809-4.478,1.635-8.384,2.444-12.57c0.484-2.503,3.493-0.147,5.322-1.133
		c1.529-0.824,3.164,0.601,4.46,1.612c1.587,1.238,2.958,1.307,4.376-0.187c1.731-1.826,1.632-4.034,0.862-6.065
		c-0.67-1.77-2.12-3.153-4.32-2.197c-1.575,0.685-2.48-0.273-3.569-1.008c-2.062-1.393-4.486-1.854-6.737-2.688
		c-3.377-1.252-7.355,0.424-9.854-1.609c-2.798-2.274-5.708-2.868-8.911-3.651c-3.231-0.791-5.539-0.159-6.009,3.115
		c-0.444,3.101,0.325,6.446,4.437,6.258c3.322-0.151,5.98,2.517,9.525,1.485c1.424-0.415,3.076,1.245,2.837,3.316
		c-0.678,5.846,1.335,11.528,0.995,17.347c-4.286-1.272-8.55-2.627-12.864-3.795c-5.664-1.533-11.001-4.446-17.108-4.149
		c-0.51-0.39-1.02-0.779-1.529-1.168c-2.506-1.001-5.009-2.011-7.521-3.001c-0.956-0.376-2.413-0.447-1.082-2.027
		c2.196,0.114,3.552-1.248,3.751-3.09c0.232-2.151-2.062-2.042-3.428-2.768c-2.802-1.49-5.469-3.825-8.587-0.55
		c-0.125,0.132-0.859-0.315-1.31-0.493c-0.063-3.664-0.126-7.327-0.189-10.991C137.315,85.328,137.293,83.007,135.964,80.695z
		 M178.957,76.063c-0.017,6.673,2.331,8.905,10.957,10.42c4.326,0.76,6.59-1.086,6.766-5.519c0.238-5.956-2.665-9.171-9.852-10.912
		C181.212,68.69,178.971,70.402,178.957,76.063z M233.187,180.578c0.266-0.195,0.494-0.411,0.762-0.554
		c1.026-0.548,3.054,2.464,3.372-1.345c0.248-2.98-0.454-4.687-2.889-6.05c-2.503-1.402-2.402,1.32-3.567,2.061
		c-2.978,1.896,0.652,3.903-0.393,6.107c-1.916,4.035,1.345,5.115,4.443,5.778c0.922,0.196,2.093,0.319,2.603-0.83
		c0.528-1.192-0.328-1.769-1.235-2.312C235.065,182.704,233.357,182.469,233.187,180.578z M206.937,191.082
		c0.158,1.355,0.028,3.143,2.076,3.199c1.377,0.039,1.77-1.253,1.804-2.477c0.053-1.882-0.859-3.441-2.666-3.541
		C206.526,188.174,207.156,189.949,206.937,191.082z"/>
	<path fill-rule="evenodd" clip-rule="evenodd" fill="#F3F3F3" d="M78.745,264.74c-2.633-0.658-1.659-2.816-1.84-4.473
		c-0.529-4.836,1.057-9.81-0.942-14.553c-0.505-3.023,0.468-5.9,0.874-8.834c0.046-0.986,0.093-1.972,0.144-3.063
		c1.759,0.617,0.154,2.799,1.782,3.307c0.28-0.124,0.724-0.176,0.815-0.383c4.773-10.912,7.746-12.17,20.41-8.517
		c2.388,0.688,4.686,1.756,7.267,1.444c0.789-0.096,1.761,0.143,2.11-0.871c0.332-0.959-0.356-1.771-1.021-2.047
		c-5.969-2.465-11.292-6.48-17.623-7.957c-4.888-1.139-8.121,2.001-10.736,5.72c-0.563,0.8-0.976,1.961-2.169,1.603
		c-1.232-0.369-0.776-1.643-0.913-2.574c-0.541-3.695,0.942-7.208,0.981-10.851l0.028-0.023c1.562-0.118,3.041-0.624,3.863-1.959
		c5-8.128,12.756-6.423,20.095-5.479c14.986,1.927,29.193,7.128,43.778,10.747c14.261,3.537,27.674,9.219,40.928,15.248
		c4.826,2.194,10.002,1.891,14.758,4.012c6.354,2.836,11.114,7.416,14.638,12.996c3.464,5.484,8.047,10.105,11.281,15.719
		c0.288,0.5,1.47,0.484,2.236,0.709c0.024,0.685,0.05,1.369,0.074,2.054c-1.42-0.033-2.659,0.177-2.6,2.026
		c0.021,0.663,0.211,1.578,0.896,1.439c0.672-0.136,1.207-0.943,1.803-1.457c0.053,1.66,0.105,3.319,0.158,4.979
		c-3.506,2.73-2.102,5.363,0.157,7.979c0.11,1.025,0.221,2.049,0.331,3.073c-0.361,1.247-0.539,2.485,0.159,3.687
		c0.002,1.826,0.003,3.652,0.006,5.475c-0.47,12.043-0.864,24.094-1.437,36.136c-0.393,8.238-0.671,16.503-2.529,24.597
		c-3.542,6.346-8.785,12.309-15.66,12.604c-11.068,0.475-22.297,5.109-33.281-0.033c1.012-0.365,2.195-0.793,3.379-1.219
		c9.394-0.525,13.566-4.162,15.238-13.592c1.154-6.512,0.986-13.11,0.861-19.693c3.313-2.415,2.128-5.23,0.721-8.067
		c0.188-1.415,0.303-2.816-0.751-3.998c0.573-1.472,0.595-2.954,0.087-4.446c0.724-2.628,0.777-5.254-0.02-7.877
		c0.022-0.492,0.045-0.984,0.066-1.476c0.299-0.681,0.597-1.362,0.895-2.044c1.456-4.705,0.719-9.549,0.535-14.276
		c-0.389-9.999-3.232-18.776-10.991-26.216c-4.631-4.44-10.333-5.787-15.418-8.12c-24.787-11.37-50.411-20.71-77.076-26.757
		c-4.095-0.93-9.249-1.381-11.421,4.324c-1.917,2.525-2.947,5.371-3.845,8.436c-1.933,6.594,0.01,13.171-0.553,19.725
		C79.097,262.861,78.921,263.801,78.745,264.74z"/>
	<path fill-rule="evenodd" clip-rule="evenodd" fill="#EFB33B" d="M229.562,266.716c-0.024-0.685-0.05-1.369-0.074-2.054
		c-0.238-2.661-0.476-5.322-0.714-7.982c-0.034-0.326-0.067-0.651-0.102-0.977c-0.165-1.063-0.331-2.126-0.495-3.188
		c0.002,0,0.077-0.428,0.077-0.428l-0.383-0.297c-0.509-8.432-4.545-15.631-8.043-23.018c3.104-7.845,9.318-13.279,14.886-19.216
		c5.701-3.863,10.32-8.927,15.199-13.704c2.345-2.087,4.69-4.174,7.035-6.26c6.799-6.016,6.886-9.365,0.443-15.902
		c-0.575-0.584-1.039-1.277-1.556-1.919c3.493-0.433,4.982,2.04,6.339,4.523c0.937,1.713,1.528,2.25,3.713,1.184
		c4.102-2.002,8.451-3.664,13.145-3.901c2.392,2.665,3.784,5.852,4.817,9.226c0.24,0.619,0.479,1.238,0.718,1.859
		c0.093,0.373,0.186,0.746,0.278,1.119c0.238,1.717-0.771,3.767,1.331,4.986c0.148,0.641,0.297,1.282,0.446,1.924
		c-4.141,2.893-5.423,7.745-7.905,11.745c-5.804,9.351-11.948,18.712-8.205,30.681c0.16,0.512-0.386,1.242-0.603,1.871
		c-4.352-1.095-7.726,0.536-10.7,3.635c-2.543,2.65-4.779,5.496-6.624,8.669c-7.068,12.155-11.23,25.415-14.749,38.91
		c-0.782,3.001-2.022,5.521-4.673,7.335c-2.351,1.608-2.271-0.302-2.693-1.619c-0.002-1.826-0.003-3.652-0.004-5.475
		c0.407-1.248,0.487-2.484-0.16-3.69c-0.11-1.024-0.221-2.048-0.331-3.073c-0.053-2.658-0.105-5.318-0.157-7.979
		c-0.053-1.659-0.105-3.318-0.158-4.979C229.627,268.055,229.594,267.386,229.562,266.716z"/>
	<path fill-rule="evenodd" clip-rule="evenodd" fill="#D8D8D7" d="M180.943,366c-1.184,0.426-2.367,0.854-3.379,1.219
		c10.984,5.143,22.213,0.508,33.281,0.033c6.875-0.295,12.118-6.258,15.664-12.604c3.215-0.668,2.695-4.531,5.071-5.912
		c2.037,4.781,4.559,9.057,10.343,9.938c0.817,0.598,1.655,1.061,2.657,0.385c0.808,0.637,1.713,0.596,2.644,0.379
		c5.601,0.699,9.622-1.908,12.57-6.322c6.607-9.891,11.081-20.675,13.097-32.436c0.092-0.074,0.256-0.144,0.26-0.221
		c0.011-0.212-0.047-0.426-0.078-0.64c0.267-1.042,0.532-2.083,0.798-3.124c2.325-6.48,2.279-13.417,3.859-20.041
		c0.977-1.281,3.57-2.475,0.22-3.994c0.036-0.658,0.072-1.316,0.108-1.975c0.871-0.621,1-1.281,0.1-1.99
		c0.065-3.326,0.132-6.651,0.197-9.977c0.197-0.781,0.455-1.551,0.584-2.344c1.33-8.217-3.402-16.812,1.525-24.854
		c0.244-0.398-0.573-1.448-0.896-2.195c2.758-3.601,5.517-7.201,8.274-10.803c2.063,5.444,1.269,11.139,0.801,16.619
		c-0.641,7.499-1.284,14.998-1.774,22.51c-0.66,0.336-0.699,0.704-0.059,1.108c0.013,1.294,0.025,2.589,0.038,3.884h0.036
		c-0.306,0.344-0.611,0.687-0.918,1.029c-1.204,1.178-2.391,2.189-1.012,4.18c1.859,2.684,1.311,5.841,0.453,8.623
		c-5.079,16.469-9.384,33.178-15.61,49.291c-5.16,13.35-15.696,19.93-29.399,18.025c-1.657-0.23-3.255,0.125-4.908,0.5
		c-8.302,1.885-15.959,5.639-24.059,8.094c-7.449,2.258-14.992,5.266-22.684,4.945c-6.615-0.273-13.355-1.674-19.978-3.352
		c-22.701-5.752-45.139-11.92-64.878-25.26c-8.647-5.844-16.923-11.813-19.476-22.838c-0.58-2.504-0.159-4.209,2.199-5.309
		c3.582,5.892,7.778,11.15,14.352,13.968c11.721,6.403,23.822,12.021,36.162,17.101c11.921,4.91,24.174,8.861,36.704,11.928
		C176.203,364.381,178.572,365.189,180.943,366z"/>
	<path fill-rule="evenodd" clip-rule="evenodd" fill="#F3F3F3" d="M86.615,320.574c-2.357,1.1-2.778,2.805-2.199,5.309
		c2.553,11.025,10.829,16.994,19.476,22.838c19.739,13.34,42.178,19.508,64.878,25.26c6.622,1.678,13.362,3.078,19.978,3.352
		c7.691,0.32,15.234-2.688,22.684-4.945c8.1-2.455,15.757-6.209,24.059-8.094c1.653-0.375,3.251-0.73,4.908-0.5
		c13.703,1.904,24.239-4.676,29.399-18.025c6.227-16.113,10.531-32.822,15.61-49.291c0.857-2.782,1.406-5.939-0.453-8.623
		c-1.379-1.99-0.192-3.002,1.012-4.18c0.306-0.343,0.612-0.686,0.918-1.029h-0.036c4.603,3.985,3.822,9.58,2.648,14.11
		c-4.782,18.448-9.582,36.981-16.837,54.622c-5.212,12.67-14.747,21.281-25.753,19.967c-9.549-1.141-17.026,2.143-25.096,5.746
		c-10.265,4.586-21.108,7.988-32.399,8.24c-5.996,0.135-12.194-1.391-18.033-3.086c-16.684-4.848-33.711-8.869-49.61-15.916
		c-11.925-5.285-23.666-11.486-33.584-20.117c-7.277-6.333-10.719-15.006-10.278-24.904c0.178-3.982,2.12-6.846,5.576-8.739
		C84.526,315.236,85.571,317.905,86.615,320.574z"/>
	<path fill-rule="evenodd" clip-rule="evenodd" fill="#DC6718" d="M201.942,186.061c-0.56,0.804-1.031,1.691-1.694,2.398
		c-4.445,4.74-4.439,4.675,1.937,7.049c3.835,1.428,7.758,2.709,11.115,5.174c-4.659,1.851-9.886,0.881-14.507,2.941
		c-0.968,0.432-2.684-0.012-2.525,1.688c0.158,1.709,1.708,1.413,2.735,1.048c2.503-0.889,4.804-0.313,6.325,1.513
		c2.034,2.443-0.879,4.148-1.589,6.191c-3.321-1.441-6.644-2.881-9.964-4.322c-22.717-11.88-46.701-20.1-71.873-24.891
		c-4.279-0.802-8.558-1.604-12.837-2.404c2.679-5.478,5.613-6.222,9.47-2.021c1.874,2.041,3.96,1.646,5.875,1.171
		c2.423-0.601,1.362-2.943,1.464-4.637c4.563,1.336,8.454-0.164,12.058-2.851c0.615,0.123,1.235,0.24,1.854,0.356
		c-1.325,2.643,1.05,4.1,2.439,4.45c5.453,1.375,11.028,3.116,16.667,0.589c3.333,0.8,6.666,1.599,9.998,2.399
		c1.189,1.932,2.381,3.865,3.572,5.798c0.756,1.139,1.511,2.276,2.266,3.415c-6.657-0.418-13.371-0.207-19.982-1.857
		c6.777,3.066,13.678,5.613,20.541,8.261c3.172,1.224,2.396-1.948,3.528-2.986c7.421,3.175,12.183,1.784,16.233-4.743l-0.088-0.027
		c2.137-1.451,2.696-3.709,3.096-6.049l-0.121,0.055c0.78-0.431,0.878-1.175,0.898-1.954c0.273-0.07,0.47-0.234,0.587-0.491
		C201.267,182.367,200.945,184.564,201.942,186.061z"/>
	<path fill-rule="evenodd" clip-rule="evenodd" fill="#F1BF64" d="M287.843,238.523c-2.758,3.602-5.517,7.202-8.272,10.805
		c-2.721-0.222-2.55-2.784-3.255-4.397c-1.438-3.286-3.355-6.028-6.405-7.94c0.217-0.629,0.763-1.359,0.603-1.871
		c-3.743-11.969,2.401-21.33,8.205-30.681c2.482-4,3.765-8.853,7.905-11.745c1.96,3.635,1.471,7.711,1.758,11.561
		c0.688,9.203,0.774,18.449,1.214,27.673C289.712,234.372,288.816,236.43,287.843,238.523z"/>
	<path fill-rule="evenodd" clip-rule="evenodd" fill="#F1BF64" d="M279.032,173.579c-4.693,0.237-9.043,1.899-13.145,3.901
		c-2.185,1.066-2.776,0.529-3.713-1.184c-1.356-2.484-2.846-4.957-6.338-4.524c0,0,0.002-0.037,0.002-0.037
		c-2.245-4.544-6.307-5.858-10.941-6.156c-0.234-0.012-0.465-0.05-0.691-0.114c-0.05-4.579-0.1-9.157-0.149-13.735
		c0.245-0.001,0.486-0.026,0.727-0.073c8.762,3.429,17.298,7.365,25.277,12.344C273.807,166.34,277.168,169.334,279.032,173.579z"/>
	<path fill-rule="evenodd" clip-rule="evenodd" fill="#F3F3F3" d="M121.903,184.85c25.171,4.791,49.156,13.011,71.873,24.891
		c-3.875,1.521-7.92,1.654-11.648,0.074c-11.654-4.941-24.354-7.208-35.052-14.752c-4.166-2.938-10.128-2.729-15.34-3.257
		C126.891,191.314,123.704,189.26,121.903,184.85z"/>
	<path fill-rule="evenodd" clip-rule="evenodd" fill="#329D83" d="M157.007,43.679c-6.7,9.347-13.399,18.694-20.099,28.042
		c-0.96,0.017-1.754-0.181-1.768-1.379c1.76-7.284-0.477-14.565-0.017-21.855c0.239-3.784,0.712-7.328,4.629-9.205
		C145.615,40.308,151.431,41.521,157.007,43.679z"/>
	<path fill-rule="evenodd" clip-rule="evenodd" fill="#B8B8B3" d="M157.007,43.679c-5.576-2.158-11.392-3.371-17.255-4.397
		c0.32-0.83,0.863-1.367,1.801-1.42c8.222-0.462,16.35,0,24.221,2.649c0.328,0.111,0.346,1.148,0.518,1.744
		c-2.455,2.113-0.217,2.25,1.16,2.568c4.322,0.997,8.664,1.91,12.998,2.854c0.326,0.008,0.831,0.157,0.953,0.003
		c6.095-7.703,12.262-1.11,18.392-0.114l0.327,0.321c-1.187,3.237,0.096,4.925,3.322,5.689c10.123,2.397,20.217,4.917,30.335,7.333
		c4.236,1.012,8.569,1.789,10.056,6.816c-0.572,0.232-1.145,0.463-1.717,0.695c-1.726-2.57-3.995-4.209-7.096-4.979
		c-19.74-4.903-39.453-9.919-59.175-14.898c-5.8-2.239-11.876-3.441-17.923-4.749C157.625,43.699,157.319,43.661,157.007,43.679z
		 M188.653,48.657c2.145,1.552,3.772,1.183,5.448,0.501C192.523,48.711,191.193,46.951,188.653,48.657z M187.39,47.226
		c-0.247-0.113-0.486-0.252-0.745-0.318c-0.063-0.016-0.187,0.209-0.282,0.324c0.247,0.114,0.487,0.254,0.747,0.323
		C187.17,47.571,187.294,47.343,187.39,47.226z"/>
	<path fill-rule="evenodd" clip-rule="evenodd" fill="#2E3D5D" d="M154.375,110.578c0.509,0.39,1.019,0.779,1.529,1.168
		c1.669,2.114,4.373,1.687,6.521,2.633c2.229,0.98,3.846,2.054,1.633,4.565c-3.641,1.238-7.262,2.492-7.137,7.371
		c-1.287-1.27-1.296-3.451-3.107-4.345c-1.304-1.436-2.646-2.839-3.905-4.314c-3.742-4.385-9.417-4.728-13.906-0.805
		c-1.366,1.406-2.526,2.943-3.078,4.864c-3.485-0.061-8.202,1.586-6.964-5.022c0.527-4.324,3.496-8.505,0.771-13.023
		c0,0,0.104-0.173,0.104-0.173c7.769,1.546,15.085,4.596,22.666,6.754C150.977,110.67,152.638,112.649,154.375,110.578z"/>
	<path fill-rule="evenodd" clip-rule="evenodd" fill="#B8B8B3" d="M114.974,133.696c3.253-9.28,8.091-11.567,17.066-8.069
		c0,0-0.143-0.032-0.143-0.032c0.51,1.168,1.489,1.229,2.555,1.082c0.791,0.652,1.583,1.304,2.374,1.957
		c-0.33,1.328-0.021,2.452,1.064,3.327c-0.029,0.8,0.181,1.452,1.049,1.697l-0.004,0c-0.067,0.872,0.118,1.618,1.007,2.012
		l-0.013-0.039c0.052,1.294,0.288,2.498,1.542,3.262c0.889-1.318-0.459-2.215-0.466-3.318c4.536,0.67,6.738-3.616,10.358-4.921
		c0.911-0.328,1.731-1.201,2.699-0.594c1.038,0.651,0.626,1.674,0.33,2.653c-0.281,0.929-0.36,1.918-0.528,2.881
		c-2.362,2.008-4.724,4.016-7.086,6.024c-1.27,0.021-2.54,0.041-3.81,0.062c-1.245,0.771-1.089,1.433,0.157,2.009
		c0.332,0.009,0.664,0.019,0.996,0.03c0.194,4.292,0.387,8.584,0.581,12.876c-0.37,1.715-0.74,3.43-1.11,5.144
		c-2.502,1.331-2.66,3.641-2.535,6.069c-1.778,0.49-3.02,2.473-5.192,1.864c2.607-3.806,3.904-8.047,4.197-12.622
		c0.104-0.431,0.209-0.862,0.314-1.293c0.036-0.674,0.072-1.348,0.107-2.022c0.141-6.447-1.159-12.524-4.637-18.042
		c-6.375-10.31-13.241-10.444-19.601-0.389c-0.083,0.131-0.253,0.207-0.382,0.308C115.566,134.972,115.27,134.334,114.974,133.696z"
		/>
	<path fill-rule="evenodd" clip-rule="evenodd" fill="#EFB33B" d="M203.739,214.063c0.71-2.043,3.623-3.748,1.589-6.191
		c-1.521-1.826-3.822-2.401-6.325-1.513c-1.027,0.365-2.577,0.661-2.735-1.048c-0.158-1.699,1.558-1.256,2.525-1.688
		c4.621-2.061,9.848-1.091,14.507-2.941c1.491,1.461,3.646,1.192,5.362,2.064c2.782,1.645,5.563,3.288,8.345,4.932
		c-2.053-0.014-3.258,1.521-4.45,2.756c-3.275,3.389-6.609,6.675-10.609,9.215C209.211,217.786,206.476,215.924,203.739,214.063z"/>
	<path fill-rule="evenodd" clip-rule="evenodd" fill="#797366" d="M86.615,320.574c-1.044-2.669-2.088-5.338-3.132-8.007
		c-2.034-7.784-2.259-15.819-3.29-23.741c0.437-0.771,0.41-1.494-0.221-2.155c-0.06-2.003-0.12-4.007-0.179-6.011
		c0.435-0.367,0.87-0.733,1.304-1.1c0.639-0.063,1.542,0.123,1.873-0.229c1.822-1.938,0.338-13.354-1.925-15.547
		c-0.506-0.702-0.425-1.962-1.772-1.863c0.563-6.554-1.38-13.131,0.553-19.725c0.898-3.064,1.928-5.91,3.846-8.432
		c-0.834,7.035-3.099,13.798-2.926,21.069c0.106,4.46,1.301,5.829,5.429,5.015c1.22,3.398-2.755,6.266-1.001,9.721
		c-0.104,3.701-1.544,7.674,2.443,10.516c0.429,0.305-0.014,1.834-0.05,2.794c-4.728,0.145-6.315,1.681-5.362,5.863
		c0.564,2.479,0.513,4.929,0.745,7.394c1.334,14.168,3.905,27.74,17.943,35.498c0.025,0.969,0.051,1.938,0.076,2.907
		C94.393,331.725,90.196,326.466,86.615,320.574z"/>
	<path fill-rule="evenodd" clip-rule="evenodd" fill="#F1BF64" d="M125.876,176.958c-0.103,1.694,0.959,4.037-1.464,4.637
		c-1.915,0.476-4.002,0.87-5.875-1.171c-3.857-4.2-6.791-3.457-9.47,2.021c-4.065,0.123-8.168-1.365-13.155,0.949
		c4.33-6.244,9.296-10.352,13.942-14.755c0.184,0.138,0.37,0.274,0.557,0.409c2.293,2.129,5.165,1.368,7.843,1.569
		C120.794,172.73,123.335,174.844,125.876,176.958z"/>
	<path fill-rule="evenodd" clip-rule="evenodd" fill="#D8D8D7" d="M125.876,176.958c-2.541-2.114-5.082-4.228-7.624-6.34
		c-1.303-1.979-1.181-5.508-5.077-4.666c-0.031-0.184-0.109-0.344-0.236-0.481c2.191-3.034,0.933-6.136-0.248-8.938
		c-3.013-7.149-1.63-14.178,0.004-21.252c0.256-1.109,1.187-1.531,2.278-1.585c0.296,0.639,0.593,1.276,0.889,1.915
		c-0.478,1.695-0.957,3.391-1.435,5.085c-0.681,0.548-0.724,1.256-0.51,2.029c-0.288,8.356,0.392,16.534,5.355,23.656
		c5.016,7.196,9.833,8.071,16.591,3.29c2.172,0.609,3.414-1.374,5.192-1.864c0,0,0.076,0.071,0.076,0.071
		c0.396,1.931-1.275,3.133-1.684,4.78c-0.503,0.481-1.007,0.961-1.51,1.442C134.33,176.794,130.439,178.293,125.876,176.958z"/>
	<path fill-rule="evenodd" clip-rule="evenodd" fill="#797366" d="M242.117,68.42c0.572-0.231,1.145-0.463,1.717-0.695
		c0.093,0.289,0.137,0.585,0.131,0.889c-0.215,1.159-0.177,2.25,0.831,3.079c-0.203,17.88-0.405,35.76-0.608,53.64
		c-0.486,8.797-0.527,17.596-0.131,26.397c0.05,4.578,0.1,9.156,0.148,13.737c-0.078,1.964-0.151,3.926-0.23,5.889
		c-0.183,4.478-0.524,9.026,5.006,10.874c2.21,3.682-1.546,4.625-3.033,6.609c-3.376-2.063-3.022-5.604-3.03-8.693
		c-0.081-34.122-0.046-68.244,0.043-102.365C242.968,74.61,242.634,71.52,242.117,68.42z"/>
	<path fill-rule="evenodd" clip-rule="evenodd" fill="#F1BF64" d="M211.947,219.648c4-2.54,7.334-5.826,10.609-9.215
		c1.192-1.234,2.397-2.77,4.45-2.756c1.626,0.393,3.252,0.785,4.879,1.178c0.943,0.233,1.888,0.467,2.83,0.701
		c-5.569,5.938-11.784,11.372-14.888,19.217C217.201,225.732,214.574,222.689,211.947,219.648z"/>
	<path fill-rule="evenodd" clip-rule="evenodd" fill="#797366" d="M132.927,121.715c0.552-1.921,1.711-3.458,3.076-4.866
		c4.192-0.177,8.43-0.544,11.786,2.8c-4.632,1.812-10.069,1.777-13.666,5.962c-0.741-0.141-1.478-0.802-2.226-0.017
		c0,0,0.143,0.031,0.143,0.032C132.017,124.251,130.903,122.628,132.927,121.715z"/>
	<path fill-rule="evenodd" clip-rule="evenodd" fill="#464949" d="M136.199,98.649c0.451,0.178,1.185,0.625,1.31,0.493
		c3.118-3.275,5.785-0.94,8.587,0.55c1.366,0.726,3.66,0.617,3.428,2.768c-0.199,1.842-1.555,3.205-3.751,3.09
		c-2.607-4.244-6.084-0.458-9.094-0.986c-0.107-0.497-0.215-0.995-0.323-1.492c0.505-0.243,1.171-0.462,0.942-1.158
		c-0.089-0.27-0.712-0.364-1.091-0.538C136.205,100.467,136.202,99.558,136.199,98.649z"/>
	<path fill-rule="evenodd" clip-rule="evenodd" fill="#B8B8B3" d="M136.679,104.564c3.009,0.528,6.487-3.258,9.094,0.986
		c-1.33,1.58,0.127,1.651,1.083,2.027c2.511,0.99,5.014,2,7.521,3.001c-1.738,2.071-3.399,0.092-4.872-0.328
		c-7.581-2.158-14.897-5.208-22.666-6.754c0.584-2.328,1.957-1.407,3.367-0.911C132.332,103.334,134.518,103.914,136.679,104.564z"
		/>
	<path fill-rule="evenodd" clip-rule="evenodd" fill="#9A9487" d="M180.449,47.677c-4.334-0.945-8.676-1.858-12.998-2.854
		c-1.377-0.317-3.615-0.455-1.16-2.568c2.742-1.187,12.044,0.028,13.844,1.814C181.263,45.187,181.018,46.416,180.449,47.677z"/>
	<path fill-rule="evenodd" clip-rule="evenodd" fill="#D8D8D7" d="M79.272,261.922c1.348-0.099,1.267,1.161,1.772,1.863
		c0.018,5.258,0.035,10.516,0.052,15.775c-0.435,0.366-0.87,0.732-1.304,1.1c-2.081-5.193-0.321-10.639-1.046-15.921
		C78.921,263.801,79.097,262.861,79.272,261.922z"/>
	<path fill-rule="evenodd" clip-rule="evenodd" fill="#D8D8D7" d="M76.836,236.881c-0.406,2.934-1.378,5.811-0.874,8.834
		c0,4.621,0,9.244,0,13.865c-0.269-0.004-0.537-0.008-0.806-0.012c0-10.924,0-21.848,0-33.578
		C76.833,230.025,74.715,233.751,76.836,236.881z"/>
	<path fill-rule="evenodd" clip-rule="evenodd" fill="#9A9487" d="M244.057,151.731c-0.396-8.801-0.355-17.6,0.131-26.397
		c1.59,6.571,0.195,13.225,0.54,19.832c0.112,2.16,0.042,4.329,0.056,6.493C244.543,151.705,244.302,151.729,244.057,151.731z"/>
	<path fill-rule="evenodd" clip-rule="evenodd" fill="#B8B8B3" d="M126.734,103.67c2.725,4.518-0.244,8.699-0.771,13.023
		C125.766,112.325,125.398,107.947,126.734,103.67z"/>
	<path fill-rule="evenodd" clip-rule="evenodd" fill="#464949" d="M135.14,70.342c0.013,1.198,0.807,1.396,1.768,1.379
		c-0.336,1.978,0.667,4.167-0.934,5.946c-0.609-2.547-0.154-5.093,0.006-7.64c0.009-0.144-0.029-0.377-0.123-0.428
		C134.767,69.007,135.142,69.86,135.14,70.342z"/>
	<path fill-rule="evenodd" clip-rule="evenodd" fill="#464949" d="M135.964,80.695c1.329,2.312,1.352,4.633,0.046,6.963
		C135.535,85.34,135.542,83.019,135.964,80.695z"/>
	<path fill-rule="evenodd" clip-rule="evenodd" fill="#F1BF64" d="M286.177,190.77c-2.102-1.22-1.093-3.27-1.331-4.986
		C286.059,187.24,286.557,188.887,286.177,190.77z"/>
	<path fill-rule="evenodd" clip-rule="evenodd" fill="#D8D8D7" d="M79.972,286.671c0.63,0.661,0.658,1.384,0.221,2.155
		C79.049,288.217,78.63,287.534,79.972,286.671z"/>
	<path fill-rule="evenodd" clip-rule="evenodd" fill="#F3F3F3" d="M77.883,212.692c-0.75-0.446-1.05-1.085-0.777-1.931
		c0.037-0.115,0.245-0.175,0.374-0.26c0.144,0.723,0.287,1.445,0.431,2.167L77.883,212.692z"/>
	<path fill-rule="evenodd" clip-rule="evenodd" fill="#9A9487" d="M244.796,71.693c-1.008-0.829-1.046-1.92-0.831-3.079
		C244.956,69.448,245.029,70.529,244.796,71.693z"/>
	<path fill-rule="evenodd" clip-rule="evenodd" fill="#B8B8B3" d="M136.207,101.376c0.379,0.174,1.002,0.269,1.091,0.538
		c0.229,0.696-0.437,0.915-0.942,1.158C136.307,102.507,136.257,101.941,136.207,101.376z"/>
	<path fill-rule="evenodd" clip-rule="evenodd" fill="#F1BF64" d="M111.51,167.241c0.476-0.59,0.952-1.18,1.428-1.771
		c0.127,0.136,0.206,0.296,0.234,0.482c-0.381,0.625-0.76,1.249-1.139,1.872C111.857,167.632,111.683,167.437,111.51,167.241z"/>
	<path fill-rule="evenodd" clip-rule="evenodd" fill="#F1BF64" d="M109.853,168.639c0.553-0.466,1.106-0.931,1.658-1.397
		c0.172,0.195,0.346,0.39,0.521,0.583c-0.541,0.407-1.082,0.815-1.623,1.223C110.223,168.914,110.037,168.777,109.853,168.639z"/>
	<path fill-rule="evenodd" clip-rule="evenodd" fill="#F1BF64" d="M284.567,184.664c-0.239-0.621-0.478-1.24-0.718-1.859
		C284.658,183.205,284.726,183.891,284.567,184.664z"/>
	<path fill-rule="evenodd" clip-rule="evenodd" fill="#D8D8D7" d="M79.297,302.381c0.111,0.043,0.314,0.084,0.315,0.131
		c0.005,0.134-0.074,0.27-0.119,0.405c-0.112-0.044-0.316-0.085-0.317-0.131C79.172,302.652,79.25,302.516,79.297,302.381z"/>
	<path fill-rule="evenodd" clip-rule="evenodd" fill="#F3F3F3" d="M228.672,255.703c0.034,0.325,0.067,0.65,0.102,0.977
		c-0.137-0.221-0.298-0.433-0.392-0.671C228.36,255.953,228.569,255.807,228.672,255.703z"/>
	<path fill-rule="evenodd" clip-rule="evenodd" fill="#F3F3F3" d="M227.871,251.791l0.383,0.297c0,0-0.075,0.428-0.077,0.428
		C228.009,252.301,227.907,252.061,227.871,251.791z"/>
	<path fill-rule="evenodd" clip-rule="evenodd" fill="#F3F3F3" d="M286.811,278.761c-0.641-0.404-0.602-0.772,0.059-1.108
		C286.85,278.021,286.83,278.391,286.811,278.761z"/>
	<path fill-rule="evenodd" clip-rule="evenodd" fill="#B8B8B3" d="M199.794,47.566c0.201-0.114,0.402-0.229,0.603-0.343
		c-0.094,0.22-0.188,0.439-0.278,0.661C200.121,47.887,199.794,47.566,199.794,47.566z"/>
	<path fill-rule="evenodd" clip-rule="evenodd" fill="#571515" d="M185.877,119.69c0.34-5.819-1.673-11.501-0.995-17.347
		c0.239-2.071-1.413-3.73-2.837-3.316c-3.545,1.031-6.203-1.637-9.525-1.485c-4.111,0.188-4.881-3.158-4.437-6.258
		c0.47-3.273,2.777-3.905,6.009-3.115c3.203,0.784,6.113,1.377,8.911,3.651c2.499,2.033,6.478,0.357,9.854,1.609
		c2.251,0.834,4.676,1.295,6.737,2.688c1.089,0.735,1.994,1.693,3.569,1.008c2.2-0.956,3.65,0.427,4.32,2.197
		c0.77,2.031,0.869,4.239-0.862,6.065c-1.418,1.494-2.789,1.425-4.376,0.187c-1.296-1.012-2.931-2.436-4.46-1.612
		c-1.829,0.985-4.838-1.37-5.322,1.133c-0.81,4.186-3.253,8.092-2.444,12.57c0.234,1.297,0.576,2.575,0.869,3.862
		C189.218,120.915,187.547,120.302,185.877,119.69z"/>
	<path fill-rule="evenodd" clip-rule="evenodd" fill="#302F2E" d="M219.895,130.662c-3.149-6.267,2.774-8.128,5.803-11.886
		c1.408,4.117,3.941,5.878,8.123,4.407c3.154-1.109,3.664,0.639,2.708,3.018c-2.272,5.658-2.229,11.231-0.069,16.878
		c0.373,0.976,1.094,2.875-0.468,2.729c-1.99-0.186-3.076,2.55-4.968,1.196c-1.565-1.121-0.849-2.419-0.142-3.909
		c2.174-4.576,1.062-13.43-2.523-15.273c-2.697-1.387-5.774-0.055-6.859,3.501C220.964,131.103,220.429,130.882,219.895,130.662z"/>
	<path fill-rule="evenodd" clip-rule="evenodd" fill="#302F2E" d="M217.012,195.833c-0.727-3.781-3.625-6.611-4.44-10.422
		c-0.432-2.017-1.944-1.278-3.522-0.568c-1.715,0.771-3.241,3.167-5.634,1.405c2.989-3.1,3.463-8.478,8.671-9.568
		c0.112,0.539,0.224,1.077,0.335,1.616c0.187-0.526,0.372-1.052,0.559-1.579l-0.052,0.031c3.023-3.455,2.702-7.793,3.151-11.928
		c1.657,3.807,0.677,8.221,2.75,11.932c-1.174,1.858-1.075,3.867-0.697,5.908C217.568,187.035,218.419,191.53,217.012,195.833z"/>
	<path fill-rule="evenodd" clip-rule="evenodd" fill="#B8B8B3" d="M185.877,119.69c1.67,0.612,3.341,1.224,5.012,1.836
		c0.389,0.373,0.779,0.747,1.168,1.12c-0.719,0.042-1.439,0.083-2.159,0.125c-3.97-1.067-7.94-2.135-11.91-3.203
		c-0.784-1.076-1.921-0.995-3.052-0.928c-1.918-1.24-3.959-1.983-6.675-1.803c2.073,1.96,4.204,2.198,6.46,2.024
		c0.469,1.646,1.912,0.861,2.917,1.167c1.737,1.937,5.005,2.678,4.796,6.138c-0.546,0.214-1.093,0.426-1.639,0.639
		c-1.768-1.473-2.683-5.39-6.1-2.125c-3.597-1.673-7.192-3.347-10.789-5.02c0.086-0.231,0.137-0.469,0.152-0.715
		c2.213-2.511,0.596-3.584-1.633-4.565c-2.148-0.946-4.852-0.519-6.521-2.633c6.107-0.296,11.444,2.616,17.108,4.149
		C177.327,117.063,181.591,118.418,185.877,119.69z"/>
	<path fill-rule="evenodd" clip-rule="evenodd" fill="#329D83" d="M157.924,43.794c6.047,1.308,12.123,2.51,17.923,4.749
		c-1.575,1.9-3.15,3.801-5.002,6.034c-1.342-2.236-0.204-4.472-1.284-7.314c-3.734,4.786-7.172,9.191-11.637,14.913
		C157.924,55.104,157.924,49.45,157.924,43.794z"/>
	<path fill-rule="evenodd" clip-rule="evenodd" fill="#329D83" d="M178.957,76.063c0.014-5.661,2.255-7.373,7.871-6.011
		c7.187,1.741,10.09,4.957,9.852,10.912c-0.176,4.433-2.439,6.279-6.766,5.519C181.288,84.968,178.94,82.736,178.957,76.063z
		 M194.783,79.026c0.061-4.963-4.859-4.965-8.66-6.013c-4.246-1.172-6.305,1.189-5.112,5.482c0.81,2.913,9.792,6.555,12.349,4.986
		C194.655,82.687,194.848,81.384,194.783,79.026z"/>
	<path fill-rule="evenodd" clip-rule="evenodd" fill="#571515" d="M231.886,208.855c-1.627-0.393-3.253-0.785-4.879-1.178
		c-2.781-1.644-5.563-3.287-8.345-4.932c1.437-0.037,2.311-0.813,3.207-1.929c3.858-4.806,6.761-4.314,9.246,1.253
		C232.118,204.319,231.769,206.582,231.886,208.855z"/>
	<path fill-rule="evenodd" clip-rule="evenodd" fill="#464949" d="M233.187,180.578c0.171,1.891,1.879,2.126,3.096,2.855
		c0.907,0.543,1.764,1.119,1.235,2.312c-0.51,1.149-1.681,1.026-2.603,0.83c-3.099-0.663-6.359-1.743-4.443-5.778
		c1.045-2.204-2.585-4.21,0.393-6.107c1.165-0.741,1.064-3.463,3.567-2.061c2.435,1.363,3.137,3.07,2.889,6.05
		c-0.318,3.809-2.346,0.797-3.372,1.345C233.681,180.167,233.452,180.383,233.187,180.578z"/>
	<path fill-rule="evenodd" clip-rule="evenodd" fill="#9A9487" d="M218.132,182.66c-0.378-2.041-0.477-4.049,0.697-5.909
		c0.725-12.03,1.449-24.059,2.173-36.088c0.313,0.006,0.627,0.01,0.94,0.011c0.126,15.004-1.092,29.942-2.214,44.884
		C219.196,184.594,218.664,183.627,218.132,182.66z"/>
	<path fill-rule="evenodd" clip-rule="evenodd" fill="#797366" d="M212.086,176.68c-5.208,1.09-5.682,6.468-8.671,9.568
		c-0.493-0.063-0.983-0.12-1.474-0.184c-0.996-1.5-0.675-3.697-2.517-4.742c0.162-1.023,0.322-2.046,0.481-3.069
		c0.653-0.246,1.306-0.492,1.959-0.737c2.277-0.392,4.416-1.071,6.005-2.893c1.73-0.51,2.702-1.97,3.917-3.127
		c0.354,0.035,0.708,0.069,1.063,0.104c0.026,1.716,0.053,3.432,0.078,5.148c0,0,0.052-0.031,0.052-0.031
		C212.68,176.745,212.383,176.732,212.086,176.68z"/>
	<path fill-rule="evenodd" clip-rule="evenodd" fill="#571515" d="M245.947,188.84c1.487-1.984,5.243-2.928,3.044-6.602
		c3.458,1.594,7.008,3.068,7.957,7.355c-2.345,2.086-4.69,4.173-7.035,6.26c-0.129-1.254,0.137-2.854-1.654-3.055
		C245.575,192.498,245.911,190.625,245.947,188.84z"/>
	<path fill-rule="evenodd" clip-rule="evenodd" fill="#B8B8B3" d="M221.942,140.674c-0.313-0.001-0.627-0.005-0.94-0.011
		c1.028-5.907-1.289-9.034-7.354-10.138c-4.356-0.793-8.505-2.723-12.747-4.146c0.02-0.486,0.038-0.973,0.058-1.459
		c6.641,0.83,12.365,4.683,18.937,5.742c0.534,0.221,1.069,0.441,1.604,0.662c0.421,0.782,0.842,1.563,1.263,2.345
		c-0.837,0.624-0.965,1.297-0.141,2.037C222.395,137.361,222.169,139.018,221.942,140.674z"/>
	<path fill-rule="evenodd" clip-rule="evenodd" fill="#797366" d="M218.132,182.66c0.532,0.967,1.064,1.934,1.597,2.898
		c0.348,4.929,0.118,9.795-1.487,15.17c-1.534-1.768-1.005-3.438-1.23-4.896C218.419,191.53,217.568,187.035,218.132,182.66z"/>
	<path fill-rule="evenodd" clip-rule="evenodd" fill="#464949" d="M206.937,191.082c0.22-1.133-0.41-2.908,1.214-2.818
		c1.807,0.1,2.719,1.659,2.666,3.541c-0.034,1.224-0.427,2.516-1.804,2.477C206.965,194.225,207.095,192.438,206.937,191.082z"/>
	<path fill-rule="evenodd" clip-rule="evenodd" fill="#9A9487" d="M200.958,124.92c-0.02,0.486-0.038,0.973-0.056,1.46
		c-3.668-1.203-7.336-2.406-11.005-3.61c0.72-0.042,1.44-0.083,2.159-0.125C195.552,121.338,198.066,123.869,200.958,124.92z"/>
	<path fill-rule="evenodd" clip-rule="evenodd" fill="#9A9487" d="M222.621,135.705c-0.824-0.739-0.696-1.413,0.141-2.037
		C222.715,134.347,222.668,135.026,222.621,135.705z"/>
	<path fill-rule="evenodd" clip-rule="evenodd" fill="#9A9487" d="M86.175,259.85c-4.129,0.814-5.324-0.555-5.43-5.015
		c-0.172-7.271,2.092-14.034,2.926-21.069c2.171-5.709,7.326-5.258,11.42-4.328c26.665,6.047,52.289,15.387,77.076,26.757
		c5.085,2.333,10.787,3.68,15.418,8.12c7.759,7.439,10.603,16.217,10.991,26.216c0.184,4.728,0.921,9.571-0.535,14.276
		c0.271-4.689-3.117-1.44-4.68-2.157c-1.006-2.281,0.365-4.999-1.32-7.155c-0.086-3.229-0.172-6.459-0.258-9.689
		c-0.12-0.244-0.241-0.489-0.361-0.734c-0.176,0.202-0.352,0.404-0.528,0.605c-0.025,0.309-0.063,0.615-0.112,0.92
		c-1.746-0.109-1.825-1.335-1.92-2.685c-0.105-1.478,0.589-3.276-1.377-4.153c-0.311-3.091-0.821-6.094-3.572-8.108
		c-0.449-2.001-1.666-4.195-3.236-1.552c-1.203,2.025-2.502,5.609,1.259,7.535c0.428,1.611,0.856,3.223,1.284,4.835
		c0.055,3.321,4.363,5.476,2.555,9.31c-5.973-4.549-9.367-10.729-10.494-17.98c-0.296-1.902,1.037-4.092-0.389-6.072
		c0.906-2.75,4.101-1.322,6.293-3.269c-4.558-1.802-7.85-4.958-12.23-5.776c-2.374-0.443-3.65-4.543-6.828-1.994
		c-0.405-0.348-0.811-0.694-1.216-1.042l0.02,0.013c-0.681-1.309-1.849-1.17-3.021-1.017l0.021,0.011
		c-0.302-1.078-1.111-1.144-2.019-1.011l0.016,0.011c-0.938-0.619-1.798-1.455-2.827-1.824
		c-10.572-3.794-21.189-7.462-31.754-11.275c-4.776-1.723-9.652-2.914-14.671-3.66c4.922,3.448,11.154,3.694,16.119,6.939
		c0.005,0.539,0.009,1.08,0.014,1.619c-1.299-0.225-2.598-0.449-3.896-0.674c-1.093-0.385-2.165-0.85-3.282-1.141
		c-9.4-2.459-9.402-2.449-7.375,6.998c-0.119,3.021-0.238,6.041-0.357,9.061c-1.719-1.644-0.684-3.773-1.005-5.664
		c-0.881-5.189-2.922-9.826-6.6-13.826c1.55,2.905,1.407,5.721,0.607,8.663c-0.353,1.3,0.043,2.8,0.993,3.736
		c2.189,2.158,2.274,4.619,1.544,7.319c-2.703-1.268-4.297-3.207-4.831-6.311c-0.665-3.865-1.879-7.631-1.765-11.619
		c0.052-1.834-0.809-3.34-2.537-3.809c-1.678-0.453-2.177,1.016-2.5,2.359c-2.805,3.393-1.309,7.711-2.469,11.458
		c-2.222-0.72-0.319-3.93-3.159-4.727C86.175,251.584,86.175,255.717,86.175,259.85z"/>
	<path fill-rule="evenodd" clip-rule="evenodd" fill="#797366" d="M180.943,366c-2.371-0.811-4.74-1.619-7.11-2.428
		c0.249-1.791-0.549-2.605-2.286-3.172c-8.963-2.926-17.657-6.527-26.322-10.264c-11.531-4.975-23.798-8.186-34.889-14.242
		c-2.23-1.219-5.451-0.768-6.633-3.807c3.982-1.014,7.624,2.887,11.801,1.104c-0.378-2.45-3.727-2.047-3.612-4.51
		c3.937,0.525,6.744,3.973,10.807,4.176c1.226,0.898,2.311,2.07,4.01,2.029c2.826,3.75,7.256,4.214,11.282,5.506
		c0.899,0.172,1.798,0.344,2.698,0.517c0.516,0.601,0.917,1.517,1.566,1.754c8.118,2.964,16.186,6.11,24.772,7.538
		c3.614,0.82,7.229,1.643,10.844,2.465c0.112,0.5,0.226,1,0.338,1.5c-1.288,0.471-2.579,0.572-3.9,0.107
		c-1.069-0.377-2.366-1.109-3.08,0.285c-0.784,1.527,0.363,2.455,1.599,3.139c2.308,1.275,4.506,3.215,6.969,3.654
		c5.663,1.014,10.025,1.65,11.762-6.154c2.377-10.693,3.681-21.536,1.057-32.446c0.059-0.325,0.102-0.653,0.126-0.984
		c1.431-0.347,2.652-1.498,4.274-1.118c1.053,1.183,0.938,2.584,0.75,3.999c-1.648,2.563-0.741,5.354-0.721,8.067
		c0.125,6.583,0.293,13.182-0.861,19.693C194.51,361.838,190.337,365.475,180.943,366z"/>
	<path fill-rule="evenodd" clip-rule="evenodd" fill="#B8B8B3" d="M269.91,236.99c3.05,1.912,4.968,4.654,6.405,7.94
		c0.705,1.613,0.534,4.176,3.255,4.397c0.321,0.745,1.139,1.795,0.895,2.193c-4.928,8.042-0.195,16.637-1.525,24.854
		c-0.129,0.793-0.387,1.563-0.584,2.344c-0.176-2.473-0.203-4.967-0.555-7.414c-1.188-8.273-1.188-16.881-6.47-24.057
		c-3.493-4.912-6.644-5.486-10.936-1.572c-4.829,4.404-8.172,9.877-10.403,16.021c-0.761,1.649-1.596,3.271-2.271,4.954
		c-10.57,26.34-13.72,54.141-16.14,82.086c-2.376,1.381-1.856,5.244-5.071,5.912c1.854-8.094,2.133-16.358,2.525-24.597
		c0.572-12.042,0.967-24.093,1.437-36.136c0.421,1.321,0.342,3.231,2.692,1.623c2.65-1.814,3.891-4.334,4.673-7.335
		c3.519-13.495,7.681-26.755,14.749-38.91c1.845-3.173,4.081-6.019,6.624-8.669C262.185,237.526,265.559,235.896,269.91,236.99z"/>
	<path fill-rule="evenodd" clip-rule="evenodd" fill="#464949" d="M193.362,302.65c1.562,0.716,4.95-2.533,4.679,2.156
		c-0.298,0.682-0.596,1.363-0.895,2.043c-3.066,3.399-3.973,7.58-4.312,11.963c-2.214-0.64-4.4-1.406-6.647-1.895
		c-9.035-1.961-11.453-0.127-13.637,8.729c-0.654,2.658,0.438,5.707-1.719,7.998c-2.23-2.436,0.24-5.868-1.679-8.434
		c-4.522,4.115-4.365,4.022-7.509-1.275c-0.902-1.518-3.207-3.655-4.647-0.32c-0.954,2.209-1.8,1.15-2.215,0.205
		c-1.591-3.619-1-7.448-0.492-11.193c0.127-0.937,1.282-0.611,2.114-0.63c3.569-0.081,4.487,2.702,5.348,5.388
		c2.063-1.244,0.08-4.896,3.334-4.518c2.816,0.328,1.475,2.836,1.801,4.43c0.165,0.806,0.076,1.906,1.088,1.908
		c0.68,0.002,1.525-0.628,2.014-1.213c1.586-1.9,2.277-4.381,4.189-6.135c2.508-2.3,2.115-3.729-1.176-5.41
		c-10.248-5.239-10.505-6.059-9.008-16.344c0.075-0.519,0.268-0.609,0.719-0.192c1.639,3.486,3.271,7.086,5.019,10.63
		c1.255,2.545,6.604,2.326,8.419-0.287c3.43,1.009,5.469-0.545,6.684-3.621c0.442,0.43,0.885,0.859,1.327,1.289
		c-0.247,1.613-0.333,3.271-0.776,4.827c-0.961,3.367,1.372,4.861,3.694,5.248C192.946,308.641,192.043,304.568,193.362,302.65z"/>
	<path fill-rule="evenodd" clip-rule="evenodd" fill="#302F2E" d="M192.834,318.814c0.34-4.385,1.246-8.565,4.313-11.965
		c-0.021,0.492-0.044,0.984-0.066,1.478c-0.52,2.627-0.449,5.252,0.02,7.876c0.508,1.492,0.486,2.975-0.087,4.446
		c-1.621-0.381-2.843,0.771-4.272,1.118c-0.04-0.328-0.1-0.652-0.178-0.973C192.653,320.135,192.744,319.475,192.834,318.814z"/>
	<path fill-rule="evenodd" clip-rule="evenodd" fill="#D8D8D7" d="M197.043,332.715c-0.021-2.713-0.928-5.504,0.721-8.067
		C199.171,327.484,200.356,330.3,197.043,332.715z"/>
	<path fill-rule="evenodd" clip-rule="evenodd" fill="#FFFFFF" d="M229.818,273.703c0.052,2.66,0.104,5.32,0.157,7.979
		C227.717,279.066,226.313,276.434,229.818,273.703z"/>
	<path fill-rule="evenodd" clip-rule="evenodd" fill="#FFFFFF" d="M229.562,266.716c0.032,0.67,0.065,1.339,0.099,2.009
		c-0.596,0.514-1.131,1.321-1.803,1.457c-0.685,0.139-0.874-0.776-0.896-1.439C226.902,266.893,228.142,266.683,229.562,266.716z"/>
	<path fill-rule="evenodd" clip-rule="evenodd" fill="#464949" d="M197.1,316.203c-0.469-2.624-0.539-5.249-0.02-7.876
		C197.877,310.949,197.823,313.575,197.1,316.203z"/>
	<path fill-rule="evenodd" clip-rule="evenodd" fill="#B8B8B3" d="M230.307,284.755c0.647,1.206,0.567,2.442,0.16,3.69
		C229.768,287.24,229.945,286.002,230.307,284.755z"/>
	<path fill-rule="evenodd" clip-rule="evenodd" fill="#DC6718" d="M256.948,189.594c-0.949-4.287-4.499-5.762-7.957-7.355
		c-5.541-1.855-5.199-6.404-5.017-10.882c0.079-1.962,0.152-3.925,0.23-5.889c0.228,0.062,0.458,0.1,0.692,0.112
		c3.371,2.544,6.881,4.839,10.941,6.156c0,0-0.002,0.036-0.002,0.037c0.516,0.643,0.979,1.335,1.555,1.919
		C263.834,180.229,263.747,183.578,256.948,189.594z"/>
	<path fill-rule="evenodd" clip-rule="evenodd" fill="#1B1919" d="M231.581,348.736c2.42-27.945,5.569-55.746,16.14-82.086
		c0.676-1.684,1.511-3.305,2.271-4.954c1.649,0.165,1.674,0.919,1.238,2.391c-2.528,8.532-4.941,17.1-7.34,25.67
		c-2.583,9.229-2.502,18.839-3.92,28.237c-0.297,1.971-0.769,4.607,2.617,4.857c0.018,1.332,0.036,2.663,0.055,3.994
		c-2.803-0.305-2.927,1.651-2.705,3.506c0.894,7.451,1.34,15.002,4.062,22.107c0.915,2.387,3.49,4.027,3.226,6.979
		c-0.931,0.217-1.836,0.258-2.646-0.381c-0.886-0.131-1.771-0.256-2.655-0.383C236.14,357.793,233.618,353.518,231.581,348.736z"/>
	<path fill-rule="evenodd" clip-rule="evenodd" fill="#302F2E" d="M247.225,359.438c0.265-2.951-2.311-4.592-3.226-6.979
		c-2.722-7.105-3.168-14.656-4.062-22.107c-0.222-1.854-0.098-3.811,2.705-3.506c0.241,1.953,0.482,3.906,0.724,5.859
		c0.089,0.49,0.177,0.979,0.265,1.469c0.27,3.287,0.612,6.557,2.308,9.498c0.715,3.264,2.153,5.803,5.977,5.939
		c0.657-0.023,1.315-0.047,1.973-0.068c0.861,0.172,1.503-0.154,1.976-0.867c4.399-2.693,6.6-7.146,8.88-11.443
		c3.431-6.463,5.243-13.541,7.267-20.525c0.62-0.004,1.24-0.008,1.861-0.012c-0.266,1.041-0.531,2.082-0.798,3.124
		c-0.241,0.249-0.302,0.535-0.182,0.86c-2.016,11.761-6.489,22.545-13.097,32.436C256.847,357.529,252.825,360.137,247.225,359.438z
		"/>
	<path fill-rule="evenodd" clip-rule="evenodd" fill="#464949" d="M103.703,332.09c1.183,3.037,4.403,2.586,6.633,3.805
		c11.09,6.057,23.357,9.268,34.889,14.242c8.665,3.736,17.359,7.338,26.322,10.264c1.737,0.566,2.535,1.381,2.286,3.172
		c-12.53-3.068-24.783-7.02-36.705-11.93c-12.34-5.08-24.44-10.697-36.162-17.101c-0.025-0.97-0.051-1.938-0.076-2.907
		C101.828,331.787,102.766,331.938,103.703,332.09z"/>
	<path fill-rule="evenodd" clip-rule="evenodd" fill="#464949" d="M273.871,316.695c-0.621,0.004-1.241,0.008-1.861,0.012
		c0.24-2.013,0.48-4.025,0.721-6.037c0.948-1.988,0.321-4.156,0.674-6.266c2.536-15.146,3.657-30.293-3.553-44.709
		c1.039-1.664-0.712-0.605-0.976-0.999c-1.065-0.631-2.131-1.262-3.196-1.892c1.876-0.754,2.835-2.469,2.964-4.162
		c0.175-2.297,1.045-3.967,2.688-5.395c5.282,7.176,5.282,15.783,6.47,24.057c0.352,2.447,0.379,4.941,0.555,7.414
		c-0.065,3.325-0.132,6.65-0.197,9.975c-0.033,0.664-0.066,1.328-0.1,1.992c-0.036,0.658-0.072,1.316-0.108,1.975
		c-0.073,1.332-0.146,2.663-0.22,3.994C276.15,303.278,276.196,310.215,273.871,316.695z"/>
	<path fill-rule="evenodd" clip-rule="evenodd" fill="#B8B8B3" d="M277.73,296.654c0.073-1.331,0.146-2.662,0.22-3.994
		C281.301,294.18,278.707,295.373,277.73,296.654z"/>
	<path fill-rule="evenodd" clip-rule="evenodd" fill="#302F2E" d="M241.924,358.674c0.885,0.127,1.77,0.252,2.655,0.383
		C243.579,359.734,242.741,359.271,241.924,358.674z"/>
	<path fill-rule="evenodd" clip-rule="evenodd" fill="#B8B8B3" d="M278.059,290.686c0.033-0.664,0.066-1.328,0.1-1.992
		C279.059,289.404,278.93,290.064,278.059,290.686z"/>
	<path fill-rule="evenodd" clip-rule="evenodd" fill="#464949" d="M272.892,320.68c-0.12-0.325-0.06-0.611,0.182-0.86
		c0.031,0.214,0.089,0.428,0.078,0.64C273.147,320.536,272.983,320.605,272.892,320.68z"/>
	<path fill-rule="evenodd" clip-rule="evenodd" fill="#FFFFFF" d="M286.885,282.645c-0.306,0.344-0.612,0.687-0.918,1.029
		C286.273,283.331,286.579,282.988,286.885,282.645z"/>
	<path fill-rule="evenodd" clip-rule="evenodd" fill="#B8B8B3" d="M199.906,178.253c-0.159,1.023-0.319,2.045-0.481,3.069
		c-0.119,0.257-0.315,0.421-0.589,0.489c-0.836,0.404-0.83,1.197-0.898,1.956c0,0,0.121-0.055,0.12-0.055
		c-2.539,1.246-3.276,3.412-3.095,6.049c0,0,0.088,0.027,0.087,0.026c-0.759,0.196-1.862,0.14-2.22,0.63
		c-3.767,5.152-8.753,4.818-14.045,3.322l0.095,0.034c-0.332-0.92-1.104-1.061-1.937-1.097l-0.051-0.039
		c-0.332-0.318-0.665-0.636-0.997-0.953l-0.001-0.002c-0.149-2.184-1.463-3.365-3.432-3.984c-1.189-1.932-2.381-3.865-3.57-5.799
		c-1.493-3.951-2.573-8.005-3.07-12.207c0.197-8.007-0.209-16.147,5.053-23.044c1.793,0.886,0.718-0.667,0.945-1.111l-0.109,0.063
		c4.627-3.367,9.934-3.325,15.285-3.047c0.299,0.386,0.599,0.769,0.898,1.153c0.446,0.845,1.188,1.026,2.059,0.913
		c-0.034,1.417,0.631,2.094,2.066,1.957c-0.227,0.905-0.024,1.655,0.783,2.189c0.432,1.988,1.753,3.441,2.975,4.954
		C199.521,161.5,200.548,169.736,199.906,178.253z M194.9,160.683c-0.521-3.549-2.116-6.599-4.336-9.363
		c-6.865-8.554-15.272-7.46-19.66,2.562c-4.495,10.265-1.842,26.039,5.678,33.759c5.617,5.768,12.053,5.197,16.082-1.839
		c3.552-6.202,4.858-12.99,3.283-20.137C196.191,163.879,195.913,162.204,194.9,160.683z"/>
	<path fill-rule="evenodd" clip-rule="evenodd" fill="#1B1919" d="M165.822,169.694c0.497,4.201,1.577,8.255,3.07,12.207
		c-3.332-0.799-6.665-1.598-9.998-2.397c-6.184-2.379-12.699-3.505-19.106-5.04c-0.62-0.117-1.239-0.233-1.854-0.356
		c0.508-0.487,1.011-0.968,1.515-1.449c6.463-0.676,7.884-3.804,4.297-9.458c-0.051-0.487-0.103-0.975-0.154-1.463
		c0.37-1.714,0.74-3.429,1.11-5.144c0.73,0.022,1.461,0.044,2.191,0.065c3.001,0.279,4.804-1.913,6.905-3.423
		c1.353-0.972,2.503-2.477,4.146-0.486c-0.017,0.825-0.005,1.638,0.942,2.012c0.523,1.903,1.045,3.365-1.439,4.851
		c-2.88,1.723-4.492,4.269-0.687,7.456C159.576,169.426,162.713,169.169,165.822,169.694z M151.924,167.718
		c0.437-0.144,0.873-0.289,1.309-0.433c-0.09-0.126-0.25-0.368-0.26-0.363c-0.378,0.231-0.743,0.484-1.108,0.736
		c-0.129,0.148-0.257,0.296-0.386,0.445C151.626,167.975,151.775,167.846,151.924,167.718z"/>
	<path fill-rule="evenodd" clip-rule="evenodd" fill="#EFB33B" d="M178.817,194.532c-1.132,1.038-0.356,4.21-3.528,2.986
		c-6.863-2.647-13.764-5.194-20.541-8.261c6.611,1.65,13.325,1.439,19.98,1.855c0.387,0.189,0.776,0.381,1.166,0.57l0.001,0.002
		c0.332,0.317,0.665,0.635,0.997,0.953l0.051,0.039c0.432,0.743,1.102,1.064,1.937,1.097l-0.095-0.034
		C178.785,194.004,178.795,194.269,178.817,194.532z"/>
	<path fill-rule="evenodd" clip-rule="evenodd" fill="#571515" d="M139.789,174.463c6.407,1.535,12.922,2.661,19.106,5.04
		c-5.638,2.526-11.214,0.786-16.667-0.59C140.839,178.563,138.464,177.106,139.789,174.463z"/>
	<path fill-rule="evenodd" clip-rule="evenodd" fill="#D8D8D7" d="M178.817,194.532c-0.022-0.264-0.032-0.528-0.032-0.792
		c5.292,1.496,10.278,1.83,14.045-3.322c0.357-0.49,1.461-0.434,2.22-0.63C191,196.316,186.238,197.707,178.817,194.532z"/>
	<path fill-rule="evenodd" clip-rule="evenodd" fill="#D8D8D7" d="M194.963,189.762c-0.182-2.637,0.556-4.803,3.095-6.049
		C197.659,186.053,197.1,188.311,194.963,189.762z"/>
	<path fill-rule="evenodd" clip-rule="evenodd" fill="#D8D8D7" d="M175.895,191.684c-0.39-0.189-0.779-0.381-1.166-0.57
		c-0.753-1.137-1.508-2.274-2.264-3.413C174.432,188.318,175.745,189.5,175.895,191.684z"/>
	<path fill-rule="evenodd" clip-rule="evenodd" fill="#D8D8D7" d="M197.938,183.768c0.068-0.759,0.063-1.552,0.898-1.956
		C198.815,182.593,198.718,183.337,197.938,183.768z"/>
	<path fill-rule="evenodd" clip-rule="evenodd" fill="#EFB33B" d="M255.839,171.736c-4.061-1.316-7.57-3.612-10.941-6.156
		C249.532,165.877,253.594,167.191,255.839,171.736z"/>
	<path fill-rule="evenodd" clip-rule="evenodd" fill="#9A9487" d="M188.653,48.657c2.54-1.706,3.87,0.055,5.448,0.501
		C192.426,49.839,190.798,50.208,188.653,48.657z"/>
	<path fill-rule="evenodd" clip-rule="evenodd" fill="#9A9487" d="M187.389,47.227c-0.095,0.116-0.219,0.344-0.279,0.328
		c-0.26-0.069-0.5-0.209-0.747-0.323c0.096-0.115,0.22-0.34,0.282-0.324C186.903,46.974,187.143,47.113,187.389,47.227z"/>
	<path fill-rule="evenodd" clip-rule="evenodd" fill="#9A9487" d="M158.887,154.762c-0.947-0.375-0.959-1.187-0.942-2.012
		c2.083-3.899,0.864-7.941,0.519-11.945c-0.715-2.459,1.712-7.69-4.599-5.212c0.168-0.963,0.247-1.953,0.528-2.881
		c0.296-0.979,0.708-2.002-0.33-2.653c-0.968-0.607-1.789,0.266-2.699,0.594c-3.621,1.306-5.822,5.591-10.359,4.922
		c-0.358,0.019-0.716,0.038-1.074,0.056l0.013,0.039c0.237-0.958,0.197-1.776-1.007-2.012l0.004,0
		c0.277-1.508,0.427-2.989-0.894-4.154c-0.407-0.29-0.813-0.58-1.22-0.87c-0.791-0.652-1.583-1.304-2.374-1.957
		c-0.109-0.355-0.219-0.71-0.329-1.065c3.597-4.185,9.034-4.15,13.667-5.962c0.394,0.366,0.788,0.731,1.182,1.097
		c0.257,0.282,0.515,0.564,0.771,0.846c1.032,0.728,2.063,1.457,3.095,2.185c1.473,2.43,2.946,4.86,4.551,7.507
		c1.133-2.065-0.306-3.435-0.466-4.967c-0.126-4.881,3.495-6.135,7.136-7.373c-0.016,0.246-0.066,0.484-0.152,0.715
		c-0.777,2.227-2.973,3.947-1.494,6.93c0.912,1.839-0.967,3.229-2.561,4.214c-0.211,0.24-0.422,0.48-0.634,0.72
		c0.206,0.079,0.412,0.157,0.618,0.236c0,0-0.068,0.003-0.067,0.003c0.146,1.781,0.056,3.621,0.479,5.334
		C161.742,143.161,160.942,148.998,158.887,154.762z"/>
	<path fill-rule="evenodd" clip-rule="evenodd" fill="#D8D8D7" d="M148.972,120.747c-0.394-0.366-0.788-0.731-1.182-1.097
		c-3.357-3.345-7.595-2.978-11.787-2.8c4.491-3.921,10.166-3.579,13.907,0.807c1.258,1.475,2.601,2.878,3.905,4.314
		c-0.001,0.778-0.203,1.448-0.977,1.807c-1.032-0.728-2.063-1.457-3.094-2.183C149.487,121.313,149.229,121.03,148.972,120.747z"/>
	<path fill-rule="evenodd" clip-rule="evenodd" fill="#B8B8B3" d="M152.838,123.777c0.774-0.359,0.976-1.029,0.977-1.807
		c1.811,0.894,1.82,3.075,3.107,4.345c0.161,1.535,1.6,2.904,0.467,4.969C155.784,128.637,154.311,126.208,152.838,123.777z"/>
	<path fill-rule="evenodd" clip-rule="evenodd" fill="#1B1919" d="M114.427,140.696c0.479-1.695,0.957-3.39,1.435-5.085
		c0.129-0.101,0.299-0.177,0.382-0.308c6.359-10.055,13.225-9.92,19.601,0.389c-3.212-0.123-6.518-0.224-7.682,3.682
		c-1.177,3.95-1.303,7.846-0.545,12.081c0.643,3.595,4.378,2.369,5.288,5.02c1.445,4.212,3.539,2.01,5.36,0.185
		c0.861-0.862,0.412-2.746,2.216-2.926c-0.036,0.674-0.072,1.349-0.107,2.022c-0.104,0.431-0.209,0.862-0.314,1.293
		c-0.293,4.575-1.589,8.816-4.197,12.622c-6.759,4.781-11.576,3.906-16.591-3.29c-4.964-7.122-5.643-15.3-5.355-23.656
		C114.431,142.135,114.692,141.481,114.427,140.696z"/>
	<path fill-rule="evenodd" clip-rule="evenodd" fill="#302F2E" d="M140.482,153.733c-1.804,0.18-1.355,2.064-2.216,2.926
		c-1.821,1.825-3.916,4.027-5.36-0.185c-0.909-2.651-4.645-1.424-5.288-5.02c-0.758-4.235-0.632-8.131,0.545-12.081
		c1.164-3.906,4.469-3.805,7.682-3.682C139.323,141.209,140.624,147.286,140.482,153.733z"/>
	<path fill-rule="evenodd" clip-rule="evenodd" fill="#464949" d="M153.864,135.593c6.311-2.478,3.884,2.753,4.6,5.212
		c-1.927,0.18-3.131,1.45-3.459,3.117c-0.549,2.798-2.539,4.557-4.649,5.536c-3.435,1.595-3.875,4.054-3.463,7.201
		c-0.73-0.021-1.461-0.043-2.191-0.065c-0.194-4.292-0.387-8.584-0.581-12.876c1.381-0.073,2.338-0.684,2.657-2.101
		C149.14,139.608,151.502,137.601,153.864,135.593z"/>
	<path fill-rule="evenodd" clip-rule="evenodd" fill="#D8D8D7" d="M143.591,161.737c0.051,0.488,0.103,0.976,0.154,1.464
		c-1.37,1.281-0.63,3.74-2.613,4.677c0,0-0.077-0.071-0.076-0.071C140.931,165.378,141.089,163.068,143.591,161.737z"/>
	<path fill-rule="evenodd" clip-rule="evenodd" fill="#9A9487" d="M146.778,141.617c-0.319,1.417-1.276,2.027-2.657,2.101
		c-0.332-0.011-0.664-0.021-0.998-0.03c-0.053-0.67-0.104-1.339-0.155-2.009C144.238,141.658,145.508,141.637,146.778,141.617z"/>
	<path fill-rule="evenodd" clip-rule="evenodd" fill="#D8D8D7" d="M139.93,135.629c0.358-0.018,0.716-0.037,1.074-0.056
		c0.008,1.103,1.356,2,0.467,3.318C140.217,138.127,139.982,136.923,139.93,135.629z"/>
	<path fill-rule="evenodd" clip-rule="evenodd" fill="#D8D8D7" d="M138.046,129.503c1.32,1.165,1.17,2.646,0.894,4.154
		c-0.868-0.245-1.078-0.897-1.049-1.7C137.942,131.137,137.994,130.32,138.046,129.503z"/>
	<path fill-rule="evenodd" clip-rule="evenodd" fill="#FFFFFF" d="M138.046,129.503c-0.052,0.817-0.104,1.634-0.155,2.454
		c-1.085-0.872-1.394-1.995-1.064-3.323C137.233,128.924,137.639,129.213,138.046,129.503z"/>
	<path fill-rule="evenodd" clip-rule="evenodd" fill="#D8D8D7" d="M138.936,133.657c1.205,0.235,1.245,1.054,1.007,2.012
		C139.054,135.275,138.869,134.529,138.936,133.657z"/>
	<path fill-rule="evenodd" clip-rule="evenodd" fill="#D8D8D7" d="M142.968,141.678c0.051,0.67,0.103,1.339,0.155,2.009
		C141.878,143.111,141.723,142.449,142.968,141.678z"/>
	<path fill-rule="evenodd" clip-rule="evenodd" fill="#FFFFFF" d="M134.123,125.612c0.11,0.355,0.22,0.71,0.329,1.065
		c-1.066,0.147-2.045,0.087-2.555-1.082C132.645,124.811,133.382,125.472,134.123,125.612z"/>
	<path fill-rule="evenodd" clip-rule="evenodd" fill="#302F2E" d="M140.061,157.049c0.105-0.431,0.209-0.862,0.314-1.293
		C140.271,156.187,140.166,156.618,140.061,157.049z"/>
	<path fill-rule="evenodd" clip-rule="evenodd" fill="#464949" d="M122.697,332.859c-4.061-0.205-6.868-3.652-10.805-4.178
		c-0.264-0.09-0.53-0.166-0.801-0.232c-0.706-2.029-2.32-2.609-4.259-2.674c-2.135-0.27-3.924-1.373-5.749-2.39
		c-0.373-0.257-0.746-0.515-1.119-0.772c-0.267-0.109-0.54-0.2-0.819-0.271c-0.324-1.112-1.033-1.715-2.223-1.684
		c-4.514-2.263-5.706-6.597-6.837-10.969c1.275-1.514,0.715-2.518-0.897-3.229c-0.059-0.924-0.118-1.848-0.177-2.771
		c1.036-2.245,1.757-4.449-0.809-6.226c-0.065-1.591-0.13-3.183-0.195-4.772c1.172-2.717,1.527-5.399-0.33-7.991
		c-0.039-0.606-0.077-1.212-0.115-1.819c0.039-0.961,0.481-2.49,0.053-2.795c-3.987-2.842-2.547-6.814-2.445-10.516
		c1.766,0.521,3.979-1.857,5.437,1.395c1.563,3.488,4.541,3.138,7.343-0.496c2.205-0.233,3.9-1.045,4.073-3.586
		c0.251-0.07,0.471-0.195,0.658-0.377c1.58,1.938,2.635,3.942,1.61,6.585c-0.508,1.31-0.603,2.775,1.668,1.929
		c0.232-0.047,0.466-0.086,0.701-0.119c0.321,0.363,0.641,0.729,0.96,1.092c0.007,1.638,0.687,2.662,2.454,2.695
		c0.982,1.297,2.466,1.406,3.209,0.268c0.925-1.416,1.134-3.269-0.193-4.825c-0.063-0.869-0.127-1.739-0.191-2.604
		c0.667-1.957,1.34-3.922-2.04-3.572c-0.657-0.237-1.314-0.475-1.971-0.713c-2.03-2.292-0.383-5.067-0.993-7.546
		c0.119-3.021,0.238-6.04,0.356-9.062c3.129,1.793,2.547,5.9,4.851,8.051c6.329,5.91,8.258,12.918,5.754,21.104
		c-0.774,2.531,0.1,4.033,1.55,6.111c3.658,5.238,6.608,10.932,4.494,17.754c-2.397-1.053-1.839-3.221-1.996-5.158
		c-0.726-8.974-9.102-14.466-17.458-11.501c-1.772,0.629-2.817,1.687-2.561,3.687l0.007-0.008c-2.609,0.197-3.841,1.918-4.201,4.213
		c-0.98,6.254-1.759,12.141,1.177,18.594c2.834,6.23,8.152,6.435,12.84,7.635c3.251,0.832,5.484-3.023,7.418-5.771
		c1.551-2.202,3.064-4.354,2.824-7.249c-0.11-1.334,0.425-2.27,1.921-2.356c0.434,3.34-0.574,6.483-1.396,9.634
		c-0.335,1.281-1.171,2.914-0.014,3.668c3.404,2.215,1.891,5.119,0.774,7.267C123.098,328.495,122.969,330.625,122.697,332.859z"/>
	<path fill-rule="evenodd" clip-rule="evenodd" fill="#9A9487" d="M99.146,322.342c0.279,0.071,0.552,0.162,0.818,0.272
		c0.373,0.257,0.746,0.515,1.119,0.771c1.825,1.017,3.614,2.12,5.75,2.389c0.582,2.225,2.233,2.747,4.259,2.675
		c0.271,0.066,0.537,0.143,0.801,0.232c-0.114,2.463,3.234,2.06,3.612,4.51c-4.178,1.783-7.819-2.117-11.801-1.104
		c-0.938-0.15-1.875-0.301-2.812-0.453c-14.039-7.758-16.61-21.33-17.944-35.498c-0.232-2.465-0.181-4.915-0.745-7.394
		c-0.953-4.183,0.635-5.719,5.362-5.863c0.036,0.608,0.074,1.214,0.114,1.82c-1.092,2.712-1.365,5.392,0.328,7.991
		c0.065,1.59,0.13,3.182,0.193,4.773c-0.157,2.131-1.018,4.354,0.811,6.225c0.059,0.924,0.118,1.848,0.175,2.773
		c-0.286,1.239-0.453,2.445,0.899,3.227c1.131,4.372,2.323,8.706,6.837,10.969C97.009,322.084,97.705,322.705,99.146,322.342z"/>
	<path fill-rule="evenodd" clip-rule="evenodd" fill="#302F2E" d="M97.95,270.469c-2.802,3.634-5.779,3.984-7.343,0.496
		c-1.458-3.252-3.671-0.873-5.437-1.395c-1.752-3.455,2.223-6.322,1.003-9.721c0.001-4.133,0.001-8.266,0.001-12.575
		c2.84,0.797,0.937,4.007,3.16,4.726C90.119,259.129,91.039,266.196,97.95,270.469z"/>
	<path fill-rule="evenodd" clip-rule="evenodd" fill="#302F2E" d="M81.097,279.561c-0.018-5.26-0.035-10.518-0.052-15.775
		c2.263,2.192,3.747,13.609,1.925,15.547C82.639,279.684,81.736,279.498,81.097,279.561z"/>
	<path fill-rule="evenodd" clip-rule="evenodd" fill="#DC6718" d="M110.41,169.048c0.541-0.408,1.082-0.816,1.623-1.223
		c0.38-0.623,0.759-1.247,1.14-1.872c3.898-0.844,3.776,2.685,5.08,4.664C115.574,170.416,112.703,171.177,110.41,169.048z"/>
	<path fill-rule="evenodd" clip-rule="evenodd" fill="#571515" d="M141.132,167.878c1.983-0.937,1.244-3.396,2.613-4.677
		c3.587,5.653,2.166,8.781-4.297,9.457C139.857,171.011,141.528,169.809,141.132,167.878z"/>
	<path fill-rule="evenodd" clip-rule="evenodd" fill="#B8B8B3" d="M114.427,140.696c0.265,0.786,0.004,1.439-0.51,2.029
		C113.704,141.952,113.747,141.244,114.427,140.696z"/>
	<path fill-rule="evenodd" clip-rule="evenodd" fill="#2E3D5D" d="M189.897,122.771c3.669,1.204,7.337,2.407,11.005,3.61
		c4.24,1.422,8.389,3.352,12.745,4.145c6.065,1.104,8.383,4.23,7.354,10.138c-0.724,12.029-1.448,24.059-2.173,36.088
		c-2.073-3.71-1.093-8.124-2.75-11.932c-0.582-3.055,0.456-6.294-1.065-9.239c-0.255-1.019,0.445-2.383-1.065-2.947l0.03,0
		c0.097-4.755-2.048-8.612-4.883-12.194c-1.814-4.833-6.41-6.548-10.432-8.403c-3.03-1.397-6.732-0.995-8.828,2.681
		c-2.727-0.317-3.104,4.083-6.174,3.075c-0.296-0.707-0.592-1.414-0.887-2.121c-0.114-3.169-0.229-6.338-0.342-9.507
		c0.209-3.458-3.059-4.199-4.796-6.136c0.11-0.158,0.228-0.311,0.351-0.46C181.957,120.635,185.928,121.703,189.897,122.771z"/>
	<path fill-rule="evenodd" clip-rule="evenodd" fill="#9A9487" d="M215.014,155.581c1.521,2.945,0.483,6.185,1.065,9.239
		c-0.449,4.136-0.128,8.474-3.151,11.929c-0.025-1.716-0.052-3.432-0.078-5.147c0,0.001,0.009,0.061,0.009,0.061
		c1.238-0.557,0.984-1.216,0.133-1.918c1.273-5.792-0.277-11.42-0.994-17.097l0.359-0.019l0.36,0.011
		c0.42-0.002,0.841-0.004,1.262-0.006l-0.03,0c-0.005,1.115-0.021,2.231-0.009,3.347c0.006,0.483,0.175,0.899,0.722,0.473
		C214.876,156.287,214.901,155.878,215.014,155.581z"/>
	<path fill-rule="evenodd" clip-rule="evenodd" fill="#9A9487" d="M212.086,176.68c0.297,0.052,0.594,0.064,0.894,0.038
		c-0.187,0.526-0.372,1.052-0.559,1.578C212.31,177.757,212.198,177.219,212.086,176.68z"/>
	<path fill-rule="evenodd" clip-rule="evenodd" fill="#464949" d="M159.852,130.803c1.594-0.985,3.473-2.375,2.561-4.214
		c-1.479-2.983,0.717-4.703,1.494-6.93c3.597,1.673,7.192,3.347,10.789,5.021c1.868,3.002,5.043,5.578,3.194,9.792
		c0.003,0.403,0.007,0.806,0.01,1.209c-6.407,0.377-12.034-2.858-18.132-3.918l0.068-0.003
		C159.83,131.44,159.836,131.122,159.852,130.803z"/>
	<path fill-rule="evenodd" clip-rule="evenodd" fill="#302F2E" d="M177.89,134.472c1.849-4.214-1.326-6.79-3.194-9.792
		c3.417-3.266,4.332,0.652,6.1,2.125C180.65,129.672,181.571,132.944,177.89,134.472z"/>
	<path fill-rule="evenodd" clip-rule="evenodd" fill="#797366" d="M177.89,134.472c3.682-1.528,2.761-4.799,2.905-7.667
		c0.546-0.212,1.093-0.425,1.639-0.639c0.113,3.167,0.228,6.336,0.342,9.504c-1.625-0.476-3.251-0.417-4.876,0.011
		C177.896,135.278,177.893,134.875,177.89,134.472z"/>
	<path fill-rule="evenodd" clip-rule="evenodd" fill="#2E3D5D" d="M174.717,118.865c-2.252,0.169-4.383-0.068-6.456-2.028
		c2.716-0.18,4.757,0.563,6.675,1.804C174.935,118.641,174.717,118.865,174.717,118.865z"/>
	<path fill-rule="evenodd" clip-rule="evenodd" fill="#2E3D5D" d="M177.638,120.028c-1.005-0.306-2.448,0.479-2.917-1.167
		c-0.004,0.004,0.214-0.221,0.215-0.221c1.131-0.067,2.268-0.148,3.052,0.927C177.865,119.717,177.748,119.87,177.638,120.028z"/>
	<path fill-rule="evenodd" clip-rule="evenodd" fill="#1B1919" d="M194.783,79.026c0.064,2.358-0.128,3.66-1.424,4.455
		c-2.557,1.568-11.539-2.074-12.349-4.986c-1.192-4.293,0.866-6.654,5.112-5.482C189.924,74.062,194.844,74.063,194.783,79.026z"/>
	<path fill-rule="evenodd" clip-rule="evenodd" fill="#FFFFFF" d="M211.997,152.647c0.717,5.676,2.268,11.304,0.994,17.096
		c-0.157,0.248-0.296,0.505-0.418,0.771c-0.262,0.327-0.524,0.654-0.786,0.981c-1.215,1.157-2.187,2.617-3.916,3.127
		c-2.793-0.679-5.018-0.177-6.006,2.893c-0.653,0.246-1.306,0.491-1.959,0.737c0.642-8.517-0.385-16.754-4.128-24.533
		c1.317-1.609,3.285-2.121,5.069-2.879c2.07-0.88,4.602-1.037,5.158-3.889c0.674-0.256,1.349-0.51,2.022-0.765
		c0.608,0.189,1.217,0.378,1.825,0.567l-0.028-0.041c-0.119,0.826,0.108,1.299,1.057,1.041l-0.054-0.084
		c-0.396,1.281-0.109,2.327,1.058,3.07l-0.049-0.067C211.891,151.331,211.943,151.989,211.997,152.647z"/>
	<path fill-rule="evenodd" clip-rule="evenodd" fill="#B8B8B3" d="M201.865,177.516c0.988-3.07,3.213-3.572,6.006-2.893
		C206.281,176.445,204.143,177.125,201.865,177.516z"/>
	<path fill-rule="evenodd" clip-rule="evenodd" fill="#B8B8B3" d="M211.787,171.497c0.262-0.327,0.524-0.654,0.786-0.981
		c0.096,0.382,0.19,0.765,0.285,1.147c0,0-0.009-0.06-0.009-0.061C212.495,171.566,212.141,171.531,211.787,171.497z"/>
	<path fill-rule="evenodd" clip-rule="evenodd" fill="#302F2E" d="M124.901,303.652c2.115-6.822-0.835-12.516-4.494-17.754
		c-1.451-2.078-2.325-3.58-1.55-6.111c2.503-8.186,0.575-15.193-5.754-21.104c-2.303-2.15-1.721-6.258-4.851-8.051
		c-2.026-9.447-2.023-9.457,7.376-6.998c1.117,0.291,2.189,0.756,3.282,1.141c0.325,2.747-1.278,6.178,1.017,8.129
		c3.718,3.163,6.375,7.371,11.148,9.627c3.972,1.878,8.453,3.01,11.849,6.08c-1.793,2.507-1.127,5.004-0.33,7.777
		c3.792-2.354,0.92-5.247,1.322-7.717c2.446-0.23,4.528,0.332,5.823,2.645c0.579,1.035,1.269,1.473,2.188,0.333
		c0.329,0.011,0.658,0.016,0.987,0.015l0.002-0.006c-0.131,2.769,0.208,5.431,1.966,8.738c0-3.496,0-6.076,0-8.656
		c0.109-0.934-0.273-2.354,0.913-2.535c2.827-0.434,1.145,3.513,3.037,3.836c3.295-3.252,5.023-8.152,10.768-7.401
		c0.469,1.29,0.313,3.075,2.432,3.046c-3.932,7.086-2.18,14.365-0.564,21.567c0.922,4.106,2.861,7.735,6.684,10.001
		c-1.814,2.613-7.164,2.832-8.419,0.287c-1.747-3.544-3.38-7.144-5.019-10.63c-0.451-0.417-0.644-0.326-0.719,0.192
		c-1.497,10.285-1.24,11.104,9.008,16.344c3.291,1.682,3.684,3.11,1.176,5.41c-1.912,1.754-2.604,4.234-4.189,6.135
		c-0.488,0.585-1.334,1.215-2.014,1.213c-1.012-0.002-0.923-1.103-1.088-1.908c-0.326-1.594,1.016-4.102-1.801-4.43
		c-3.254-0.379-1.271,3.273-3.334,4.518c-0.861-2.686-1.779-5.469-5.348-5.388c-0.832,0.019-1.987-0.307-2.114,0.63
		c-0.508,3.745-1.1,7.574,0.492,11.193c0.416,0.945,1.261,2.004,2.215-0.205c1.44-3.335,3.745-1.197,4.647,0.32
		c3.144,5.298,2.986,5.391,7.509,1.275c1.919,2.565-0.552,5.998,1.679,8.435c0.014,1.36,0.027,2.72,0.039,4.08
		c-0.316,3.901-0.227,7.47,4.045,9.638c1.82,0.922,3.346,2.771,2.953,5.303c-3.613-0.822-7.229-1.645-10.844-2.461
		c-8.212-4.701-17.63-5.992-26.337-9.296c-0.899-0.173-1.798-0.345-2.698-0.515c-2.838-3.724-7.015-4.707-11.282-5.508
		c-1.699,0.041-2.784-1.131-4.01-2.029c0.271-2.232,0.399-4.362,1.538-6.552c1.117-2.147,2.63-5.052-0.774-7.267
		c-1.157-0.754-0.321-2.387,0.014-3.668c0.823-3.15,1.831-6.294,1.397-9.635C124.883,305.041,124.892,304.347,124.901,303.652z
		 M128.139,302.299c0.863,2.869,0.369,5.605,0.944,8.094c0.421,1.824-0.148,7.627,4.808,2.646c0.886-0.891,3.607-1.486,3.204,2.063
		c-0.332,2.922,1.259,5.006,4.53,4.063c5.559-1.604,6.669-3.691,5.728-10.074c-3.387,2.246-5.602,1.943-5.513-2.684
		c0.021-1.067-0.502-2.108-1.603-2.219c-1.445-0.145-1.137,1.277-1.47,2.125c-0.593,1.512-2.164,1.769-2.482,0.447
		C135.217,302.32,131.119,303.674,128.139,302.299z M140.126,288.018c1.4,1.323,2.729,3.063,4.478,4.084
		c1.471,0.859,3.579,1.498,5.138,1.124c2.052-0.493,1.094-2.815,1.113-4.333c0.068-5.29-2.965-6.783-10.536-5.322
		c-0.246,2.34,2.747,1.486,3.18,3.109C142.775,288.412,140.875,285.859,140.126,288.018z M160.966,290.914
		c-0.268-1.496,0.358-4.393-2.763-1.587c-0.582,0.522-1.876,0.415-1.852-0.672c0.021-0.916,1.551-2.324-0.594-2.197
		c-1.601,0.095-0.899,1.887-0.688,2.853c0.193,0.881,1.435,1.652,1.402,2.438c-0.083,1.967,0.531,3.668,2.453,3.365
		C160.624,294.846,160.838,292.717,160.966,290.914z"/>
	<path fill-rule="evenodd" clip-rule="evenodd" fill="#1B1919" d="M151.927,271.649c-0.919,1.14-1.609,0.702-2.188-0.333
		c-1.295-2.313-3.377-2.875-5.823-2.644c-0.331-0.016-0.661-0.036-0.991-0.062c-3.396-3.07-7.877-4.202-11.849-6.08
		c-4.773-2.256-7.43-6.464-11.148-9.627c-2.295-1.951-0.691-5.382-1.017-8.129c1.299,0.225,2.598,0.449,3.896,0.672
		c0.354,0.322,0.658,0.824,1.072,0.944c14.116,4.1,27.78,9.403,41.115,15.552c1.746,0.805,4.439,0.783,4.603,3.696
		c-5.741-0.751-7.47,4.149-10.765,7.401c-1.893-0.323-0.21-4.27-3.037-3.836c-1.186,0.182-0.803,1.602-0.913,2.535
		c-0.655-0.027-1.311-0.055-1.966-0.082l-0.002,0.006C152.596,270.904,152.267,270.95,151.927,271.649z"/>
	<path fill-rule="evenodd" clip-rule="evenodd" fill="#B8B8B3" d="M178.15,300.254c-3.822-2.266-5.762-5.895-6.684-10.001
		c-1.615-7.202-3.367-14.481,0.564-21.568c0.953-0.319,1.906-0.64,2.859-0.96c1.426,1.98,0.093,4.17,0.389,6.072
		c1.127,7.252,4.521,13.432,10.494,17.979c-0.313,1.618-0.626,3.237-0.939,4.856C183.619,299.709,181.58,301.263,178.15,300.254z"/>
	<path fill-rule="evenodd" clip-rule="evenodd" fill="#797366" d="M174.891,267.725c-0.953,0.32-1.906,0.641-2.859,0.96
		c-2.119,0.03-1.963-1.755-2.432-3.045c-0.166-2.913-2.859-2.892-4.605-3.696c-13.335-6.148-26.999-11.452-41.115-15.552
		c-0.414-0.12-0.718-0.622-1.072-0.944c-0.004-0.537-0.009-1.078-0.013-1.619c2.987-0.611,5.446,1.053,8.127,1.828
		c8.411,2.43,16.102,7.111,25.004,7.994l-0.016-0.011c0.321,1.04,1.123,1.118,2.019,1.011l-0.021-0.011
		c0.647,1.407,1.871,1.103,3.021,1.017c0,0-0.02-0.013-0.019-0.013c0.404,0.348,0.81,0.694,1.215,1.042
		c3.178-2.549,4.454,1.551,6.828,1.994c4.381,0.818,7.673,3.975,12.23,5.776C178.991,266.402,175.797,264.975,174.891,267.725z"/>
	<path fill-rule="evenodd" clip-rule="evenodd" fill="#D8D8D7" d="M97.95,270.469c-6.911-4.272-7.831-11.34-8.615-18.469
		c1.159-3.746-0.337-8.064,2.468-11.457c0.916,0.482,1.783,1.121,1.918,2.168c1.118,8.629,3.621,16.771,8.301,24.172
		C101.85,269.424,100.154,270.235,97.95,270.469z"/>
	<path fill-rule="evenodd" clip-rule="evenodd" fill="#797366" d="M105.959,275.02c-2.271,0.847-2.176-0.619-1.668-1.929
		c1.025-2.643-0.03-4.647-1.609-6.585c0.252-2.194,0.503-4.389,0.754-6.584c0.73-2.7,0.645-5.161-1.544-7.319
		c-0.949-0.937-1.346-2.437-0.993-3.736c0.8-2.942,0.943-5.758-0.607-8.663c3.677,4,5.718,8.637,6.6,13.826
		c0.321,1.891-0.714,4.021,1.005,5.664c0.609,2.479-1.037,5.255,0.993,7.549C106.125,269.162,105.305,271.813,105.959,275.02z"/>
	<path fill-rule="evenodd" clip-rule="evenodd" fill="#464949" d="M155.926,253.65c-8.902-0.883-16.593-5.564-25.004-7.994
		c-2.681-0.775-5.14-2.439-8.127-1.828c-4.966-3.243-11.198-3.489-16.12-6.938c5.019,0.746,9.895,1.938,14.671,3.66
		c10.565,3.813,21.182,7.481,31.754,11.275C154.127,252.195,154.988,253.031,155.926,253.65z"/>
	<path fill-rule="evenodd" clip-rule="evenodd" fill="#B8B8B3" d="M103.436,259.922c-0.251,2.195-0.502,4.39-0.754,6.584
		c-0.188,0.182-0.407,0.307-0.659,0.377c-4.68-7.4-7.183-15.543-8.301-24.172c-0.136-1.047-1.003-1.686-1.918-2.168
		c0.323-1.344,0.822-2.813,2.5-2.359c1.728,0.469,2.589,1.975,2.537,3.809c-0.114,3.988,1.101,7.754,1.765,11.619
		C99.138,256.715,100.732,258.654,103.436,259.922z"/>
	<path fill-rule="evenodd" clip-rule="evenodd" fill="#797366" d="M184.834,296.633c0.313-1.619,0.627-3.238,0.939-4.856
		c1.809-3.833-2.5-5.987-2.559-9.308c3.406,2.221,3.337-1.033,4.27-2.711c1.966,0.877,1.271,2.676,1.377,4.153
		c0.095,1.35,0.174,2.575,1.921,2.685c0.484,2.486-0.179,4.809-1.011,7.107c-1.405,1.234-1.193,3.852-3.61,4.219
		C185.719,297.492,185.276,297.063,184.834,296.633z"/>
	<path fill-rule="evenodd" clip-rule="evenodd" fill="#329D83" d="M186.161,297.922c2.417-0.367,2.205-2.984,3.61-4.219
		c0.267,1.219-0.025,3.143,2.27,1.791c1.686,2.156,0.314,4.874,1.32,7.155c-1.318,1.919-0.415,5.991-4.282,5.348
		c-2.322-0.387-4.655-1.881-3.694-5.248C185.828,301.193,185.914,299.535,186.161,297.922z M189.018,300.965
		c-1.297,0.422-1.889,1.307-1.579,2.631c0.246,1.055,0.984,1.845,2.101,1.605c1.175-0.25,1.254-1.382,1.223-2.392
		C190.729,301.709,190.342,300.879,189.018,300.965z"/>
	<path fill-rule="evenodd" clip-rule="evenodd" fill="#464949" d="M187.484,279.758c-0.933,1.678-0.863,4.932-4.27,2.711
		c-0.424-1.613-0.853-3.225-1.281-4.836c0.718-1.975-1.35-4.871,1.979-5.983C186.663,273.664,187.174,276.667,187.484,279.758z"/>
	<path fill-rule="evenodd" clip-rule="evenodd" fill="#797366" d="M183.912,271.649c-3.328,1.112-1.261,4.009-1.979,5.983
		c-3.76-1.926-2.461-5.51-1.258-7.535C182.246,267.454,183.463,269.648,183.912,271.649z"/>
	<path fill-rule="evenodd" clip-rule="evenodd" fill="#464949" d="M192.041,295.494c-2.295,1.352-2.003-0.572-2.27-1.791
		c0.832-2.299,1.495-4.621,1.011-7.107c0.048-0.305,0.086-0.611,0.111-0.92c0.3,0.023,0.597,0.066,0.89,0.129
		C191.869,289.035,191.955,292.265,192.041,295.494z"/>
	<path fill-rule="evenodd" clip-rule="evenodd" fill="#464949" d="M160.929,255.656c-1.149,0.086-2.373,0.391-3.021-1.017
		C159.08,254.486,160.248,254.348,160.929,255.656z"/>
	<path fill-rule="evenodd" clip-rule="evenodd" fill="#464949" d="M157.929,254.65c-0.896,0.107-1.698,0.029-2.019-1.011
		C156.818,253.507,157.627,253.572,157.929,254.65z"/>
	<path fill-rule="evenodd" clip-rule="evenodd" fill="#464949" d="M162.125,256.686c-0.405-0.348-0.811-0.694-1.215-1.042
		C161.314,255.991,161.72,256.338,162.125,256.686z"/>
	<path fill-rule="evenodd" clip-rule="evenodd" fill="#797366" d="M191.783,285.805c-0.293-0.063-0.59-0.105-0.89-0.129
		c0.177-0.201,0.353-0.403,0.528-0.605C191.542,285.315,191.663,285.561,191.783,285.805z"/>
	<path fill-rule="evenodd" clip-rule="evenodd" fill="#9A9487" d="M192.613,322.751c2.624,10.91,1.32,21.753-1.057,32.446
		c-1.736,7.805-6.099,7.168-11.762,6.154c-2.463-0.439-4.661-2.379-6.969-3.654c-1.235-0.684-2.383-1.611-1.599-3.139
		c0.714-1.395,2.011-0.662,3.08-0.285c1.321,0.465,2.612,0.363,3.898-0.104c5.384,2.336,8.588,1.063,10.864-4.314
		c1.942-3.123,1.766-6.668,2.014-10.127c1.445-5.075,0.73-10.242,0.646-15.381c0.019-0.57,0.038-1.139,0.058-1.708
		C192.064,322.664,192.34,322.701,192.613,322.751z"/>
	<path fill-rule="evenodd" clip-rule="evenodd" fill="#464949" d="M189.07,349.857c-2.276,5.375-5.48,6.648-10.864,4.313
		c-0.11-0.504-0.224-1.004-0.336-1.504c0.392-2.531-1.134-4.381-2.954-5.303c-4.271-2.168-4.361-5.736-4.044-9.639
		c1.669,0.055,2.801-0.461,3.394,2.454c0.732,3.601,2.67,7.769,6.978,9.005C183.713,349.893,186.453,349.664,189.07,349.857z"/>
	<path fill-rule="evenodd" clip-rule="evenodd" fill="#464949" d="M140.688,340.909c8.707,3.304,18.125,4.595,26.337,9.296
		c-8.585-1.432-16.653-4.578-24.771-7.542C141.605,342.426,141.204,341.51,140.688,340.909z"/>
	<path fill-rule="evenodd" clip-rule="evenodd" fill="#464949" d="M126.708,334.887c4.267,0.801,8.443,1.784,11.282,5.508
		C133.964,339.101,129.535,338.637,126.708,334.887z"/>
	<path fill-rule="evenodd" clip-rule="evenodd" fill="#485E8C" d="M192.613,322.751c-0.273-0.05-0.549-0.087-0.824-0.111
		c-0.387-0.886-1.012-1.871,0.773-1.845c0.078,0.32,0.138,0.645,0.178,0.973C192.715,322.098,192.672,322.426,192.613,322.751z"/>
	<path fill-rule="evenodd" clip-rule="evenodd" fill="#302F2E" d="M271.331,247.248c-1.643,1.428-2.513,3.098-2.688,5.395
		c-0.129,1.693-1.088,3.408-2.964,4.162c-1.415,0.189-2.971-0.033-3.977,1.354c-3.776,1.063-4.26,4.74-5.931,7.474
		c-1.558,1.721-2.53,3.731-2.984,6c-5.44,11.346-7.903,23.437-8.979,35.875c-0.533,0.631-0.699,1.322-0.339,2.098
		c-0.294,4.416-0.588,8.832-0.882,13.246c-3.386-0.25-2.914-2.887-2.617-4.857c1.418-9.398,1.337-19.009,3.92-28.237
		c2.398-8.57,4.812-17.138,7.34-25.67c0.436-1.472,0.411-2.226-1.238-2.391c2.231-6.144,5.574-11.616,10.403-16.021
		C264.688,241.762,267.838,242.336,271.331,247.248z"/>
	<path fill-rule="evenodd" clip-rule="evenodd" fill="#2E3D5D" d="M192.563,320.795c-1.785-0.026-1.16,0.959-0.773,1.845
		c-0.021,0.569-0.041,1.138-0.059,1.711c-1.329,0.159-1.447-0.878-1.961-1.744c-2.451-4.136-6.334-1.011-9.48-1.729
		c-1.074-0.246-2.117-0.084-2.266,1.203c-0.57,4.914-1.77,9.788-0.897,14.801c0.692,3.981,3.185,5.854,6.976,6.707
		c3.643,0.82,5.385-1.262,6.982-3.859c-0.248,3.459-0.071,7.004-2.014,10.127c-2.617-0.191-5.357,0.037-7.827-0.672
		c-4.308-1.236-6.245-5.404-6.978-9.005c-0.593-2.915-1.725-2.399-3.394-2.454c-0.013-1.359-0.026-2.719-0.04-4.079
		c2.157-2.292,1.064-5.341,1.719-7.999c2.184-8.855,4.602-10.689,13.637-8.729c2.247,0.488,4.434,1.255,6.647,1.895
		C192.744,319.475,192.653,320.135,192.563,320.795z"/>
	<path fill-rule="evenodd" clip-rule="evenodd" fill="#F3F3F3" d="M243.809,307.508c1.076-12.438,3.539-24.529,8.979-35.875
		c0.321,0.541,1.026,1.191,0.908,1.607c-2.52,8.838-2.886,17.916-3.141,27.012c-0.101,3.607,0.045,6.768,4.691,7.807
		c2.84,0.635,5.468,2.302,8.121,3.645c0.948,0.48,1.796,1.041,2.693,0.216c1.986-1.826,4.408-1.05,6.669-1.249
		c-0.24,2.012-0.48,4.024-0.721,6.037c-2.023,6.984-3.836,14.063-7.267,20.525c-2.28,4.297-4.48,8.75-8.88,11.443
		c-0.833-0.109-1.506,0.148-1.976,0.867c-0.657,0.021-1.315,0.045-1.973,0.068c-0.969-3.01-2.92-5.031-5.977-5.939
		c-1.695-2.941-2.038-6.211-2.307-9.499c-0.089-0.489-0.177-0.979-0.266-1.468c-0.241-1.953-0.482-3.906-0.724-5.859
		c-0.019-1.331-0.037-2.662-0.055-3.994c0.294-4.414,0.588-8.83,0.882-13.246C244.056,308.982,244.027,308.261,243.809,307.508z"/>
	<path fill-rule="evenodd" clip-rule="evenodd" fill="#D8D8D7" d="M245.938,343.672c3.057,0.908,5.008,2.93,5.977,5.939
		C248.092,349.475,246.653,346.936,245.938,343.672z"/>
	<path fill-rule="evenodd" clip-rule="evenodd" fill="#D8D8D7" d="M253.888,349.543c0.47-0.719,1.143-0.977,1.976-0.867
		C255.391,349.389,254.749,349.715,253.888,349.543z"/>
	<path fill-rule="evenodd" clip-rule="evenodd" fill="#D8D8D7" d="M243.366,332.705c0.089,0.488,0.177,0.979,0.266,1.468
		C243.543,333.684,243.455,333.195,243.366,332.705z"/>
	<path fill-rule="evenodd" clip-rule="evenodd" fill="#FFFFFF" d="M272.73,310.67c-2.261,0.199-4.683-0.577-6.669,1.249
		c-0.897,0.825-1.745,0.265-2.693-0.216c-2.653-1.343-5.281-3.01-8.121-3.645c-4.646-1.039-4.792-4.199-4.691-7.807
		c0.255-9.096,0.621-18.174,3.141-27.012c0.118-0.416-0.587-1.066-0.908-1.607c0.454-2.269,1.427-4.279,2.984-6
		c4.318-0.633,5.967-3.385,5.931-7.474c1.006-1.388,2.562-1.165,3.977-1.354c1.065,0.63,2.131,1.261,3.196,1.892
		c0.325,0.333,0.65,0.666,0.976,0.999c7.21,14.416,6.089,29.563,3.553,44.709C273.052,306.514,273.679,308.682,272.73,310.67z"/>
	<path fill-rule="evenodd" clip-rule="evenodd" fill="#302F2E" d="M269.852,259.695c-0.325-0.333-0.65-0.666-0.976-0.999
		C269.14,259.09,270.891,258.031,269.852,259.695z"/>
	<path fill-rule="evenodd" clip-rule="evenodd" fill="#1B1919" d="M195.947,165.665c1.575,7.147,0.269,13.936-3.283,20.137
		c-4.029,7.036-10.465,7.606-16.082,1.839c-7.52-7.721-10.173-23.495-5.678-33.759c4.388-10.022,12.795-11.116,19.66-2.562
		c2.22,2.765,3.814,5.814,4.336,9.363c-2.101-0.041-2.744-1.938-3.434-3.238c-1.35-2.542-3.318-3.054-5.807-2.725
		c-2.568,0.34-3.385,2.249-4.068,4.441c-1.451,4.657-0.841,9.236,0.596,13.678c0.965,2.982,3.821,4.245,6.653,4.535
		c2.481,0.254,3.039-2.438,4.435-3.939C195.451,171.094,193.891,167.811,195.947,165.665z"/>
	<path fill-rule="evenodd" clip-rule="evenodd" fill="#302F2E" d="M177.899,135.681c1.625-0.428,3.251-0.487,4.876-0.011
		c0.295,0.708,0.591,1.415,0.89,2.121c-0.909,0.618-1.82,1.237-2.731,1.856c-1.736,0.5-3.45,1.097-5.211,1.479
		c-2.473,0.535-4.385,1.448-4.012,4.476c0,0,0.109-0.063,0.11-0.062c-0.315,0.371-0.63,0.74-0.946,1.11
		c-5.262,6.896-4.855,15.037-5.053,23.044c-3.109-0.524-6.246-0.268-9.062-2.625c-3.806-3.187-2.193-5.733,0.687-7.456
		c2.484-1.486,1.963-2.948,1.439-4.851c2.056-5.765,2.855-11.602,1.36-17.666c-0.423-1.713-0.333-3.553-0.479-5.334
		C165.865,132.822,171.492,136.058,177.899,135.681z"/>
	<path fill-rule="evenodd" clip-rule="evenodd" fill="#302F2E" d="M195.947,165.665c-2.057,2.146-0.496,5.429-2.672,7.771
		c-1.396,1.502-1.953,4.194-4.435,3.939c-2.832-0.291-5.688-1.553-6.653-4.535c-1.437-4.441-2.047-9.021-0.596-13.678
		c0.684-2.193,1.5-4.101,4.068-4.441c2.488-0.329,4.457,0.183,5.807,2.725c0.689,1.3,1.333,3.197,3.434,3.238
		C195.913,162.204,196.191,163.879,195.947,165.665z"/>
	<path fill-rule="evenodd" clip-rule="evenodd" fill="#F3F3F3" d="M171.711,145.602c-0.373-3.028,1.539-3.941,4.012-4.476
		c1.761-0.382,3.475-0.978,5.21-1.479c2.101,0.865,4.2,1.73,6.302,2.596l-0.236,0.31
		C181.645,142.277,176.338,142.235,171.711,145.602z"/>
	<path fill-rule="evenodd" clip-rule="evenodd" fill="#D8D8D7" d="M206.006,146.954c-0.557,2.851-3.088,3.008-5.158,3.888
		c-1.784,0.758-3.752,1.27-5.069,2.879c-1.223-1.513-2.544-2.966-2.976-4.954c0.278-0.29,0.558-0.579,0.835-0.867
		c0.406,0.139,0.814,0.276,1.223,0.414c0.589,2.629,2.064,2.246,4.021,1.419C201.224,148.742,203.173,146.682,206.006,146.954z"/>
	<path fill-rule="evenodd" clip-rule="evenodd" fill="#D8D8D7" d="M192.021,146.576c-1.438,0.138-2.103-0.539-2.068-1.956
		c0,0,0.211-0.244,0.211-0.244c1.057,0.347,1.721,1.041,1.907,2.157L192.021,146.576z"/>
	<path fill-rule="evenodd" clip-rule="evenodd" fill="#D8D8D7" d="M189.953,144.621c-0.871,0.113-1.612-0.068-2.059-0.914
		c0.006-0.362,0.012-0.725,0.018-1.087c1.068,0.179,1.717,0.895,2.252,1.756L189.953,144.621z"/>
	<path fill-rule="evenodd" clip-rule="evenodd" fill="#D8D8D7" d="M192.803,148.767c-0.808-0.534-1.01-1.285-0.783-2.189
		c0.002-0.001,0.052-0.043,0.052-0.043c0.522,0.455,1.045,0.91,1.567,1.364C193.36,148.188,193.081,148.477,192.803,148.767z"/>
	<path fill-rule="evenodd" clip-rule="evenodd" fill="#D8D8D7" d="M178.88,193.774c-0.835-0.032-1.505-0.354-1.937-1.097
		C177.775,192.714,178.548,192.854,178.88,193.774z"/>
	<path fill-rule="evenodd" clip-rule="evenodd" fill="#F3F3F3" d="M170.875,146.65c0.316-0.37,0.631-0.74,0.946-1.11
		C171.593,145.983,172.668,147.536,170.875,146.65z"/>
	<path fill-rule="evenodd" clip-rule="evenodd" fill="#F3F3F3" d="M187.912,142.62c-0.006,0.362-0.012,0.725-0.018,1.087
		c-0.3-0.383-0.6-0.767-0.898-1.152c0.002-0.002,0.238-0.312,0.237-0.311C187.518,142.264,187.744,142.39,187.912,142.62z"/>
	<path fill-rule="evenodd" clip-rule="evenodd" fill="#D8D8D7" d="M176.893,192.639c-0.332-0.318-0.665-0.636-0.997-0.953
		C176.228,192.003,176.561,192.32,176.893,192.639z"/>
	<path fill-rule="evenodd" clip-rule="evenodd" fill="#302F2E" d="M146.893,156.659c-0.412-3.147,0.028-5.606,3.463-7.201
		c2.11-0.979,4.1-2.738,4.649-5.536c0.328-1.667,1.532-2.937,3.459-3.117c0.345,4.004,1.563,8.046-0.52,11.945
		c-1.643-1.991-2.793-0.486-4.146,0.486C151.697,154.746,149.894,156.938,146.893,156.659z"/>
	<path fill-rule="evenodd" clip-rule="evenodd" fill="#302F2E" d="M151.864,167.658c0.366-0.251,0.73-0.504,1.109-0.735
		c0.009-0.005,0.17,0.236,0.26,0.363c-0.436,0.144-0.872,0.289-1.309,0.433L151.864,167.658z"/>
	<path fill-rule="evenodd" clip-rule="evenodd" fill="#302F2E" d="M151.924,167.718c-0.148,0.128-0.297,0.257-0.446,0.385
		c0.129-0.148,0.257-0.297,0.386-0.445C151.864,167.658,151.924,167.718,151.924,167.718z"/>
	<path fill-rule="evenodd" clip-rule="evenodd" fill="#302F2E" d="M159.852,130.803c-0.016,0.318-0.021,0.637-0.016,0.956
		c-0.206-0.079-0.412-0.157-0.618-0.236C159.43,131.283,159.641,131.043,159.852,130.803z"/>
	<path fill-rule="evenodd" clip-rule="evenodd" fill="#797366" d="M148.972,120.747c0.258,0.283,0.516,0.565,0.772,0.847
		C149.486,121.311,149.229,121.029,148.972,120.747z"/>
	<path fill-rule="evenodd" clip-rule="evenodd" fill="#2E3D5D" d="M124.901,303.652c-0.009,0.694-0.019,1.389-0.028,2.084
		c-1.497,0.088-2.032,1.023-1.922,2.357c0.24,2.895-1.273,5.047-2.824,7.249c-1.934,2.747-4.167,6.603-7.418,5.771
		c-4.688-1.2-10.006-1.404-12.84-7.635c-2.936-6.453-2.157-12.34-1.177-18.594c0.36-2.295,1.591-4.016,4.201-4.213
		c0.761,5.58-1.938,11.087-0.149,16.749c1.05,3.327,2.839,5.776,6.244,6.211c3.492,0.446,6.257-1.598,7.582-4.638
		c1.386-3.18,1.916-6.779,1.314-10.262c-1.331-7.697-5.89-10.414-13.536-8.35c-0.479,0.13-0.974,0.199-1.461,0.297
		c-0.256-2,0.789-3.058,2.561-3.687c8.356-2.965,16.733,2.527,17.458,11.501C123.062,300.432,122.504,302.6,124.901,303.652z"/>
	<path fill-rule="evenodd" clip-rule="evenodd" fill="#329D83" d="M110.075,278.688c-1.767-0.033-2.447-1.058-2.454-2.695
		c0.203-0.245,0.406-0.491,0.608-0.737c3.011-0.142,2.558-2.112,2.146-4.062c0.238-0.224,0.482-0.441,0.73-0.654
		c0.598,0.327,1.196,0.655,1.794,0.982c0.064,0.869,0.128,1.739,0.191,2.604C112.084,275.643,111.08,277.165,110.075,278.688z"/>
	<path fill-rule="evenodd" clip-rule="evenodd" fill="#329D83" d="M105.959,275.02c-0.654-3.207,0.167-5.857,2.93-7.777
		c0.657,0.236,1.313,0.474,1.97,0.709c0.082,0.861,0.164,1.725,0.247,2.588c-0.249,0.213-0.493,0.431-0.729,0.652
		c-3.011-0.9-3.378,0.748-3,3.115c-0.239,0.197-0.478,0.396-0.716,0.594C106.425,274.934,106.191,274.973,105.959,275.02z"/>
	<path fill-rule="evenodd" clip-rule="evenodd" fill="#797366" d="M88.007,292.691c-1.693-2.6-1.42-5.279-0.328-7.991
		C89.534,287.292,89.179,289.975,88.007,292.691z"/>
	<path fill-rule="evenodd" clip-rule="evenodd" fill="#797366" d="M110.075,278.688c1.005-1.522,2.01-3.045,3.015-4.563
		c1.328,1.562,1.119,3.414,0.194,4.83C112.541,280.094,111.057,279.984,110.075,278.688z"/>
	<path fill-rule="evenodd" clip-rule="evenodd" fill="#797366" d="M89.011,303.689c-1.829-1.871-0.968-4.094-0.811-6.225
		C90.768,299.24,90.047,301.444,89.011,303.689z"/>
	<path fill-rule="evenodd" clip-rule="evenodd" fill="#797366" d="M111.104,270.539c-0.082-0.863-0.165-1.727-0.246-2.588
		c3.381-0.348,2.708,1.617,2.041,3.574C112.301,271.194,111.703,270.866,111.104,270.539z"/>
	<path fill-rule="evenodd" clip-rule="evenodd" fill="#797366" d="M111.091,328.449c-2.025,0.072-3.677-0.45-4.259-2.675
		C108.771,325.84,110.386,326.42,111.091,328.449z"/>
	<path fill-rule="evenodd" clip-rule="evenodd" fill="#797366" d="M90.085,309.689c-1.352-0.781-1.185-1.987-0.899-3.227
		C90.8,307.172,91.36,308.176,90.085,309.689z"/>
	<path fill-rule="evenodd" clip-rule="evenodd" fill="#797366" d="M99.146,322.342c-1.441,0.363-2.137-0.258-2.223-1.684
		C98.112,320.627,98.822,321.229,99.146,322.342z"/>
	<path fill-rule="evenodd" clip-rule="evenodd" fill="#797366" d="M101.083,323.386c-0.373-0.257-0.746-0.515-1.119-0.771
		C100.337,322.871,100.71,323.129,101.083,323.386z"/>
	<path fill-rule="evenodd" clip-rule="evenodd" fill="#329D83" d="M107.621,275.992c-0.32-0.363-0.64-0.729-0.96-1.092
		c0.238-0.198,0.477-0.396,0.714-0.593c0.284,0.316,0.569,0.632,0.854,0.947C108.026,275.501,107.824,275.747,107.621,275.992z"/>
	<path fill-rule="evenodd" clip-rule="evenodd" fill="#797366" d="M187.912,142.62c-0.168-0.23-0.395-0.356-0.679-0.376
		c-2.101-0.866-4.2-1.731-6.301-2.597c0.912-0.619,1.823-1.238,2.732-1.856c3.067,1.009,3.444-3.392,6.171-3.075
		c1.139-0.045,2.311,0.07,3.409-0.162c5.56-1.175,9.627,0.698,12.759,5.988c-5.264-1.163-9.557,1.832-11.144,7.772
		c-0.408-0.138-0.816-0.275-1.223-0.414c-0.521-0.456-1.044-0.911-1.566-1.366c-0.187-1.116-0.851-1.81-1.907-2.157
		C189.629,143.515,188.98,142.799,187.912,142.62z"/>
	<path fill-rule="evenodd" clip-rule="evenodd" fill="#D8D8D7" d="M206.005,140.542c-3.133-5.291-7.2-7.164-12.76-5.989
		c-1.099,0.232-2.271,0.117-3.409,0.162c2.096-3.675,5.798-4.077,8.828-2.68c4.021,1.855,8.617,3.57,10.432,8.403
		c-0.401,0.42-0.803,0.841-1.205,1.262c-0.304-0.176-0.62-0.2-0.947-0.073l-0.002,0.02c0.029-0.699-0.253-1.088-1.005-1.009
		L206.005,140.542z"/>
	<path fill-rule="evenodd" clip-rule="evenodd" fill="#B8B8B3" d="M207.891,141.701c0.402-0.42,0.804-0.841,1.205-1.262
		c2.835,3.582,4.979,7.439,4.883,12.194c-0.421,0.002-0.842,0.004-1.261,0.007c0.034-0.802,0.041-1.592-0.881-1.967l0.049,0.067
		c-0.192-1.079,0.098-2.323-1.058-3.07l0.054,0.084c-0.084-0.619-0.37-1.034-1.057-1.041l0.028,0.041
		C210.242,144.665,208.305,143.479,207.891,141.701z"/>
	<path fill-rule="evenodd" clip-rule="evenodd" fill="#B8B8B3" d="M215.014,155.581c-0.112,0.298-0.138,0.706-0.353,0.873
		c-0.547,0.426-0.716,0.01-0.722-0.473c-0.012-1.116,0.004-2.231,0.009-3.347C215.459,153.198,214.759,154.562,215.014,155.581z"/>
	<path fill-rule="evenodd" clip-rule="evenodd" fill="#797366" d="M211.837,150.672c0.922,0.375,0.915,1.165,0.881,1.967
		c-0.001,0-0.361-0.011-0.361-0.011l-0.359,0.019C211.943,151.989,211.891,151.331,211.837,150.672z"/>
	<path fill-rule="evenodd" clip-rule="evenodd" fill="#797366" d="M212.858,171.662c-0.095-0.382-0.189-0.765-0.285-1.147
		c0.122-0.267,0.261-0.524,0.418-0.771C213.843,170.446,214.097,171.105,212.858,171.662z"/>
	<path fill-rule="evenodd" clip-rule="evenodd" fill="#9A9487" d="M194.86,148.314c1.587-5.94,5.88-8.935,11.144-7.772
		c0.001,0.001-0.067,0.097-0.067,0.097c0.335,0.336,0.67,0.673,1.005,1.009c0,0,0.002-0.02,0.002-0.02
		c0.361,1.52,0.724,3.04,1.085,4.56c-0.674,0.254-1.349,0.509-2.022,0.765c-2.833-0.27-4.782,1.79-7.125,2.781
		C196.925,150.56,195.449,150.943,194.86,148.314z"/>
	<path fill-rule="evenodd" clip-rule="evenodd" fill="#797366" d="M208.028,146.188c-0.361-1.52-0.724-3.04-1.085-4.56
		c0.327-0.127,0.644-0.103,0.947,0.073c0.414,1.778,2.352,2.964,1.963,5.054C209.245,146.565,208.637,146.376,208.028,146.188z"/>
	<path fill-rule="evenodd" clip-rule="evenodd" fill="#797366" d="M210.828,147.67c1.155,0.747,0.865,1.991,1.058,3.07
		C210.719,149.997,210.432,148.951,210.828,147.67z"/>
	<path fill-rule="evenodd" clip-rule="evenodd" fill="#797366" d="M209.825,146.713c0.687,0.007,0.973,0.422,1.057,1.041
		C209.934,148.012,209.706,147.539,209.825,146.713z"/>
	<path fill-rule="evenodd" clip-rule="evenodd" fill="#464949" d="M128.139,302.299c2.98,1.375,7.078,0.021,8.147,4.461
		c0.318,1.321,1.889,1.064,2.482-0.447c0.333-0.848,0.024-2.27,1.47-2.125c1.101,0.11,1.623,1.151,1.603,2.219
		c-0.089,4.627,2.125,4.93,5.513,2.684c0.941,6.383-0.169,8.471-5.728,10.074c-3.271,0.943-4.862-1.141-4.53-4.063
		c0.403-3.549-2.318-2.953-3.204-2.063c-4.956,4.98-4.387-0.822-4.808-2.646C128.508,307.904,129.001,305.168,128.139,302.299z"/>
	<path fill-rule="evenodd" clip-rule="evenodd" fill="#464949" d="M140.126,288.018c0.749-2.158,2.649,0.395,3.373-1.338
		c-0.434-1.623-3.426-0.77-3.18-3.109c7.571-1.461,10.604,0.032,10.536,5.322c-0.02,1.518,0.939,3.84-1.113,4.333
		c-1.559,0.374-3.667-0.265-5.138-1.124C142.856,291.08,141.526,289.341,140.126,288.018z"/>
	<path fill-rule="evenodd" clip-rule="evenodd" fill="#464949" d="M160.966,290.914c-0.128,1.803-0.342,3.932-2.042,4.199
		c-1.922,0.303-2.536-1.398-2.453-3.365c0.033-0.785-1.208-1.557-1.402-2.438c-0.211-0.966-0.913-2.758,0.688-2.853
		c2.145-0.127,0.615,1.281,0.594,2.197c-0.024,1.087,1.27,1.194,1.852,0.672C161.324,286.521,160.698,289.418,160.966,290.914z"/>
	<path fill-rule="evenodd" clip-rule="evenodd" fill="#464949" d="M142.925,268.611c0.33,0.025,0.661,0.046,0.991,0.062
		c-0.401,2.469,2.47,5.362-1.321,7.716C141.798,273.615,141.132,271.118,142.925,268.611z"/>
	<path fill-rule="evenodd" clip-rule="evenodd" fill="#464949" d="M152.917,271.658c0.655,0.027,1.311,0.055,1.966,0.082
		c0,2.58,0,5.16,0,8.656C153.125,277.089,152.786,274.427,152.917,271.658z"/>
	<path fill-rule="evenodd" clip-rule="evenodd" fill="#464949" d="M151.927,271.649c0.339-0.699,0.669-0.745,0.987,0.015
		C152.585,271.665,152.256,271.66,151.927,271.649z"/>
	<path fill-rule="evenodd" clip-rule="evenodd" fill="#B8B8B3" d="M189.018,300.965c1.324-0.086,1.711,0.744,1.744,1.845
		c0.031,1.01-0.048,2.142-1.223,2.392c-1.116,0.239-1.854-0.551-2.101-1.605C187.129,302.271,187.721,301.387,189.018,300.965z"/>
	<path fill-rule="evenodd" clip-rule="evenodd" fill="#485E8C" d="M191.084,339.729c-1.598,2.598-3.34,4.68-6.982,3.859
		c-3.791-0.854-6.283-2.726-6.976-6.707c-0.872-5.013,0.327-9.887,0.897-14.801c0.148-1.287,1.191-1.449,2.266-1.203
		c3.146,0.719,7.029-2.406,9.48,1.729c0.514,0.866,0.632,1.903,1.961,1.744C191.814,329.486,192.529,334.653,191.084,339.729z
		 M188.109,332.094c-0.013-1.906-0.089-3.78-2.732-3.756c-2.433,0.021-3.623,1.269-3.59,3.709c0.027,1.977,0.438,3.742,2.844,3.844
		C187.18,336,188.088,334.404,188.109,332.094z"/>
	<path fill-rule="evenodd" clip-rule="evenodd" fill="#F3F3F3" d="M261.703,258.159c0.036,4.089-1.612,6.841-5.931,7.474
		C257.443,262.899,257.927,259.223,261.703,258.159z"/>
	<path fill-rule="evenodd" clip-rule="evenodd" fill="#D8D8D7" d="M243.809,307.508c0.219,0.753,0.247,1.475-0.339,2.098
		C243.109,308.83,243.275,308.139,243.809,307.508z"/>
	<path fill-rule="evenodd" clip-rule="evenodd" fill="#485E8C" d="M102.886,290.68c0.487-0.098,0.982-0.167,1.461-0.297
		c7.646-2.064,12.205,0.652,13.536,8.35c0.602,3.482,0.071,7.082-1.314,10.262c-1.325,3.04-4.089,5.084-7.582,4.638
		c-3.404-0.435-5.193-2.884-6.244-6.211c-1.788-5.662,0.91-11.169,0.149-16.749L102.886,290.68z M113.088,302.49
		c-0.156-1.619-0.023-3.863-2.667-3.607c-2.079,0.202-3.68,1.422-3.604,3.928c0.066,2.156,0.475,4.107,3.179,4.033
		C112.643,306.771,113.067,304.814,113.088,302.49z"/>
	<path fill-rule="evenodd" clip-rule="evenodd" fill="#B8B8B3" d="M108.229,275.255c-0.286-0.315-0.571-0.631-0.854-0.947
		c-0.376-2.368-0.01-4.017,3.001-3.116C110.787,273.143,111.24,275.113,108.229,275.255z"/>
	<path fill-rule="evenodd" clip-rule="evenodd" fill="#797366" d="M206.941,141.647c-0.335-0.336-0.67-0.673-1.005-1.009
		C206.688,140.56,206.971,140.948,206.941,141.647z"/>
	<path fill-rule="evenodd" clip-rule="evenodd" fill="#B8B8B3" d="M188.111,332.096c-0.023,2.309-0.932,3.904-3.48,3.795
		c-2.406-0.102-2.816-1.867-2.844-3.844c-0.033-2.44,1.157-3.688,3.59-3.709C188.021,328.313,188.097,330.188,188.111,332.096z"/>
	<path fill-rule="evenodd" clip-rule="evenodd" fill="#B8B8B3" d="M113.088,302.49c-0.021,2.324-0.445,4.28-3.093,4.354
		c-2.704,0.074-3.113-1.877-3.179-4.033c-0.076-2.506,1.525-3.726,3.604-3.928C113.065,298.627,112.932,300.871,113.088,302.49z"/>
</g>
</svg>
