<?xml version="1.0" encoding="utf-8"?>
<!-- Generator: Adobe Illustrator 16.0.0, SVG Export Plug-In . SVG Version: 6.00 Build 0)  -->
<!DOCTYPE svg PUBLIC "-//W3C//DTD SVG 1.1//EN" "http://www.w3.org/Graphics/SVG/1.1/DTD/svg11.dtd">
<svg version="1.1" id="레이어_1" xmlns="http://www.w3.org/2000/svg" xmlns:xlink="http://www.w3.org/1999/xlink" x="0px"
	 y="0px" width="54.638px" height="76.039px" viewBox="0 0 54.638 76.039" enable-background="new 0 0 54.638 76.039"
	 xml:space="preserve">
<g>
	<path fill-rule="evenodd" clip-rule="evenodd" fill="#FFFFFF" d="M0.019,38.019c0-12.4,0.007-24.8-0.019-37.2
		C-0.002,0.134,0.134-0.001,0.819,0c17.667,0.024,35.333,0.024,53,0c0.685-0.001,0.819,0.134,0.818,0.819
		c-0.022,24.8-0.022,49.601,0,74.4c0.001,0.685-0.134,0.819-0.818,0.819c-17.667-0.024-35.333-0.024-53,0
		c-0.685,0-0.821-0.135-0.819-0.819C0.026,62.819,0.019,50.419,0.019,38.019z M13.343,30.132c-0.11,0.093-0.221,0.186-0.331,0.279
		c-0.885,0.835-1.811,1.633-2.67,2.797c0.966-0.256,1.734-0.024,2.513-0.039c0.591,0.079,1.183,0.159,1.774,0.238
		c0.262,0.083,0.525,0.167,0.787,0.251c0.372,0.869,1.002,1.289,1.972,1.386c1.04,0.104,2.209,0.046,3.069,0.639
		c2.147,1.48,4.675,1.984,7.014,2.963c0.745,0.313,1.552,0.288,2.325-0.018c0.663,0.288,1.326,0.575,1.989,0.863
		c0.549,0.373,1.097,0.746,1.645,1.12c0.525,0.608,1.051,1.216,1.576,1.824c0.943,1.68,1.509,3.483,1.77,5.387
		c-0.021,0.021-0.063,0.05-0.059,0.062c0.019,0.047,0.052,0.09,0.079,0.134c0.014,0.186,0.028,0.371,0.043,0.557
		c0.011,0.067,0.021,0.136,0.031,0.203c0.163,0.54,0.126,1.093,0.103,1.645c-0.021,0.021-0.063,0.046-0.059,0.059
		c0.015,0.048,0.044,0.091,0.067,0.136c0.021,0.867,0.041,1.735,0.063,2.604c-0.68-0.134-0.394-0.678-0.415-1.053
		c-0.083-1.433-0.204-2.831-1.173-4.018c-0.521-0.639-0.912-1.383-1.407-2.046c-0.821-1.098-1.698-2.193-3.139-2.445
		c-0.858-0.149-1.657-0.391-2.469-0.698c-1.338-0.508-2.593-1.221-3.943-1.665c-4.337-1.426-8.718-2.682-13.206-3.585
		c-2.537-0.511-5.039,0.82-4.724,4.08c0.503-0.197,0.787-0.62,1.125-0.958c0.376-0.376,0.865-0.682,1.324-0.55
		c1.438,0.413,2.738,1.167,4.037,1.896c0.248,0.139,0.621,0.494-0.054,0.656c-0.391-0.011-0.781-0.021-1.172-0.033
		c-0.612-0.664-1.343-0.88-2.209-0.585c-0.399,0.001-0.798,0.002-1.197,0.003c-0.295-0.004-0.497,0.13-0.6,0.409
		c-0.362,0.409-0.717,0.823-0.791,1.396c-0.445,0.041-0.325-0.44-0.587-0.653c-0.016,0.267-0.028,0.483-0.041,0.7
		c-0.427-0.609,0.016-1.363-0.331-2.098c0,2.281,0,4.449,0,6.617c0.147-0.456,0.124-0.918,0.154-1.375
		c0.032-0.484-0.158-1.001,0.177-1.449c0.006,1.098-0.085,2.208,0.041,3.292c0.193,1.656,0.282,3.291,0,4.945
		c-0.077,0.45-0.007,0.97,0.673,0.985c0.227,0.699-0.109,1.526,0.487,2.142c-0.023,0.016-0.068,0.038-0.066,0.047
		c0.014,0.048,0.039,0.092,0.061,0.138c-0.521,0.669,0.165,1.248,0.14,1.881c-0.622,0.334-0.994,0.844-1.112,1.545
		c-0.358,2.13,0.489,3.916,1.991,5.217c1.953,1.69,4.298,2.857,6.633,3.968c2.554,1.214,5.314,1.839,7.993,2.698
		c1.771,0.569,3.562,1.092,5.423,1.177c2.775,0.128,5.274-0.936,7.711-2.087c1.255-0.593,2.477-0.926,3.84-0.536
		c0.296,0.085,0.582-0.002,0.879-0.087c2.663-0.757,4.111-2.66,4.909-5.177c0.64-2.021,1.283-4.042,1.891-6.073
		c0.747-2.501,1.786-4.991,0.513-7.631c-0.07-2.205,0.477-4.371,0.409-6.576c-0.013-0.43,0.016-0.858-0.211-1.249
		c0.042-0.075,0.084-0.151,0.126-0.228c0.525-1.361,0.365-2.736,0.082-4.114c-0.011-0.365-0.015-0.731-0.034-1.097
		c-0.067-1.249-0.001-2.515-0.418-3.725c-0.216-1.39-0.655-2.69-1.519-3.823c-0.075-0.423-0.4-0.678-0.677-0.951
		c-1.744-1.715-4.024-2.47-6.188-3.43c-0.001-1.995-0.01-3.99,0-5.985c0.014-3.229,0.043-6.457,0.058-9.685
		c0.005-0.975-0.328-1.802-1.31-2.133c-0.812-0.274-1.671-0.409-2.509-0.605c-0.302-0.219-0.604-0.432-1.005-0.249
		c-0.136,0.038-0.271,0.075-0.406,0.113V8.417c0.055-0.349-0.199-0.333-0.427-0.386c-0.892-0.206-1.775-0.442-2.669-0.639
		c-0.655-0.145-0.872-0.504-0.649-1.134c0.019-0.043,0.037-0.087,0.057-0.131c-0.04,0.022-0.081,0.045-0.12,0.068
		c-0.753-0.382-1.534-0.577-2.377-0.367c-0.297-0.261-0.498-0.181-0.621,0.174c-0.359-0.205-0.511,0.425-0.87,0.217
		c0.091-0.219,0.171-0.442-0.015-0.649c-0.339-0.378-2.148-0.681-2.688-0.455c-0.05-0.042-0.096-0.094-0.152-0.124
		c-1.62-0.857-3.384-0.648-5.114-0.677c-0.056-0.001-0.114,0.146-0.17,0.223c-0.746,0.35-0.927,1.02-0.912,1.744
		c0.032,1.594,0.109,3.187,0.168,4.781c-0.083,1.784-0.055,3.567,0.032,5.35c-0.102,0.25-0.015,0.473,0.095,0.694l0,0.027
		c0.015,0.162,0.031,0.324,0.046,0.485c-0.431,0.12-0.778-0.403-1.226-0.16c-0.121-0.025-0.241-0.05-0.362-0.075
		c-0.015-0.126-0.041-0.263-0.197-0.26c-0.051,0.001-0.1,0.117-0.15,0.181c-0.061,1.218-0.451,2.428-0.086,3.656
		c0.141,0.108,0.288,0.116,0.439,0.024l0.086,0.022l0.079-0.041c0.564-0.047,0.261,0.435,0.396,0.649
		c-0.068,0.006-0.137,0.013-0.205,0.019c-1.768-0.285-2.327-0.024-2.974,1.384c-0.943,0.991-1.146,2.514-0.456,3.412
		c0.011,0.194,0.022,0.389,0.034,0.583c-0.763,0.419-0.278,0.615,0.147,0.821c0.023,0.127,0.047,0.254,0.071,0.382
		c-0.19,0.117-0.468,0.234-0.27,0.503c0.305,0.412,0.037,0.716-0.116,1.054C13.536,29.893,13.439,30.012,13.343,30.132z
		 M6.526,38.762c-0.033,0.056-0.083,0.104-0.085,0.154c-0.002,0.052,0.044,0.105,0.07,0.158c0.03-0.05,0.083-0.097,0.085-0.147
		C6.599,38.875,6.554,38.822,6.526,38.762z M6.959,57.262c0.004-0.025,0.009-0.05,0.014-0.075c-0.035,0.006-0.069,0.014-0.104,0.02
		c0.009,0.023,0.013,0.053,0.029,0.066C6.908,57.282,6.938,57.267,6.959,57.262z"/>
	<path fill-rule="evenodd" clip-rule="evenodd" fill="#1C1B1D" d="M18.279,16.413c-0.086-1.783-0.115-3.566-0.032-5.35
		c1.517-1.793,2.852-3.721,4.193-5.644c0.08,0.039,0.16,0.078,0.239,0.117c-0.106,1.072-0.079,2.14,0.034,3.475
		c0.64-0.844,1.12-1.493,1.618-2.128c0.152-0.193,0.268-0.542,0.59-0.409c0.248,0.102,0.115,0.409,0.145,0.627
		c0.021,0.145-0.073,0.337,0.207,0.413c0.303-0.362,0.617-0.738,0.931-1.115c2.667,0.661,5.333,1.321,8,1.981
		c0.072,0.013,0.144,0.026,0.216,0.039c0.129-0.001,0.258-0.001,0.387-0.002c0,0,0,0.057,0,0.056
		c0.082,0.214,0.247,0.183,0.416,0.142c0.11,0.031,0.221,0.062,0.331,0.092c0.664,0.421,1.446,0.473,2.177,0.67
		c1.453,0.391,1.924,0.951,1.922,2.454c-0.009,6.928-0.018,13.856-0.02,20.784c0,0.354-0.104,0.739,0.182,1.048
		c0.012,0.331-0.333,0.838,0.401,0.812c-0.016,0.662-0.013,1.321,0.199,1.96c-0.747,0.792-1.519,1.556-2.434,2.157
		c-0.188-0.046-0.377-0.092-0.565-0.138c-0.024-0.455,0.046-0.908-0.154-1.358c-0.497-1.116-1.074-1.213-1.85-0.25
		c-0.181,0.224-0.356,0.377-0.644,0.384c-0.063,0.004-0.116-0.019-0.157-0.066c0.295-0.336,0.196-0.746,0.211-1.135
		c0.128-0.74,0.238-1.482,0.148-2.237c0.114-1.781,0.229-3.561,0.342-5.341c0.166-0.676,0.133-1.359,0.078-2.043
		c0.012-0.529,0.023-1.057,0.034-1.586c0.046-0.333,0.091-0.666,0.137-1c0.01-0.136,0.02-0.271,0.028-0.407
		c-0.83-1.012-2.041-1.015-3.184-1.2c-1.058-0.385-2.068-0.917-3.216-1.024c0.06-0.339-0.065-0.647-0.138-0.972
		c-0.197-0.889,0.351-1.661,0.461-2.51c0.065-0.503,0.625-0.026,0.933-0.294c0.429-0.372,0.665,0.23,1,0.358
		c0.243,0.092,0.437,0.325,0.718,0.137c0.271-0.181,0.22-0.424,0.157-0.706c-0.154-0.694-1.426-1.624-2.411-1.788
		c-0.75-0.125-1.606-0.103-2.221-0.38c-0.614-0.277-1.198-0.572-1.87-0.731c-0.623-0.147-1.073-0.104-1.176,0.613
		c-0.101,0.711,0.07,1.331,0.942,1.273c0.632-0.042,1.124,0.466,1.801,0.29c0.338-0.088,0.719,0.379,0.608,0.747
		c-0.372,1.239,0.38,2.371,0.253,3.572c-0.454-0.057-0.888-0.272-1.362-0.179c-0.222-0.359-0.574-0.102-0.854-0.182
		c-0.315-1.073-1.297-0.761-2.026-0.976c-0.867-0.458-1.904-0.371-2.764-0.854c-0.208-0.281-0.519-0.345-0.834-0.417
		c-0.199-0.045-0.482-0.089-0.214-0.402c0.716-0.528,0.736-0.869,0.007-1.162c-0.457-0.184-0.639-0.543-0.849-0.927
		C18.995,15.961,19.022,16.779,18.279,16.413z M37.011,33.193c0.039,0.123,0.044,0.275,0.121,0.363
		c0.324,0.367,0.743,0.509,1.229,0.425c0.145-0.024,0.242-0.145,0.204-0.279c-0.134-0.469-0.609-0.411-0.939-0.578
		c0.003-0.285,0.045-0.583,0.427-0.465c0.76,0.235,0.576-0.304,0.517-0.644c-0.085-0.48-0.38-0.898-0.89-0.921
		c-0.512-0.023-0.676,0.465-0.805,0.865C36.741,32.375,36.776,32.803,37.011,33.193z M36.232,20.438
		c-0.418,0.376-0.763,0.681-1.102,0.99c-0.305,0.278-0.431,0.618-0.166,0.968c0.245,0.325,0.469,0.128,0.752-0.048
		c0.307-0.19,0.886-0.375,1.044-0.034c0.438,0.942,1.012,1.909,0.52,3.036c-0.089,0.204-0.151,0.524,0.142,0.591
		c0.269,0.062,0.607,0.03,0.855-0.087c0.251-0.118,0.114-0.394,0.024-0.61c-0.453-1.078-0.475-2.158,0.01-3.231
		c0.101-0.224,0.188-0.448,0.033-0.653c-0.186-0.243-0.408-0.069-0.629-0.011C36.959,21.549,36.426,21.324,36.232,20.438z
		 M26.832,11.937c0.018,1.224,0.645,1.798,2.238,2.049c0.817,0.129,1.244-0.216,1.303-1.055c0.083-1.165-0.447-1.76-1.933-2.168
		C27.258,10.438,26.815,10.761,26.832,11.937z"/>
	<path fill-rule="evenodd" clip-rule="evenodd" fill="#F0F1F0" d="M13,42.836c0.674-0.163,0.302-0.519,0.054-0.657
		c-1.299-0.729-2.599-1.483-4.037-1.896c-0.458-0.132-0.948,0.174-1.324,0.55c-0.337,0.338-0.621,0.761-1.125,0.958
		c-0.314-3.26,2.187-4.591,4.724-4.08c4.488,0.903,8.869,2.159,13.206,3.585c1.35,0.444,2.605,1.157,3.943,1.665
		c0.812,0.308,1.61,0.549,2.469,0.698c1.44,0.252,2.317,1.348,3.139,2.445c0.495,0.663,0.886,1.407,1.407,2.046
		c0.969,1.187,1.09,2.585,1.173,4.018c0.021,0.375-0.265,0.919,0.414,1.053c0.22,0.935,0.099,1.882,0.111,2.825
		c-0.042,0.155-0.124,0.312-0.122,0.466c0.03,3.706-0.136,7.399-0.641,11.073c-0.063,0.145-0.126,0.289-0.188,0.433
		c-1.257,1.467-2.688,2.545-4.784,2.215c-0.215-0.034-0.459,0.054-0.678,0.122c-1.319,0.412-2.611,0.235-3.909-0.122
		c-0.281-0.077-0.315-0.165-0.217-0.392c2.481,0.138,3.521-0.75,3.761-3.238c0.045-0.458,0.018-0.924,0.023-1.387
		c-0.004-1.538,0.385-3.067,0.094-4.611c0.003-0.238,0.006-0.478,0.009-0.716c0.12-0.141,0.106-0.299,0.062-0.461
		c0.067-0.348,0.126-0.693-0.043-1.031c0.012-0.182,0.023-0.363,0.034-0.546c0.421-0.663,0.15-1.354,0.085-2.038
		c0.008-0.563,0.048-1.126,0.021-1.687c-0.127-2.642-1.33-4.556-3.823-5.581c-0.075-0.229-0.159-0.43-0.413-0.145
		c-0.124,0.004-0.247,0.007-0.37,0.011c-0.746-0.908-1.975-0.902-2.875-1.52c0.058-0.461-0.309-0.52-0.607-0.651
		c-2.609-1.154-5.368-1.884-8.041-2.859c-0.375-0.138-0.751-0.299-1.112,0.035c-0.129-0.024-0.259-0.048-0.389-0.072
		C13.021,43.174,13.01,43.005,13,42.836z"/>
	<path fill-rule="evenodd" clip-rule="evenodd" fill="#EFB33B" d="M37.154,56.045c-0.013-0.943,0.108-1.891-0.111-2.825
		c-0.021-0.868-0.041-1.736-0.062-2.604c-0.003-0.064-0.006-0.129-0.009-0.194c0.023-0.552,0.061-1.104-0.102-1.645
		c0.015-0.022,0.046-0.051,0.04-0.066c-0.017-0.048-0.047-0.091-0.072-0.137c-0.015-0.186-0.029-0.371-0.043-0.557
		c-0.007-0.065-0.014-0.13-0.021-0.195c-0.261-1.903-0.826-3.707-1.77-5.387c0.688-1.517,1.74-2.751,2.977-3.843
		c0.915-0.602,1.687-1.365,2.434-2.157c0.671-0.611,1.341-1.223,2.011-1.833c1.355-1.208,1.373-1.881,0.091-3.179
		c-0.115-0.117-0.209-0.255-0.313-0.383c0.656-0.1,0.975,0.35,1.222,0.821c0.229,0.439,0.374,0.524,0.881,0.258
		c0.773-0.407,1.617-0.747,2.537-0.721c0.863,1.132,1.303,2.433,1.519,3.823c-0.942,0.854-1.476,2-2.062,3.082
		c-0.909,1.679-1.885,3.386-1.172,5.438c0.034,0.098-0.076,0.245-0.119,0.37c-0.828-0.229-1.483,0.066-2.063,0.649
		c-0.542,0.544-1,1.146-1.389,1.806c-1.428,2.424-2.216,5.089-2.935,7.778C38.406,55.163,38.021,55.803,37.154,56.045z"/>
	<path fill-rule="evenodd" clip-rule="evenodd" fill="#CDD5D7" d="M37.154,56.045c0.866-0.242,1.252-0.883,1.471-1.7
		c0.719-2.689,1.507-5.354,2.935-7.778c0.389-0.66,0.847-1.262,1.389-1.806c0.579-0.583,1.234-0.878,2.063-0.65
		c0.974,0.51,1.24,1.535,1.711,2.457c0.851-0.594,1.23-1.509,1.886-2.183c0.227,0.391,0.198,0.819,0.211,1.249
		c0.067,2.205-0.479,4.371-0.409,6.576c-0.288,0.57-0.474,1.248-0.317,1.8c0.393,1.391-0.152,2.631-0.455,3.892
		c-0.378,1.573-0.966,3.095-1.434,4.648c-0.663,2.207-1.407,4.354-3.29,5.886c-0.852,0.693-1.793,1.317-2.875,1.107
		c-1.183-0.229-2.238-0.015-3.313,0.339c-0.883,0.29-1.747,0.639-2.627,0.938c-2.457,0.835-4.917,1.611-7.575,1.004
		c-1.708-0.39-3.401-0.83-5.092-1.291c-4.34-1.184-8.418-2.854-11.828-5.909c-1.175-1.052-1.962-3.136-1.524-4.474
		c0.752,1.506,1.618,2.9,3.354,3.449c2.707,1.609,5.575,2.882,8.516,3.982c1.915,0.717,3.853,1.378,5.858,1.813
		c0.265,0.102,0.53,0.202,0.795,0.304c0.003,0.047,0.007,0.095,0.014,0.142c-0.099,0.227-0.064,0.314,0.217,0.392
		c1.298,0.357,2.59,0.534,3.909,0.122c0.219-0.068,0.463-0.156,0.678-0.122c2.096,0.33,3.527-0.748,4.784-2.215
		c0.637-0.22,1.294-0.233,1.957-0.189c0.374,0.293,0.761,0.562,1.259,0.592c0.162,0.124,0.331,0.201,0.531,0.088
		c0.161,0.02,0.322,0.039,0.482,0.059c1.162,0.168,1.979-0.378,2.592-1.29c0.854-1.27,1.51-2.637,1.997-4.09
		c0.792-2.365,1.02-4.839,1.439-7.275c0.016-0.091,0.031-0.183,0.046-0.274c0.191-1.401,0.198-2.808,0.09-4.216
		c0.051-0.319,0.098-0.64-0.125-0.922l0.045-0.042l-0.021-0.058c0.025-0.55,0.021-1.094-0.247-1.599
		c-0.038-0.199-0.076-0.398-0.114-0.598c0.055-0.11,0.022-0.19-0.083-0.245c-0.024-0.109-0.049-0.218-0.072-0.327
		c-0.099-0.675-0.129-1.387-0.915-1.689c-0.621-0.814-1.199-0.85-2.03-0.064c-1.166,1.102-1.831,2.523-2.416,3.978
		c-2.138,5.312-2.82,10.912-3.267,16.559c-0.478,0.262-0.369,1.003-0.96,1.172c0.505-3.674,0.671-7.367,0.641-11.073
		C37.03,56.357,37.112,56.201,37.154,56.045z"/>
	<path fill-rule="evenodd" clip-rule="evenodd" fill="#F0F1F0" d="M8.079,60.15c-0.438,1.338,0.35,3.422,1.524,4.474
		c3.41,3.055,7.488,4.726,11.828,5.909c1.69,0.461,3.383,0.901,5.092,1.291c2.658,0.607,5.118-0.169,7.575-1.004
		c0.88-0.299,1.744-0.647,2.627-0.938c1.074-0.354,2.13-0.568,3.313-0.339c1.082,0.21,2.023-0.414,2.875-1.107
		c1.883-1.532,2.627-3.679,3.29-5.886c0.468-1.554,1.056-3.075,1.434-4.648c0.303-1.261,0.848-2.501,0.455-3.892
		c-0.156-0.552,0.029-1.229,0.317-1.8c1.273,2.64,0.234,5.13-0.513,7.631c-0.607,2.031-1.251,4.052-1.891,6.073
		c-0.798,2.517-2.246,4.42-4.909,5.177c-0.297,0.085-0.583,0.172-0.879,0.087c-1.363-0.39-2.585-0.057-3.84,0.536
		c-2.437,1.151-4.936,2.215-7.711,2.087c-1.861-0.085-3.651-0.607-5.423-1.177c-2.679-0.859-5.439-1.484-7.993-2.698
		c-2.335-1.11-4.68-2.277-6.633-3.968c-1.502-1.301-2.35-3.087-1.991-5.217c0.118-0.701,0.49-1.211,1.112-1.545
		C7.852,59.515,7.965,59.833,8.079,60.15z"/>
	<path fill-rule="evenodd" clip-rule="evenodd" fill="#D8631B" d="M31.785,39.492c-0.663-0.288-1.326-0.575-1.989-0.863
		c-1.219-0.739-2.55-1.239-3.849-1.806c-3.167-1.381-6.496-2.264-9.828-3.13c0.259-0.45,0.776-0.165,1.142-0.385
		c-0.174-0.43-0.692-0.638-0.684-1.148c0.798,0.098,1.461-0.213,2.071-0.682c0.116,0.033,0.232,0.065,0.349,0.097
		c-0.261,0.528,0.212,0.82,0.491,0.89c1.09,0.274,2.205,0.624,3.332,0.117c0.667,0.157,1.333,0.314,2,0.472
		c0.344,0.576,0.688,1.152,1.033,1.729c-0.122,0.225-0.299,0.157-0.507,0.141c-1.115-0.084-2.225-0.196-3.338-0.368
		c1.302,0.581,2.617,1.092,3.938,1.584c0.666,0.248,0.8-0.082,0.664-0.661c0.559,0.343,1.143,0.557,1.808,0.353
		c1.141-0.198,1.761-0.924,2.033-2.003l-0.019,0.005c0.337-0.164,0.286-0.533,0.424-0.802c0.643,0.138,0.244,0.738,0.471,1.06
		c-0.192,0.171-0.373,0.356-0.579,0.509c-0.685,0.508-0.578,0.793,0.213,1.039c0.903,0.28,1.776,0.656,2.663,0.99
		c0.031,0.067,0.063,0.135,0.095,0.202c-0.959,0.688-2.257,0.306-3.466,0.993C32.417,38.021,32.568,38.215,31.785,39.492z"/>
	<path fill-rule="evenodd" clip-rule="evenodd" fill="#1C1B1D" d="M14.018,28.217c-0.023-0.127-0.047-0.254-0.071-0.382
		c0.062-0.294-0.022-0.561-0.147-0.821c-0.011-0.194-0.022-0.389-0.034-0.583c0.121-1.028-0.068-2.123,0.648-3.024
		c0.046-0.063,0.092-0.127,0.139-0.191c0.072-0.123,0.144-0.246,0.216-0.369c1.489-0.904,2.197-0.748,3.284,0.722
		c-0.138,0.245-0.346,0.274-0.582,0.174c-0.297-0.125-0.426-0.013-0.438,0.287c-0.226,0.289-0.482,0.565-0.397,0.98
		c-0.264,0.386-0.247,0.826-0.198,1.253c0.134,1.176,0.283,1.274,1.315,0.906c0.018,0.136,0.015,0.27,0.055,0.39
		c0.092,0.27-0.372,0.648,0.035,0.782c0.393,0.128,0.602-0.321,0.805-0.602c0.255-0.353,0.203-0.658-0.196-0.919
		c-0.315-0.207-0.752-0.315-0.82-0.789c0.435-0.31-0.045-0.666,0.049-0.993c0.396-0.099,0.738,0.124,1.108,0.185
		c0.62,1.884,0.516,3.691-0.576,5.392c-1.263,0.892-2.028,0.796-3.075-0.346C14.59,29.674,14.375,28.91,14.018,28.217z"/>
	<path fill-rule="evenodd" clip-rule="evenodd" fill="#F0BE63" d="M48.607,44.385c-0.655,0.674-1.035,1.589-1.886,2.183
		c-0.471-0.922-0.737-1.947-1.711-2.457c0.043-0.124,0.153-0.271,0.119-0.369c-0.713-2.053,0.263-3.76,1.172-5.438
		c0.586-1.082,1.119-2.227,2.062-3.082c0.417,1.21,0.351,2.476,0.418,3.725c0.02,0.365,0.023,0.731,0.034,1.097
		c-0.096,1.37,0.118,2.746-0.082,4.114C48.691,44.234,48.649,44.31,48.607,44.385z"/>
	<path fill-rule="evenodd" clip-rule="evenodd" fill="#F0BE63" d="M46.845,31.399c-0.92-0.026-1.764,0.313-2.537,0.721
		c-0.507,0.267-0.651,0.182-0.881-0.258c-0.247-0.472-0.565-0.921-1.222-0.821l0.001-0.009c-0.067-0.525-0.447-0.576-0.864-0.571
		c-0.042,0.007-0.081,0-0.118-0.021c-0.188-0.622-0.71-0.71-1.243-0.783c-0.036-0.006-0.067-0.02-0.097-0.042
		c-0.013-0.867-0.148-1.739,0.096-2.597c2.164,0.96,4.444,1.715,6.188,3.43C46.444,30.721,46.77,30.976,46.845,31.399z"/>
	<path fill-rule="evenodd" clip-rule="evenodd" fill="#9A9589" d="M7.599,57.316c-0.021-0.046-0.046-0.09-0.061-0.138
		c-0.002-0.009,0.043-0.031,0.066-0.047c0.027-0.881,0.049-1.752-0.14-2.632c-0.192-0.897,0.135-1.213,1.091-1.249
		c0.006,0.124,0.011,0.247,0.017,0.371c-0.221,0.476-0.268,0.945,0.057,1.398c0.025,0.516,0.049,1.031,0.074,1.547
		c-0.077,0.304-0.167,0.61,0.136,0.853c0.012,0.186,0.024,0.371,0.036,0.557c-0.054,0.183-0.035,0.34,0.146,0.445
		c0.016,0.119,0.032,0.238,0.048,0.357c-0.064,0.246,0.04,0.399,0.266,0.486c0.099,0.246,0.199,0.492,0.298,0.738
		c0.039,0.488,0.307,0.753,0.788,0.812c0.199,0.136,0.397,0.271,0.596,0.406c0.083,0.057,0.166,0.113,0.249,0.17
		c0.318,0.142,0.636,0.284,0.954,0.427c0.087,0.506,0.447,0.58,0.873,0.551c0.105,0.025,0.211,0.051,0.317,0.077
		c0.03,0.278,0.188,0.386,0.458,0.342c0.614,0.183,1.097,0.686,1.769,0.723c0.224,0.063,0.448,0.124,0.673,0.186
		c0.11,0.162,0.219,0.324,0.329,0.486c0.03,0.471-0.214,0.668-0.66,0.665c-0.782-0.294-1.563-0.589-2.345-0.884
		c-0.173-0.506-0.587-0.547-1.029-0.535c-0.325-0.074-0.65-0.149-0.975-0.224c-0.114-0.113-0.208-0.288-0.345-0.331
		c-1.529-0.481-2.275-1.682-2.874-3.042C8.053,59.018,8.115,58.074,7.599,57.316z"/>
	<path fill-rule="evenodd" clip-rule="evenodd" fill="#329D83" d="M22.44,5.419c-1.342,1.922-2.677,3.851-4.193,5.644
		c-0.059-1.593-0.136-3.186-0.168-4.78c-0.015-0.724,0.167-1.394,0.912-1.744C20.164,4.742,21.314,5.031,22.44,5.419z"/>
	<path fill-rule="evenodd" clip-rule="evenodd" fill="#F0F1F0" d="M16.119,33.692c3.333,0.867,6.661,1.75,9.828,3.13
		c1.299,0.566,2.63,1.066,3.849,1.806c-0.773,0.306-1.58,0.33-2.325,0.018c-2.339-0.979-4.866-1.482-7.014-2.963
		c-0.86-0.593-2.029-0.535-3.069-0.639c-0.97-0.097-1.601-0.517-1.972-1.386C15.65,33.669,15.884,33.681,16.119,33.692z"/>
	<path fill-rule="evenodd" clip-rule="evenodd" fill="#2E456A" d="M21.242,18.61c0.86,0.483,1.896,0.396,2.764,0.854
		c-0.276,0.257,0.565,0.959-0.378,0.952c-0.346-0.401-0.362-0.029-0.445,0.189c-0.051,0.002-0.099,0.016-0.143,0.042
		c-0.146,0.264-0.291,0.528-0.437,0.792c-0.372,0.111-0.562-0.181-0.802-0.362c-0.263-0.291-0.532-0.577-0.788-0.874
		c-0.747-0.865-2.018-0.946-2.774-0.173c-0.397,0.332-0.792,0.666-1.285,0.854c-0.059,0.005-0.097,0.038-0.115,0.099
		c-0.152,0.092-0.299,0.084-0.439-0.024c0.193-0.747-0.559-1.766,0.762-2.209c0.5-0.168-0.221-0.771,0.017-1.176
		c0.563,0.167,1.119,0.368,1.691,0.491C19.663,18.238,20.373,18.78,21.242,18.61z"/>
	<path fill-rule="evenodd" clip-rule="evenodd" fill="#B9B8B3" d="M18.053,23.569c-1.087-1.47-1.795-1.625-3.285-0.722
		c-0.183,0.057-0.365,0.115-0.546,0.172c0.647-1.408,1.207-1.669,2.975-1.384c0.079,0.059,0.158,0.119,0.237,0.178l-0.01-0.007
		c0.063,0.208,0.215,0.246,0.405,0.208l-0.005-0.003c0,0.136,0.068,0.204,0.205,0.204l-0.004-0.004
		c-0.001,0.138,0.067,0.206,0.204,0.207l-0.005-0.007c-0.052,0.315,0.15,0.489,0.364,0.657c0.029,0.151,0.069,0.295,0.241,0.346
		v0.001c-0.014,0.174,0.022,0.323,0.2,0.4l-0.001-0.003c0,0.264,0.073,0.495,0.296,0.658c0.032-0.148,0.063-0.298,0.095-0.446
		c0.368-0.225,0.74-0.443,1.101-0.677c0.277-0.18,0.542-0.461,0.896-0.271c0.383,0.206,0.148,0.597,0.189,0.907
		c-0.404,0.341-0.807,0.682-1.211,1.023c-0.252,0.004-0.505,0.009-0.758,0.014c-0.25,0.153-0.221,0.286,0.03,0.401
		c0.066,0.002,0.131,0.005,0.197,0.007c0.001,0.275-0.093,0.563,0.105,0.814c-0.037,0.662-0.073,1.324-0.109,1.985
		c-0.033,0.268-0.066,0.536-0.099,0.803c-0.49,0.12-0.4,0.62-0.59,0.932c-0.232,0.382-0.427,0.741-0.957,0.656
		c1.092-1.701,1.196-3.508,0.576-5.392C18.661,24.62,18.508,24.028,18.053,23.569z"/>
	<path fill-rule="evenodd" clip-rule="evenodd" fill="#EFB33B" d="M31.785,39.492c0.783-1.276,0.632-1.471-1.534-1.666
		c1.209-0.688,2.507-0.306,3.465-0.994c0.298,0.111,0.598,0.222,0.896,0.333c0.041,0.048,0.094,0.07,0.157,0.066
		c0.557,0.329,1.113,0.658,1.669,0.986c-0.413,0.007-0.691,0.287-0.868,0.579c-0.516,0.854-1.315,1.342-2.141,1.814
		C32.882,40.238,32.334,39.865,31.785,39.492z"/>
	<path fill-rule="evenodd" clip-rule="evenodd" fill="#8C8375" d="M39.979,27.019c-0.244,0.858-0.108,1.729-0.096,2.597
		c-0.058,1.042-0.195,2.087,0.112,3.116c-0.266,0.271,0.029,0.651-0.181,0.933c-0.285-0.31-0.182-0.694-0.182-1.048
		c0.002-6.928,0.011-13.856,0.02-20.784c0.002-1.502-0.469-2.063-1.922-2.454c-0.73-0.197-1.513-0.249-2.177-0.67
		c0.222-0.033,0.442-0.065,0.664-0.098c0.838,0.196,1.697,0.331,2.509,0.605c0.981,0.332,1.314,1.159,1.31,2.133
		c-0.015,3.228-0.044,6.457-0.058,9.685C39.97,23.028,39.979,25.023,39.979,27.019z"/>
	<path fill-rule="evenodd" clip-rule="evenodd" fill="#F0BE63" d="M12.854,33.169c-0.778,0.015-1.547-0.218-2.513,0.039
		c0.859-1.164,1.785-1.961,2.67-2.797c0.036,0.029,0.072,0.057,0.108,0.085c0.444,0.511,1.044,0.213,1.569,0.302
		c0.504,0.329,0.736,0.97,1.348,1.176c0.195,1.202-0.625,1.056-1.359,1.023c-0.011-0.125-0.023-0.25-0.034-0.375
		c-0.301-0.765-0.78-0.425-1.241-0.2c-0.249,0.04-0.427,0.181-0.557,0.392c-0.164,0.068-0.175,0.134,0.002,0.198
		C12.869,33.064,12.872,33.117,12.854,33.169z"/>
	<path fill-rule="evenodd" clip-rule="evenodd" fill="#797366" d="M8.555,53.25c-0.956,0.036-1.283,0.352-1.091,1.249
		c0.189,0.88,0.167,1.751,0.14,2.632c-0.596-0.615-0.26-1.442-0.488-2.142c-0.015-1.682,0.121-3.384-0.089-5.041
		c-0.184-1.45-0.211-2.878-0.167-4.322c0.123-0.003,0.247-0.006,0.37-0.008c0,0.691,0.039,1.386-0.011,2.074
		c-0.058,0.806,0.252,1.184,1.067,1.119c0.051,0.613-0.49,1.152-0.222,1.793c0,0.732-0.307,1.531,0.498,2.091
		C8.647,52.754,8.562,53.06,8.555,53.25z M7.6,49.617c-0.02,0.007-0.04,0.015-0.06,0.022c0,0.964,0,1.928,0,2.892
		c0.088-0.007,0.176-0.014,0.264-0.021C7.736,51.545,7.668,50.581,7.6,49.617z"/>
	<path fill-rule="evenodd" clip-rule="evenodd" fill="#F0BE63" d="M33.43,40.612c0.825-0.473,1.625-0.96,2.141-1.814
		c0.177-0.292,0.455-0.572,0.868-0.579c0.326,0.079,0.652,0.158,0.979,0.237c0.188,0.046,0.377,0.092,0.565,0.138
		c-1.236,1.092-2.288,2.326-2.977,3.843C34.48,41.828,33.955,41.22,33.43,40.612z"/>
	<path fill-rule="evenodd" clip-rule="evenodd" fill="#CDD5D7" d="M16.037,31.975c-0.611-0.207-0.843-0.848-1.348-1.176
		c-0.257-0.395-0.239-1.085-1.004-0.934c-0.007-0.036-0.024-0.067-0.051-0.092c0.152-0.337,0.42-0.641,0.115-1.053
		c-0.199-0.269,0.08-0.386,0.27-0.503c0.357,0.692,0.572,1.457,1.119,2.053c1.047,1.142,1.812,1.238,3.075,0.346
		c0.53,0.085,0.725-0.274,0.957-0.656c0.19-0.313,0.1-0.813,0.59-0.932c0.011,0.096,0.022,0.192,0.033,0.289
		c-0.288,0.632-0.576,1.265-0.864,1.896c-0.093,0.087-0.186,0.175-0.279,0.263c-0.611,0.47-1.274,0.781-2.072,0.684
		C16.397,32.098,16.217,32.037,16.037,31.975z"/>
	<path fill-rule="evenodd" clip-rule="evenodd" fill="#B9B8B3" d="M34.808,8.417c-0.129,0-0.258,0.001-0.387,0.002
		C34.37,8.292,34.3,8.266,34.205,8.381c-2.667-0.66-5.334-1.32-8-1.98c-0.263-0.125-0.526-0.25-0.79-0.374
		c0.587-0.077,1.147,0.092,1.715,0.194c0.36,0.208,0.512-0.422,0.871-0.217c0.662,0.877,1.615,0.974,2.639,1.027
		c-0.572-0.651-1.441-0.673-2.018-1.202c0.843-0.21,1.624-0.015,2.377,0.367l0.064,0.063c-0.224,0.629-0.007,0.989,0.648,1.133
		c0.894,0.197,1.777,0.433,2.669,0.639C34.608,8.084,34.862,8.069,34.808,8.417z"/>
	<path fill-rule="evenodd" clip-rule="evenodd" fill="#F0F1F0" d="M6.86,45.626c-0.044,1.444-0.017,2.872,0.167,4.322
		c0.21,1.657,0.075,3.359,0.089,5.041c-0.679-0.016-0.749-0.535-0.672-0.985c0.282-1.654,0.193-3.289,0-4.945
		c-0.126-1.084-0.035-2.194-0.041-3.292c0-0.564,0-1.13,0-1.695c0.013-0.217,0.025-0.434,0.041-0.7
		c0.262,0.213,0.142,0.694,0.587,0.653c0.064,0.064,0.128,0.128,0.192,0.191C7.221,44.717,6.646,45.07,6.86,45.626z"/>
	<path fill-rule="evenodd" clip-rule="evenodd" fill="#B9B8B3" d="M22.44,5.419c-1.126-0.388-2.277-0.677-3.449-0.88
		c0.057-0.078,0.115-0.224,0.17-0.223c1.73,0.029,3.494-0.18,5.114,0.677c0.057,0.03,0.102,0.082,0.152,0.123
		c-0.362,0.486,0.313,0.445,0.367,0.72c-0.705-0.1-1.41-0.199-2.115-0.299C22.6,5.497,22.52,5.458,22.44,5.419z"/>
	<path fill-rule="evenodd" clip-rule="evenodd" fill="#797366" d="M7.599,57.316c0.517,0.758,0.455,1.702,0.812,2.516
		c0.598,1.36,1.345,2.561,2.874,3.042c0.136,0.043,0.23,0.218,0.345,0.331c-0.155,0.087-0.194,0.231-0.196,0.395
		c-1.735-0.549-2.602-1.943-3.354-3.449c-0.114-0.317-0.227-0.635-0.341-0.953C7.764,58.564,7.078,57.985,7.599,57.316z"/>
	<path fill-rule="evenodd" clip-rule="evenodd" fill="#8C8375" d="M16.954,20.886c0.492-0.189,0.888-0.523,1.285-0.854
		c0.948-0.033,1.907-0.097,2.582,0.777c-1.101-0.003-2.097,0.302-2.961,0.999c-0.145-0.028-0.29-0.123-0.436-0.003l0.01,0.007
		c0.014-0.025,0.044-0.055,0.039-0.073c-0.015-0.044-0.046-0.083-0.071-0.124c-0.135-0.214,0.167-0.696-0.396-0.649L16.954,20.886z"
		/>
	<path fill-rule="evenodd" clip-rule="evenodd" fill="#444C4A" d="M18.279,16.413c0.743,0.367,0.716-0.452,1.073-0.71
		c0.21,0.384,0.393,0.744,0.849,0.927c0.729,0.293,0.709,0.634-0.007,1.162c-0.515-0.84-1.181-0.133-1.774-0.173
		c-0.016-0.162-0.031-0.323-0.046-0.485c0.05-0.01,0.1-0.021,0.15-0.031c-0.05,0.001-0.1,0.003-0.15,0.004
		C18.264,16.886,18.177,16.662,18.279,16.413z"/>
	<path fill-rule="evenodd" clip-rule="evenodd" fill="#9A9589" d="M24.795,5.835c-0.054-0.275-0.729-0.234-0.367-0.72
		c0.54-0.225,2.349,0.077,2.688,0.456c0.186,0.207,0.106,0.431,0.014,0.649c-0.568-0.102-1.128-0.271-1.715-0.194l0.001-0.001
		c-0.144-0.237-0.38-0.185-0.598-0.191L24.795,5.835z"/>
	<path fill-rule="evenodd" clip-rule="evenodd" fill="#B9B8B3" d="M18.419,17.619c0.593,0.04,1.259-0.667,1.774,0.173
		c-0.268,0.313,0.016,0.357,0.214,0.402c0.315,0.072,0.626,0.136,0.834,0.417c-0.87,0.169-1.579-0.373-2.373-0.543
		c-0.572-0.123-1.128-0.325-1.69-0.491c-0.009-0.041-0.004-0.08,0.015-0.117C17.641,17.215,17.988,17.739,18.419,17.619z"/>
	<path fill-rule="evenodd" clip-rule="evenodd" fill="#444C4A" d="M17.194,17.459c-0.019,0.037-0.024,0.077-0.015,0.117
		c-0.238,0.404,0.483,1.007-0.017,1.175c-1.321,0.443-0.569,1.462-0.762,2.209c-0.366-1.228,0.024-2.438,0.085-3.656
		c0.116,0.026,0.231,0.053,0.347,0.079C16.953,17.409,17.073,17.434,17.194,17.459z"/>
	<path fill-rule="evenodd" clip-rule="evenodd" fill="#EFB33B" d="M16.037,31.975c0.18,0.062,0.36,0.123,0.54,0.185
		c-0.008,0.51,0.51,0.718,0.684,1.148c-0.365,0.22-0.883-0.065-1.142,0.385c-0.235-0.011-0.469-0.023-0.704-0.034
		c-0.262-0.083-0.525-0.167-0.787-0.251c0.017-0.137,0.033-0.273,0.05-0.409C15.413,33.031,16.232,33.177,16.037,31.975z"/>
	<path fill-rule="evenodd" clip-rule="evenodd" fill="#CDD5D7" d="M6.403,44.072c0,0.565,0,1.131,0,1.695
		c-0.334,0.448-0.145,0.965-0.177,1.449c-0.03,0.457-0.006,0.919-0.154,1.375c0-2.168,0-4.336,0-6.617
		C6.419,42.708,5.977,43.462,6.403,44.072z"/>
	<path fill-rule="evenodd" clip-rule="evenodd" fill="#CDD5D7" d="M14.222,23.019c0.182-0.057,0.364-0.115,0.546-0.172
		c-0.072,0.123-0.144,0.246-0.215,0.369c-0.046,0.063-0.092,0.127-0.139,0.191c-0.716,0.901-0.527,1.996-0.648,3.024
		C13.075,25.533,13.278,24.01,14.222,23.019z"/>
	<path fill-rule="evenodd" clip-rule="evenodd" fill="#D8631B" d="M14.678,32.998c-0.017,0.136-0.033,0.272-0.05,0.409
		c-0.591-0.079-1.183-0.159-1.774-0.238c0.017-0.053,0.015-0.105-0.007-0.157c0.004-0.066,0.004-0.132-0.001-0.198
		c0.129-0.21,0.308-0.352,0.557-0.392c0.37,0.338,0.83,0.115,1.241,0.2C14.655,32.748,14.667,32.873,14.678,32.998z"/>
	<path fill-rule="evenodd" clip-rule="evenodd" fill="#9A9589" d="M28.622,5.829c0.576,0.529,1.445,0.55,2.018,1.202
		c-1.023-0.054-1.977-0.15-2.639-1.027C28.124,5.647,28.325,5.568,28.622,5.829z"/>
	<path fill-rule="evenodd" clip-rule="evenodd" fill="#F0F1F0" d="M9.619,42.217c0.866-0.295,1.597-0.079,2.209,0.585
		c-0.142,0.011-0.284,0.021-0.425,0.031c-0.489-0.084-0.95-0.327-1.466-0.251l-0.002,0.002c-0.105-0.057-0.21-0.113-0.314-0.17
		C9.616,42.349,9.616,42.283,9.619,42.217z"/>
	<path fill-rule="evenodd" clip-rule="evenodd" fill="#CDD5D7" d="M48.733,44.158c0.2-1.368-0.014-2.744,0.082-4.114
		C49.099,41.421,49.259,42.796,48.733,44.158z"/>
	<path fill-rule="evenodd" clip-rule="evenodd" fill="#CDD5D7" d="M7.224,44.216c-0.064-0.063-0.128-0.127-0.192-0.191
		c0.074-0.572,0.429-0.986,0.791-1.396c0.106,0.038,0.212,0.077,0.318,0.116C7.834,43.236,7.529,43.726,7.224,44.216z"/>
	<path fill-rule="evenodd" clip-rule="evenodd" fill="#CDD5D7" d="M11.402,42.833c0.142-0.01,0.283-0.021,0.425-0.031
		c0.391,0.012,0.782,0.022,1.172,0.034c0.01,0.169,0.021,0.338,0.031,0.507c-0.539-0.104-1.078-0.206-1.618-0.31
		C11.41,42.967,11.406,42.9,11.402,42.833z"/>
	<path fill-rule="evenodd" clip-rule="evenodd" fill="#CDD5D7" d="M13.8,27.014c0.125,0.26,0.209,0.527,0.147,0.821
		C13.521,27.629,13.037,27.434,13.8,27.014z"/>
	<path fill-rule="evenodd" clip-rule="evenodd" fill="#CDD5D7" d="M9.619,42.217c-0.003,0.065-0.003,0.132,0,0.197
		c-0.066,0.082-0.132,0.164-0.197,0.246c-0.26-0.029-0.542,0.016-0.744-0.215c-0.085-0.075-0.17-0.15-0.256-0.226
		C8.821,42.219,9.22,42.218,9.619,42.217z"/>
	<path fill-rule="evenodd" clip-rule="evenodd" fill="#B9B8B3" d="M36.219,8.61c-0.222,0.032-0.442,0.065-0.664,0.098
		c-0.11-0.03-0.221-0.061-0.331-0.092c-0.003-0.085-0.007-0.17-0.01-0.255C35.614,8.178,35.917,8.391,36.219,8.61z"/>
	<path fill-rule="evenodd" clip-rule="evenodd" fill="#F0F1F0" d="M8.422,42.22c0.085,0.075,0.171,0.15,0.256,0.226
		c-0.18,0.1-0.358,0.199-0.538,0.3c-0.106-0.039-0.212-0.078-0.318-0.116C7.925,42.35,8.126,42.216,8.422,42.22z"/>
	<path fill-rule="evenodd" clip-rule="evenodd" fill="#F0F1F0" d="M6.526,38.762c0.027,0.06,0.073,0.113,0.07,0.165
		c-0.002,0.051-0.055,0.098-0.085,0.147c-0.025-0.053-0.072-0.106-0.07-0.158C6.443,38.866,6.494,38.818,6.526,38.762z"/>
	<path fill-rule="evenodd" clip-rule="evenodd" fill="#B9B8B3" d="M16.832,17.384c-0.115-0.026-0.231-0.053-0.347-0.079
		c0.05-0.063,0.099-0.18,0.15-0.181C16.791,17.121,16.817,17.258,16.832,17.384z"/>
	<path fill-rule="evenodd" clip-rule="evenodd" fill="#8C8375" d="M35.214,8.361c0.003,0.085,0.007,0.17,0.01,0.255
		c-0.169,0.041-0.334,0.072-0.416-0.142C34.943,8.436,35.078,8.398,35.214,8.361z"/>
	<path fill-rule="evenodd" clip-rule="evenodd" fill="#F0BE63" d="M13.343,30.131c0.097-0.119,0.193-0.238,0.291-0.358
		c0.027,0.025,0.044,0.056,0.051,0.093c-0.079,0.128-0.157,0.256-0.234,0.385C13.414,30.211,13.378,30.171,13.343,30.131z"/>
	<path fill-rule="evenodd" clip-rule="evenodd" fill="#F0F1F0" d="M6.959,57.262c-0.021,0.005-0.051,0.02-0.061,0.011
		c-0.017-0.014-0.021-0.043-0.029-0.066c0.035-0.006,0.069-0.014,0.104-0.02C6.968,57.212,6.963,57.237,6.959,57.262z"/>
	<path fill-rule="evenodd" clip-rule="evenodd" fill="#F0BE63" d="M13.012,30.411c0.11-0.093,0.221-0.186,0.331-0.279
		c0.035,0.04,0.071,0.08,0.107,0.119c-0.11,0.082-0.22,0.164-0.33,0.246C13.084,30.468,13.048,30.44,13.012,30.411z"/>
	<path fill-rule="evenodd" clip-rule="evenodd" fill="#B9B8B3" d="M30.999,6.196c0.039-0.023,0.08-0.046,0.12-0.068
		c-0.02,0.043-0.038,0.087-0.056,0.131C31.063,6.259,30.999,6.196,30.999,6.196z"/>
	<path fill-rule="evenodd" clip-rule="evenodd" fill="#F0F1F0" d="M36.839,48.575c0.025,0.046,0.056,0.089,0.072,0.137
		c0.006,0.016-0.025,0.044-0.04,0.066C36.86,48.71,36.85,48.642,36.839,48.575z"/>
	<path fill-rule="evenodd" clip-rule="evenodd" fill="#F0F1F0" d="M36.973,50.422c0.003,0.065,0.006,0.13,0.009,0.194
		c-0.023-0.045-0.053-0.088-0.067-0.136C36.91,50.468,36.952,50.443,36.973,50.422z"/>
	<path fill-rule="evenodd" clip-rule="evenodd" fill="#F0F1F0" d="M17.4,21.616c0.025,0.041,0.057,0.08,0.071,0.124
		c0.006,0.018-0.024,0.048-0.039,0.073c-0.079-0.059-0.158-0.119-0.237-0.178C17.264,21.628,17.332,21.622,17.4,21.616z"/>
	<path fill-rule="evenodd" clip-rule="evenodd" fill="#B9B8B3" d="M18.374,17.106c0.05-0.001,0.1-0.003,0.15-0.004
		c-0.05,0.01-0.101,0.021-0.15,0.031L18.374,17.106z"/>
	<path fill-rule="evenodd" clip-rule="evenodd" fill="#F0F1F0" d="M36.775,47.823c0.007,0.065,0.014,0.13,0.021,0.195
		c-0.027-0.044-0.061-0.087-0.079-0.134C36.713,47.873,36.755,47.843,36.775,47.823z"/>
	<path fill-rule="evenodd" clip-rule="evenodd" fill="#444C4A" d="M16.954,20.886l0.05,0.081l-0.079,0.041l-0.086-0.022
		C16.857,20.924,16.896,20.892,16.954,20.886z"/>
	<path fill-rule="evenodd" clip-rule="evenodd" fill="#393837" d="M26.887,20.622c0.475-0.093,0.908,0.123,1.362,0.18
		c0.314,0.13,0.628,0.26,0.942,0.39c1.147,0.107,2.158,0.639,3.216,1.024c0.523,0.567,1.32,0.487,1.943,0.819
		c-0.389,0.561-0.635,1.244,0.103,1.576c0.619,0.279,0.553,0.649,0.553,1.109c0,0.394,0.012,0.787,0.019,1.18
		c0.009,0.507,0.018,1.014,0.026,1.52c-0.09,1.197-0.179,2.395-0.269,3.591c-0.375-0.751-0.242-1.609-0.504-2.384
		c-0.132-0.604,0.094-1.252-0.222-1.834c-0.06-0.201,0.104-0.489-0.226-0.586l0.006,0.009c0.02-0.758-0.125-1.445-0.814-1.899
		l-0.003-0.056c-0.013-0.074-0.024-0.148-0.037-0.222c0.058-0.272-0.053-0.415-0.33-0.426c-0.377-0.908-1.802-1.791-2.691-1.613
		c-0.377,0.076-0.881,0.049-0.978,0.614c-0.562-0.031-0.716,0.8-1.341,0.635c-0.013-0.136-0.026-0.272-0.039-0.409
		c0-0.62-0.009-1.239,0.007-1.858c0.006-0.209,0.02-0.41-0.202-0.492c-0.104-0.039-0.276-0.032-0.358,0.031
		c-0.264,0.201,0.076,0.308,0.099,0.466c0.089,0.62,0.206,1.256-0.534,1.602c-0.363-0.707-0.676-0.093-1.007,0.038
		c-0.203,0.124-0.401,0.112-0.596-0.018c0.138-0.752,0.941-1.319,0.61-2.201c0.529-0.018,1.068-0.021,1.045-0.779
		C26.741,20.626,26.813,20.625,26.887,20.622z M26.753,22.65c-0.025-0.056-0.038-0.136-0.077-0.154
		c-0.039-0.017-0.105,0.031-0.16,0.051c0.034,0.067,0.067,0.134,0.101,0.201C26.662,22.715,26.706,22.684,26.753,22.65z
		 M26.143,22.559c-0.021,0.004-0.053,0.002-0.062,0.015c-0.014,0.02-0.012,0.05-0.017,0.075c0.035-0.007,0.071-0.014,0.106-0.021
		C26.161,22.605,26.152,22.582,26.143,22.559z"/>
	<path fill-rule="evenodd" clip-rule="evenodd" fill="#5A1C18" d="M29.191,21.192c-0.314-0.13-0.628-0.26-0.942-0.39
		c0.127-1.202-0.625-2.334-0.253-3.573c0.11-0.367-0.271-0.835-0.608-0.747c-0.678,0.177-1.169-0.331-1.801-0.29
		c-0.872,0.057-1.043-0.562-0.942-1.273c0.103-0.717,0.553-0.76,1.176-0.613c0.672,0.159,1.256,0.455,1.87,0.731
		c0.614,0.277,1.471,0.255,2.221,0.38c0.985,0.165,2.257,1.094,2.411,1.788c0.063,0.282,0.114,0.525-0.157,0.706
		c-0.281,0.188-0.475-0.044-0.718-0.137c-0.335-0.128-0.571-0.73-1-0.358c-0.308,0.268-0.867-0.209-0.933,0.294
		c-0.11,0.849-0.658,1.621-0.461,2.51C29.126,20.544,29.251,20.853,29.191,21.192z"/>
	<path fill-rule="evenodd" clip-rule="evenodd" fill="#393837" d="M36.232,20.438c0.193,0.886,0.727,1.111,1.483,0.912
		c0.221-0.058,0.443-0.232,0.629,0.011c0.155,0.205,0.067,0.429-0.033,0.653c-0.484,1.073-0.463,2.153-0.01,3.231
		c0.09,0.216,0.227,0.492-0.024,0.61c-0.248,0.117-0.587,0.148-0.855,0.087c-0.293-0.067-0.23-0.387-0.142-0.591
		c0.492-1.127-0.082-2.093-0.52-3.036c-0.158-0.341-0.737-0.156-1.044,0.034c-0.283,0.176-0.507,0.373-0.752,0.048
		c-0.265-0.35-0.139-0.69,0.166-0.968C35.47,21.119,35.814,20.814,36.232,20.438z"/>
	<path fill-rule="evenodd" clip-rule="evenodd" fill="#329D83" d="M22.68,5.536c0.705,0.1,1.411,0.2,2.115,0.299l0.023-0.001
		c0.146,0.229,0.384,0.174,0.598,0.191l-0.001,0.001c0.263,0.125,0.526,0.25,0.79,0.374c-0.314,0.376-0.628,0.752-0.931,1.114
		c-0.28-0.076-0.186-0.269-0.207-0.413c-0.03-0.218,0.103-0.526-0.145-0.627c-0.322-0.132-0.438,0.216-0.59,0.409
		c-0.498,0.635-0.979,1.284-1.618,2.128C22.601,7.676,22.573,6.608,22.68,5.536z"/>
	<path fill-rule="evenodd" clip-rule="evenodd" fill="#329D83" d="M26.832,11.937c-0.017-1.176,0.426-1.499,1.608-1.174
		c1.485,0.408,2.016,1.003,1.933,2.168c-0.059,0.839-0.485,1.184-1.303,1.055C27.477,13.734,26.849,13.16,26.832,11.937z
		 M30.003,12.711c0.016-0.825-0.603-1.303-1.903-1.475c-0.432-0.058-0.809-0.028-0.881,0.523c-0.132,1,0.455,1.364,1.312,1.505
		c0.227,0.038,0.445,0.131,0.672,0.169C29.762,13.527,30.003,13.248,30.003,12.711z"/>
	<path fill-rule="evenodd" clip-rule="evenodd" fill="#5A1C18" d="M42.427,34.602c-0.67,0.611-1.34,1.223-2.011,1.834
		c-0.212-0.639-0.215-1.298-0.199-1.96c0.356-0.358,0.953-0.572,0.755-1.261C41.626,33.5,42.267,33.799,42.427,34.602z"/>
	<path fill-rule="evenodd" clip-rule="evenodd" fill="#B9B8B3" d="M26.667,20.629c0.023,0.758-0.517,0.761-1.045,0.779
		c-0.487-0.598-1.194-0.52-1.849-0.602c-0.057,0.049-0.113,0.098-0.169,0.146c-0.096,0.019-0.191,0.037-0.287,0.056
		c-0.092-0.12-0.185-0.24-0.277-0.36c0.044-0.026,0.092-0.041,0.144-0.042c0.148-0.063,0.296-0.126,0.444-0.189
		c0.943,0.007,0.102-0.695,0.378-0.952c0.729,0.214,1.711-0.097,2.026,0.976C26.154,20.805,26.456,20.565,26.667,20.629z"/>
	<path fill-rule="evenodd" clip-rule="evenodd" fill="#5A1C18" d="M37.417,38.456c-0.326-0.079-0.652-0.158-0.979-0.237
		c-0.556-0.328-1.112-0.657-1.669-0.986c0.287-0.007,0.463-0.16,0.644-0.384c0.775-0.963,1.353-0.866,1.85,0.25
		C37.463,37.547,37.393,38,37.417,38.456z"/>
	<path fill-rule="evenodd" clip-rule="evenodd" fill="#5A1C18" d="M37.011,33.193c-0.234-0.39-0.27-0.818-0.137-1.233
		c0.129-0.4,0.293-0.889,0.805-0.865c0.51,0.023,0.805,0.44,0.89,0.921c0.06,0.339,0.243,0.879-0.517,0.644
		c-0.382-0.118-0.424,0.181-0.427,0.465C37.42,33.148,37.216,33.171,37.011,33.193z"/>
	<path fill-rule="evenodd" clip-rule="evenodd" fill="#9A9589" d="M34.782,32.012c0.09-1.197,0.179-2.394,0.268-3.591
		c0.088,0.011,0.176,0.021,0.264,0.032c-0.113,1.78-0.228,3.561-0.342,5.341c-0.251-0.294-0.08-0.662-0.17-0.985
		C34.796,32.543,34.789,32.278,34.782,32.012z"/>
	<path fill-rule="evenodd" clip-rule="evenodd" fill="#B9B8B3" d="M34.35,23.035c-0.622-0.333-1.419-0.252-1.942-0.819
		c1.143,0.185,2.354,0.188,3.184,1.2c-0.167,0.125-0.192,0.259-0.028,0.407c-0.046,0.333-0.091,0.667-0.137,1
		c-0.06-0.006-0.12-0.011-0.181-0.017C35.095,24.141,35.681,23.103,34.35,23.035z"/>
	<path fill-rule="evenodd" clip-rule="evenodd" fill="#444C4A" d="M40.972,33.214c0.198,0.689-0.398,0.903-0.755,1.261
		c-0.734,0.027-0.39-0.48-0.401-0.812c0.21-0.282-0.085-0.662,0.182-0.932C40.322,32.894,40.647,33.054,40.972,33.214z"/>
	<path fill-rule="evenodd" clip-rule="evenodd" fill="#393837" d="M34.612,37.166c-0.299-0.111-0.599-0.223-0.896-0.333
		c-0.031-0.067-0.063-0.134-0.094-0.202c-0.077-0.714,0.59-0.587,0.934-0.824c0.089,0.075,0.178,0.15,0.268,0.225
		C34.809,36.419,34.907,36.83,34.612,37.166z"/>
	<path fill-rule="evenodd" clip-rule="evenodd" fill="#444C4A" d="M37.011,33.193c0.205-0.022,0.409-0.045,0.614-0.068
		c0.33,0.167,0.806,0.109,0.939,0.578c0.038,0.135-0.06,0.255-0.204,0.279c-0.485,0.083-0.904-0.059-1.229-0.425
		C37.055,33.469,37.05,33.316,37.011,33.193z"/>
	<path fill-rule="evenodd" clip-rule="evenodd" fill="#8C8375" d="M34.823,36.031c-0.09-0.075-0.179-0.15-0.268-0.225
		c0.088-0.999-0.023-2.014,0.246-2.997c0.09,0.323-0.081,0.69,0.17,0.985C35.062,34.549,34.951,35.291,34.823,36.031z"/>
	<path fill-rule="evenodd" clip-rule="evenodd" fill="#797366" d="M35.313,28.453c-0.088-0.011-0.176-0.021-0.264-0.032
		c-0.008-0.507-0.017-1.014-0.025-1.521c0.067-0.159,0.135-0.318,0.201-0.476c0.056,0.001,0.111-0.004,0.166-0.014
		C35.446,27.093,35.479,27.777,35.313,28.453z"/>
	<path fill-rule="evenodd" clip-rule="evenodd" fill="#9A9589" d="M35.392,26.409c-0.055,0.01-0.11,0.015-0.166,0.014
		c0.007-0.539,0.014-1.078,0.02-1.617c0.061,0.005,0.121,0.011,0.181,0.017C35.415,25.352,35.403,25.88,35.392,26.409z"/>
	<path fill-rule="evenodd" clip-rule="evenodd" fill="#2E456A" d="M26.667,20.629c-0.211-0.064-0.514,0.176-0.635-0.189
		c0.28,0.08,0.633-0.177,0.854,0.182C26.813,20.625,26.741,20.626,26.667,20.629z"/>
	<path fill-rule="evenodd" clip-rule="evenodd" fill="#9A9589" d="M35.563,23.823c-0.164-0.148-0.139-0.283,0.028-0.407
		C35.582,23.552,35.572,23.688,35.563,23.823z"/>
	<path fill-rule="evenodd" clip-rule="evenodd" fill="#8C8375" d="M34.205,8.381c0.095-0.115,0.165-0.089,0.216,0.039
		C34.349,8.407,34.277,8.394,34.205,8.381z"/>
	<path fill-rule="evenodd" clip-rule="evenodd" fill="#9A9589" d="M26.837,48.544c2.493,1.025,3.696,2.939,3.823,5.581
		c0.027,0.561-0.013,1.124-0.021,1.687c-0.358-0.014-0.641,0.063-0.617,0.51c0.02,0.365-0.161,0.525-0.52,0.499
		c-0.168-0.394,0.072-0.873-0.26-1.232c-0.123-0.401,0.191-0.687,0.275-1.032c0.074-0.311-0.023-0.632-0.239-0.812
		c-0.2-0.167-0.271,0.221-0.458,0.267c-0.053-0.399,0.152-0.84-0.186-1.195c-0.059-0.132-0.117-0.264-0.176-0.396
		c-0.08-0.334-0.16-0.668-0.241-1.001c-0.103-0.49-0.374-0.989-0.873-0.885c-0.537,0.113-0.384,0.749-0.297,1.125
		c0.196,0.852,0.152,1.813,0.947,2.447c0.298,0.238,0.233,0.601,0.19,0.935c-0.777-0.449-1.431-1.021-1.687-1.915
		c-0.27-0.942-0.577-1.885-0.495-2.891c0.2-0.098,0.256-0.39,0.532-0.388c0.257,0.002,0.648,0.355,0.732-0.09
		c0.072-0.383-0.418-0.438-0.696-0.52c-0.301-0.088-0.54-0.259-0.736-0.452c-0.238-0.232,0.076-0.285,0.218-0.376
		c0.123-0.004,0.246-0.007,0.369-0.011C26.511,48.592,26.647,48.646,26.837,48.544z"/>
	<path fill-rule="evenodd" clip-rule="evenodd" fill="#8C8375" d="M8.14,42.746c0.179-0.101,0.358-0.2,0.538-0.3
		c0.202,0.23,0.484,0.186,0.744,0.215c0.505,0.841,1.09,0.95,1.992,0.373c0.54,0.104,1.079,0.206,1.618,0.31
		c0.13,0.024,0.259,0.048,0.389,0.072c0.138,0.1,0.276,0.199,0.414,0.298c0.005,0.257-0.076,0.539,0.211,0.712
		c0.224,0.826,1.133,0.525,1.59,0.968c-0.005,0.138-0.011,0.274-0.016,0.412c-0.729-0.153-1.458-0.307-2.187-0.46
		c-0.286-0.16-0.634-0.38-0.905-0.191c-0.307,0.215-0.119,0.625-0.021,0.912c0.262,0.77,0.064,1.569,0.217,2.341
		c-0.034,0.14-0.069,0.279-0.103,0.419c-0.368-0.358-0.152-0.815-0.206-1.227c-0.04-0.309,0.104-0.698-0.383-0.786
		c-0.025-0.159-0.037-0.325-0.214-0.403l0.009,0.011c-0.072-0.422,0.11-0.932-0.414-1.196c0.01-0.171-0.029-0.317-0.197-0.4
		c-0.069-0.16-0.215-0.177-0.36-0.195c-0.145-0.004-0.288-0.008-0.433-0.012c-0.01-0.059-0.017-0.118-0.02-0.179
		c-0.011-0.146,0.014-0.34-0.201-0.328c-0.071,0.004-0.135,0.167-0.202,0.257l0.025,0.086c-1.071,0.035-0.745,1.053-1.113,1.582
		c-0.222,0.009-0.444,0.019-0.667,0.027c-0.128-1.033,0.34-1.879,0.942-2.744c-0.659-0.045-0.95,0.37-1.287,0.704
		c-0.444,0.44-0.238,1.153-0.672,1.597c-0.123,0.002-0.247,0.005-0.37,0.008c-0.214-0.557,0.361-0.909,0.364-1.41
		C7.529,43.726,7.834,43.236,8.14,42.746z"/>
	<path fill-rule="evenodd" clip-rule="evenodd" fill="#797366" d="M15.62,45.805c0.005-0.138,0.011-0.274,0.016-0.411
		c0.444-0.034,0.847,0.138,1.248,0.28c1.431,0.508,2.85,1.048,4.282,1.55c0.265,0.093,0.589,0.437,0.854-0.031
		c0.064-0.182,0.129-0.363,0.193-0.546c0.322,0.081,0.644,0.163,0.966,0.244c0.9,0.617,2.129,0.611,2.875,1.52
		c-0.142,0.091-0.456,0.144-0.218,0.376c0.197,0.193,0.436,0.364,0.736,0.452c0.278,0.081,0.769,0.137,0.696,0.52
		c-0.084,0.445-0.476,0.092-0.732,0.09c-0.276-0.002-0.332,0.29-0.532,0.388c-0.159,0.06-0.318,0.119-0.478,0.18
		c-0.444,0.031-0.486-0.3-0.551-0.61c-0.063-0.565-0.59-0.567-0.945-0.74C21.318,47.747,18.443,46.842,15.62,45.805z M22.217,47.578
		c0.417,0.219,0.73,0.383,1.349,0.343C23.08,47.561,22.809,47.269,22.217,47.578z M24.711,48.456
		c-0.28-0.205-0.551-0.484-1.029-0.343C23.992,48.449,24.339,48.478,24.711,48.456z"/>
	<path fill-rule="evenodd" clip-rule="evenodd" fill="#8C8375" d="M26.615,69.84c-0.006-0.047-0.011-0.095-0.014-0.142
		c0.015-0.232,0.03-0.465,0.044-0.697c0.231,0.006,0.462,0.014,0.694,0.018c1.411,0.018,1.629-0.146,2.015-1.484
		c0.146-0.505,0.304-1.007,0.456-1.51c0.348-0.16,0.037-0.798,0.588-0.81c-0.006,0.463,0.021,0.929-0.023,1.387
		C30.136,69.09,29.097,69.978,26.615,69.84z"/>
	<path fill-rule="evenodd" clip-rule="evenodd" fill="#CDD5D7" d="M23.18,46.891c-0.322-0.081-0.644-0.163-0.966-0.244
		c-0.552-0.342-1.131-0.605-1.794-0.632c-0.125-0.035-0.257-0.057-0.376-0.108c-2.016-0.884-4.043-1.735-6.21-2.193
		c-0.138-0.099-0.276-0.198-0.414-0.298c0.36-0.334,0.736-0.173,1.112-0.035c2.672,0.976,5.432,1.705,8.041,2.859
		C22.871,46.372,23.237,46.43,23.18,46.891z"/>
	<path fill-rule="evenodd" clip-rule="evenodd" fill="#797366" d="M30.399,65.215c-0.551,0.012-0.24,0.649-0.588,0.81
		c-0.001-0.492,0.021-0.986-0.008-1.477c-0.063-1.062,0.281-2.172-0.365-3.166c-0.033-0.171,0.03-0.301,0.171-0.398
		c0.294-0.127,0.589-0.253,0.884-0.38C30.784,62.148,30.396,63.677,30.399,65.215z"/>
	<path fill-rule="evenodd" clip-rule="evenodd" fill="#8C8375" d="M29.504,56.821c0.357,0.026,0.538-0.134,0.519-0.499
		c-0.023-0.446,0.259-0.523,0.617-0.51c0.065,0.684,0.336,1.375-0.085,2.038c-0.066,0.006-0.133,0.012-0.199,0.018
		c0.247-0.499,0.093-0.707-0.456-0.632C29.703,57.159,29.521,57.068,29.504,56.821z"/>
	<path fill-rule="evenodd" clip-rule="evenodd" fill="#B9B8B3" d="M38.16,67.828c-0.663-0.044-1.32-0.03-1.957,0.189
		c0.063-0.144,0.126-0.288,0.188-0.433c0.591-0.169,0.482-0.91,0.96-1.172C37.621,66.884,37.891,67.356,38.16,67.828z"/>
	<path fill-rule="evenodd" clip-rule="evenodd" fill="#393837" d="M30.493,60.604c-0.295,0.127-0.59,0.253-0.884,0.381
		c-0.006-0.175-0.012-0.349-0.017-0.523c0.223-0.439,0.044-1.14,0.8-1.233c0.013,0.063,0.024,0.125,0.034,0.188
		c0.025,0.157,0.05,0.314,0.075,0.472C30.499,60.126,30.496,60.366,30.493,60.604z"/>
	<path fill-rule="evenodd" clip-rule="evenodd" fill="#393837" d="M30.355,57.869c0.066-0.007,0.133-0.013,0.199-0.019
		c-0.011,0.183-0.022,0.364-0.034,0.546c-0.044,0.133-0.088,0.265-0.133,0.397C30.122,58.495,30.165,58.184,30.355,57.869z"/>
	<path fill-rule="evenodd" clip-rule="evenodd" fill="#8C8375" d="M30.388,58.793c0.045-0.133,0.089-0.265,0.133-0.397
		c0.169,0.338,0.11,0.684,0.043,1.031c-0.046-0.001-0.091-0.005-0.137-0.011c-0.01-0.063-0.021-0.126-0.034-0.188
		C30.392,59.083,30.39,58.938,30.388,58.793z"/>
	<path fill-rule="evenodd" clip-rule="evenodd" fill="#CDD5D7" d="M26.837,48.544c-0.19,0.102-0.326,0.048-0.413-0.145
		C26.678,48.115,26.762,48.316,26.837,48.544z"/>
	<path fill-rule="evenodd" clip-rule="evenodd" fill="#797366" d="M30.427,59.417c0.046,0.006,0.091,0.01,0.137,0.011
		c0.045,0.162,0.059,0.32-0.062,0.461C30.477,59.731,30.452,59.574,30.427,59.417z"/>
	<path fill-rule="evenodd" clip-rule="evenodd" fill="#D8631B" d="M40.972,33.214c-0.324-0.16-0.649-0.321-0.975-0.482
		c-0.309-1.03-0.171-2.075-0.113-3.117c0.029,0.021,0.061,0.036,0.097,0.042c0.232,0.55,0.751,0.646,1.243,0.783
		c0.037,0.021,0.076,0.027,0.118,0.021c0.163,0.381,0.476,0.533,0.864,0.571l-0.001,0.009c0.104,0.128,0.197,0.266,0.313,0.383
		c1.282,1.298,1.265,1.972-0.091,3.179C42.267,33.799,41.626,33.5,40.972,33.214z"/>
	<path fill-rule="evenodd" clip-rule="evenodd" fill="#393837" d="M46.461,55.911c-0.42,2.437-0.647,4.91-1.439,7.275
		c-0.487,1.453-1.144,2.82-1.997,4.09c-0.612,0.912-1.43,1.458-2.592,1.289c-0.044-0.96-0.818-1.624-0.994-2.549
		c-0.707-3.707-0.453-7.383,0.309-11.039c0.482-2.315,1.396-4.479,2.366-6.634c0.767-1.702,1.133-2.107,2.873-2.144
		c-0.067,0.754,0.241,1.246,0.993,1.431c0.023,0.109,0.048,0.218,0.072,0.327c0.027,0.082,0.056,0.163,0.083,0.245
		c0.038,0.199,0.076,0.398,0.114,0.598c-0.302,0.021-0.593,0.06-0.703,0.409c-0.056-0.061-0.112-0.121-0.168-0.182
		c0.023-0.132-0.037-0.187-0.166-0.181c-0.115-0.283-0.307-0.496-0.582-0.633c-1.146-0.316-1.678,0.033-2.433,1.596
		c-0.306,0.34-0.499,0.735-0.589,1.182c-0.04,0.074-0.08,0.148-0.121,0.223c-0.046,0.127-0.093,0.254-0.139,0.381
		c-1.615,4.149-2.141,8.431-1.446,12.832c0.14,0.885,0.306,1.98,1.446,2.168c1.173,0.193,1.691-0.791,2.169-1.612
		c1.074-1.848,1.734-3.854,2.057-5.969c0.159-1.131,0.318-2.262,0.478-3.393c0.272-1.069,0.268-2.138,0.001-3.207
		c0.001-0.673-0.369-1.304-0.22-1.993c0.222-0.008,0.442-0.015,0.663-0.022l0.021,0.058l-0.045,0.042
		c-0.048,0.319-0.154,0.647,0.125,0.922c0.108,1.408,0.102,2.814-0.09,4.216C46.492,55.728,46.477,55.82,46.461,55.911z"/>
	<path fill-rule="evenodd" clip-rule="evenodd" fill="#1C1B1D" d="M44.986,46.2c-1.74,0.036-2.106,0.441-2.873,2.144
		c-0.97,2.154-1.884,4.318-2.366,6.634c-0.762,3.656-1.016,7.332-0.309,11.039c0.176,0.925,0.95,1.589,0.994,2.549
		c-0.16-0.019-0.321-0.038-0.482-0.059c-0.177-0.029-0.354-0.059-0.531-0.087c-0.498-0.03-0.885-0.299-1.259-0.592
		c-0.27-0.472-0.539-0.943-0.809-1.415c0.446-5.646,1.129-11.247,3.267-16.559c0.585-1.454,1.25-2.876,2.416-3.978
		c0.831-0.785,1.409-0.75,2.03,0.064C45.038,46.028,45.013,46.114,44.986,46.2z"/>
	<path fill-rule="evenodd" clip-rule="evenodd" fill="#444C4A" d="M11.433,63.599c0.002-0.163,0.041-0.308,0.196-0.395
		c0.325,0.074,0.65,0.149,0.975,0.224c0.241,0.376,0.508,0.698,1.029,0.535c0.782,0.295,1.563,0.59,2.346,0.884
		c0.233,0.369,0.629,0.463,1,0.605c1.549,0.596,3.151,1.089,4.627,1.832c1.351,0.681,2.747,1.076,4.206,1.348
		c0.012,0.053,0.034,0.102,0.066,0.146c-0.024,0.205-0.048,0.41-0.072,0.616c-2.005-0.436-3.943-1.097-5.858-1.813
		C17.007,66.481,14.14,65.208,11.433,63.599z"/>
	<path fill-rule="evenodd" clip-rule="evenodd" fill="#444C4A" d="M45.546,49.209c0.11-0.35,0.401-0.389,0.703-0.409
		c0.268,0.505,0.272,1.049,0.247,1.599c-0.221,0.008-0.441,0.015-0.663,0.022C45.505,50.073,45.595,49.625,45.546,49.209z"/>
	<path fill-rule="evenodd" clip-rule="evenodd" fill="#444C4A" d="M44.986,46.2c0.026-0.086,0.052-0.172,0.078-0.259
		c0.786,0.303,0.816,1.015,0.915,1.689C45.228,47.446,44.919,46.954,44.986,46.2z"/>
	<path fill-rule="evenodd" clip-rule="evenodd" fill="#797366" d="M25.807,69.395c0.024-0.206,0.048-0.411,0.071-0.616
		c0.256,0.074,0.512,0.148,0.769,0.222c-0.015,0.233-0.03,0.466-0.045,0.698C26.337,69.597,26.072,69.497,25.807,69.395z"/>
	<path fill-rule="evenodd" clip-rule="evenodd" fill="#444C4A" d="M46.597,51.42c-0.279-0.274-0.173-0.603-0.125-0.922
		C46.694,50.781,46.647,51.101,46.597,51.42z"/>
	<path fill-rule="evenodd" clip-rule="evenodd" fill="#393837" d="M39.419,68.419c0.178,0.028,0.354,0.058,0.531,0.087
		C39.75,68.621,39.581,68.543,39.419,68.419z"/>
	<path fill-rule="evenodd" clip-rule="evenodd" fill="#444C4A" d="M46.135,48.203c-0.027-0.082-0.056-0.163-0.083-0.245
		C46.157,48.012,46.189,48.092,46.135,48.203z"/>
	<path fill-rule="evenodd" clip-rule="evenodd" fill="#444C4A" d="M46.461,55.911c0.016-0.091,0.031-0.183,0.046-0.274
		C46.492,55.728,46.477,55.82,46.461,55.911z"/>
	<path fill-rule="evenodd" clip-rule="evenodd" fill="#1C1B1D" d="M27.604,23.84c0.013,0.136,0.026,0.272,0.039,0.409
		c-0.142,0.119-0.283,0.237-0.424,0.356c-0.24,0.048-0.479,0.097-0.719,0.146c-0.47-0.123-0.905-0.714-1.41-0.277
		c-0.411,0.355,0.053,0.769,0.146,1.153c-0.01,0.124-0.021,0.247-0.031,0.37c-1.347,2.286-1.297,4.648-0.386,7.057
		c-0.667-0.158-1.333-0.315-2-0.472c-1.237-0.474-2.54-0.701-3.822-1.007c-0.117-0.032-0.233-0.063-0.349-0.097
		c0.095-0.089,0.188-0.177,0.28-0.264c1.293-0.132,1.577-0.756,0.864-1.896c-0.011-0.096-0.021-0.192-0.033-0.289
		c0.033-0.268,0.066-0.535,0.099-0.803c1.398-0.27,1.95-1.051,1.969-2.793c0.338-0.138,0.485-0.561,0.891-0.598
		c0.124,0.904-0.331,1.831,0.106,2.727c0.333-1.167,0.731-2.325,0.196-3.536c-0.161-0.666-0.081-1.094,0.767-0.798
		c0.404,0.141,0.816,0.255,1.225,0.382c0.195,0.131,0.394,0.142,0.596,0.019c0.283,0.326,0.664,0.16,1.003,0.198
		c0.068,0.011,0.137,0.022,0.205,0.033c0.097,0.084,0.158,0.056,0.191-0.061C27.222,23.591,27.396,23.947,27.604,23.84z
		 M21.421,30.222c0.087-0.027,0.175-0.054,0.263-0.081c-0.017-0.025-0.035-0.051-0.052-0.076c-0.072,0.05-0.144,0.101-0.216,0.152
		c-0.015,0.03-0.029,0.06-0.044,0.09C21.389,30.279,21.405,30.25,21.421,30.222z M22.767,28.518
		c-0.708,0.191-0.687,0.732-0.827,1.174C22.36,29.424,22.676,29.091,22.767,28.518z"/>
	<path fill-rule="evenodd" clip-rule="evenodd" fill="#B9B8B3" d="M24.818,33.053c-0.912-2.409-0.961-4.771,0.386-7.057
		c0.317,0.126,0.365,0.079,0.403-0.395l-0.003,0.006c0.295,0.051,0.475-0.111,0.62-0.336c0.063-0.089,0.126-0.179,0.19-0.268
		l-0.008,0.005c0.679,0.032,1.336,0.286,2.026,0.202l-0.009-0.007c0.065,0.076,0.132,0.152,0.197,0.229
		c0.089,0.162,0.235,0.196,0.404,0.182c-0.001,0.275,0.132,0.41,0.411,0.392c-0.033,0.177,0.012,0.324,0.164,0.431
		c0.046,0.351,0.27,0.577,0.542,0.768c0.728,1.635,1.042,3.341,0.88,5.129c0.03,0.199-0.016,0.371-0.18,0.5
		c-0.359,0.242-0.441,0.598-0.41,1l0.019-0.005c-0.788,0.555-1.212,1.48-2.033,2.003c-0.665,0.204-1.25-0.01-1.808-0.353
		c-0.252-0.232-0.504-0.464-0.757-0.697C25.507,34.206,25.163,33.629,24.818,33.053z M30.366,30.871
		c-0.008-1.622-0.565-3.218-1.417-4.176c-1.173-1.318-2.629-1.188-3.509,0.332c-1.456,2.513-0.717,5.37,1.039,7.285
		c0.95,1.037,2.133,0.885,2.969-0.255C30.17,33.071,30.274,31.911,30.366,30.871z"/>
	<path fill-rule="evenodd" clip-rule="evenodd" fill="#1C1B1D" d="M34.802,32.809c-0.27,0.983-0.158,1.998-0.246,2.997
		c-0.344,0.237-1.011,0.11-0.934,0.824c-0.887-0.334-1.76-0.71-2.663-0.99c-0.791-0.246-0.897-0.531-0.213-1.039
		c0.206-0.153,0.387-0.338,0.577-0.507c0.147-0.066,0.297-0.133,0.445-0.201c0.113,0.317,0.379,0.327,0.651,0.325
		c0.022,0.583-0.146,1.232,0.547,1.606c0.308-0.722,0.488-1.375-0.549-1.605c0.218-0.362,0.206-0.655-0.247-0.814
		c0.079-0.135,0.158-0.271,0.237-0.406c1.141,0.608,1.185-0.314,1.397-1.001c0.062-0.266,0.123-0.532,0.185-0.797
		c0.271-0.493,0.223-1.043,0.288-1.573c0.262,0.775,0.129,1.633,0.504,2.384C34.789,32.278,34.796,32.543,34.802,32.809z"/>
	<path fill-rule="evenodd" clip-rule="evenodd" fill="#797366" d="M31.769,33.893c-0.148,0.067-0.298,0.135-0.445,0.201
		c-0.225-0.324,0.174-0.923-0.469-1.062c-0.016-0.065-0.02-0.131-0.014-0.198c0.164-0.129,0.21-0.301,0.18-0.501
		c0.131-0.049,0.262-0.098,0.392-0.146c0.456-0.079,0.884-0.215,1.203-0.58c0.345-0.102,0.538-0.394,0.78-0.623
		c0.121-0.013,0.179-0.077,0.16-0.2c0.023-0.055,0.052-0.107,0.084-0.158c0.116,0.192,0.233,0.384,0.351,0.575
		c-0.062,0.266-0.123,0.531-0.185,0.797c-0.72-0.021-1.157,0.353-1.397,1.001c-0.079,0.135-0.158,0.271-0.237,0.406
		C31.952,33.498,31.816,33.659,31.769,33.893z"/>
	<path fill-rule="evenodd" clip-rule="evenodd" fill="#EFB33B" d="M25.851,34.782c0.252,0.232,0.504,0.465,0.757,0.697
		c0.136,0.58,0.001,0.909-0.664,0.661c-1.321-0.493-2.636-1.004-3.938-1.584c1.113,0.172,2.224,0.283,3.338,0.368
		C25.552,34.939,25.729,35.007,25.851,34.782z"/>
	<path fill-rule="evenodd" clip-rule="evenodd" fill="#5A1C18" d="M18.997,31.574c1.282,0.306,2.584,0.533,3.822,1.007
		c-1.126,0.507-2.241,0.157-3.331-0.117C19.208,32.394,18.736,32.102,18.997,31.574z"/>
	<path fill-rule="evenodd" clip-rule="evenodd" fill="#CDD5D7" d="M28.416,35.832c0.821-0.523,1.245-1.448,2.033-2.003
		C30.177,34.908,29.557,35.634,28.416,35.832z"/>
	<path fill-rule="evenodd" clip-rule="evenodd" fill="#CDD5D7" d="M30.841,32.834c-0.006,0.067-0.002,0.133,0.014,0.198
		c-0.138,0.269-0.087,0.638-0.424,0.802C30.399,33.432,30.481,33.076,30.841,32.834z"/>
	<path fill-rule="evenodd" clip-rule="evenodd" fill="#393837" d="M17.631,26.032c0.068,0.473,0.505,0.582,0.82,0.789
		c0.399,0.261,0.451,0.566,0.196,0.919c-0.203,0.281-0.412,0.73-0.805,0.602c-0.407-0.134,0.057-0.512-0.035-0.782
		c-0.041-0.12-0.038-0.254-0.055-0.39c-1.032,0.368-1.181,0.271-1.315-0.906c-0.049-0.427-0.066-0.867,0.198-1.253
		C17.177,25.146,17.058,25.927,17.631,26.032z"/>
	<path fill-rule="evenodd" clip-rule="evenodd" fill="#444C4A" d="M17.631,26.032c-0.573-0.105-0.454-0.886-0.996-1.021
		c-0.085-0.415,0.172-0.691,0.397-0.98c0.335,0.081,0.67,0.163,1.01,0.245c-0.162,0.245-0.602,0.344-0.362,0.764
		C17.586,25.367,18.066,25.722,17.631,26.032z"/>
	<path fill-rule="evenodd" clip-rule="evenodd" fill="#393837" d="M17.68,25.04c-0.24-0.42,0.2-0.519,0.362-0.764
		c-0.34-0.083-0.675-0.164-1.01-0.245c0.012-0.3,0.142-0.413,0.438-0.287c0.236,0.1,0.444,0.071,0.582-0.174
		c0.455,0.458,0.608,1.051,0.735,1.655C18.418,25.163,18.076,24.94,17.68,25.04z"/>
	<path fill-rule="evenodd" clip-rule="evenodd" fill="#B9B8B3" d="M14.414,23.407c0.046-0.063,0.092-0.127,0.139-0.191
		C14.506,23.28,14.46,23.344,14.414,23.407z"/>
	<path fill-rule="evenodd" clip-rule="evenodd" fill="#EFB33B" d="M41.224,30.44c-0.492-0.138-1.011-0.233-1.243-0.783
		C40.514,29.73,41.036,29.818,41.224,30.44z"/>
	<path fill-rule="evenodd" clip-rule="evenodd" fill="#EFB33B" d="M42.206,31.031c-0.389-0.038-0.701-0.19-0.864-0.571
		C41.759,30.456,42.139,30.506,42.206,31.031z"/>
	<path fill-rule="evenodd" clip-rule="evenodd" fill="#393837" d="M24.976,49.804c0.065,0.312,0.108,0.643,0.552,0.611
		c-0.84,1.483-0.54,3.006-0.127,4.521c0.214,0.787,0.615,1.46,1.397,1.826c-0.007,0.164,0.016,0.349-0.182,0.421
		c-0.53,0.191-1.578-0.27-1.812-0.774c-0.281-0.605-0.58-1.202-0.92-1.903c-0.055,0.36-0.03,0.622-0.134,0.812
		c-0.605,1.098,0.162,1.621,0.912,2.057c0.476,0.276,0.902,0.645,1.454,0.818c0.558,0.176,0.797,0.781,0.484,1.167
		c-0.535,0.658-1.005,1.637-2.182,1.262c-0.001-0.195,0.01-0.392-0.006-0.586c-0.02-0.248,0.093-0.537-0.161-0.723
		c-0.108-0.08-0.268-0.072-0.34,0.062c-0.149,0.277-0.102,0.563,0.017,0.842c0.094,0.223,0.223,0.398,0.493,0.402
		c-0.194,0.356-0.4,0.837-0.198,1.114c0.218,0.301-0.115,0.627,0.172,0.812c0.424,0.274,0.339-0.552,0.826-0.337
		c0,0.896,0.012,1.824-0.004,2.75c-0.01,0.56,0.156,0.916,0.795,0.849c0.208,0.272,0.415,0.546,0.623,0.818
		c-0.073,0.2-0.146,0.401-0.218,0.602c-0.662-0.161-1.324-0.321-1.986-0.482c-0.063-0.271-0.24-0.334-0.488-0.264
		c-0.24-0.034-0.479-0.068-0.718-0.103c-0.051-0.294-0.228-0.367-0.495-0.279c-0.301-0.045-0.602-0.09-0.902-0.135
		c-0.421-0.572-1.069-0.587-1.683-0.686c-0.174-0.03-0.348-0.06-0.521-0.089c-0.041-0.295-0.213-0.38-0.485-0.305
		c-0.171-0.032-0.343-0.064-0.515-0.097c-0.569-0.791-1.409-1.01-2.313-1.091c-0.224-0.062-0.448-0.123-0.672-0.185
		c-0.098-0.634-0.317-1.246,0.285-1.825c0.248-0.238,0.449-0.771-0.112-1.104c-0.28-0.167-0.174-0.457-0.116-0.724
		c0.527-2.399,0.754-4.744-1.188-6.714c-0.242-0.245-0.179-0.578-0.139-0.931c0.104-0.917,0.249-1.915-0.521-2.627
		c-0.404-0.373-0.747-0.788-1.122-1.18c-0.153-0.771,0.045-1.571-0.217-2.341c-0.098-0.287-0.287-0.697,0.021-0.912
		c0.271-0.188,0.619,0.031,0.905,0.192c0.122,0.745-0.008,1.736,0.424,2.177c0.626,0.638,1.201,1.324,1.738,2.016
		c0.728,0.939,1.84,1.089,2.763,1.614c0.175,0.101,0.527,0.118,0.667,0.009c0.419-0.327,0.761-1.23,1.193-0.015
		c0.005,0.015,0.263-0.009,0.341-0.081c0.267-0.244,0.416-0.18,0.453,0.151c0.043,0.373,0.343,0.456,0.6,0.597
		c0.102,0.267,0.203,0.533,0.369,0.97c0.023-0.386,0.035-0.579,0.047-0.772c0.195,0.018,0.401-0.004,0.537,0.191
		c0.469,0.673,1.109,0.729,1.368,0.02c0.208-0.57,0.837-1.258,0.021-1.921c-0.254-0.206-0.06-0.43,0.225-0.468
		C24.441,49.798,24.71,49.812,24.976,49.804z M23.146,54.333c-0.398,0.173-0.487,0.13-0.706-0.237
		c-0.042-0.07-0.164-0.131-0.245-0.127c-0.059,0.003-0.153,0.114-0.162,0.186c-0.067,0.542,0.355,0.92,0.497,1.396
		c0.031,0.104,0.311,0.22,0.43,0.089C23.274,55.29,23.257,54.858,23.146,54.333z M21.039,53.562
		c-0.326,0.532,0.182,1.103-0.357,1.45c-0.104,0.067-0.014,0.32,0.197,0.349c0.199,0.027,0.317-0.096,0.317-0.282
		C21.196,54.632,21.314,54.174,21.039,53.562z"/>
	<path fill-rule="evenodd" clip-rule="evenodd" fill="#444C4A" d="M12.725,48.407c0.375,0.392,0.718,0.807,1.122,1.18
		c0.77,0.712,0.625,1.71,0.521,2.627c-0.04,0.353-0.103,0.686,0.139,0.931c1.942,1.97,1.715,4.314,1.188,6.714
		c-0.059,0.267-0.165,0.557,0.116,0.724c0.561,0.333,0.359,0.866,0.112,1.104c-0.602,0.579-0.383,1.191-0.285,1.825
		c-0.672-0.038-1.155-0.541-1.77-0.723c-0.063-0.234-0.198-0.372-0.458-0.343c-0.106-0.026-0.212-0.052-0.318-0.077
		c-0.162-0.388-0.488-0.515-0.872-0.551c-0.318-0.143-0.636-0.285-0.954-0.427c-0.083-0.057-0.166-0.113-0.248-0.17
		c-0.199-0.136-0.397-0.271-0.596-0.406c-0.063-0.464-0.343-0.719-0.788-0.812c-0.099-0.246-0.199-0.492-0.297-0.739
		C9.436,59,9.307,58.86,9.07,58.779c-0.016-0.119-0.032-0.238-0.048-0.357c0.281-0.257,0.063-0.35-0.146-0.445
		c-0.012-0.186-0.024-0.371-0.037-0.557c0.261-0.333,0.239-0.621-0.136-0.853c-0.025-0.516-0.049-1.031-0.074-1.547
		c0.259-0.478,0.32-0.947-0.057-1.398c-0.005-0.124-0.011-0.247-0.017-0.371c0.006-0.19,0.092-0.496,0.006-0.555
		c-0.804-0.56-0.498-1.358-0.498-2.091c0.451,0.07,1.234-0.132,1.092,0.602c-0.151,0.786,0.059,1.497,0.071,2.24
		c0.008,0.508-0.209,1.203,0.365,1.428c0.455,0.177,0.479-0.633,0.873-0.794c1.148-0.471,0.581-1.627,0.256-1.811
		c-1.016-0.574-0.43-0.988-0.091-1.499c0.563,0.016,0.754-0.378,0.902-0.818c0.271,0.05,0.456,0.192,0.513,0.475
		c-0.002,0.295-0.019,0.591-0.004,0.885c0.03,0.604,0.367,1.043,0.945,1.062c0.632,0.021,0.555-0.573,0.637-1.015
		c0.186-1.001-0.357-1.319-1.219-1.372c0.072-0.387,0.145-0.773,0.217-1.161C12.656,48.686,12.69,48.546,12.725,48.407z
		 M15.601,57.452c0.119-0.936-0.098-1.792-0.567-2.586c-0.581-0.985-2.629-1.202-3.436-0.401c-1.221,1.214-1.826,3.536-0.244,5.49
		c0.268,0.332,0.291,1.755,1.401,0.757c0.036-0.032,0.185,0.048,0.274,0.091c0.665,0.321,1.126-0.002,1.569-0.463
		C15.381,59.525,15.754,58.576,15.601,57.452z"/>
	<path fill-rule="evenodd" clip-rule="evenodd" fill="#8C8375" d="M23.224,66.376c0.239,0.034,0.479,0.068,0.719,0.102
		c0.095,0.213,0.229,0.354,0.487,0.265c0.662,0.161,1.324,0.321,1.986,0.482c0,0.071,0.001,0.144,0.001,0.215
		c-0.022,0.024-0.042,0.05-0.066,0.07c-0.393,0.345-0.997-0.508-1.266,0.166c-0.23,0.576,0.785,0.397,0.728,0.956
		c-1.458-0.271-2.855-0.667-4.206-1.348c-1.476-0.743-3.078-1.236-4.627-1.832c-0.372-0.143-0.768-0.236-1-0.605
		c0.446,0.003,0.69-0.194,0.659-0.664c0.743-0.067,1.274,0.562,1.984,0.604c0.171,0.032,0.343,0.064,0.515,0.096
		c0.092,0.212,0.23,0.351,0.485,0.306c0.174,0.029,0.348,0.059,0.522,0.089c0.439,0.526,1.072,0.579,1.682,0.686
		c0.301,0.045,0.602,0.09,0.903,0.135C22.83,66.304,22.973,66.435,23.224,66.376z"/>
	<path fill-rule="evenodd" clip-rule="evenodd" fill="#444C4A" d="M18.623,64.787c-0.71-0.042-1.241-0.671-1.984-0.604
		c-0.109-0.163-0.218-0.325-0.328-0.487C17.214,63.777,18.054,63.996,18.623,64.787z"/>
	<path fill-rule="evenodd" clip-rule="evenodd" fill="#797366" d="M8.572,53.622c0.377,0.451,0.316,0.921,0.057,1.398
		C8.305,54.567,8.352,54.097,8.572,53.622z"/>
	<path fill-rule="evenodd" clip-rule="evenodd" fill="#8C8375" d="M13.633,63.963c-0.521,0.163-0.789-0.159-1.029-0.535
		C13.046,63.417,13.46,63.458,13.633,63.963z"/>
	<path fill-rule="evenodd" clip-rule="evenodd" fill="#797366" d="M9.634,60.003c0.445,0.093,0.725,0.348,0.788,0.812
		C9.941,60.756,9.673,60.492,9.634,60.003z"/>
	<path fill-rule="evenodd" clip-rule="evenodd" fill="#797366" d="M8.704,56.567c0.375,0.231,0.396,0.52,0.136,0.853
		C8.536,57.177,8.627,56.871,8.704,56.567z"/>
	<path fill-rule="evenodd" clip-rule="evenodd" fill="#8C8375" d="M12.22,61.818c0.384,0.036,0.71,0.163,0.872,0.551
		C12.667,62.398,12.308,62.324,12.22,61.818z"/>
	<path fill-rule="evenodd" clip-rule="evenodd" fill="#797366" d="M9.07,58.779C9.307,58.86,9.436,59,9.337,59.264
		C9.11,59.178,9.006,59.025,9.07,58.779z"/>
	<path fill-rule="evenodd" clip-rule="evenodd" fill="#8C8375" d="M13.41,62.446c0.26-0.029,0.395,0.108,0.458,0.343
		C13.598,62.832,13.44,62.724,13.41,62.446z"/>
	<path fill-rule="evenodd" clip-rule="evenodd" fill="#797366" d="M8.876,57.976c0.208,0.096,0.427,0.188,0.146,0.445
		C8.841,58.316,8.822,58.159,8.876,57.976z"/>
	<path fill-rule="evenodd" clip-rule="evenodd" fill="#8C8375" d="M11.018,61.221c0.083,0.057,0.166,0.113,0.248,0.17
		C11.184,61.334,11.101,61.278,11.018,61.221z"/>
	<path fill-rule="evenodd" clip-rule="evenodd" fill="#CDD5D7" d="M20.821,20.809c-0.675-0.875-1.634-0.81-2.582-0.777
		c0.757-0.773,2.027-0.692,2.774,0.173c0.256,0.297,0.525,0.583,0.788,0.874c0.003,0.157-0.038,0.29-0.195,0.359
		c-0.198-0.143-0.397-0.287-0.596-0.43c-0.061-0.062-0.122-0.125-0.183-0.187L20.821,20.809z"/>
	<path fill-rule="evenodd" clip-rule="evenodd" fill="#9A9589" d="M23.04,20.648c0.092,0.12,0.185,0.24,0.277,0.36
		c-0.012,0.69,0.624,1.625-0.689,1.824c-0.008-0.335-0.034-0.661-0.408-0.811l-0.003-0.004c0.128-0.192,0.257-0.385,0.386-0.577
		C22.749,21.176,22.895,20.912,23.04,20.648z"/>
	<path fill-rule="evenodd" clip-rule="evenodd" fill="#B9B8B3" d="M22.604,21.44c-0.129,0.192-0.257,0.385-0.386,0.577
		c-0.31-0.082-0.45-0.342-0.611-0.58c0.157-0.07,0.198-0.203,0.195-0.359C22.042,21.259,22.232,21.551,22.604,21.44z"/>
	<path fill-rule="evenodd" clip-rule="evenodd" fill="#9A9589" d="M23.628,20.417c-0.148,0.063-0.296,0.126-0.444,0.189
		C23.266,20.388,23.282,20.016,23.628,20.417z"/>
	<path fill-rule="evenodd" clip-rule="evenodd" fill="#9A9589" d="M21.606,21.438c0.161,0.238,0.301,0.498,0.611,0.58l0.003,0.004
		c-0.054,0.391,0.076,0.713,0.364,0.977c0.104,0.757-0.677,0.632-0.981,0.982c-0.041-0.31,0.194-0.701-0.189-0.907
		c-0.354-0.19-0.619,0.092-0.896,0.271c-0.361,0.234-0.733,0.452-1.101,0.677c-0.13-0.071-0.261-0.141-0.391-0.211l0.001,0.003
		c0.047-0.19,0.039-0.353-0.2-0.4v-0.001c-0.002-0.132-0.004-0.264-0.005-0.396c-0.018-0.382-0.175-0.626-0.6-0.607l0.005,0.007
		c-0.017-0.119-0.065-0.207-0.204-0.207l0.004,0.004c0-0.137-0.073-0.2-0.205-0.204c0,0,0.005,0.003,0.005,0.003
		c0.011-0.068,0.021-0.137,0.031-0.206c0.864-0.697,1.861-1.002,2.961-0.999l0.007,0.012c0.061,0.062,0.122,0.125,0.183,0.187
		C21.209,21.151,21.408,21.294,21.606,21.438z"/>
	<path fill-rule="evenodd" clip-rule="evenodd" fill="#444C4A" d="M21.604,23.981c0.304-0.351,1.084-0.225,0.981-0.982
		c0.022-0.053,0.037-0.109,0.043-0.166c1.313-0.199,0.677-1.134,0.689-1.824c0.096-0.019,0.191-0.038,0.287-0.056
		c0.128,0.034,0.188-0.01,0.169-0.146c0.654,0.083,1.361,0.004,1.849,0.602c0.331,0.881-0.472,1.449-0.61,2.201
		c-0.409-0.127-0.821-0.242-1.225-0.382c-0.848-0.295-0.928,0.132-0.767,0.798c0.001,0.308-0.114,0.572-0.302,0.809
		c-0.406,0.038-0.553,0.46-0.891,0.598c-0.14-0.654-0.406-0.267-0.644-0.076c-0.392,0.313-0.627,0.841-1.216,0.883
		c-0.199-0.25-0.104-0.539-0.105-0.814c0.275-0.017,0.469-0.136,0.531-0.421C20.797,24.663,21.2,24.322,21.604,23.981z"/>
	<path fill-rule="evenodd" clip-rule="evenodd" fill="#393837" d="M19.967,26.24c0.589-0.042,0.825-0.57,1.216-0.883
		c0.238-0.191,0.503-0.578,0.644,0.076c-0.02,1.742-0.571,2.523-1.969,2.793C19.895,27.563,19.931,26.901,19.967,26.24z"/>
	<path fill-rule="evenodd" clip-rule="evenodd" fill="#F0F1F0" d="M18.223,22.41c0.424-0.019,0.582,0.225,0.6,0.607
		c-0.079,0.017-0.157,0.033-0.236,0.05C18.373,22.899,18.171,22.725,18.223,22.41z"/>
	<path fill-rule="evenodd" clip-rule="evenodd" fill="#9A9589" d="M20.393,25.004c-0.063,0.285-0.256,0.404-0.531,0.421
		c-0.065-0.002-0.131-0.004-0.197-0.007c-0.01-0.133-0.021-0.267-0.03-0.401C19.888,25.014,20.141,25.009,20.393,25.004z"/>
	<path fill-rule="evenodd" clip-rule="evenodd" fill="#CDD5D7" d="M19.027,23.812c0.13,0.07,0.261,0.141,0.391,0.211
		c-0.032,0.148-0.063,0.298-0.095,0.446C19.1,24.306,19.027,24.075,19.027,23.812z"/>
	<path fill-rule="evenodd" clip-rule="evenodd" fill="#F0F1F0" d="M17.859,21.808c-0.01,0.068-0.021,0.137-0.031,0.206
		c-0.19,0.038-0.342,0-0.405-0.208C17.57,21.685,17.714,21.78,17.859,21.808z"/>
	<path fill-rule="evenodd" clip-rule="evenodd" fill="#CDD5D7" d="M19.635,25.018c0.01,0.134,0.02,0.268,0.03,0.401
		C19.414,25.304,19.385,25.171,19.635,25.018z"/>
	<path fill-rule="evenodd" clip-rule="evenodd" fill="#CDD5D7" d="M18.586,23.067c0.079-0.017,0.157-0.033,0.236-0.05
		c0.001,0.132,0.003,0.264,0.005,0.396C18.655,23.362,18.616,23.218,18.586,23.067z"/>
	<path fill-rule="evenodd" clip-rule="evenodd" fill="#CDD5D7" d="M18.828,23.415c0.239,0.047,0.247,0.21,0.2,0.4
		C18.85,23.737,18.813,23.588,18.828,23.415z"/>
	<path fill-rule="evenodd" clip-rule="evenodd" fill="#F0F1F0" d="M18.024,22.21c0.138,0,0.187,0.088,0.204,0.207
		C18.091,22.416,18.022,22.348,18.024,22.21z"/>
	<path fill-rule="evenodd" clip-rule="evenodd" fill="#F0F1F0" d="M17.823,22.01c0.132,0.004,0.205,0.067,0.205,0.204
		C17.892,22.214,17.823,22.146,17.823,22.01z"/>
	<path fill-rule="evenodd" clip-rule="evenodd" fill="#D8631B" d="M13.12,30.497c0.11-0.082,0.22-0.164,0.33-0.246
		c0.078-0.128,0.156-0.256,0.234-0.384c0.766-0.152,0.748,0.539,1.005,0.933C14.164,30.709,13.564,31.008,13.12,30.497z"/>
	<path fill-rule="evenodd" clip-rule="evenodd" fill="#EFB33B" d="M14.644,32.623c-0.411-0.084-0.871,0.139-1.241-0.2
		C13.864,32.198,14.343,31.858,14.644,32.623z"/>
	<path fill-rule="evenodd" clip-rule="evenodd" fill="#EFB33B" d="M12.846,32.814c0.005,0.066,0.006,0.132,0.001,0.198
		C12.671,32.948,12.682,32.882,12.846,32.814z"/>
	<path fill-rule="evenodd" clip-rule="evenodd" fill="#393837" d="M10.63,50.771c-0.339,0.511-0.925,0.925,0.091,1.499
		c0.325,0.184,0.893,1.34-0.256,1.811c-0.394,0.161-0.418,0.971-0.873,0.794c-0.574-0.225-0.357-0.92-0.365-1.428
		c-0.012-0.743-0.222-1.454-0.071-2.24c0.142-0.733-0.642-0.531-1.092-0.602c-0.268-0.641,0.273-1.18,0.222-1.793
		c-0.103-0.915-0.106-1.832-0.039-2.75c0.222-0.009,0.444-0.019,0.667-0.027C8.95,47.807,8.937,49.598,10.63,50.771z"/>
	<path fill-rule="evenodd" clip-rule="evenodd" fill="#9A9589" d="M8.247,46.062c-0.067,0.918-0.063,1.835,0.039,2.75
		c-0.814,0.064-1.125-0.313-1.067-1.119c0.05-0.688,0.011-1.383,0.011-2.074c0.435-0.443,0.229-1.156,0.672-1.597
		c0.337-0.334,0.628-0.749,1.287-0.704C8.586,44.183,8.119,45.029,8.247,46.062z"/>
	<path fill-rule="evenodd" clip-rule="evenodd" fill="#393837" d="M7.6,49.617c0.068,0.964,0.136,1.929,0.204,2.894
		c-0.088,0.007-0.176,0.014-0.264,0.021c0-0.964,0-1.928,0-2.892C7.56,49.631,7.58,49.624,7.6,49.617z"/>
	<path fill-rule="evenodd" clip-rule="evenodd" fill="#5A1C18" d="M19.792,29.317c0.713,1.141,0.43,1.764-0.864,1.896
		C19.216,30.582,19.503,29.949,19.792,29.317z"/>
	<path fill-rule="evenodd" clip-rule="evenodd" fill="#B9B8B3" d="M25.416,6.025c-0.214-0.017-0.452,0.039-0.598-0.191
		C25.036,5.841,25.272,5.789,25.416,6.025z"/>
	<path fill-rule="evenodd" clip-rule="evenodd" fill="#9A9589" d="M11.414,43.034c-0.902,0.577-1.486,0.468-1.992-0.373
		c0.065-0.082,0.131-0.164,0.197-0.246c0.104,0.057,0.209,0.113,0.314,0.17c0-0.001,0.002-0.001,0.003-0.002
		c0.516-0.076,0.978,0.167,1.466,0.251C11.406,42.9,11.41,42.967,11.414,43.034z"/>
	<path fill-rule="evenodd" clip-rule="evenodd" fill="#CDD5D7" d="M9.936,42.583c-0.001,0.001-0.002,0.001-0.003,0.002
		C9.934,42.584,9.936,42.583,9.936,42.583z"/>
	<path fill-rule="evenodd" clip-rule="evenodd" fill="#797366" d="M27.219,24.605c0.141-0.119,0.282-0.237,0.424-0.356
		c0.625,0.165,0.779-0.666,1.341-0.635c1.228-0.39,2.26-0.051,3.141,0.845c0.15,0.153,0.31,0.248,0.528,0.154
		c0.277,0.011,0.388,0.154,0.33,0.426c-0.154,0.101-0.046,0.16,0.037,0.222l0.003,0.056c0.072,0.301,0.144,0.602,0.216,0.902
		c-0.083,0.008-0.165,0.017-0.248,0.025c-0.114-0.107-0.229-0.214-0.344-0.322c-0.295-0.753-0.595-1.501-1.646-1.3
		c-0.816-0.144-1.673-0.432-2.181,0.583c-0.065-0.01-0.132-0.011-0.197-0.004c-0.067,0-0.134,0.001-0.201,0.002l0.009,0.007
		C28.13,24.801,27.635,24.783,27.219,24.605z"/>
	<path fill-rule="evenodd" clip-rule="evenodd" fill="#2E456A" d="M35.245,24.806c-0.006,0.539-0.013,1.078-0.02,1.617
		c-0.066,0.158-0.134,0.317-0.201,0.476c-0.007-0.393-0.019-0.786-0.019-1.179c0-0.46,0.066-0.83-0.553-1.109
		c-0.737-0.332-0.491-1.015-0.103-1.576C35.681,23.103,35.095,24.141,35.245,24.806z"/>
	<path fill-rule="evenodd" clip-rule="evenodd" fill="#9A9589" d="M32.99,26.244c0.083-0.008,0.165-0.017,0.248-0.025
		c0.199,0.332,0.398,0.664,0.599,0.997l-0.006-0.009c-0.001,0.225-0.005,0.449-0.002,0.674c0.001,0.103,0.045,0.174,0.148,0.085
		c0.044-0.038,0.055-0.114,0.079-0.173c0.315,0.583,0.09,1.23,0.222,1.834c-0.065,0.53-0.018,1.081-0.288,1.573
		c-0.117-0.191-0.234-0.383-0.351-0.575C33.987,29.082,33.565,27.651,32.99,26.244z"/>
	<path fill-rule="evenodd" clip-rule="evenodd" fill="#CDD5D7" d="M32.652,24.613c-0.219,0.094-0.378-0.001-0.528-0.154
		c-0.881-0.896-1.913-1.235-3.141-0.845c0.097-0.564,0.601-0.538,0.978-0.614C30.851,22.822,32.275,23.706,32.652,24.613z"/>
	<path fill-rule="evenodd" clip-rule="evenodd" fill="#797366" d="M27.604,23.84c-0.208,0.107-0.382-0.25-0.597-0.043
		c-0.063,0.021-0.127,0.041-0.191,0.061c-0.068-0.011-0.136-0.022-0.205-0.033c0.001-0.079,0.003-0.157,0.004-0.236
		c0.74-0.346,0.624-0.982,0.534-1.602c-0.023-0.159-0.362-0.266-0.099-0.466c0.083-0.063,0.254-0.07,0.358-0.031
		c0.222,0.082,0.208,0.283,0.202,0.492C27.595,22.601,27.604,23.221,27.604,23.84z"/>
	<path fill-rule="evenodd" clip-rule="evenodd" fill="#B9B8B3" d="M33.837,27.216c-0.2-0.333-0.399-0.665-0.599-0.997
		c-0.072-0.301-0.144-0.602-0.216-0.902C33.712,25.771,33.856,26.458,33.837,27.216z"/>
	<path fill-rule="evenodd" clip-rule="evenodd" fill="#444C4A" d="M26.615,23.589c-0.001,0.079-0.002,0.157-0.004,0.236
		c-0.34-0.039-0.72,0.127-1.003-0.198C25.939,23.496,26.252,22.882,26.615,23.589z"/>
	<path fill-rule="evenodd" clip-rule="evenodd" fill="#B9B8B3" d="M34.057,27.793c-0.024,0.059-0.035,0.136-0.079,0.173
		c-0.104,0.089-0.147,0.018-0.148-0.085c-0.003-0.225,0.001-0.449,0.002-0.674C34.161,27.304,33.997,27.592,34.057,27.793z"/>
	<path fill-rule="evenodd" clip-rule="evenodd" fill="#444C4A" d="M26.753,22.65c-0.047,0.034-0.092,0.065-0.136,0.098
		c-0.034-0.067-0.067-0.134-0.101-0.201c0.055-0.02,0.122-0.068,0.16-0.051C26.716,22.514,26.728,22.594,26.753,22.65z"/>
	<path fill-rule="evenodd" clip-rule="evenodd" fill="#444C4A" d="M26.143,22.559c0.009,0.023,0.018,0.046,0.027,0.07
		c-0.035,0.007-0.071,0.014-0.106,0.021c0.005-0.025,0.003-0.056,0.017-0.075C26.09,22.561,26.122,22.563,26.143,22.559z"/>
	<path fill-rule="evenodd" clip-rule="evenodd" fill="#B9B8B3" d="M33.02,25.261c-0.083-0.063-0.191-0.121-0.037-0.222
		C32.995,25.113,33.007,25.187,33.02,25.261z"/>
	<path fill-rule="evenodd" clip-rule="evenodd" fill="#1C1B1D" d="M30.004,12.712c-0.001,0.535-0.242,0.814-0.802,0.722
		c-0.227-0.038-0.445-0.131-0.672-0.169c-0.857-0.142-1.444-0.505-1.312-1.505c0.073-0.551,0.449-0.581,0.881-0.523
		C29.4,11.409,30.019,11.887,30.004,12.712z"/>
	<path fill-rule="evenodd" clip-rule="evenodd" fill="#9A9589" d="M23.773,20.806c0.02,0.137-0.041,0.181-0.169,0.146
		C23.661,20.904,23.717,20.855,23.773,20.806z"/>
	<path fill-rule="evenodd" clip-rule="evenodd" fill="#B9B8B3" d="M26.798,56.762c-0.783-0.366-1.183-1.039-1.397-1.826
		c-0.413-1.515-0.713-3.037,0.127-4.521c0.16-0.061,0.319-0.12,0.478-0.18c-0.082,1.006,0.225,1.948,0.495,2.891
		c0.256,0.895,0.909,1.466,1.687,1.914c0.001,0,0.028-0.021,0.028-0.021c-0.062,0.415-0.271,0.808-0.183,1.244
		c0,0-0.002,0.095-0.002,0.096C27.631,56.532,27.253,56.765,26.798,56.762z"/>
	<path fill-rule="evenodd" clip-rule="evenodd" fill="#8C8375" d="M28.636,52.816c0.338,0.355,0.133,0.796,0.186,1.195
		c-0.311,0.271,0.022,0.93-0.606,1.009c0,0-0.027,0.021-0.028,0.021c0.043-0.333,0.107-0.695-0.19-0.934
		c-0.795-0.635-0.751-1.596-0.947-2.447c-0.087-0.376-0.239-1.012,0.297-1.125c0.499-0.104,0.77,0.395,0.873,0.885
		c-0.566,0.356-0.817,1.257-0.465,1.729c0.248,0.332,0.427,0.219,0.539-0.124C28.406,52.955,28.521,52.885,28.636,52.816z"/>
	<path fill-rule="evenodd" clip-rule="evenodd" fill="#329D83" d="M28.03,56.359l0.002-0.095c0.611,0.147,0.733-0.583,1.211-0.676
		c0.332,0.359,0.092,0.839,0.26,1.232c0.019,0.247,0.2,0.338,0.396,0.414c-0.266,0.479-0.298,1.315-1.111,1.082
		c-0.754-0.216-0.873-0.904-0.672-1.617C28.157,56.55,28.142,56.453,28.03,56.359z M29.195,57.182
		c-0.038-0.114-0.061-0.333-0.335-0.302c-0.229,0.026-0.348,0.193-0.346,0.408c0.001,0.262,0.146,0.467,0.418,0.438
		C29.17,57.702,29.191,57.465,29.195,57.182z"/>
	<path fill-rule="evenodd" clip-rule="evenodd" fill="#797366" d="M29.243,55.588c-0.478,0.093-0.6,0.823-1.211,0.676
		c-0.089-0.437,0.121-0.829,0.183-1.244c0.629-0.079,0.296-0.737,0.606-1.009c0.187-0.046,0.258-0.434,0.458-0.267
		c0.216,0.18,0.313,0.501,0.239,0.812C29.435,54.902,29.12,55.187,29.243,55.588z"/>
	<path fill-rule="evenodd" clip-rule="evenodd" fill="#444C4A" d="M28.292,53.024c-0.111,0.343-0.291,0.456-0.539,0.124
		c-0.352-0.472-0.101-1.372,0.465-1.729c0.081,0.333,0.161,0.667,0.241,1.001C28.188,52.562,28.228,52.79,28.292,53.024z"/>
	<path fill-rule="evenodd" clip-rule="evenodd" fill="#797366" d="M28.292,53.024c-0.064-0.234-0.104-0.462,0.168-0.604
		c0.059,0.132,0.117,0.264,0.176,0.396C28.521,52.885,28.406,52.955,28.292,53.024z"/>
	<path fill-rule="evenodd" clip-rule="evenodd" fill="#1C1B1D" d="M21.612,51.814c-0.257-0.141-0.557-0.224-0.6-0.597
		c-0.038-0.331-0.187-0.396-0.453-0.151c-0.079,0.072-0.336,0.096-0.341,0.081c-0.432-1.216-0.774-0.313-1.193,0.015
		c-0.141,0.109-0.492,0.092-0.667-0.009c-0.923-0.525-2.035-0.675-2.763-1.614c-0.537-0.691-1.111-1.378-1.738-2.016
		c-0.432-0.44-0.303-1.432-0.424-2.177c0.729,0.152,1.458,0.306,2.187,0.459c2.823,1.037,5.698,1.941,8.412,3.26
		c0.355,0.173,0.882,0.175,0.945,0.74c-0.267,0.007-0.535-0.007-0.797,0.028c-0.285,0.038-0.479,0.262-0.225,0.468
		c0.816,0.663,0.187,1.351-0.021,1.921c-0.259,0.71-0.898,0.653-1.368-0.02c-0.135-0.195-0.341-0.174-0.537-0.191
		c-0.098-0.35,0.229-0.866-0.397-1.007c-0.033-0.025-0.065-0.051-0.098-0.075c0.024,0.033,0.049,0.066,0.074,0.1
		C21.609,51.291,21.611,51.552,21.612,51.814z"/>
	<path fill-rule="evenodd" clip-rule="evenodd" fill="#CDD5D7" d="M10.63,50.771c-1.693-1.173-1.68-2.964-1.717-4.736
		c0.369-0.529,0.042-1.547,1.113-1.582c-0.036,1.168,0.234,2.287,0.565,3.393c0.153,0.512,0.481,0.914,0.962,1.174
		c-0.007,0.311-0.014,0.622-0.021,0.934C11.384,50.393,11.192,50.787,10.63,50.771z"/>
	<path fill-rule="evenodd" clip-rule="evenodd" fill="#797366" d="M13.834,43.713c2.167,0.458,4.194,1.31,6.21,2.193
		c0.119,0.052,0.25,0.073,0.376,0.108c-0.078,0.146-0.156,0.291-0.233,0.436c-0.313-0.096-0.627-0.187-0.937-0.29
		c-1.735-0.576-3.469-1.156-5.204-1.735C13.758,44.252,13.839,43.97,13.834,43.713z"/>
	<path fill-rule="evenodd" clip-rule="evenodd" fill="#444C4A" d="M14.045,44.425c1.735,0.579,3.469,1.159,5.204,1.735
		c0.31,0.104,0.625,0.194,0.937,0.29c0.611,0.247,1.223,0.495,1.834,0.742c-0.265,0.468-0.589,0.124-0.854,0.031
		c-1.433-0.502-2.852-1.042-4.282-1.55c-0.401-0.143-0.804-0.314-1.248-0.28C15.179,44.951,14.269,45.251,14.045,44.425z"/>
	<path fill-rule="evenodd" clip-rule="evenodd" fill="#797366" d="M11.532,49.953c0.007-0.312,0.014-0.623,0.021-0.934
		c0.259-0.12,0.2-0.341,0.175-0.551c0.017-0.208,0.034-0.417,0.051-0.626c0.038-0.282-0.092-0.41-0.369-0.404
		c-0.015-0.131-0.031-0.261-0.046-0.392c0.046-0.186,0.016-0.339-0.176-0.427c-0.004-0.2-0.007-0.4-0.011-0.602
		c0.088,0.008,0.176,0.015,0.265,0.022c0.029,0.228,0.144,0.368,0.386,0.38l-0.009-0.011c0.025,0.203,0.05,0.405,0.075,0.607
		c0.046-0.068,0.093-0.136,0.139-0.204c0.487,0.088,0.343,0.478,0.383,0.786c0.053,0.411-0.162,0.868,0.206,1.227
		c-0.073,0.388-0.145,0.774-0.217,1.162c-0.12,0.146-0.24,0.293-0.359,0.439C11.988,50.145,11.803,50.002,11.532,49.953z"/>
	<path fill-rule="evenodd" clip-rule="evenodd" fill="#B9B8B3" d="M11.729,48.468c0.025,0.21,0.084,0.431-0.175,0.551
		c-0.481-0.26-0.81-0.662-0.962-1.174c-0.331-1.105-0.601-2.225-0.565-3.393c0,0-0.025-0.086-0.025-0.085
		c0.134,0.023,0.268,0.047,0.402,0.07c0.003,0.061,0.01,0.12,0.02,0.179c-0.022,0.286-0.032,0.566,0.342,0.642
		c-0.004,0.181-0.009,0.362-0.014,0.543C10.458,47.018,10.761,47.845,11.729,48.468z"/>
	<path fill-rule="evenodd" clip-rule="evenodd" fill="#444C4A" d="M11.828,46.42c-0.242-0.012-0.356-0.152-0.386-0.381
		c-0.006-0.274-0.013-0.549-0.019-0.824l-0.01,0.009C11.938,45.489,11.756,45.999,11.828,46.42z"/>
	<path fill-rule="evenodd" clip-rule="evenodd" fill="#9A9589" d="M10.766,45.259c-0.374-0.076-0.364-0.356-0.342-0.643
		c0.145,0.004,0.288,0.008,0.432,0.012c-0.011,0.051-0.015,0.102-0.012,0.154C10.817,44.941,10.792,45.1,10.766,45.259z"/>
	<path fill-rule="evenodd" clip-rule="evenodd" fill="#9A9589" d="M10.404,44.438c-0.134-0.023-0.268-0.047-0.402-0.07
		c0.067-0.091,0.13-0.254,0.202-0.258C10.417,44.098,10.393,44.292,10.404,44.438z"/>
	<path fill-rule="evenodd" clip-rule="evenodd" fill="#444C4A" d="M12.033,46.813c-0.046,0.068-0.093,0.136-0.139,0.204
		c-0.025-0.202-0.05-0.404-0.075-0.607C11.996,46.488,12.008,46.654,12.033,46.813z"/>
	<path fill-rule="evenodd" clip-rule="evenodd" fill="#444C4A" d="M11.217,44.824c0.168,0.083,0.207,0.229,0.197,0.4l0.01-0.009
		c-0.182-0.077-0.209-0.23-0.198-0.403L11.217,44.824z"/>
	<path fill-rule="evenodd" clip-rule="evenodd" fill="#444C4A" d="M10.844,44.782c-0.002-0.052,0.001-0.103,0.012-0.153
		c0.146,0.019,0.292,0.035,0.361,0.195l0.009-0.012C11.098,44.802,10.971,44.792,10.844,44.782z"/>
	<path fill-rule="evenodd" clip-rule="evenodd" fill="#8C8375" d="M22.021,47.193c-0.611-0.247-1.223-0.495-1.834-0.742
		c0.078-0.145,0.156-0.29,0.233-0.436c0.663,0.026,1.242,0.29,1.794,0.632C22.149,46.83,22.085,47.011,22.021,47.193z"/>
	<path fill-rule="evenodd" clip-rule="evenodd" fill="#444C4A" d="M22.217,47.578c0.592-0.309,0.863-0.017,1.349,0.343
		C22.947,47.96,22.634,47.796,22.217,47.578z"/>
	<path fill-rule="evenodd" clip-rule="evenodd" fill="#444C4A" d="M24.711,48.456c-0.372,0.022-0.719-0.007-1.029-0.343
		C24.16,47.971,24.431,48.25,24.711,48.456z"/>
	<path fill-rule="evenodd" clip-rule="evenodd" fill="#9A9589" d="M25.813,68.632c0.057-0.559-0.958-0.38-0.728-0.956
		c0.269-0.674,0.873,0.179,1.266-0.166c0.024-0.021,0.044-0.046,0.066-0.07c0.872,0.074,1.893,0.726,2.399-0.618
		c0.124-0.372,0.289-0.736,0.366-1.117c0.288-1.427,0.159-2.882,0.256-4.322c0.646,0.994,0.302,2.104,0.365,3.166
		c0.029,0.49,0.007,0.984,0.008,1.477c-0.152,0.503-0.311,1.005-0.456,1.51c-0.386,1.338-0.604,1.502-2.015,1.484
		c-0.232-0.004-0.463-0.012-0.694-0.018c-0.256-0.074-0.512-0.148-0.768-0.223C25.847,68.734,25.825,68.685,25.813,68.632z"/>
	<path fill-rule="evenodd" clip-rule="evenodd" fill="#2E456A" d="M29.438,61.382c-0.097,1.44,0.032,2.896-0.256,4.322
		c-0.077,0.381-0.242,0.745-0.366,1.117c-0.737,0.045-1.462-0.053-2.183-0.198c-0.208-0.272-0.415-0.546-0.623-0.818
		c0.063-0.209,0.446-0.39,0.237-0.588c-0.641-0.604-0.432-1.36-0.437-2.063c-0.017-2.698,1.195-3.824,3.781-2.692
		c0.005,0.175,0.011,0.349,0.017,0.523C29.469,61.082,29.405,61.211,29.438,61.382z M28.626,64.207
		c0.101,0.144,0.238,0.144,0.306,0.003c0.329-0.687,0.301-1.433,0.222-2.152c-0.062-0.571-0.742-0.442-1.099-0.713
		c-0.157-0.119-0.671-0.007-0.625,0.493C26.955,63.457,27.31,64.16,28.626,64.207z"/>
	<path fill-rule="evenodd" clip-rule="evenodd" fill="#444C4A" d="M29.593,60.461c-2.586-1.132-3.798-0.006-3.781,2.692
		c0.005,0.703-0.205,1.459,0.437,2.063c0.209,0.198-0.173,0.379-0.237,0.588c-0.64,0.067-0.805-0.289-0.795-0.849
		c0.016-0.926,0.004-1.854,0.004-2.75c-0.487-0.215-0.402,0.611-0.826,0.337c-0.287-0.185,0.046-0.511-0.172-0.812
		c-0.202-0.277,0.004-0.758,0.198-1.114l-0.002,0.003c1.177,0.375,1.646-0.604,2.182-1.262c0.313-0.386,0.074-0.991-0.484-1.167
		c-0.552-0.174-0.978-0.542-1.454-0.818c-0.75-0.436-1.517-0.959-0.912-2.057c0.104-0.189,0.079-0.451,0.134-0.812
		c0.34,0.701,0.639,1.298,0.92,1.903c0.234,0.505,1.282,0.966,1.812,0.774c0.198-0.072,0.175-0.257,0.182-0.421
		c0.455,0.003,0.833-0.23,1.232-0.402c0.111,0.093,0.127,0.19,0.086,0.34c-0.201,0.713-0.082,1.401,0.672,1.617
		c0.813,0.233,0.846-0.603,1.111-1.082c0.549-0.074,0.703,0.134,0.456,0.633c-0.19,0.316-0.233,0.627,0.032,0.926
		c0.002,0.145,0.004,0.29,0.005,0.435C29.637,59.322,29.815,60.022,29.593,60.461z"/>
	<path fill-rule="evenodd" clip-rule="evenodd" fill="#FFFFFF" d="M45.546,49.209c0.049,0.415-0.041,0.863,0.287,1.212
		c-0.149,0.689,0.221,1.32,0.22,1.992c0,1.069-0.001,2.139-0.001,3.208c-0.159,1.131-0.318,2.262-0.478,3.393
		c-0.469-0.015-0.918-0.01-1.27,0.397c-0.188,0.218-0.485,0.313-0.665-0.003c-0.354-0.626-1.021-0.789-1.586-0.912
		c-0.865-0.188-1.003-0.701-1.041-1.42c-0.088-1.629,0.244-3.212,0.496-4.803c0.043-0.272,0.158-0.513-0.16-0.679
		c0.046-0.127,0.093-0.254,0.139-0.381c0.041-0.074,0.081-0.148,0.121-0.223c0.09-0.446,0.283-0.842,0.589-1.182
		c0.425,0.021,0.702-0.27,0.858-0.57c0.343-0.661,0.902-0.909,1.574-1.025c0.275,0.137,0.467,0.35,0.582,0.633
		c0.056,0.061,0.11,0.121,0.166,0.181C45.434,49.088,45.49,49.149,45.546,49.209z"/>
	<path fill-rule="evenodd" clip-rule="evenodd" fill="#F0F1F0" d="M41.349,51.595c0.318,0.166,0.203,0.406,0.16,0.679
		c-0.252,1.591-0.584,3.174-0.496,4.803c0.038,0.719,0.176,1.231,1.041,1.42c0.565,0.123,1.232,0.286,1.586,0.912
		c0.18,0.316,0.478,0.221,0.665,0.003c0.352-0.407,0.801-0.412,1.27-0.397c-0.322,2.115-0.982,4.121-2.057,5.969
		c-0.478,0.821-0.996,1.806-2.169,1.612c-1.141-0.188-1.307-1.283-1.446-2.168C39.208,60.026,39.733,55.745,41.349,51.595z"/>
	<path fill-rule="evenodd" clip-rule="evenodd" fill="#F0F1F0" d="M44.63,48.214c-0.672,0.116-1.231,0.364-1.574,1.025
		c-0.156,0.301-0.434,0.591-0.858,0.57C42.952,48.248,43.484,47.898,44.63,48.214z"/>
	<path fill-rule="evenodd" clip-rule="evenodd" fill="#797366" d="M46.052,55.622c0-1.069,0.001-2.139,0.001-3.208
		C46.319,53.484,46.324,54.552,46.052,55.622z"/>
	<path fill-rule="evenodd" clip-rule="evenodd" fill="#F0F1F0" d="M45.378,49.028c-0.056-0.06-0.11-0.12-0.166-0.181
		C45.341,48.841,45.401,48.896,45.378,49.028z"/>
	<path fill-rule="evenodd" clip-rule="evenodd" fill="#F0F1F0" d="M41.608,50.992c-0.04,0.074-0.08,0.148-0.121,0.223
		C41.528,51.14,41.568,51.066,41.608,50.992z"/>
	<path fill-rule="evenodd" clip-rule="evenodd" fill="#8C8375" d="M22.718,24.834c0.188-0.237,0.303-0.501,0.302-0.809
		c0.535,1.21,0.137,2.369-0.196,3.536C22.387,26.665,22.841,25.738,22.718,24.834z"/>
	<path fill-rule="evenodd" clip-rule="evenodd" fill="#797366" d="M25.235,25.626c-0.093-0.385-0.557-0.798-0.146-1.153
		c0.505-0.437,0.94,0.154,1.41,0.277c-0.031,0.086-0.063,0.172-0.094,0.258l0.008-0.005c-0.066,0-0.131,0.001-0.197,0.002
		c-0.271,0.132-0.593,0.213-0.612,0.602l0.003-0.006C25.483,25.61,25.359,25.618,25.235,25.626z"/>
	<path fill-rule="evenodd" clip-rule="evenodd" fill="#F0F1F0" d="M26.405,25.009c0.031-0.086,0.063-0.172,0.094-0.258
		c0.24-0.048,0.479-0.097,0.719-0.146c0.417,0.178,0.912,0.196,1.212,0.605C27.741,25.294,27.084,25.041,26.405,25.009z"/>
	<path fill-rule="evenodd" clip-rule="evenodd" fill="#393837" d="M22.767,28.518c-0.091,0.573-0.406,0.906-0.827,1.174
		C22.08,29.25,22.059,28.709,22.767,28.518z"/>
	<path fill-rule="evenodd" clip-rule="evenodd" fill="#CDD5D7" d="M25.235,25.626c0.124-0.008,0.248-0.017,0.372-0.025
		c-0.038,0.474-0.086,0.521-0.403,0.395C25.214,25.873,25.225,25.75,25.235,25.626z"/>
	<path fill-rule="evenodd" clip-rule="evenodd" fill="#393837" d="M21.416,30.217c0.072-0.051,0.144-0.102,0.216-0.152
		c0.017,0.025,0.035,0.051,0.052,0.076c-0.087,0.027-0.175,0.054-0.263,0.081L21.416,30.217z"/>
	<path fill-rule="evenodd" clip-rule="evenodd" fill="#393837" d="M21.421,30.222c-0.016,0.028-0.033,0.057-0.049,0.084
		c0.015-0.03,0.029-0.06,0.044-0.09L21.421,30.222z"/>
	<path fill-rule="evenodd" clip-rule="evenodd" fill="#393837" d="M26.816,23.858c0.064-0.021,0.127-0.041,0.191-0.061
		C26.974,23.914,26.913,23.942,26.816,23.858z"/>
	<path fill-rule="evenodd" clip-rule="evenodd" fill="#1C1B1D" d="M30.366,30.871c-0.092,1.04-0.196,2.2-0.919,3.186
		c-0.836,1.141-2.019,1.292-2.969,0.255c-1.756-1.915-2.494-4.772-1.039-7.285c0.88-1.52,2.336-1.65,3.509-0.332
		C29.801,27.653,30.358,29.25,30.366,30.871z M28.012,31.628c0.031,0.026,0.063,0.052,0.095,0.079
		c-0.026-0.032-0.053-0.063-0.078-0.095c0.074-0.942,1.048-1.817,0.214-2.838c-0.045-0.055,0.039-0.26,0.113-0.357
		c0.233-0.304,0.192-0.599-0.126-0.738c-0.329-0.144-0.557,0.139-0.708,0.399c-0.114,0.196-0.179,0.426-0.237,0.648
		C26.98,29.906,27.313,31.218,28.012,31.628z M28.967,27.923c-0.133,0.386-0.258,0.753,0.137,1.002
		c0.116,0.073,0.284,0.046,0.349-0.087C29.689,28.348,29.122,28.242,28.967,27.923z M29.219,31.64
		c-0.018-0.158-0.02-0.355-0.235-0.346c-0.223,0.01-0.325,0.194-0.341,0.398c-0.016,0.208,0.068,0.422,0.3,0.4
		C29.159,32.072,29.213,31.848,29.219,31.64z M29.752,29.435c-0.029-0.049-0.049-0.123-0.088-0.135
		c-0.042-0.013-0.101,0.033-0.153,0.052c0.04,0.062,0.079,0.123,0.118,0.185C29.669,29.503,29.709,29.47,29.752,29.435z"/>
	<path fill-rule="evenodd" clip-rule="evenodd" fill="#FFFFFF" d="M32.99,26.244c0.575,1.407,0.997,2.837,0.649,4.381
		c-0.032,0.051-0.061,0.104-0.084,0.158c-0.053,0.067-0.106,0.133-0.159,0.2c-0.243,0.229-0.437,0.521-0.781,0.623
		c-0.582-0.182-0.954,0.072-1.203,0.58c-0.13,0.049-0.261,0.098-0.392,0.146c0.162-1.788-0.152-3.493-0.879-5.128
		c0.754-0.282,1.641-0.318,2.104-1.138c0.134-0.048,0.268-0.097,0.401-0.145C32.761,26.03,32.876,26.137,32.99,26.244z"/>
	<path fill-rule="evenodd" clip-rule="evenodd" fill="#CDD5D7" d="M32.245,26.067c-0.463,0.82-1.35,0.856-2.104,1.138
		c-0.273-0.192-0.497-0.417-0.543-0.769c0.054-0.054,0.107-0.107,0.16-0.161c0.087,0.037,0.174,0.073,0.26,0.11
		c0.135,0.461,0.402,0.407,0.77,0.253C31.268,26.438,31.667,26.019,32.245,26.067z"/>
	<path fill-rule="evenodd" clip-rule="evenodd" fill="#CDD5D7" d="M25.604,25.607c0.02-0.388,0.341-0.469,0.612-0.602
		c0.002,0.088,0.005,0.177,0.007,0.266C26.078,25.496,25.898,25.658,25.604,25.607z"/>
	<path fill-rule="evenodd" clip-rule="evenodd" fill="#CDD5D7" d="M29.435,26.006c-0.279,0.018-0.412-0.117-0.411-0.392
		c0,0,0.038-0.043,0.038-0.043c0.21,0.068,0.341,0.207,0.383,0.426L29.435,26.006z"/>
	<path fill-rule="evenodd" clip-rule="evenodd" fill="#CDD5D7" d="M28.623,25.202c0.065-0.007,0.132-0.006,0.197,0.004
		c0.08,0.122,0.161,0.244,0.241,0.365c0,0-0.038,0.043-0.038,0.043c-0.169,0.015-0.315-0.02-0.404-0.182
		C28.62,25.355,28.622,25.278,28.623,25.202z"/>
	<path fill-rule="evenodd" clip-rule="evenodd" fill="#CDD5D7" d="M29.599,26.437c-0.152-0.106-0.197-0.253-0.164-0.431l0.01-0.009
		c0.105,0.093,0.211,0.186,0.315,0.278C29.706,26.329,29.652,26.383,29.599,26.437z"/>
	<path fill-rule="evenodd" clip-rule="evenodd" fill="#F0F1F0" d="M26.223,25.271c-0.002-0.088-0.005-0.177-0.007-0.266
		c0.066-0.001,0.131-0.001,0.197-0.002C26.35,25.092,26.287,25.182,26.223,25.271z"/>
	<path fill-rule="evenodd" clip-rule="evenodd" fill="#F0F1F0" d="M28.623,25.202c-0.001,0.077-0.003,0.153-0.004,0.23
		c-0.065-0.076-0.132-0.152-0.197-0.228C28.489,25.203,28.556,25.202,28.623,25.202z"/>
	<path fill-rule="evenodd" clip-rule="evenodd" fill="#393837" d="M32.408,32.999c0.24-0.648,0.678-1.021,1.397-1.001
		C33.593,32.685,33.549,33.607,32.408,32.999z"/>
	<path fill-rule="evenodd" clip-rule="evenodd" fill="#393837" d="M32.418,34.219c1.037,0.229,0.856,0.883,0.549,1.605
		c-0.692-0.374-0.524-1.023-0.547-1.606L32.418,34.219z"/>
	<path fill-rule="evenodd" clip-rule="evenodd" fill="#393837" d="M31.769,33.893c0.048-0.234,0.184-0.396,0.402-0.488
		c0.453,0.159,0.465,0.452,0.247,0.814l0.002-0.001C32.147,34.22,31.882,34.21,31.769,33.893z"/>
	<path fill-rule="evenodd" clip-rule="evenodd" fill="#B9B8B3" d="M31.412,32.187c0.249-0.508,0.621-0.762,1.203-0.58
		C32.296,31.971,31.868,32.108,31.412,32.187z"/>
	<path fill-rule="evenodd" clip-rule="evenodd" fill="#B9B8B3" d="M33.396,30.984c0.053-0.067,0.106-0.133,0.159-0.2
		C33.574,30.907,33.517,30.971,33.396,30.984z"/>
	<path fill-rule="evenodd" clip-rule="evenodd" fill="#444C4A" d="M26.634,66.624c0.721,0.146,1.445,0.243,2.183,0.198
		c-0.507,1.344-1.527,0.692-2.399,0.618c0-0.071-0.001-0.144-0.001-0.215C26.488,67.025,26.561,66.824,26.634,66.624z"/>
	<path fill-rule="evenodd" clip-rule="evenodd" fill="#444C4A" d="M23.146,54.333c0.111,0.525,0.128,0.957-0.186,1.306
		c-0.119,0.131-0.399,0.016-0.43-0.089c-0.142-0.476-0.564-0.854-0.497-1.396c0.009-0.071,0.103-0.183,0.162-0.186
		c0.082-0.004,0.203,0.057,0.245,0.127C22.659,54.462,22.748,54.505,23.146,54.333z"/>
	<path fill-rule="evenodd" clip-rule="evenodd" fill="#444C4A" d="M24.42,60.618c-0.271-0.004-0.399-0.18-0.493-0.402
		c-0.119-0.279-0.166-0.564-0.017-0.842c0.072-0.134,0.232-0.142,0.34-0.062c0.254,0.186,0.142,0.475,0.161,0.723
		c0.016,0.194,0.005,0.391,0.006,0.586L24.42,60.618z"/>
	<path fill-rule="evenodd" clip-rule="evenodd" fill="#444C4A" d="M21.039,53.562c0.275,0.612,0.157,1.07,0.157,1.517
		c0,0.187-0.118,0.31-0.317,0.282c-0.211-0.028-0.301-0.281-0.197-0.349C21.221,54.665,20.713,54.094,21.039,53.562z"/>
	<path fill-rule="evenodd" clip-rule="evenodd" fill="#444C4A" d="M21.827,65.962c-0.61-0.106-1.243-0.159-1.682-0.686
		C20.758,65.375,21.405,65.39,21.827,65.962z"/>
	<path fill-rule="evenodd" clip-rule="evenodd" fill="#444C4A" d="M21.612,51.814c-0.001-0.262-0.003-0.523-0.005-0.785l0.024-0.024
		c0.626,0.141,0.299,0.657,0.397,1.007c-0.012,0.193-0.023,0.387-0.047,0.772C21.815,52.347,21.714,52.081,21.612,51.814z"/>
	<path fill-rule="evenodd" clip-rule="evenodd" fill="#444C4A" d="M19.623,65.188c-0.254,0.045-0.393-0.094-0.485-0.306
		C19.409,64.808,19.582,64.893,19.623,65.188z"/>
	<path fill-rule="evenodd" clip-rule="evenodd" fill="#444C4A" d="M24.43,66.743c-0.258,0.089-0.393-0.052-0.487-0.265
		C24.19,66.409,24.366,66.472,24.43,66.743z"/>
	<path fill-rule="evenodd" clip-rule="evenodd" fill="#444C4A" d="M23.224,66.376c-0.251,0.059-0.394-0.072-0.494-0.279
		C22.996,66.009,23.173,66.083,23.224,66.376z"/>
	<path fill-rule="evenodd" clip-rule="evenodd" fill="#2E456A" d="M15.601,57.452c0.153,1.124-0.22,2.073-1.002,2.888
		c-0.442,0.461-0.904,0.784-1.569,0.463c-0.089-0.043-0.239-0.123-0.274-0.091c-1.11,0.998-1.133-0.425-1.401-0.757
		c-1.582-1.954-0.977-4.276,0.244-5.49c0.806-0.801,2.854-0.584,3.436,0.401C15.503,55.66,15.72,56.516,15.601,57.452z
		 M12.329,57.21c0.02,0.201,0.039,0.402,0.059,0.604c-0.02,0.091-0.087,0.216-0.051,0.267c0.274,0.385,0.771,0.585,1.112,0.431
		c1.01-0.459,0.316-1.486,0.602-2.209c0.066-0.168,0.213-0.373-0.112-0.449c-0.032-0.008-0.065-0.009-0.098-0.008
		c-0.415,0.007-0.765-0.579-1.247-0.081C12.163,56.209,12.153,56.68,12.329,57.21z"/>
	<path fill-rule="evenodd" clip-rule="evenodd" fill="#329D83" d="M12.045,50.427c0.12-0.146,0.239-0.293,0.359-0.439
		c0.861,0.052,1.404,0.37,1.219,1.371c-0.082,0.441-0.004,1.035-0.637,1.015c-0.578-0.019-0.915-0.458-0.945-1.062
		C12.026,51.018,12.042,50.722,12.045,50.427z M12.858,50.858c-0.213,0.037-0.353,0.17-0.365,0.388
		c-0.015,0.249,0.078,0.48,0.37,0.461c0.222-0.015,0.306-0.223,0.308-0.432C13.172,51.069,13.125,50.881,12.858,50.858z"/>
	<path fill-rule="evenodd" clip-rule="evenodd" fill="#8C8375" d="M21.011,21.007c-0.061-0.062-0.122-0.125-0.183-0.187
		C20.889,20.883,20.95,20.945,21.011,21.007z"/>
	<path fill-rule="evenodd" clip-rule="evenodd" fill="#B9B8B3" d="M22.628,22.833c-0.006,0.057-0.021,0.113-0.043,0.166
		c-0.288-0.264-0.418-0.586-0.364-0.977C22.594,22.172,22.62,22.498,22.628,22.833z"/>
	<path fill-rule="evenodd" clip-rule="evenodd" fill="#9A9589" d="M32.245,26.067c-0.578-0.049-0.978,0.37-1.457,0.572
		c-0.367,0.154-0.635,0.208-0.77-0.253c-0.126-0.841,0.973-0.999,0.982-1.764c1.051-0.202,1.351,0.546,1.646,1.3
		C32.513,25.971,32.379,26.019,32.245,26.067z"/>
	<path fill-rule="evenodd" clip-rule="evenodd" fill="#8C8375" d="M31.001,24.623c-0.01,0.765-1.108,0.923-0.982,1.764
		c-0.086-0.037-0.173-0.073-0.26-0.11c-0.104-0.093-0.209-0.186-0.314-0.279c-0.042-0.219-0.173-0.358-0.383-0.426
		c-0.08-0.122-0.161-0.243-0.241-0.365C29.328,24.191,30.185,24.479,31.001,24.623z"/>
	<path fill-rule="evenodd" clip-rule="evenodd" fill="#B9B8B3" d="M29.195,57.182c-0.004,0.283-0.025,0.52-0.263,0.544
		c-0.271,0.029-0.417-0.176-0.418-0.438c-0.002-0.215,0.116-0.382,0.346-0.408C29.135,56.849,29.157,57.068,29.195,57.182z"/>
	<path fill-rule="evenodd" clip-rule="evenodd" fill="#444C4A" d="M21.607,51.029c-0.025-0.033-0.049-0.066-0.074-0.1
		c0.033,0.024,0.065,0.05,0.098,0.075L21.607,51.029z"/>
	<path fill-rule="evenodd" clip-rule="evenodd" fill="#9A9589" d="M11.729,48.468c-0.968-0.623-1.271-1.45-0.976-2.667
		c0.142,0.072,0.283,0.145,0.425,0.217c0.003,0.201,0.007,0.401,0.011,0.602c-0.266,0.276-0.048,0.353,0.176,0.427
		c0.015,0.131,0.031,0.261,0.046,0.392c0.008,0.239,0.138,0.368,0.369,0.404C11.763,48.051,11.746,48.26,11.729,48.468z"/>
	<path fill-rule="evenodd" clip-rule="evenodd" fill="#8C8375" d="M11.178,46.018c-0.142-0.072-0.283-0.145-0.425-0.217
		c0.004-0.181,0.009-0.362,0.013-0.543c0.025-0.158,0.051-0.317,0.078-0.476c0.127,0.01,0.254,0.02,0.382,0.029
		c-0.011,0.173,0.017,0.326,0.198,0.403c0.006,0.275,0.012,0.55,0.019,0.824C11.354,46.033,11.266,46.026,11.178,46.018z"/>
	<path fill-rule="evenodd" clip-rule="evenodd" fill="#8C8375" d="M11.78,47.842c-0.231-0.036-0.361-0.165-0.369-0.404
		C11.688,47.432,11.818,47.56,11.78,47.842z"/>
	<path fill-rule="evenodd" clip-rule="evenodd" fill="#8C8375" d="M11.365,47.046c-0.224-0.074-0.442-0.15-0.176-0.427
		C11.38,46.708,11.411,46.861,11.365,47.046z"/>
	<path fill-rule="evenodd" clip-rule="evenodd" fill="#B9B8B3" d="M28.626,64.207c-1.316-0.047-1.671-0.75-1.197-2.369
		c1.414,0.521,1.413,0.521,1.198,2.072C28.613,64.007,28.625,64.108,28.626,64.207z"/>
	<path fill-rule="evenodd" clip-rule="evenodd" fill="#9A9589" d="M28.626,64.207c-0.001-0.099-0.013-0.199,0.001-0.297
		c0.215-1.552,0.216-1.552-1.198-2.072c-0.045-0.5,0.469-0.612,0.626-0.493c0.356,0.271,1.037,0.142,1.099,0.713
		c0.079,0.72,0.107,1.466-0.222,2.152C28.864,64.35,28.727,64.35,28.626,64.207z"/>
	<path fill-rule="evenodd" clip-rule="evenodd" fill="#393837" d="M28.012,31.628c-0.699-0.41-1.032-1.722-0.727-2.903
		c0.058-0.222,0.123-0.452,0.237-0.648c0.151-0.26,0.378-0.543,0.708-0.399c0.318,0.14,0.359,0.434,0.126,0.738
		c-0.074,0.097-0.158,0.303-0.113,0.357c0.834,1.021-0.14,1.896-0.214,2.838L28.012,31.628z"/>
	<path fill-rule="evenodd" clip-rule="evenodd" fill="#393837" d="M28.967,27.923c0.155,0.318,0.723,0.425,0.485,0.915
		c-0.064,0.133-0.232,0.16-0.349,0.087C28.709,28.677,28.834,28.309,28.967,27.923z"/>
	<path fill-rule="evenodd" clip-rule="evenodd" fill="#393837" d="M29.218,31.641c-0.005,0.207-0.059,0.431-0.275,0.451
		c-0.231,0.022-0.315-0.191-0.3-0.4c0.016-0.204,0.118-0.389,0.341-0.398C29.199,31.285,29.201,31.482,29.218,31.641z"/>
	<path fill-rule="evenodd" clip-rule="evenodd" fill="#393837" d="M29.752,29.435c-0.043,0.036-0.083,0.069-0.123,0.102
		c-0.039-0.062-0.078-0.123-0.118-0.185c0.053-0.02,0.111-0.065,0.153-0.052C29.703,29.312,29.723,29.385,29.752,29.435z"/>
	<path fill-rule="evenodd" clip-rule="evenodd" fill="#393837" d="M28.028,31.612c0.025,0.031,0.052,0.063,0.078,0.095
		c-0.031-0.026-0.063-0.053-0.095-0.079L28.028,31.612z"/>
	<path fill-rule="evenodd" clip-rule="evenodd" fill="#9A9589" d="M12.329,57.21c-0.176-0.53-0.167-1.001,0.265-1.446
		c0.482-0.498,0.833,0.088,1.247,0.081c0.033-0.001,0.066,0,0.098,0.008c0.325,0.076,0.178,0.281,0.112,0.449
		c-0.286,0.723,0.409,1.75-0.602,2.209c-0.341,0.154-0.838-0.046-1.112-0.431c-0.036-0.051,0.031-0.176,0.051-0.267
		c0.428,0.217,0.908,0.458,1.171-0.147c0.163-0.374,0.262-0.953-0.216-1.144C12.836,56.32,12.51,56.74,12.329,57.21z"/>
	<path fill-rule="evenodd" clip-rule="evenodd" fill="#B9B8B3" d="M12.329,57.21c0.181-0.471,0.507-0.891,1.015-0.688
		c0.478,0.19,0.378,0.77,0.216,1.144c-0.264,0.605-0.744,0.364-1.171,0.147C12.368,57.613,12.349,57.412,12.329,57.21z"/>
	<path fill-rule="evenodd" clip-rule="evenodd" fill="#B9B8B3" d="M12.858,50.858c0.267,0.023,0.314,0.211,0.312,0.417
		c-0.002,0.209-0.086,0.417-0.308,0.432c-0.292,0.02-0.384-0.212-0.37-0.461C12.505,51.028,12.645,50.895,12.858,50.858z"/>
</g>
</svg>
